<svg xmlns="http://www.w3.org/2000/svg" xmlns:xlink="http://www.w3.org/1999/xlink" width="103" height="22.69" viewBox="0 0 103 22.69"><defs><style>.cls-1{fill:url(#Áåçûìÿííûé_ãðàäèåíò_5);}.cls-2{fill:#fff;}</style><linearGradient id="Áåçûìÿííûé_ãðàäèåíò_5" y1="11.34" x2="103" y2="11.34" gradientTransform="translate(103 22.69) rotate(180)" gradientUnits="userSpaceOnUse"><stop offset="0" stop-color="#00d0ff"/><stop offset="1" stop-color="#007fd9"/></linearGradient></defs><title>Asset 166</title><g id="Layer_2" data-name="Layer 2"><g id="Layer_1-2" data-name="Layer 1"><rect class="cls-1" width="103" height="22.69" rx="11.34" ry="11.34" transform="translate(103 22.69) rotate(-180)"/><path class="cls-2" d="M14.42,15.83a2.19,2.19,0,0,1-1-.25,2,2,0,0,1-.76-.71,2.52,2.52,0,0,1-.22-.49,2.47,2.47,0,0,1-.12-.73s0-.09,0-.13a4.43,4.43,0,0,1,.11-.88,5.36,5.36,0,0,1,.44-1.2l.73.35a5.19,5.19,0,0,0-.32.79,3.38,3.38,0,0,0-.14.71q0,.12,0,.23a2.52,2.52,0,0,0,0,.44,1.33,1.33,0,0,0,.19.47,1.25,1.25,0,0,0,.48.43,1.4,1.4,0,0,0,.65.15h.31a2.61,2.61,0,0,0,.8-.1,1.12,1.12,0,0,0,.49-.3,1,1,0,0,0,.24-.46,2.56,2.56,0,0,0,.06-.6V7.3h.8v6.26q0,2.26-2.4,2.27Z"/><path class="cls-2" d="M20,13.44a4.18,4.18,0,0,1-.75-.06,1.78,1.78,0,0,1-.5-.17,1,1,0,0,1-.33-.28,1.29,1.29,0,0,1-.19-.39,2.3,2.3,0,0,1-.09-.5q0-.28,0-.61V7.3H19v4.14q0,.37,0,.61a.68.68,0,0,0,.13.36.52.52,0,0,0,.31.17,3.21,3.21,0,0,0,.61,0Z"/><path class="cls-2" d="M23.84,13.44l-.17,0-.22-.08-.3-.16-.39-.27a4,4,0,0,1-1.17.4,8,8,0,0,1-1.49.13h-.25v-.81h.25a7.82,7.82,0,0,0,1.11-.07,3.78,3.78,0,0,0,.83-.2L21.59,12l-.41-.38-.32-.31-.18-.18v-.17q0-.08,0-.18a1.27,1.27,0,0,1,0-.2,1,1,0,0,1,.08-.21,1,1,0,0,1,.14-.2,1.33,1.33,0,0,1,1-.37h1.43a1.22,1.22,0,0,1,.65.17,1,1,0,0,1,.42.48.85.85,0,0,1,.1.39,1.06,1.06,0,0,1-.07.37,1.57,1.57,0,0,1-.19.35,3.35,3.35,0,0,1-.27.33l-.3.3-.28.27.16.11.11.06.07,0h1.61v.81Zm-2.33-2.68.24.23.34.31.37.34.34.29q.23-.19.45-.39a5,5,0,0,0,.43-.48.61.61,0,0,0,.08-.14.16.16,0,0,0,0-.06.23.23,0,0,0,0-.1.37.37,0,0,0-.11-.12.36.36,0,0,0-.22-.06H21.78l-.13,0-.07,0,0,0,0,0Z"/><path class="cls-2" d="M24.59,13.44v-.81H26.5a3.54,3.54,0,0,0,.78-.07,1.52,1.52,0,0,0,.46-.17.57.57,0,0,0,.22-.23.75.75,0,0,0,.07-.23h-.9l-.29,0-.3-.07a1.62,1.62,0,0,1-.29-.12,1.68,1.68,0,0,1-.24-.17,1.12,1.12,0,0,1-.22-.26,1.44,1.44,0,0,1-.16-.36,1.72,1.72,0,0,1-.06-.49,1.83,1.83,0,0,1,.12-.66,1.53,1.53,0,0,1,.86-.88,1.63,1.63,0,0,1,.62-.12,1.5,1.5,0,0,1,.69.16,1.47,1.47,0,0,1,.53.46,2.1,2.1,0,0,1,.34.77,4.44,4.44,0,0,1,.11,1v.59a1.63,1.63,0,0,1-.17.76,1.33,1.33,0,0,1-.51.54,3.08,3.08,0,0,1-1.65.37Zm2.58-3.87a.91.91,0,0,0-.29,0,.79.79,0,0,0-.27.15.77.77,0,0,0-.19.26.88.88,0,0,0-.08.38.82.82,0,0,0,0,.24.51.51,0,0,0,.08.16l.1.1.1.06a.92.92,0,0,0,.31.11,2.46,2.46,0,0,0,.43,0H28a3.38,3.38,0,0,0-.09-.75,1.63,1.63,0,0,0-.22-.52A.67.67,0,0,0,27.16,9.57ZM26.5,7l.73-.74L28,7l-.74.74Z"/><path class="cls-2" d="M53.87,12.63v.81h-.13a1.88,1.88,0,0,1-.59-.09,1.58,1.58,0,0,1-.5-.27l-.05,0-.05,0a1.81,1.81,0,0,1-1.32.46H46.33a1.59,1.59,0,0,1-.58-.1,1.45,1.45,0,0,1-.48-.3,1.39,1.39,0,0,1-.17-.19,1.42,1.42,0,0,1-.16-.26,1.75,1.75,0,0,1-.12-.34,1.91,1.91,0,0,1,0-.43,2.8,2.8,0,0,1,0-.47q0-.26.1-.49c0-.16.07-.29.1-.4l.06-.21.78.25-.08.26-.09.36q0,.19-.08.38a2,2,0,0,0,0,.33.93.93,0,0,0,.09.45.69.69,0,0,0,.21.25.65.65,0,0,0,.25.1l.19,0h4.85a1.59,1.59,0,0,0,.5-.06A.72.72,0,0,0,52,12.4a.46.46,0,0,0,.13-.22,1,1,0,0,0,0-.23V10.46h.81v1.47a.63.63,0,0,0,.11.39.7.7,0,0,0,.24.21.81.81,0,0,0,.27.08h.31ZM48,10.14l-.68-.69.67-.7.7.7Zm1.65,0L49,9.45l.67-.7.7.7Z"/><path class="cls-2" d="M58.36,12.63v.81h-.75a2,2,0,0,1-.69-.11,1.09,1.09,0,0,1-.48-.34,1.8,1.8,0,0,1-1.33.45H53.64v-.81h1.46a1.56,1.56,0,0,0,.49-.06.71.71,0,0,0,.27-.16.43.43,0,0,0,.12-.21A.9.9,0,0,0,56,12V10.53h.81V12a.67.67,0,0,0,0,.27.63.63,0,0,0,.12.19.55.55,0,0,0,.17.12l.18.06.15,0h.86Zm-2.84,2.49-.7.7-.67-.7.68-.69Zm1.65,0-.7.7-.67-.7.68-.69Z"/><path class="cls-2" d="M62.16,13.44l-.17,0-.22-.08-.3-.16-.39-.27a4,4,0,0,1-1.17.4,8,8,0,0,1-1.49.13h-.25v-.81h.25a7.82,7.82,0,0,0,1.11-.07,3.78,3.78,0,0,0,.83-.2L59.92,12l-.41-.38-.32-.31L59,11.09v-.17q0-.08,0-.18a1.27,1.27,0,0,1,0-.2,1,1,0,0,1,.08-.21,1,1,0,0,1,.14-.2,1.33,1.33,0,0,1,1-.37h1.43a1.22,1.22,0,0,1,.65.17,1,1,0,0,1,.42.48.85.85,0,0,1,.1.39,1.06,1.06,0,0,1-.07.37,1.57,1.57,0,0,1-.19.35,3.35,3.35,0,0,1-.27.33l-.3.3-.28.27.16.11.11.06.07,0h1.61v.81Zm-2.33-2.68.24.23.34.31.37.34.34.29q.23-.19.45-.39a5,5,0,0,0,.43-.48.61.61,0,0,0,.08-.14.16.16,0,0,0,0-.06.23.23,0,0,0,0-.1.37.37,0,0,0-.11-.12.36.36,0,0,0-.22-.06H60.1l-.13,0-.07,0,0,0,0,0Z"/><path class="cls-2" d="M62.92,13.44v-.81h.75a1.57,1.57,0,0,0,.48-.06.71.71,0,0,0,.28-.15.44.44,0,0,0,.13-.2.85.85,0,0,0,0-.22V10.54h.81V12a.61.61,0,0,0,.1.37.66.66,0,0,0,.23.2l.1-.17.1-.17.35-.56q.18-.29.39-.56a6.27,6.27,0,0,1,.42-.51,3.06,3.06,0,0,1,.47-.42,2.31,2.31,0,0,1,.53-.28,1.67,1.67,0,0,1,.59-.11,1.74,1.74,0,0,1,.62.11,1.49,1.49,0,0,1,.54.35,1.76,1.76,0,0,1,.38.61,2.43,2.43,0,0,1,.14.88,1.88,1.88,0,0,1-.16.81,1.51,1.51,0,0,1-1,.84,2.18,2.18,0,0,1-.61.09H66.16a1.82,1.82,0,0,1-.59-.09,1.53,1.53,0,0,1-.49-.26L65,13a1.4,1.4,0,0,1-.54.33,2.53,2.53,0,0,1-.75.12Zm5.71-.81a1.19,1.19,0,0,0,.38-.06.79.79,0,0,0,.3-.17.78.78,0,0,0,.19-.29,1.11,1.11,0,0,0,.07-.4,1.34,1.34,0,0,0-.24-.85.78.78,0,0,0-.65-.3,1,1,0,0,0-.58.19,2.89,2.89,0,0,0-.54.5,6,6,0,0,0-.5.67l-.45.71Zm-.78-4.52.73-.74.75.75-.74.74Z"/><path class="cls-2" d="M71.95,15a5.12,5.12,0,0,0,1.09-.1,1.71,1.71,0,0,0,.7-.31,1.06,1.06,0,0,0,.33-.46,2,2,0,0,0,.11-.7h-.79a2.18,2.18,0,0,1-.61-.09,1.57,1.57,0,0,1-.56-.3,1.54,1.54,0,0,1-.41-.54,1.88,1.88,0,0,1-.16-.82,2.44,2.44,0,0,1,0-.51,2.33,2.33,0,0,1,.13-.41,1.77,1.77,0,0,1,.17-.31,2.07,2.07,0,0,1,.18-.23,1.69,1.69,0,0,1,.54-.37,1.67,1.67,0,0,1,.65-.13,1.71,1.71,0,0,1,.57.09,1.42,1.42,0,0,1,.48.28,2.23,2.23,0,0,1,.58,1.7v1.63a2.8,2.8,0,0,1-.18,1.05,1.79,1.79,0,0,1-.55.74,2.52,2.52,0,0,1-.94.44,5.57,5.57,0,0,1-1.37.14Zm1.41-4.46a.8.8,0,0,0-.66.3,1.34,1.34,0,0,0-.24.85.84.84,0,0,0,.34.77l.17.08.17,0,.15,0h.9v-.81a2.53,2.53,0,0,0,0-.53,1.49,1.49,0,0,0-.12-.36.64.64,0,0,0-.35-.33l-.17,0Z"/><path class="cls-2" d="M36,14H35.1L31.88,9.09V14H31V7.62h.85l3.23,5v-5H36Z"/><path class="cls-2" d="M39,11.17a4,4,0,0,1-1.58-.77,1.47,1.47,0,0,1-.5-1.12A1.55,1.55,0,0,1,37.5,8a2.4,2.4,0,0,1,1.57-.5,2.62,2.62,0,0,1,1.18.26,1.93,1.93,0,0,1,.8.7,1.8,1.8,0,0,1,.28,1h-.85a1.16,1.16,0,0,0-.37-.91,1.51,1.51,0,0,0-1-.33,1.54,1.54,0,0,0-1,.27.92.92,0,0,0-.35.76.82.82,0,0,0,.33.66,3.26,3.26,0,0,0,1.13.49,5.26,5.26,0,0,1,1.25.5,1.89,1.89,0,0,1,.67.63,1.62,1.62,0,0,1,.22.85,1.49,1.49,0,0,1-.61,1.24,2.59,2.59,0,0,1-1.62.47,3,3,0,0,1-1.23-.25,2.06,2.06,0,0,1-.88-.69,1.69,1.69,0,0,1-.31-1h.85a1.1,1.1,0,0,0,.43.91,1.8,1.8,0,0,0,1.15.34,1.66,1.66,0,0,0,1-.27.88.88,0,0,0,.36-.74.87.87,0,0,0-.33-.73A3.76,3.76,0,0,0,39,11.17Z"/><path class="cls-2" d="M92,8.34A4.73,4.73,0,1,1,88.67,7,4.71,4.71,0,0,1,92,8.34l1-1a6.13,6.13,0,1,0,1.8,4.34A6.11,6.11,0,0,0,93,7.35l-1,1Z"/><path class="cls-2" d="M89.77,10.5,88.24,12l-.82-.81a.65.65,0,1,0-.92.92l1.28,1.27a.65.65,0,0,0,.92,0l2-2a.65.65,0,1,0-.92-.92Z"/></g></g></svg>