<svg xmlns="http://www.w3.org/2000/svg" xmlns:xlink="http://www.w3.org/1999/xlink" width="15.3" height="15.3" viewBox="0 0 15.3 15.3"><defs><style>.cls-1,.cls-2,.cls-3,.cls-4,.cls-5,.cls-6,.cls-7,.cls-8{fill:none;stroke-miterlimit:10;stroke-width:1.3px;}.cls-1{stroke:url(#linear-gradient);}.cls-2{stroke:url(#linear-gradient-2);}.cls-3{stroke:url(#linear-gradient-3);}.cls-4{stroke:url(#linear-gradient-4);}.cls-5{stroke:url(#linear-gradient-5);}.cls-6{stroke:url(#linear-gradient-6);}.cls-7{stroke:url(#linear-gradient-7);}.cls-8{stroke:url(#linear-gradient-8);}</style><linearGradient id="linear-gradient" x1="10.89" y1="13.09" x2="15.3" y2="13.09" gradientUnits="userSpaceOnUse"><stop offset="0" stop-color="#7695f6"/><stop offset="0.34" stop-color="#7698f4"/><stop offset="0.62" stop-color="#76a3ed"/><stop offset="0.89" stop-color="#75b5e2"/><stop offset="1" stop-color="#75bedc"/></linearGradient><linearGradient id="linear-gradient-2" x1="7" y1="9.21" x2="8.3" y2="9.21" xlink:href="#linear-gradient"/><linearGradient id="linear-gradient-3" x1="5.44" y1="13.09" x2="9.86" y2="13.09" xlink:href="#linear-gradient"/><linearGradient id="linear-gradient-4" x1="0" y1="13.09" x2="4.41" y2="13.09" xlink:href="#linear-gradient"/><linearGradient id="linear-gradient-5" x1="1.56" y1="10.05" x2="13.74" y2="10.05" xlink:href="#linear-gradient"/><linearGradient id="linear-gradient-6" x1="0" y1="3.76" x2="15.3" y2="3.76" xlink:href="#linear-gradient"/><linearGradient id="linear-gradient-7" x1="6.87" y1="3.76" x2="11.54" y2="3.76" xlink:href="#linear-gradient"/><linearGradient id="linear-gradient-8" x1="3.07" y1="3.76" x2="4.45" y2="3.76" xlink:href="#linear-gradient"/></defs><title>ico_cluster_manage</title><g id="Layer_2" data-name="Layer 2"><g id="Layer_1-2" data-name="Layer 1"><path class="cls-1" d="M13.09,14.65h0a1.56,1.56,0,0,1-1.56-1.56h0a1.56,1.56,0,0,1,1.56-1.56h0a1.56,1.56,0,0,1,1.56,1.56h0A1.56,1.56,0,0,1,13.09,14.65Z"/><path class="cls-2" d="M7.65,6.87v4.67"/><path class="cls-3" d="M7.65,14.65h0a1.56,1.56,0,0,1-1.56-1.56h0a1.56,1.56,0,0,1,1.56-1.56h0a1.56,1.56,0,0,1,1.56,1.56h0A1.56,1.56,0,0,1,7.65,14.65Z"/><path class="cls-4" d="M2.21,14.65h0A1.56,1.56,0,0,1,.65,13.09h0a1.56,1.56,0,0,1,1.56-1.56h0a1.56,1.56,0,0,1,1.56,1.56h0A1.56,1.56,0,0,1,2.21,14.65Z"/><path class="cls-5" d="M2.21,11.54V10A.78.78,0,0,1,3,9.21h9.33a.78.78,0,0,1,.78.78v1.56"/><path class="cls-6" d="M11.54.65H3.76A3.11,3.11,0,0,0,.65,3.76h0A3.11,3.11,0,0,0,3.76,6.87h7.78a3.11,3.11,0,0,0,3.11-3.11h0A3.11,3.11,0,0,0,11.54.65Z"/><path class="cls-7" d="M6.87,3.76h4.67"/><path class="cls-8" d="M3.79,3.73a0,0,0,1,1-.06,0,0,0,0,0,1,.06,0"/></g></g></svg>