<svg xmlns="http://www.w3.org/2000/svg" width="43.25" height="43.25" viewBox="0 0 43.25 43.25"><title>ico_doc</title><g id="b77d528c-c9ba-4d46-a3fa-731139fcb4e8" data-name="Layer 2"><g id="9c836436-c282-4532-9dc6-6dcea2551153" data-name="Layer 1"><path d="M28.26,0H15A15,15,0,0,0,0,15V28.26a15,15,0,0,0,15,15H28.26a15,15,0,0,0,15-15V15a15,15,0,0,0-15-15" style="fill:#e7faf2"/><path d="M21.51,23.18l1.33-.74a3.13,3.13,0,0,0,1.61-2.74v-.07a3.35,3.35,0,0,0-3.34-3.14h-.19l.06,1,0-1h-.14a3.39,3.39,0,0,0-3.31,2.63,1.05,1.05,0,1,0,2,.47,1.29,1.29,0,0,1,1.26-1h.23a1.25,1.25,0,0,1,1.24,1.17l1-.07H22.35a1,1,0,0,1-.53.9l-1.33.74a1.05,1.05,0,1,0,1,1.84Z" style="fill:#42d697"/><path d="M21,12.55v1a7.95,7.95,0,1,1-5.62,2.33A7.92,7.92,0,0,1,21,13.6V11.5a10.05,10.05,0,1,0,10,10.05A10.05,10.05,0,0,0,21,11.5Z" style="fill:#42d697"/><path d="M20.36,24.71l-.1.1.74.74.74-.74-.1-.1-.74.74.74.74.1-.1L21,25.35l-.74.74.1.1.74-.74H20.05a1.05,1.05,0,1,0,2.1,0h0a1,1,0,0,0-.31-.74l-.1-.1a1.05,1.05,0,0,0-1.48,0l-.1.1a1,1,0,0,0,0,1.48l.1.1a1,1,0,0,0,1.48,0l.1-.1a1,1,0,0,0-1.48-1.49Z" style="fill:#42d697"/></g></g></svg>