<svg xmlns="http://www.w3.org/2000/svg" width="76.03" height="66.96" viewBox="0 0 76.03 66.96"><title>ico_server</title><g id="52c0b3e9-828a-40f2-9a22-83ce1150da0f" data-name="Layer 2"><g id="380729ad-735c-41cd-b50d-7913d2fdf92e" data-name="Layer 1"><path d="M60.68,1.75V0H15.35A14.42,14.42,0,0,0,4.4,5.26,19,19,0,0,0,0,17.62,19,19,0,0,0,4.4,30a14.42,14.42,0,0,0,10.95,5.26H60.68A14.42,14.42,0,0,0,71.62,30,19,19,0,0,0,76,17.62a19,19,0,0,0-4.4-12.36A14.42,14.42,0,0,0,60.68,0V3.5a10.91,10.91,0,0,1,8.29,4,15.49,15.49,0,0,1,3.56,10.08A15.49,15.49,0,0,1,69,27.7a10.91,10.91,0,0,1-8.29,4H15.35a10.91,10.91,0,0,1-8.29-4A15.49,15.49,0,0,1,3.5,17.62,15.49,15.49,0,0,1,7.06,7.54a10.91,10.91,0,0,1,8.29-4H60.68Z" style="fill:#323232"/><path d="M60.68,33.48V31.73H15.35A14.42,14.42,0,0,0,4.4,37a19.54,19.54,0,0,0,0,24.72A14.42,14.42,0,0,0,15.35,67H60.68a14.42,14.42,0,0,0,10.94-5.26,19.54,19.54,0,0,0,0-24.72,14.42,14.42,0,0,0-10.94-5.26v3.5a10.91,10.91,0,0,1,8.29,4,16,16,0,0,1,0,20.16,10.91,10.91,0,0,1-8.29,4H15.35a10.91,10.91,0,0,1-8.29-4,16,16,0,0,1,0-20.16,10.91,10.91,0,0,1,8.29-4H60.68Z" style="fill:#323232"/><path d="M27.42,19.37h22a1.75,1.75,0,1,0,0-3.5h-22a1.75,1.75,0,1,0,0,3.5" style="fill:#323232"/><path d="M16.44,18.74l1.3-1.12H16a1.71,1.71,0,0,0,.42,1.12l1.3-1.12h0l-1.3-1.11A1.71,1.71,0,0,0,16,17.62h1.71l-1.3-1.11h0l1.35,1.17V15.89a1.8,1.8,0,0,0-1.35.61l1.35,1.17v0l1.36-1.17a1.8,1.8,0,0,0-1.36-.62v1.78l1.36-1.17h0l-1.3,1.11h1.71a1.71,1.71,0,0,0-.41-1.11l-1.3,1.11h0l1.3,1.12a1.71,1.71,0,0,0,.42-1.12H17.85l1.3,1.12h0l-1.35-1.16v1.78a1.79,1.79,0,0,0,1.35-.62l-1.35-1.16v0L16.4,18.69a1.81,1.81,0,0,0,1.39.66V17.56L16.4,18.69a2,2,0,0,0,3.1-2.53,2.2,2.2,0,0,0-3.39,0h0a2.29,2.29,0,0,0,0,3h0a2.2,2.2,0,0,0,3.35,0h0a2.29,2.29,0,0,0,0-3,2,2,0,1,0-3,2.61Z" style="fill:#323232"/><path d="M27.42,51.1h22a1.75,1.75,0,0,0,0-3.5h-22a1.75,1.75,0,1,0,0,3.5" style="fill:#323232"/><path d="M16.44,50.47l1.3-1.12H16a1.71,1.71,0,0,0,.42,1.12l1.3-1.12h0l-1.3-1.11A1.71,1.71,0,0,0,16,49.35h1.71l-1.3-1.11h0l1.35,1.17V47.62a1.8,1.8,0,0,0-1.35.61l1.35,1.17v0l1.36-1.17a1.8,1.8,0,0,0-1.36-.62V49.4l1.36-1.17h0l-1.3,1.11h1.71a1.71,1.71,0,0,0-.41-1.11l-1.3,1.11h0l1.3,1.12a1.71,1.71,0,0,0,.42-1.12H17.85l1.3,1.12h0L17.79,49.3v1.78a1.79,1.79,0,0,0,1.35-.62L17.79,49.3v0L16.4,50.43a1.81,1.81,0,0,0,1.39.66V49.29L16.4,50.43a2,2,0,1,0,3.1-2.53,2.2,2.2,0,0,0-3.39,0h0a2.29,2.29,0,0,0,0,3h0a2.2,2.2,0,0,0,3.35,0h0a2.29,2.29,0,0,0,0-3,2,2,0,1,0-3,2.61Z" style="fill:#323232"/></g></g></svg>