<svg xmlns="http://www.w3.org/2000/svg" width="13.9" height="13.73" viewBox="0 0 13.9 13.73"><title>ico_search_box</title><g id="737c264b-29a7-40cc-8d4d-393657a5547e" data-name="Layer 2"><g id="8f45499d-e3ad-4d4a-a1eb-f08c070a307d" data-name="Layer 1"><path d="M13.59,11.93,10.72,9.1a5.6,5.6,0,0,0,1-3.29,5.64,5.64,0,0,0-.46-2.26A5.8,5.8,0,0,0,10,1.7,5.88,5.88,0,0,0,8.16.46,5.93,5.93,0,0,0,3.6.46,5.88,5.88,0,0,0,1.72,1.7,5.81,5.81,0,0,0,.46,3.55a5.72,5.72,0,0,0,0,4.51A5.8,5.8,0,0,0,1.72,9.92,5.88,5.88,0,0,0,3.6,11.16a5.84,5.84,0,0,0,2.28.46,5.77,5.77,0,0,0,3.33-1l2.86,2.82a1,1,0,0,0,.75.31,1,1,0,0,0,.75-.31,1,1,0,0,0,0-1.48ZM8.52,8.42A3.62,3.62,0,0,1,5.88,9.5,3.63,3.63,0,0,1,3.24,8.42a3.54,3.54,0,0,1-1.1-2.61A3.54,3.54,0,0,1,3.24,3.2,3.62,3.62,0,0,1,5.88,2.11,3.63,3.63,0,0,1,8.52,3.2a3.54,3.54,0,0,1,1.1,2.61,3.54,3.54,0,0,1-1.1,2.61Zm0,0" style="fill:#6596ef"/></g></g></svg>