<svg xmlns="http://www.w3.org/2000/svg" width="55.06" height="69.79" viewBox="0 0 55.06 69.79"><defs><style>.\38 1b014f6-2d7e-4b9d-8467-3fcc8a2c1f9e,.cfd29da2-2ecf-483d-b566-1ac2fdd216d1{fill:none;stroke:#323232;stroke-linecap:round;stroke-linejoin:round;}.cfd29da2-2ecf-483d-b566-1ac2fdd216d1{stroke-width:3.5px;}.\38 1b014f6-2d7e-4b9d-8467-3fcc8a2c1f9e{stroke-width:3px;}</style></defs><title>ico_file_1</title><g id="5f4c924b-662c-450b-a8d6-c5de3ba9a471" data-name="Layer 2"><g id="af85b46e-a86a-4cfb-8f9a-f3ac41605424" data-name="Layer 1"><path class="cfd29da2-2ecf-483d-b566-1ac2fdd216d1" d="M51.15,14.32,40.74,3.91a7.37,7.37,0,0,0-5.21-2.16H9.12A7.36,7.36,0,0,0,1.75,9.12V60.68A7.36,7.36,0,0,0,9.12,68H45.94a7.36,7.36,0,0,0,7.37-7.37V19.53A7.37,7.37,0,0,0,51.15,14.32Z"/><path class="81b014f6-2d7e-4b9d-8467-3fcc8a2c1f9e" d="M18.22,30H12A2.07,2.07,0,0,1,10,28v-6.2A2.07,2.07,0,0,1,12,19.69h6.2a2.07,2.07,0,0,1,2.07,2.07V28A2.07,2.07,0,0,1,18.22,30Z"/><path class="81b014f6-2d7e-4b9d-8467-3fcc8a2c1f9e" d="M28.55,19.69H43"/><path class="81b014f6-2d7e-4b9d-8467-3fcc8a2c1f9e" d="M28.55,30H43"/><path class="81b014f6-2d7e-4b9d-8467-3fcc8a2c1f9e" d="M10,40.35H43"/><path class="81b014f6-2d7e-4b9d-8467-3fcc8a2c1f9e" d="M10,50.69H43"/></g></g></svg>