<svg xmlns="http://www.w3.org/2000/svg" width="43.25" height="43.25" viewBox="0 0 43.25 43.25"><title>ico_home</title><g id="7c68ab30-55ca-4898-bf41-76294f3164c4" data-name="Layer 2"><g id="cb17b047-21b2-4d22-8bb7-40184e5064a6" data-name="Layer 1"><path d="M28.26,0H15A15,15,0,0,0,0,15V28.26a15,15,0,0,0,15,15H28.26a15,15,0,0,0,15-15V15a15,15,0,0,0-15-15" style="fill:#e9f6ff"/><path d="M19,29.67h.8V24.89a1.86,1.86,0,1,1,3.71,0v4.78a.8.8,0,0,0,.8.8h5.84a.8.8,0,0,0,.8-.8V20.55a2.93,2.93,0,0,0-.86-2.07L23,11.36a1.86,1.86,0,0,0-2.64,0h0L13.2,18.48a2.93,2.93,0,0,0-.86,2.07v9.12a.8.8,0,0,0,.8.8H19a.8.8,0,0,0,.8-.8H19v-.8h-5V20.55a1.33,1.33,0,0,1,.39-.94l7.13-7.13h0l.18-.08.19.08L29,19.62a1.33,1.33,0,0,1,.39.94v8.32H25.1v-4a3.46,3.46,0,1,0-6.91,0v4.78H19v0Z" style="fill:#52b8ff"/></g></g></svg>