<svg xmlns="http://www.w3.org/2000/svg" width="17.98" height="17" viewBox="0 0 17.98 17" wtx-context="9EF9A7D5-A487-4EE5-A34D-B1984B85B747"><title>ico_phone_call</title><g id="b064e68f-31ab-4514-a57b-07344a0fda9a" data-name="Layer 2"><g id="b2c84a48-591c-44aa-821b-01a31ea106e5" data-name="Layer 1"><path d="M13.42,10.53A1.67,1.67,0,0,0,12.21,10a1.73,1.73,0,0,0-1.23.55L9.85,11.66l-.28-.14-.36-.19a12.32,12.32,0,0,1-3-2.69,7.27,7.27,0,0,1-1-1.53c.29-.27.57-.55.83-.82l.3-.3a1.65,1.65,0,0,0,0-2.48l-1-1-.33-.34c-.22-.22-.44-.45-.67-.67A1.7,1.7,0,0,0,3.24,1,1.76,1.76,0,0,0,2,1.51H2L.79,2.75A2.62,2.62,0,0,0,0,4.42,6.29,6.29,0,0,0,.47,7.08a15.45,15.45,0,0,0,2.74,4.58,16.88,16.88,0,0,0,5.62,4.4A8.76,8.76,0,0,0,12,17h.23a2.7,2.7,0,0,0,2.07-.89v0a8.16,8.16,0,0,1,.63-.65L15.4,15a1.79,1.79,0,0,0,.54-1.24,1.72,1.72,0,0,0-.55-1.23Zm1.28,3.78h0c-.14.15-.28.29-.44.44a9.43,9.43,0,0,0-.69.72,1.73,1.73,0,0,1-1.35.57h-.17a7.78,7.78,0,0,1-2.8-.84A15.94,15.94,0,0,1,4,11a14.57,14.57,0,0,1-2.58-4.3A5.12,5.12,0,0,1,1,4.5a1.65,1.65,0,0,1,.5-1.07L2.7,2.21A.82.82,0,0,1,3.25,2a.77.77,0,0,1,.52.25h0c.22.2.43.42.65.64l.34.35,1,1a.68.68,0,0,1,0,1.11l-.31.31c-.3.31-.59.6-.9.88l0,0a.73.73,0,0,0-.19.81v0A7.86,7.86,0,0,0,5.5,9.24h0a13.17,13.17,0,0,0,3.19,2.9,4.9,4.9,0,0,0,.44.24l.36.19,0,0a.78.78,0,0,0,.36.09.77.77,0,0,0,.55-.25l1.23-1.23a.81.81,0,0,1,.54-.27.73.73,0,0,1,.52.26h0l2,2A.71.71,0,0,1,14.71,14.31Z" style="fill:#fff"/><path d="M10.17,4A4.62,4.62,0,0,1,13.93,7.8a.48.48,0,0,0,.48.4h.08a.48.48,0,0,0,.4-.56,5.58,5.58,0,0,0-4.55-4.55.49.49,0,0,0-.56.39A.48.48,0,0,0,10.17,4Z" style="fill:#fff"/><path d="M18,7.5A9.19,9.19,0,0,0,10.48,0a.48.48,0,1,0-.16,1A8.21,8.21,0,0,1,17,7.66a.48.48,0,0,0,.48.4h.08A.48.48,0,0,0,18,7.5Z" style="fill:#fff"/></g></g></svg>