<svg xmlns="http://www.w3.org/2000/svg" width="17.95" height="17.95" viewBox="0 0 17.95 17.95"><title>ico_disabled_setting</title><g id="a2bedb71-2995-4800-ba15-f2f758b3655a" data-name="Layer 2"><g id="5210333d-6809-4d03-badf-cbad68228633" data-name="Layer 1"><g style="opacity:0.25"><path d="M10.14,7.81a1.64,1.64,0,1,1-2.33,0,1.65,1.65,0,0,1,2.33,0" style="fill:none;stroke:#3f567a;stroke-miterlimit:10;stroke-width:1.5px"/><path d="M4.86,9a4.35,4.35,0,0,0,0,.54l-1,.76a.55.55,0,0,0-.14.7l.86,1.49a.55.55,0,0,0,.68.23l.87-.35a.56.56,0,0,1,.52.06,4.32,4.32,0,0,0,.42.24.56.56,0,0,1,.31.42l.13.92a.55.55,0,0,0,.54.47H9.83a.55.55,0,0,0,.54-.47l.13-.92a.56.56,0,0,1,.31-.42,4,4,0,0,0,.41-.24.56.56,0,0,1,.52-.06l.86.35a.55.55,0,0,0,.68-.23L14.15,11a.55.55,0,0,0-.14-.7l-1-.76a3.78,3.78,0,0,0,0-1.07l1-.76a.55.55,0,0,0,.14-.7l-.86-1.49a.55.55,0,0,0-.68-.23l-.86.35a.56.56,0,0,1-.52-.06,4,4,0,0,0-.41-.24.56.56,0,0,1-.31-.42L10.37,4a.55.55,0,0,0-.54-.47H8.12A.55.55,0,0,0,7.57,4l-.13.92a.56.56,0,0,1-.31.42,4.32,4.32,0,0,0-.42.24.56.56,0,0,1-.52.06l-.87-.35a.55.55,0,0,0-.68.23L3.8,7a.55.55,0,0,0,.14.7l1,.76A4.35,4.35,0,0,0,4.86,9Z" style="fill:none;stroke:#3f567a;stroke-miterlimit:10;stroke-width:1.5px"/><circle cx="8.97" cy="8.97" r="8.22" style="fill:none;stroke:#3f567a;stroke-miterlimit:10;stroke-width:1.5px"/></g></g></g></svg>