<svg xmlns="http://www.w3.org/2000/svg" width="127.36" height="23.78" viewBox="0 0 127.36 23.78"><title>mizbancloud_logo_wsp</title><g id="1d34837c-1839-4a36-b4be-d61967c60876" data-name="Layer 2"><g id="1123385c-514a-49fd-bef5-b02642dd44c3" data-name="Layer 1"><path d="M100.56,4.13A2,2,0,1,0,98.8,2.36,2,2,0,0,0,100.56,4.13Z" style="fill:#212121"/><path d="M73.09,4.13a2,2,0,1,0-1.76-1.76A2,2,0,0,0,73.09,4.13Z" style="fill:#212121"/><path d="M89.27,19.72A2,2,0,1,0,91,21.48,2,2,0,0,0,89.27,19.72Z" style="fill:#212121"/><path d="M94.84,12.26l.08-1.08,0-4.55,0,0H91.57l0,0V11.1a2.54,2.54,0,0,1-2.46,2.54,2.46,2.46,0,0,1-2.46-2.46V0l0,0H83.29l0,0V11.18a5.68,5.68,0,0,0,.12,1.17c0,.19.09.38.14.56A5.7,5.7,0,0,0,84,14a5.8,5.8,0,0,0,.39.61,5.86,5.86,0,0,0,.61.73,5.67,5.67,0,0,0,.73.61,6.39,6.39,0,0,0,.61.39,5.88,5.88,0,0,0,1,.44l.56.14a5.92,5.92,0,0,0,1.17.12,6.13,6.13,0,0,0,4.45-1.77,4.9,4.9,0,0,0,1.3-3Z" style="fill:#212121"/><path d="M81.31,6.4H77.48v6c0,1.88-2.08,3.06-4.09,3.09-.82,0-2.7,0-3.59-.88a2.91,2.91,0,0,1-.86-2.12V6.37l0,0H65.08l0,0v5.58a7,7,0,0,0,.14,1.43c0,.23.11.46.17.68a6.82,6.82,0,0,0,1,2,7.09,7.09,0,0,0,.74.89,6.81,6.81,0,0,0,.88.75,7.64,7.64,0,0,0,.73.47,7,7,0,0,0,1.25.54c.22.07.44.13.67.18a15.3,15.3,0,0,0,2.4.34c2,0,5.39-1,6.66-2.35a6,6,0,0,0,1.55-3.61h0l.09-1.31,0-5.53Z" style="fill:#212121"/><path d="M108.09,20.1c-2.88,0-2.13,0-4.26,0a1.7,1.7,0,0,0-1.72,1.7v0a1.7,1.7,0,0,0,1.68,1.69c2.09,0,1.32,0,4.31,0a1.7,1.7,0,0,0,0-3.39Z" style="fill:#212121"/><path d="M5.75,6.75H0v3.76H5.68a2.8,2.8,0,0,1,2.82,2.57A2.75,2.75,0,0,1,5.75,16H0v3.77H5.75a6.39,6.39,0,0,0,1.31-.13c.21,0,.42-.1.62-.16A6.38,6.38,0,0,0,8.86,19a6.59,6.59,0,0,0,.68-.43,6.57,6.57,0,0,0,.82-.69,6.31,6.31,0,0,0,.69-.82,7.36,7.36,0,0,0,.43-.68A6.55,6.55,0,0,0,12,15.21c.06-.2.12-.41.16-.63a6.65,6.65,0,0,0,.13-1.31A6.52,6.52,0,0,0,5.75,6.75Z" style="fill:#212121"/><path d="M59.66,8.14A4.85,4.85,0,0,0,58,6.92a5.2,5.2,0,0,0-2.26-.46H45.84l5-6.31h-4.6L43.62,3.69,43,4.43a8.11,8.11,0,0,0-.53.73,4.55,4.55,0,0,0-.41.8,4.16,4.16,0,0,0-.24.94A3,3,0,0,0,42,8.27a2.5,2.5,0,0,0,.65,1,2.68,2.68,0,0,0,1.05.59A3.85,3.85,0,0,0,45,10H55.74a1.92,1.92,0,0,1,1,.27,1.85,1.85,0,0,1,.65.67,1.89,1.89,0,0,1,.24.87,1.7,1.7,0,0,1-.83,1.54,2,2,0,0,1-1.1.27l-10.84,0-5.28,0a1.53,1.53,0,0,1-.49-.1,1.88,1.88,0,0,1-1-1.79c0-.56,0-11,0-11.56l-1.79,0-1.89,0c0,.57.05,11,0,11.56a1.88,1.88,0,0,1-1,1.79,1.53,1.53,0,0,1-.49.1c-.86,0-11.58.07-15.47,0v-3.3a2.16,2.16,0,0,1,2.17-2.16,2.25,2.25,0,0,1,2.17,2.47v1.59h3V10.64a5.2,5.2,0,0,0-5.14-5.42,5.27,5.27,0,0,0-1,.1l-.49.13a5.18,5.18,0,0,0-.92.39,5.8,5.8,0,0,0-.54.34,5,5,0,0,0-.65.54A5.62,5.62,0,0,0,15.2,7.9a5,5,0,0,0-.39.92c0,.16-.09.32-.13.49a5,5,0,0,0-.11,1v6.09h0V17c.79,0,4,0,7.23,0,0,.58,0,1.1,0,1.31a1.29,1.29,0,0,1-.63,1.19,1.76,1.76,0,0,1-.84.24c-1.18.06-4.74.06-5.75,0v3.14c1.29.07,5.33.07,6.61,0a3.87,3.87,0,0,0,2.91-1.29c.67-.88.76-2.84.75-4.54,2.24,0,8.48,0,9-.08a4.76,4.76,0,0,0,2.53-1.09,5.21,5.21,0,0,0,2.41,1.09c2.39.55,3.53.29,5.91.3h0l11.08-.06A5.15,5.15,0,0,0,58,16.72a4.87,4.87,0,0,0,1.61-1.22,5.14,5.14,0,0,0,1-1.72,6.1,6.1,0,0,0,.33-2,6.23,6.23,0,0,0-.32-2A5,5,0,0,0,59.66,8.14Z" style="fill:#212121"/><path d="M127.26,10.22c0-.17-.08-.33-.13-.49a5.18,5.18,0,0,0-.39-.92,5.82,5.82,0,0,0-.34-.54,5,5,0,0,0-.54-.65,5.63,5.63,0,0,0-1.18-.88,5,5,0,0,0-.92-.39l-.49-.13a5,5,0,0,0-1-.11h-6.68c0,.79,0,3.44,0,6.68l-.48.27a3.5,3.5,0,0,1-2.34.43,2.79,2.79,0,0,1-1.59-.84,1,1,0,0,1-.22-.64l0-2.94c0-1,0-2.38,0-2.63h-3.38c0,.4,0,1.69,0,2.62h0V10h0v1a2.52,2.52,0,0,1-2,2.5,2.46,2.46,0,0,1-2.8-1.62h0a1.18,1.18,0,0,1-.06-.38c0-1.67,0-3.44,0-4.84h-3.4c0,2.11.1,5.14-.08,7.25a2.29,2.29,0,0,1-1.9,1.75,19.06,19.06,0,0,1-2,0A9.63,9.63,0,0,1,94.51,19a19.92,19.92,0,0,0,2.89,0,5.72,5.72,0,0,0,4.7-3l.25.15a5.88,5.88,0,0,0,1,.44l.56.14a5.92,5.92,0,0,0,1.17.12,7.12,7.12,0,0,0,4.15-1.51l.78.43a5.71,5.71,0,0,0,5.59.43v1.31a.22.22,0,0,0,.22.22h2.85a.22.22,0,0,0,.22-.22c0-.37,0-.75,0-1.12h3a5.2,5.2,0,0,0,5.42-5.14A5.27,5.27,0,0,0,127.26,10.22Zm-5.32,3.21h-3c0-1.73,0-3.3,0-4.35h3.3a2.16,2.16,0,0,1,2.16,2.17A2.25,2.25,0,0,1,121.93,13.43Z" style="fill:#212121"/></g></g></svg>