<?xml version="1.0" encoding="utf-8"?>
<!-- Generator: Adobe Illustrator 26.5.0, SVG Export Plug-In . SVG Version: 6.00 Build 0)  -->
<svg version="1.1" id="Layer_1" xmlns="http://www.w3.org/2000/svg" xmlns:xlink="http://www.w3.org/1999/xlink" x="0px" y="0px"
	 viewBox="0 0 62.8 14" style="enable-background:new 0 0 62.8 14;" xml:space="preserve">
<style type="text/css">
	.st0{fill:#F26C32;}
</style>
<g>
	<path class="st0" d="M5.3,3.5h3.9L8.6,5.8C8.5,6.2,8.3,6.4,8.1,6.6C7.8,6.8,7.5,6.9,7.2,6.9H5.4C4.9,6.9,4.6,7,4.3,7.3
		c-0.3,0.2-0.5,0.6-0.7,1c-0.1,0.3-0.1,0.6,0,0.9c0.1,0.3,0.2,0.5,0.3,0.7c0.2,0.2,0.4,0.4,0.6,0.5c0.3,0.1,0.5,0.2,0.8,0.2h1.1
		c0.2,0,0.4,0.1,0.5,0.3c0.1,0.2,0.2,0.4,0.1,0.6L6.4,14H5.2c-0.8,0-1.6-0.2-2.3-0.5c-0.7-0.4-1.3-0.8-1.7-1.4
		c-0.5-0.6-0.8-1.3-0.9-2.1C0,9.1,0,8.4,0.3,7.5l0.1-0.3C0.5,6.7,0.7,6.2,1,5.8c0.3-0.5,0.7-0.9,1.1-1.2C2.6,4.2,3.1,4,3.6,3.8
		C4.1,3.6,4.7,3.5,5.3,3.5z M7.2,14l3.4-12.8c0.1-0.3,0.3-0.6,0.5-0.8c0.3-0.2,0.5-0.3,0.9-0.3h3.6c0.8,0,1.6,0.2,2.3,0.5
		c0.7,0.4,1.3,0.8,1.7,1.4c0.5,0.6,0.8,1.3,1,2.1c0.2,0.8,0.2,1.6-0.1,2.4l-0.1,0.3c-0.2,0.6-0.4,1.1-0.7,1.5
		c-0.3,0.5-0.7,0.9-1.1,1.2c-0.4,0.3-0.9,0.6-1.4,0.8c-0.5,0.2-1.1,0.3-1.7,0.3h-3.1l0.6-2.3c0.1-0.3,0.3-0.6,0.5-0.8
		c0.3-0.2,0.5-0.3,0.9-0.3h1c0.4,0,0.8-0.1,1.1-0.4c0.3-0.3,0.5-0.6,0.7-1c0.1-0.3,0.1-0.6,0-0.8c-0.1-0.3-0.2-0.5-0.3-0.7
		c-0.2-0.2-0.4-0.4-0.6-0.5c-0.3-0.1-0.5-0.2-0.8-0.2h-1.9L11,12.9c-0.1,0.3-0.3,0.6-0.5,0.8C10.3,13.9,10,14,9.7,14L7.2,14L7.2,14z
		 M28.9,7.1l0.1-0.2c0-0.1,0-0.2,0-0.2c-0.1-0.1-0.1-0.1-0.2-0.1H23c-0.2,0-0.5-0.1-0.7-0.2C22.2,6.4,22,6.2,21.9,6
		c-0.1-0.2-0.2-0.4-0.3-0.6c0-0.2,0-0.4,0-0.7L22,3.5h7.6c0.5,0,0.9,0.1,1.3,0.3c0.4,0.2,0.7,0.5,1,0.8c0.3,0.3,0.4,0.7,0.5,1.2
		c0.1,0.4,0.1,0.9,0,1.3L31,12.2c-0.1,0.5-0.4,0.9-0.8,1.3c-0.4,0.3-0.9,0.5-1.4,0.5l-5.6,0c-0.5,0-1-0.1-1.4-0.3
		c-0.4-0.2-0.8-0.5-1-0.8c-0.3-0.4-0.5-0.8-0.6-1.2c-0.1-0.5-0.1-0.9,0-1.4l0.1-0.3c0.1-0.3,0.2-0.6,0.4-0.9
		c0.2-0.3,0.4-0.5,0.7-0.7c0.3-0.2,0.5-0.4,0.8-0.5c0.3-0.1,0.6-0.2,1-0.2h4.7L27.6,9c-0.1,0.3-0.3,0.6-0.5,0.8
		c-0.3,0.2-0.5,0.3-0.9,0.3h-2.1c-0.2,0-0.3,0.1-0.4,0.3c0,0.1,0,0.2,0.1,0.3c0.1,0.1,0.2,0.1,0.3,0.1h3.4c0.1,0,0.2,0,0.3-0.1
		c0.1-0.1,0.2-0.2,0.2-0.3l0-0.1L28.9,7.1L28.9,7.1z M39,3.5c0.8,0,1.6,0.2,2.3,0.5C42,4.4,42.6,4.9,43,5.5c0.5,0.6,0.8,1.3,0.9,2.1
		c0.2,0.8,0.1,1.6-0.1,2.4L43,13.2c-0.1,0.2-0.2,0.4-0.4,0.6C42.5,13.9,42.3,14,42,14h-1.9c-0.2,0-0.4-0.1-0.5-0.3
		c-0.1-0.2-0.2-0.4-0.1-0.6l1-3.9c0.1-0.3,0.1-0.6,0-0.8c-0.1-0.3-0.2-0.5-0.3-0.7c-0.2-0.2-0.4-0.4-0.6-0.5
		c-0.3-0.1-0.5-0.2-0.8-0.2h-1.9l-1.7,6.3c-0.1,0.2-0.2,0.4-0.4,0.6c-0.2,0.1-0.4,0.2-0.7,0.2h-1.9c-0.2,0-0.4-0.1-0.5-0.3
		c-0.1-0.2-0.2-0.4-0.1-0.6l2.6-9.6L39,3.5L39,3.5z M49.2,6.8c-0.1,0.1-0.2,0.3-0.3,0.4l-0.8,2.9c0,0.2,0,0.3,0.1,0.5
		c0.1,0.1,0.2,0.2,0.4,0.2h7.2l-0.6,2.1c-0.1,0.3-0.3,0.6-0.5,0.8c-0.3,0.2-0.5,0.3-0.9,0.3h-6.5c-0.5,0-0.9-0.1-1.3-0.3
		c-0.4-0.2-0.7-0.5-1-0.8c-0.3-0.3-0.4-0.7-0.5-1.2c-0.1-0.4-0.1-0.9,0-1.3l1.1-3.9c0.1-0.4,0.3-0.8,0.5-1.2
		c0.2-0.4,0.5-0.7,0.9-0.9c0.3-0.3,0.7-0.5,1.1-0.6c0.4-0.1,0.8-0.2,1.3-0.2H54c0.5,0,0.9,0.1,1.3,0.3c0.4,0.2,0.7,0.5,1,0.8
		c0.3,0.3,0.4,0.7,0.5,1.2c0.1,0.4,0.1,0.9,0,1.3l-0.3,1.2c-0.1,0.5-0.4,0.9-0.8,1.3c-0.4,0.3-0.9,0.5-1.4,0.5H49l0.3-1.3
		c0.1-0.3,0.2-0.6,0.5-0.8c0.3-0.2,0.5-0.3,0.9-0.3h2.1c0.2,0,0.3-0.1,0.4-0.3l0.1-0.3c0-0.1,0-0.2-0.1-0.3
		c-0.1-0.1-0.2-0.2-0.3-0.2h-3.2C49.5,6.6,49.3,6.7,49.2,6.8L49.2,6.8z M55.8,14l3.5-13.1c0.1-0.2,0.2-0.4,0.4-0.6
		c0.2-0.1,0.4-0.2,0.7-0.2h1.9c0.2,0,0.4,0.1,0.5,0.3c0.1,0.2,0.2,0.4,0.1,0.6l-2.6,9.7c-0.1,0.5-0.3,1-0.6,1.4
		c-0.3,0.4-0.6,0.8-1,1.1c-0.4,0.3-0.8,0.5-1.3,0.7C56.8,13.9,56.3,14,55.8,14L55.8,14z"/>
</g>
</svg>
