<?xml version="1.0" encoding="utf-8"?>
<!-- Generator: Adobe Illustrator 26.5.0, SVG Export Plug-In . SVG Version: 6.00 Build 0)  -->
<svg version="1.1" id="Layer_1" xmlns="http://www.w3.org/2000/svg" xmlns:xlink="http://www.w3.org/1999/xlink" x="0px" y="0px"
	 viewBox="0 0 48.3 20" style="enable-background:new 0 0 48.3 20;" xml:space="preserve">
<style type="text/css">
	.st0{fill:#54BBE5;}
	.st1{fill:none;stroke:#54BAE4;stroke-width:7;stroke-miterlimit:10;}
</style>
<g>
	<g>
		<g>
			<g>
				<path d="M1.8,19.9H0.4V4.8c1.2-0.4,2.4-0.6,3.6-0.6c0.8,0,1.6,0.1,2.3,0.4C6.9,4.9,7.5,5.2,8,5.7c0.5,0.5,0.9,1,1.1,1.7
					C9.4,8,9.6,8.7,9.6,9.5c0,0.9-0.2,1.7-0.5,2.4c-0.3,0.7-0.7,1.2-1.3,1.6C7.3,14,6.7,14.3,6,14.5c-0.7,0.2-1.3,0.3-2,0.3
					c-0.4,0-0.7,0-1.1-0.1c-0.4-0.1-0.7-0.1-1.1-0.2L1.8,19.9z M7.9,9.5c0-1.2-0.3-2.2-1-2.9C6.2,5.8,5.3,5.4,4.1,5.4
					c-0.4,0-0.8,0-1.1,0.1c-0.4,0-0.7,0.1-1.1,0.3v7.4c0.3,0.1,0.7,0.2,1,0.3c0.4,0.1,0.7,0.1,1,0.1c1.2,0,2.2-0.4,2.9-1.1
					C7.6,11.8,7.9,10.8,7.9,9.5z"/>
				<path d="M12.5,14.7V0.1h1.5v14.6H12.5z"/>
				<path d="M25.8,13.2c-0.5,0.5-1,0.9-1.7,1.2c-0.6,0.3-1.4,0.4-2.3,0.4c-0.8,0-1.6-0.1-2.2-0.4c-0.6-0.3-1.1-0.7-1.6-1.2
					c-0.4-0.5-0.7-1-0.9-1.7c-0.2-0.6-0.3-1.3-0.3-2c0-0.9,0.1-1.7,0.4-2.4c0.2-0.7,0.6-1.2,1-1.7c0.4-0.4,0.9-0.8,1.5-1
					c0.6-0.2,1.2-0.3,1.8-0.3c1.5,0,2.7,0.5,3.5,1.4c0.8,0.9,1.2,2.3,1.1,4.1h-7.8c0,1.2,0.4,2.1,1,2.8c0.6,0.7,1.5,1,2.6,1
					c0.6,0,1.2-0.1,1.7-0.3c0.5-0.2,0.9-0.5,1.4-1L25.8,13.2z M24.7,8.5c0-0.4-0.1-0.8-0.2-1.2c-0.1-0.4-0.3-0.7-0.6-1
					C23.7,6,23.3,5.8,23,5.7c-0.4-0.2-0.8-0.2-1.4-0.2c-0.5,0-1,0.1-1.4,0.2c-0.4,0.2-0.7,0.4-0.9,0.6c-0.2,0.2-0.4,0.6-0.6,0.9
					c-0.2,0.4-0.3,0.8-0.4,1.2H24.7z"/>
				<path d="M35.7,6.8c-0.4-0.5-0.8-0.8-1.2-1c-0.4-0.2-0.9-0.3-1.5-0.3c-0.7,0-1.3,0.1-1.6,0.4c-0.3,0.3-0.4,0.6-0.4,1
					c0,0.3,0.1,0.5,0.2,0.7c0.1,0.2,0.3,0.4,0.5,0.5c0.2,0.1,0.5,0.3,0.8,0.4c0.3,0.1,0.6,0.2,0.9,0.3c0.4,0.1,0.8,0.3,1.2,0.4
					c0.4,0.1,0.8,0.3,1.1,0.6c0.3,0.2,0.6,0.5,0.8,0.9c0.2,0.3,0.3,0.8,0.3,1.3c0,0.5-0.1,0.9-0.3,1.3c-0.2,0.4-0.5,0.7-0.8,0.9
					c-0.3,0.3-0.8,0.5-1.2,0.6c-0.5,0.1-1,0.2-1.5,0.2c-0.8,0-1.6-0.1-2.2-0.4c-0.6-0.3-1.2-0.7-1.8-1.3l1.1-1
					c0.8,1,1.7,1.5,2.9,1.5c0.8,0,1.4-0.1,1.7-0.4c0.4-0.3,0.6-0.6,0.6-1.1c0-0.3-0.1-0.6-0.2-0.8c-0.1-0.2-0.3-0.4-0.6-0.6
					c-0.2-0.2-0.5-0.3-0.8-0.4c-0.3-0.1-0.6-0.2-1-0.3c-0.4-0.1-0.8-0.2-1.2-0.4c-0.4-0.1-0.7-0.3-1-0.5c-0.3-0.2-0.6-0.5-0.8-0.8
					c-0.2-0.3-0.3-0.8-0.3-1.3c0-0.9,0.3-1.6,1-2.1C31.1,4.4,32,4.1,33,4.1c0.8,0,1.4,0.1,2,0.4c0.6,0.2,1.2,0.7,1.7,1.3L35.7,6.8
					L35.7,6.8z"/>
				<path d="M39.5,14.7V0.2H41v14.5H39.5z M41,9.3l5-5h2l-5.1,5l5.1,5.4h-2L41,9.3z"/>
			</g>
		</g>
		<g>
			<path class="st0" d="M17.5,19.9H8.8v-1.4h8.8L17.5,19.9L17.5,19.9z"/>
		</g>
	</g>
	<path class="st1" d="M18.4,19.1"/>
</g>
</svg>
