<svg xmlns="http://www.w3.org/2000/svg" xmlns:xlink="http://www.w3.org/1999/xlink" width="17.51" height="20.27" viewBox="0 0 17.51 20.27"><defs><linearGradient id="e5ae9885-2361-4d56-ae15-b59e2816b42e" y1="10.14" x2="17.51" y2="10.14" gradientUnits="userSpaceOnUse"><stop offset="0" stop-color="#7695f6"/><stop offset="0.33" stop-color="#7698f4"/><stop offset="0.62" stop-color="#76a3ed"/><stop offset="0.89" stop-color="#75b5e2"/><stop offset="1" stop-color="#75bedc"/></linearGradient><linearGradient id="ab73582d-8029-4fbb-b248-1b70ddacc261" x1="5.36" y1="11.16" x2="12.26" y2="11.16" gradientUnits="userSpaceOnUse"><stop offset="0" stop-color="#7695f6"/><stop offset="0.34" stop-color="#7698f4"/><stop offset="0.62" stop-color="#76a3ed"/><stop offset="0.89" stop-color="#75b5e2"/><stop offset="1" stop-color="#75bedc"/></linearGradient></defs><title>ico_menu_waf_wsp</title><g id="a7f9601b-c0de-4e4d-b07d-25e334043424" data-name="Layer 2"><g id="e80997a6-e5ac-4dff-92dd-6381be59c4a4" data-name="Layer 1"><path d="M8.75,20.27A8.76,8.76,0,0,1,0,11.52V5.39a.69.69,0,0,1,.34-.6L8.4.09a.7.7,0,0,1,.7,0l8.06,4.69a.69.69,0,0,1,.34.6v6.13A8.76,8.76,0,0,1,8.75,20.27ZM1.39,5.78v5.73a7.37,7.37,0,1,0,14.73,0V5.78L8.75,1.49Z" style="fill:url(#e5ae9885-2361-4d56-ae15-b59e2816b42e)"/><path d="M11.27,8.82,7.58,12.51h1L6.35,10.3a.7.7,0,0,0-1,1L7.58,13.5a.71.71,0,0,0,1,0l3.69-3.69a.7.7,0,0,0-1-1Z" style="fill:url(#ab73582d-8029-4fbb-b248-1b70ddacc261)"/></g></g></svg>