<svg xmlns="http://www.w3.org/2000/svg" xmlns:xlink="http://www.w3.org/1999/xlink" width="19.4" height="22.4" viewBox="0 0 19.4 22.4"><defs><linearGradient id="13e74144-cf5f-4b97-827a-4b767f86f785" x1="11.75" y1="4.3" x2="13.65" y2="4.3" gradientUnits="userSpaceOnUse"><stop offset="0" stop-color="#7695f6"/><stop offset="0.34" stop-color="#7698f4"/><stop offset="0.62" stop-color="#76a3ed"/><stop offset="0.89" stop-color="#75b5e2"/><stop offset="1" stop-color="#75bedc"/></linearGradient><linearGradient id="f6e5799e-7432-40c6-83b5-e44293312f52" x1="1" y1="14.7" x2="10.4" y2="14.7" xlink:href="#13e74144-cf5f-4b97-827a-4b767f86f785"/><linearGradient id="e18626a2-f93c-45b7-9b07-918c9c463d99" x1="13.03" y1="16.49" x2="18.98" y2="16.49" xlink:href="#13e74144-cf5f-4b97-827a-4b767f86f785"/><linearGradient id="46bf4990-6eb7-4feb-98c0-04a2de949aa4" x1="8.5" y1="5.3" x2="16.9" y2="5.3" xlink:href="#13e74144-cf5f-4b97-827a-4b767f86f785"/><linearGradient id="fd9f9ea5-1e39-4ae4-852e-abfc325de6c0" x1="0" y1="12.71" x2="19.4" y2="12.71" xlink:href="#13e74144-cf5f-4b97-827a-4b767f86f785"/></defs><title>ico_menu_cdn_wsp</title><g id="c4f922aa-5923-46ae-a128-578e8505f9ed" data-name="Layer 2"><g id="f15bb392-834a-450f-93d9-1e250b62032e" data-name="Layer 1"><path d="M12.7,4a.25.25,0,1,1-.25.25A.25.25,0,0,1,12.7,4" style="fill:none;stroke-miterlimit:10;stroke-width:1.39999997615814px;stroke:url(#13e74144-cf5f-4b97-827a-4b767f86f785)"/><path d="M5.7,20.77V20.7c0-2,4-1.76,4-4,0-2-3-2-3-5,0-2.83-2-3-5-3H1.64" style="fill:none;stroke-miterlimit:10;stroke-width:1.39999997615814px;stroke:url(#f6e5799e-7432-40c6-83b5-e44293312f52)"/><path d="M15.67,19.42a3,3,0,0,1-.44-.2,3,3,0,1,1,3-5.2,3.1,3.1,0,0,1,.29.21" style="fill:none;stroke-miterlimit:10;stroke-width:1.39999997615814px;stroke:url(#e18626a2-f93c-45b7-9b07-918c9c463d99)"/><path d="M12.7,9.7s3.5-2.87,3.5-5.5a3.5,3.5,0,0,0-7,0C9.2,6.82,12.7,9.7,12.7,9.7Z" style="fill:none;stroke-miterlimit:10;stroke-width:1.39999997615814px;stroke:url(#46bf4990-6eb7-4feb-98c0-04a2de949aa4)"/><path d="M9.23,3.73A9,9,0,1,0,15.72,6" style="fill:none;stroke-miterlimit:10;stroke-width:1.39999997615814px;stroke:url(#fd9f9ea5-1e39-4ae4-852e-abfc325de6c0)"/></g></g></svg>