<svg xmlns="http://www.w3.org/2000/svg" width="31.16" height="31.16" viewBox="0 0 31.16 31.16"><defs><style>.\34 95b9053-d661-4335-a3ed-f1a7bb191169{fill:none;stroke:#70b5ef;stroke-linecap:round;stroke-linejoin:round;stroke-width:1.7px;}</style></defs><title>cloud_overview_cpu</title><g id="a1d989a9-7489-4666-8c6e-fa6f7b34be93" data-name="Layer 2"><g id="38bc2667-c054-400c-aa7d-75a9e6580cd4" data-name="Layer 1"><path class="495b9053-d661-4335-a3ed-f1a7bb191169" d="M20.49,27H10.67a6.57,6.57,0,0,1-6.55-6.55V10.67h0a6.57,6.57,0,0,1,6.55-6.55h9.82A6.57,6.57,0,0,1,27,10.67v9.82h0A6.57,6.57,0,0,1,20.49,27Z"/><line class="495b9053-d661-4335-a3ed-f1a7bb191169" x1="17.84" y1="4.12" x2="17.84" y2="0.85"/><line class="495b9053-d661-4335-a3ed-f1a7bb191169" x1="22.37" y1="4.4" x2="22.37" y2="0.85"/><line class="495b9053-d661-4335-a3ed-f1a7bb191169" x1="8.79" y1="4.4" x2="8.79" y2="0.85"/><line class="495b9053-d661-4335-a3ed-f1a7bb191169" x1="13.32" y1="4.12" x2="13.32" y2="0.85"/><line class="495b9053-d661-4335-a3ed-f1a7bb191169" x1="17.84" y1="30.31" x2="17.84" y2="27.04"/><line class="495b9053-d661-4335-a3ed-f1a7bb191169" x1="22.37" y1="30.31" x2="22.37" y2="26.76"/><line class="495b9053-d661-4335-a3ed-f1a7bb191169" x1="8.79" y1="30.31" x2="8.79" y2="26.76"/><line class="495b9053-d661-4335-a3ed-f1a7bb191169" x1="13.32" y1="30.31" x2="13.32" y2="27.04"/><line class="495b9053-d661-4335-a3ed-f1a7bb191169" x1="27.04" y1="17.84" x2="30.31" y2="17.84"/><line class="495b9053-d661-4335-a3ed-f1a7bb191169" x1="26.76" y1="22.37" x2="30.31" y2="22.37"/><line class="495b9053-d661-4335-a3ed-f1a7bb191169" x1="26.76" y1="8.79" x2="30.31" y2="8.79"/><line class="495b9053-d661-4335-a3ed-f1a7bb191169" x1="27.04" y1="13.32" x2="30.31" y2="13.32"/><line class="495b9053-d661-4335-a3ed-f1a7bb191169" x1="0.85" y1="17.84" x2="4.12" y2="17.84"/><line class="495b9053-d661-4335-a3ed-f1a7bb191169" x1="0.85" y1="22.37" x2="4.4" y2="22.37"/><line class="495b9053-d661-4335-a3ed-f1a7bb191169" x1="0.85" y1="8.79" x2="4.4" y2="8.79"/><line class="495b9053-d661-4335-a3ed-f1a7bb191169" x1="0.85" y1="13.32" x2="4.12" y2="13.32"/><path class="495b9053-d661-4335-a3ed-f1a7bb191169" d="M18.85,22.13H12.31A3.28,3.28,0,0,1,9,18.85V12.31H9A3.28,3.28,0,0,1,12.31,9h6.55a3.28,3.28,0,0,1,3.27,3.27v6.55h0A3.28,3.28,0,0,1,18.85,22.13Z"/></g></g></svg>