<svg xmlns="http://www.w3.org/2000/svg" xmlns:xlink="http://www.w3.org/1999/xlink" width="16.78" height="21.15" viewBox="0 0 16.78 21.15"><defs><linearGradient id="1169a296-abe3-4d84-841e-8f946715d36c" y1="10.57" x2="16.78" y2="10.57" gradientUnits="userSpaceOnUse"><stop offset="0" stop-color="#7695f6"/><stop offset="0.34" stop-color="#7698f4"/><stop offset="0.62" stop-color="#76a3ed"/><stop offset="0.89" stop-color="#75b5e2"/><stop offset="1" stop-color="#75bedc"/></linearGradient><linearGradient id="007acec8-b460-41bb-90f1-d3b67f044744" x1="0.75" y1="6.21" x2="16.03" y2="6.21" xlink:href="#1169a296-abe3-4d84-841e-8f946715d36c"/><linearGradient id="4fc2dd0c-baff-4362-9739-aaad9d75bc0d" x1="4.06" y1="13.85" x2="6.17" y2="13.85" xlink:href="#1169a296-abe3-4d84-841e-8f946715d36c"/><linearGradient id="05c8d1ce-593f-478a-be77-940f651ca6a0" x1="7.34" y1="13.85" x2="9.45" y2="13.85" xlink:href="#1169a296-abe3-4d84-841e-8f946715d36c"/><linearGradient id="0d7d755e-e351-4a71-98a6-cf6755896bcb" x1="10.61" y1="13.85" x2="12.72" y2="13.85" xlink:href="#1169a296-abe3-4d84-841e-8f946715d36c"/><linearGradient id="c062c689-9cc4-4d6b-85fe-8c48c1b81375" x1="4.06" y1="10.57" x2="6.17" y2="10.57" xlink:href="#1169a296-abe3-4d84-841e-8f946715d36c"/><linearGradient id="ab762f1e-0145-4c33-9e9c-110d1c55cd9a" x1="7.34" y1="10.57" x2="9.45" y2="10.57" xlink:href="#1169a296-abe3-4d84-841e-8f946715d36c"/><linearGradient id="e94b3a4e-340d-4497-a174-78ee3c8a0fb7" x1="10.61" y1="10.57" x2="12.72" y2="10.57" xlink:href="#1169a296-abe3-4d84-841e-8f946715d36c"/><linearGradient id="5492ad9d-6821-4313-bb58-01da76485417" x1="4.06" y1="17.12" x2="6.17" y2="17.12" xlink:href="#1169a296-abe3-4d84-841e-8f946715d36c"/><linearGradient id="6f339a21-f586-4591-a02b-9a19d8c6b2f4" x1="7.34" y1="17.12" x2="9.45" y2="17.12" xlink:href="#1169a296-abe3-4d84-841e-8f946715d36c"/><linearGradient id="41de3f67-9cb1-46d9-b265-91df8ac1e4ba" x1="10.61" y1="17.12" x2="12.72" y2="17.12" xlink:href="#1169a296-abe3-4d84-841e-8f946715d36c"/><linearGradient id="c555c4e0-dd4d-41c2-afd5-59edb06dda01" x1="4.02" y1="3.48" x2="7.3" y2="3.48" xlink:href="#1169a296-abe3-4d84-841e-8f946715d36c"/></defs><title>ico_menu_calculator_wsp</title><g id="5cc79e06-3bbe-412e-96ee-74379bb0e79b" data-name="Layer 2"><g id="a9744ec9-55b5-4f7d-8be5-ff98f4086918" data-name="Layer 1"><path d="M13.92,20.4H2.86A2.11,2.11,0,0,1,.75,18.29V2.86A2.11,2.11,0,0,1,2.86.75H13.92A2.11,2.11,0,0,1,16,2.86V18.29A2.11,2.11,0,0,1,13.92,20.4Z" style="fill:none;stroke-miterlimit:10;stroke-width:1.5px;stroke:url(#1169a296-abe3-4d84-841e-8f946715d36c)"/><path d="M16,6.21H.75" style="fill:none;stroke-miterlimit:10;stroke-width:1.5px;stroke:url(#007acec8-b460-41bb-90f1-d3b67f044744)"/><path d="M5.12,13.79a.05.05,0,1,1-.05.05.05.05,0,0,1,.05-.05" style="fill:none;stroke-miterlimit:10;stroke-width:2px;stroke:url(#4fc2dd0c-baff-4362-9739-aaad9d75bc0d)"/><path d="M8.39,13.8a.05.05,0,1,1-.05.05.05.05,0,0,1,.05-.05" style="fill:none;stroke-miterlimit:10;stroke-width:2px;stroke:url(#05c8d1ce-593f-478a-be77-940f651ca6a0)"/><path d="M11.67,13.79a.05.05,0,1,1-.05.05.05.05,0,0,1,.05-.05" style="fill:none;stroke-miterlimit:10;stroke-width:2px;stroke:url(#0d7d755e-e351-4a71-98a6-cf6755896bcb)"/><path d="M5.12,10.52a.05.05,0,1,1-.05.05.05.05,0,0,1,.05-.05" style="fill:none;stroke-miterlimit:10;stroke-width:2px;stroke:url(#c062c689-9cc4-4d6b-85fe-8c48c1b81375)"/><path d="M8.39,10.52a.05.05,0,1,1-.05.05.05.05,0,0,1,.05-.05" style="fill:none;stroke-miterlimit:10;stroke-width:2px;stroke:url(#ab762f1e-0145-4c33-9e9c-110d1c55cd9a)"/><path d="M11.67,10.52a.05.05,0,1,1-.05.05.05.05,0,0,1,.05-.05" style="fill:none;stroke-miterlimit:10;stroke-width:2px;stroke:url(#e94b3a4e-340d-4497-a174-78ee3c8a0fb7)"/><path d="M5.12,17.07a.05.05,0,1,1-.05.05.05.05,0,0,1,.05-.05" style="fill:none;stroke-miterlimit:10;stroke-width:2px;stroke:url(#5492ad9d-6821-4313-bb58-01da76485417)"/><path d="M8.39,17.07a.05.05,0,1,1-.05.05.05.05,0,0,1,.05-.05" style="fill:none;stroke-miterlimit:10;stroke-width:2px;stroke:url(#6f339a21-f586-4591-a02b-9a19d8c6b2f4)"/><path d="M11.67,17.07a.05.05,0,1,1-.05.05.05.05,0,0,1,.05-.05" style="fill:none;stroke-miterlimit:10;stroke-width:2px;stroke:url(#41de3f67-9cb1-46d9-b265-91df8ac1e4ba)"/><path d="M4,3.48H7.3" style="fill:none;stroke-miterlimit:10;stroke-width:0.75px;stroke:url(#c555c4e0-dd4d-41c2-afd5-59edb06dda01)"/></g></g></svg>