<svg xmlns="http://www.w3.org/2000/svg" xmlns:xlink="http://www.w3.org/1999/xlink" width="18.4" height="14.7" viewBox="0 0 18.4 14.7"><defs><linearGradient id="38eca960-d70a-464d-9d8b-e9f0bb8cdb1d" y1="7.8" x2="17.36" y2="7.8" gradientUnits="userSpaceOnUse"><stop offset="0" stop-color="#7695f6"/><stop offset="0.34" stop-color="#7698f4"/><stop offset="0.62" stop-color="#76a3ed"/><stop offset="0.89" stop-color="#75b5e2"/><stop offset="1" stop-color="#75bedc"/></linearGradient><linearGradient id="48fdff15-9e0e-4e48-b86e-e52e94386cbe" x1="13.3" y1="2.55" x2="18.4" y2="2.55" xlink:href="#38eca960-d70a-464d-9d8b-e9f0bb8cdb1d"/><linearGradient id="cfc4c6fd-3d63-48b0-a274-d4dacbd08e70" x1="2.92" y1="7.01" x2="13.55" y2="7.01" xlink:href="#38eca960-d70a-464d-9d8b-e9f0bb8cdb1d"/></defs><title>ico_title_ticket_wsp</title><g id="0a26a55e-3ca0-4e16-9d5a-720ddc97ef40" data-name="Layer 2"><g id="47dc01a8-69e6-49d5-8e6f-c2a8f7422c58" data-name="Layer 1"><path d="M16.66,6.91v4.43A2.66,2.66,0,0,1,14,14H3.36A2.66,2.66,0,0,1,.7,11.34V4.25A2.66,2.66,0,0,1,3.36,1.59h8" style="fill:none;stroke-miterlimit:10;stroke-width:1.39999997615814px;stroke:url(#38eca960-d70a-464d-9d8b-e9f0bb8cdb1d)"/><path d="M15.85.7a1.85,1.85,0,1,0,0,3.69h0a1.85,1.85,0,1,0,0-3.69h0Z" style="fill:none;stroke-miterlimit:10;stroke-width:1.39999997615814px;stroke:url(#48fdff15-9e0e-4e48-b86e-e52e94386cbe)"/><path d="M13.12,5.83,10,8.23a2.37,2.37,0,0,1-3,0L3.36,5.13" style="fill:none;stroke-miterlimit:10;stroke-width:1.39999997615814px;stroke:url(#cfc4c6fd-3d63-48b0-a274-d4dacbd08e70)"/></g></g></svg>