<svg xmlns="http://www.w3.org/2000/svg" xmlns:xlink="http://www.w3.org/1999/xlink" width="20" height="20" viewBox="0 0 20 20"><defs><linearGradient id="618e5cc8-3638-42ef-801a-b132312cd006" x1="9.36" y1="6.14" x2="19.33" y2="6.14" gradientUnits="userSpaceOnUse"><stop offset="0" stop-color="#7695f6"/><stop offset="0.34" stop-color="#7698f4"/><stop offset="0.62" stop-color="#76a3ed"/><stop offset="0.89" stop-color="#75b5e2"/><stop offset="1" stop-color="#75bedc"/></linearGradient><linearGradient id="28d55f78-4fe4-44fe-8749-8b6459c9c58a" x1="5.2" y1="9.71" x2="15.07" y2="9.71" xlink:href="#618e5cc8-3638-42ef-801a-b132312cd006"/><linearGradient id="2f14ffd4-6f94-4f6a-a6a7-7b54f2033468" x1="1.22" y1="4.77" x2="15.39" y2="4.77" xlink:href="#618e5cc8-3638-42ef-801a-b132312cd006"/><linearGradient id="62f17c2e-316a-4891-92b2-e994a148960e" x1="1.5" y1="9.66" x2="17.75" y2="9.66" xlink:href="#618e5cc8-3638-42ef-801a-b132312cd006"/><linearGradient id="7d7e97f8-6041-420c-8520-96d6590b5c33" x1="0" y1="10" x2="20" y2="10" xlink:href="#618e5cc8-3638-42ef-801a-b132312cd006"/></defs><title>ico_menu_dns_wsp</title><g id="a49c556b-55b9-48a4-9632-6898ae918ef2" data-name="Layer 2"><g id="80f890a8-08b1-4903-8226-d0b5e51ce898" data-name="Layer 1"><path d="M10,.65A9.83,9.83,0,0,0,19.29,11" style="fill:none;stroke-miterlimit:10;stroke-width:1.29999995231628px;stroke:url(#618e5cc8-3638-42ef-801a-b132312cd006)"/><path d="M7.06,1.13a11.91,11.91,0,0,0,7.85,16.82" style="fill:none;stroke-miterlimit:10;stroke-width:1.29999995231628px;stroke:url(#28d55f78-4fe4-44fe-8749-8b6459c9c58a)"/><path d="M14.81,2A9.83,9.83,0,0,1,8.48,6.92a9.82,9.82,0,0,1-7-.86" style="fill:none;stroke-miterlimit:10;stroke-width:1.29999995231628px;stroke:url(#2f14ffd4-6f94-4f6a-a6a7-7b54f2033468)"/><path d="M17.1,3.92a11.94,11.94,0,0,1-9,10.53,11.87,11.87,0,0,1-6.39-.2" style="fill:none;stroke-miterlimit:10;stroke-width:1.29999995231628px;stroke:url(#62f17c2e-316a-4891-92b2-e994a148960e)"/><path d="M16.61,3.39a9.35,9.35,0,1,1-13.22,0,9.35,9.35,0,0,1,13.22,0" style="fill:none;stroke-miterlimit:10;stroke-width:1.29999995231628px;stroke:url(#7d7e97f8-6041-420c-8520-96d6590b5c33)"/></g></g></svg>