<svg xmlns="http://www.w3.org/2000/svg" xmlns:xlink="http://www.w3.org/1999/xlink" width="20.76" height="23.66" viewBox="0 0 20.76 23.66"><defs><linearGradient id="3a186401-3e63-4906-bb66-45efb493e911" x1="0.33" y1="7.23" x2="20.48" y2="7.23" gradientUnits="userSpaceOnUse"><stop offset="0" stop-color="#7695f6"/><stop offset="0.34" stop-color="#7698f4"/><stop offset="0.62" stop-color="#76a3ed"/><stop offset="0.89" stop-color="#75b5e2"/><stop offset="1" stop-color="#75bedc"/></linearGradient><linearGradient id="6a7e87bb-43d7-4e09-b9a7-189921aadf69" x1="0" y1="19.33" x2="20.76" y2="19.33" xlink:href="#3a186401-3e63-4906-bb66-45efb493e911"/><linearGradient id="0078369e-6143-40e3-ab60-5d837dd122dc" x1="9.17" y1="19.33" x2="16.43" y2="19.33" xlink:href="#3a186401-3e63-4906-bb66-45efb493e911"/><linearGradient id="a521d017-dd9e-425f-bac9-38e31c57dc50" x1="3.57" y1="19.33" x2="5.09" y2="19.33" xlink:href="#3a186401-3e63-4906-bb66-45efb493e911"/></defs><title>ico_menu_cloud_wsp</title><g id="a492d63d-a6ca-4a28-8e16-3bf23f7cce98" data-name="Layer 2"><g id="2c07527d-dc66-48e4-a1ca-209a53afdf65" data-name="Layer 1"><path d="M5.11,4.52a4.62,4.62,0,0,0,.63,9.2H16a3.7,3.7,0,1,0,0-7.41A5.6,5.6,0,0,0,5.11,4.52Z" style="fill:none;stroke-miterlimit:10;stroke-width:1.5px;stroke:url(#3a186401-3e63-4906-bb66-45efb493e911)"/><path d="M16.43,15.7H4.33A3.63,3.63,0,0,0,.7,19.33h0A3.63,3.63,0,0,0,4.33,23h12.1a3.63,3.63,0,0,0,3.63-3.63h0A3.63,3.63,0,0,0,16.43,15.7Z" style="fill:none;stroke-miterlimit:10;stroke-width:1.39999997615814px;stroke:url(#6a7e87bb-43d7-4e09-b9a7-189921aadf69)"/><path d="M9.17,19.93h7.26a.6.6,0,0,0,0-1.2H9.17a.6.6,0,0,0,0,1.2Z" style="fill:url(#0078369e-6143-40e3-ab60-5d837dd122dc)"/><path d="M4.37,19.29a.06.06,0,1,1-.09,0,.06.06,0,0,1,.09,0" style="fill:none;stroke-miterlimit:10;stroke-width:1.39999997615814px;stroke:url(#a521d017-dd9e-425f-bac9-38e31c57dc50)"/></g></g></svg>