<svg xmlns="http://www.w3.org/2000/svg" width="15.09" height="15.86" viewBox="0 0 15.09 15.86"><title>ico_calendare</title><g id="bdee5f34-8b17-4d0d-98ab-8fd616c4f374" data-name="Layer 2"><g id="3b4cf094-c098-403d-baa5-9a8ada9971f2" data-name="Layer 1"><path d="M10.61.65V3.71" style="fill:none;stroke:#555;stroke-linecap:round;stroke-linejoin:round;stroke-width:1.29999995231628px"/><path d="M4.48.65V3.71" style="fill:none;stroke:#555;stroke-linecap:round;stroke-linejoin:round;stroke-width:1.29999995231628px"/><path d="M.65,6H14.44" style="fill:none;stroke:#555;stroke-linecap:round;stroke-linejoin:round;stroke-width:1.29999995231628px"/><path d="M12.91,2.18H2.18A1.53,1.53,0,0,0,.65,3.71v10a1.53,1.53,0,0,0,1.53,1.53H12.91a1.53,1.53,0,0,0,1.53-1.53v-10A1.53,1.53,0,0,0,12.91,2.18Z" style="fill:none;stroke:#555;stroke-linecap:round;stroke-linejoin:round;stroke-width:1.29999995231628px"/><path d="M3.72,8.87a.19.19,0,1,0,.19.19.19.19,0,0,0-.19-.19" style="fill:none;stroke:#555;stroke-linecap:round;stroke-linejoin:round;stroke-width:1.29999995231628px"/><path d="M7.55,8.87a.19.19,0,1,0,.19.19.19.19,0,0,0-.19-.19" style="fill:none;stroke:#555;stroke-linecap:round;stroke-linejoin:round;stroke-width:1.29999995231628px"/><path d="M11.39,8.87a.19.19,0,1,0,.19.19.19.19,0,0,0-.19-.19" style="fill:none;stroke:#555;stroke-linecap:round;stroke-linejoin:round;stroke-width:1.29999995231628px"/><path d="M3.72,11.93a.19.19,0,1,0,.19.19.19.19,0,0,0-.19-.19" style="fill:none;stroke:#555;stroke-linecap:round;stroke-linejoin:round;stroke-width:1.29999995231628px"/><path d="M7.55,11.93a.19.19,0,1,0,.19.19.19.19,0,0,0-.19-.19" style="fill:none;stroke:#555;stroke-linecap:round;stroke-linejoin:round;stroke-width:1.29999995231628px"/></g></g></svg>