<svg xmlns="http://www.w3.org/2000/svg" width="11.75" height="14.18" viewBox="0 0 11.75 14.18"><defs><style>.cls-1{fill:#ffcb05;}.cls-2{fill:#f9a51e;}.cls-3{fill:#2aabe2;}.cls-4{fill:#1f92d1;}.cls-5{fill:#eb2228;}.cls-6{fill:#c7262c;}</style></defs><title>ic_asiatech_logo</title><g id="Layer_2" data-name="Layer 2"><g id="Layer_1-2" data-name="Layer 1"><path class="cls-1" d="M.07.66A2,2,0,0,1,1.41,0,1.67,1.67,0,0,1,2.56.5C3.33,1.23,4.07,2,4.82,2.74l.59.59a1.23,1.23,0,0,0,.86.43c.22,0,.41-.11.63-.13-.29.31-.6.6-.9.91a3.57,3.57,0,0,1-.79.67.83.83,0,0,1-.75,0,2.58,2.58,0,0,1-.71-.56L.07,1A.21.21,0,0,1,.07.66Z"/><path class="cls-2" d="M7.08.51A1.68,1.68,0,0,1,8.25,0,2,2,0,0,1,9.58.67a.21.21,0,0,1,0,.31L6.91,3.63h0c-.22,0-.41.15-.63.13a1.23,1.23,0,0,1-.86-.43l-.59-.59C5.58,2,6.31,1.24,7.08.51Z"/><path class="cls-3" d="M10.75,2.52a.22.22,0,0,1,.3-.05,2.14,2.14,0,0,1,.66,1.06,1.45,1.45,0,0,1-.15,1,4.46,4.46,0,0,1-.75.88L9,7.25l-.52.51A1.51,1.51,0,0,0,8,8.54a1.35,1.35,0,0,0,.22.89C7.81,9,7.42,8.64,7,8.25a1.7,1.7,0,0,1-.58-.91,1.31,1.31,0,0,1,.5-1Z"/><path class="cls-4" d="M8.48,7.76,9,7.25c.74.75,1.5,1.48,2.22,2.24a1.68,1.68,0,0,1,.52,1.16A1.94,1.94,0,0,1,11.07,12a.21.21,0,0,1-.31,0L8.21,9.43A1.35,1.35,0,0,1,8,8.54,1.51,1.51,0,0,1,8.48,7.76Z"/><path class="cls-5" d="M4.12,9.17a1.13,1.13,0,0,1,.69-.31,1.11,1.11,0,0,1,.69.29c.26.22.49.47.73.7s.46.45.68.69c-.21,0-.39-.15-.6-.14a1.13,1.13,0,0,0-.79.32c-.25.22-.47.47-.7.7L3,13.24a4.66,4.66,0,0,1-.87.74,1.46,1.46,0,0,1-1,.17A2.13,2.13,0,0,1,.06,13.5a.21.21,0,0,1,0-.32L3.44,9.83C3.67,9.61,3.88,9.38,4.12,9.17Z"/><path class="cls-6" d="M5.52,10.73a1.13,1.13,0,0,1,.79-.32c.21,0,.39.13.6.14h0L9.38,13a2.85,2.85,0,0,1,.23.24.2.2,0,0,1,0,.26,2.07,2.07,0,0,1-1.12.64,1.47,1.47,0,0,1-1-.19,4.8,4.8,0,0,1-.81-.7L4.82,11.43C5.06,11.2,5.28,11,5.52,10.73Z"/></g></g></svg>