<svg xmlns="http://www.w3.org/2000/svg" width="75.43" height="27.62" viewBox="0 0 75.43 27.62"><defs><style>.cls-1{fill:#ffcb05;}.cls-2{fill:#f9a51e;}.cls-3{fill:#2aabe2;}.cls-4{fill:#1f92d1;}.cls-5{fill:#eb2228;}.cls-6{fill:#c7262c;}.cls-7{fill:#6e6f73;}.cls-8{fill:#6e6f72;}</style></defs><title>ic_asiatech_logotype</title><g id="Layer_2" data-name="Layer 2"><g id="Layer_1-2" data-name="Layer 1"><path class="cls-1" d="M52.68,1.28A3.81,3.81,0,0,1,55.3,0a3.25,3.25,0,0,1,2.23,1C59,2.4,60.47,3.88,61.93,5.34L63.08,6.5a2.39,2.39,0,0,0,1.68.84c.43,0,.81-.22,1.23-.26-.57.61-1.17,1.17-1.75,1.77a7,7,0,0,1-1.53,1.3,1.61,1.61,0,0,1-1.46,0,5,5,0,0,1-1.37-1.1l-7.2-7.2A.41.41,0,0,1,52.68,1.28Z"/><path class="cls-2" d="M66.32,1a3.27,3.27,0,0,1,2.29-1A3.83,3.83,0,0,1,71.2,1.31a.41.41,0,0,1,0,.6C69.45,3.63,67.73,5.34,66,7.07h0c-.42,0-.8.3-1.23.26a2.39,2.39,0,0,1-1.68-.84L61.93,5.34C63.4,3.9,64.83,2.41,66.32,1Z"/><path class="cls-3" d="M73.48,4.91a.42.42,0,0,1,.59-.1,4.16,4.16,0,0,1,1.28,2.07,2.83,2.83,0,0,1-.29,2,8.69,8.69,0,0,1-1.45,1.72c-1.18,1.18-2.35,2.36-3.54,3.53-.35.32-.68.67-1,1a2.93,2.93,0,0,0-.95,1.52,2.63,2.63,0,0,0,.42,1.73c-.79-.75-1.55-1.54-2.32-2.3a3.32,3.32,0,0,1-1.12-1.78,2.55,2.55,0,0,1,1-1.94Q69.76,8.62,73.48,4.91Z"/><path class="cls-4" d="M69.06,15.12c.34-.33.67-.67,1-1C71.52,15.58,73,17,74.41,18.49a3.28,3.28,0,0,1,1,2.26,3.78,3.78,0,0,1-1.31,2.65.41.41,0,0,1-.61-.06c-1.65-1.66-3.31-3.3-5-5a2.63,2.63,0,0,1-.42-1.73A2.93,2.93,0,0,1,69.06,15.12Z"/><path class="cls-5" d="M60.57,17.87a2.2,2.2,0,0,1,1.34-.6,2.16,2.16,0,0,1,1.35.57c.5.42.95.91,1.42,1.36s.9.88,1.32,1.34c-.4,0-.75-.28-1.16-.27a2.2,2.2,0,0,0-1.55.63c-.48.43-.91.92-1.37,1.37l-3.51,3.51a9.08,9.08,0,0,1-1.7,1.45,2.84,2.84,0,0,1-2,.32,4.16,4.16,0,0,1-2.11-1.25.41.41,0,0,1,0-.61l6.54-6.54C59.69,18.72,60.1,18.27,60.57,17.87Z"/><path class="cls-6" d="M63.3,20.9a2.2,2.2,0,0,1,1.55-.63c.41,0,.76.24,1.16.27h0l4.78,4.79a5.56,5.56,0,0,1,.45.47.39.39,0,0,1-.07.51A4,4,0,0,1,69,27.57a2.85,2.85,0,0,1-1.92-.37,9.36,9.36,0,0,1-1.58-1.35c-1.2-1.18-2.38-2.39-3.58-3.57C62.39,21.82,62.82,21.34,63.3,20.9Z"/><path class="cls-7" d="M45.54,6.74a2.25,2.25,0,0,1,1.55,1.6c.06.94,0,1.89,0,2.84a3.15,3.15,0,0,1,3.9-.58,3,3,0,0,1,1.12,2.5c0,1.71,0,3.41,0,5.12H50.53c0-1.65,0-3.3,0-5,0-.74-.42-1.62-1.25-1.68a1.93,1.93,0,0,0-2.11,1.87c-.07,1.58,0,3.17,0,4.75H45.53C45.53,14.4,45.52,10.57,45.54,6.74Z"/><path class="cls-7" d="M26.5,8.92a2.8,2.8,0,0,1,1.35-1c0,.82,0,1.64,0,2.46h1.87q0,.71,0,1.42H27.86q0,2,0,4.1a.9.9,0,0,0,.45,1,1.93,1.93,0,0,0,1.45-.17c0,.48,0,1,0,1.46a3,3,0,0,1-2.56,0,2.12,2.12,0,0,1-.9-1.82c0-1.49,0-3,0-4.48H25c0-.47,0-.94,0-1.42h1.28A2.84,2.84,0,0,1,26.5,8.92Z"/><path class="cls-7" d="M.72,11a4.78,4.78,0,0,1,4.1-.56A2.56,2.56,0,0,1,6.3,12.91c0,1.36,0,2.72,0,4.08a1.74,1.74,0,0,1-1.56,1.45c0-.32,0-.63,0-.95A3,3,0,0,1,1,18a2.53,2.53,0,0,1-.68-3.16,2.61,2.61,0,0,1,1.81-1.29c.87-.19,1.77-.27,2.65-.4-.08-.54-.2-1.22-.79-1.43A3.53,3.53,0,0,0,.72,12.74C.73,12.15.73,11.57.72,11Zm1.53,3.95A1.08,1.08,0,0,0,2.1,16.8a1.75,1.75,0,0,0,2.3-.64,3.2,3.2,0,0,0,.34-1.67A13,13,0,0,0,2.25,14.93Z"/><path class="cls-7" d="M8.6,10.83a4.25,4.25,0,0,1,4.15-.22c0,.56,0,1.12,0,1.69a3.15,3.15,0,0,0-2.89-.54.78.78,0,0,0-.13,1.37c.89.56,2,.7,2.78,1.46a2.13,2.13,0,0,1-.35,3.2,4.63,4.63,0,0,1-4.44.12c0-.61,0-1.21,0-1.82a3.44,3.44,0,0,0,3.28.76.78.78,0,0,0,.07-1.37c-.88-.57-2-.71-2.78-1.47A2.15,2.15,0,0,1,8.6,10.83Z"/><path class="cls-7" d="M18.46,10.93a5,5,0,0,1,4-.54,2.37,2.37,0,0,1,1.5,2c.14,1.11,0,2.23.07,3.34a3.28,3.28,0,0,1-.36,2.07,2.39,2.39,0,0,1-1.24.67c0-.31,0-.62,0-.93a3.05,3.05,0,0,1-3.92.33,2.52,2.52,0,0,1,.35-4c1.1-.64,2.43-.48,3.62-.82-.13-.54-.28-1.25-.92-1.41a3.56,3.56,0,0,0-3.11,1.08C18.45,12.13,18.45,11.53,18.46,10.93Zm1.46,4a1.08,1.08,0,0,0,0,1.9,1.77,1.77,0,0,0,2.2-.66,3,3,0,0,0,.35-1.7A12,12,0,0,0,19.92,14.94Z"/><path class="cls-7" d="M31.52,11.15a3.4,3.4,0,0,1,5,.21,5.5,5.5,0,0,1,.73,3.43h-5.3a2.36,2.36,0,0,0,1.2,2A3.46,3.46,0,0,0,36.7,16c0,.55,0,1.1,0,1.66a5,5,0,0,1-3.79.68,3.25,3.25,0,0,1-2.41-2.4A4.87,4.87,0,0,1,31.52,11.15Zm1.24.87A3,3,0,0,0,32,13.37c1.21,0,2.43,0,3.64,0a2.87,2.87,0,0,0-.44-1.23A1.72,1.72,0,0,0,32.76,12Z"/><path class="cls-7" d="M39.27,11.31a4.37,4.37,0,0,1,4.87-.7q0,.87,0,1.74a2.94,2.94,0,0,0-3-.53,3,3,0,0,0-1.29,3.34,2.2,2.2,0,0,0,2,1.82,3.22,3.22,0,0,0,2.31-.83c0,.55,0,1.1,0,1.66a4.5,4.5,0,0,1-3.66.36,3.59,3.59,0,0,1-2.28-2.81A4.66,4.66,0,0,1,39.27,11.31Z"/><path class="cls-7" d="M14.42,18.4c0-2.74,0-5.48,0-8.23A2.19,2.19,0,0,1,16,12c0,2.14,0,4.28,0,6.42Z"/><path class="cls-8" d="M14.57,7.75a1,1,0,1,1-.11,1.7A1,1,0,0,1,14.57,7.75Z"/></g></g></svg>