<svg xmlns="http://www.w3.org/2000/svg" width="13.85" height="13.85" viewBox="0 0 13.85 13.85"><defs><style>.cls-1{fill:#7c7c7c;}.cls-2{fill:none;stroke:#7c7c7c;stroke-miterlimit:10;}</style></defs><title>ic_firewall</title><g id="Layer_2" data-name="Layer 2"><g id="Layer_1-2" data-name="Layer 1"><path class="cls-1" d="M0,3.83A4,4,0,0,1,3.78,0C5.72,0,7.66,0,9.59,0a4,4,0,0,1,3.66,2.5,6.88,6.88,0,0,1,.28,2.85.51.51,0,0,1-.93.33c-.23-.45-.06-1-.1-1.51H10.07a6.85,6.85,0,0,1,0,1.43.53.53,0,0,1-1-.06A10.53,10.53,0,0,1,9,4.18H4.52c0,.69,0,1.37,0,2.06A22.27,22.27,0,0,1,7,6.29c.57.19.31,1.11-.28,1-1.88,0-3.76,0-5.65,0,0,.68,0,1.35,0,2,2,.08,3.91,0,5.86,0a.53.53,0,0,1,.12,1c-.82.08-1.65,0-2.48,0,0,.69,0,1.38,0,2.07.79,0,1.58,0,2.36,0,.55,0,.57,1,0,1-1,.06-2.05,0-3.08,0A4,4,0,0,1,0,9.82C0,7.82,0,5.82,0,3.83ZM3.51,1.1a3.18,3.18,0,0,0-2.38,2c1.7,0,3.4,0,5.1,0,0-.7,0-1.39,0-2.09C5.33,1.08,4.42,1,3.51,1.1Zm3.79,0c0,.69,0,1.38,0,2.07h5.1A3.35,3.35,0,0,0,11,1.45C9.88.81,8.53,1.13,7.3,1.05ZM1,4.18c0,.69,0,1.37,0,2.05.81,0,1.62,0,2.44,0,0-.68,0-1.37,0-2Zm.11,6.23a3.27,3.27,0,0,0,2.32,2.06q0-1,0-2.07C2.69,10.42,1.92,10.4,1.15,10.41Z" transform="translate(0 0)"/><path class="cls-2" d="M8.22,11c0-.13,0-.26.06-.39a2.06,2.06,0,0,1,.51-.94A4.22,4.22,0,0,0,9.84,7.69c.11-.51.16.05,0-.45a.07.07,0,0,1,0,0c.64.74,1,.51,1.19,1.43,0-.45.35-.09.43-.51.09.26.12-.22.23,0a3.39,3.39,0,0,0,.92,1.25,2,2,0,0,1-.48,3.36l-.14.07a2.35,2.35,0,0,0,.08-.34,1,1,0,0,0-.45-.92,2.11,2.11,0,0,1-.66-.7c-.09-.18-.16-.37-.23-.54l0,.14a2,2,0,0,1-.67,1.15A1,1,0,0,0,9.79,13l-.12,0a2.19,2.19,0,0,1-1.42-1.6l0-.1Z" transform="translate(0 0)"/></g></g></svg>