<svg xmlns="http://www.w3.org/2000/svg" width="21.48" height="17.51" viewBox="0 0 21.48 17.51"><defs><style>.cls-1{fill:none;stroke:#323232;stroke-linecap:round;stroke-linejoin:round;stroke-width:1.5px;}</style></defs><title>ic_pay</title><g id="Layer_2" data-name="Layer 2"><g id="Layer_1-2" data-name="Layer 1"><path class="cls-1" d="M.75,9.76,3.3,5.5h0A2.94,2.94,0,0,1,4.52,4.36l.58-.3h0a2.94,2.94,0,0,1,1.34-.32H8.73"/><path class="cls-1" d="M2.75,16.76l5.76-2.09h0a4.05,4.05,0,0,0,2-1.55l3-4.49h0a1.66,1.66,0,0,0-.21-2.08h0a1.64,1.64,0,0,0-2.33,0L8.7,8.7h-2"/><path class="cls-1" d="M8.75,8.76V3.26h0A2.49,2.49,0,0,1,11.24.75h7a2.49,2.49,0,0,1,2.5,2.49h0v4h0a2.5,2.5,0,0,1-2.5,2.5H12.72"/><path class="cls-1" d="M17.75,3.76h-3"/><path class="cls-1" d="M17.75,6.76h-1"/></g></g></svg>