<svg xmlns="http://www.w3.org/2000/svg" width="56.67" height="54.4" viewBox="0 0 56.67 54.4"><defs><style>.\32 b3c2334-77be-41c7-b4da-b215ac18a079{opacity:0.8;}.b1838a08-c7ce-40c8-ae7f-fdbe346a3e3d{fill:#fff;}</style></defs><title>ico_eco</title><g id="e625d684-6599-4b7a-b528-4675866a3fba" data-name="Layer 2"><g id="80f3bd50-8f21-473d-9615-3abca3e306e7" data-name="Layer 1"><g id="9ad918e1-337a-4705-b548-99ad8db0d0e1" data-name="8" class="2b3c2334-77be-41c7-b4da-b215ac18a079"><path class="b1838a08-c7ce-40c8-ae7f-fdbe346a3e3d" d="M35.46,13.55a25.54,25.54,0,0,0-3.52.89,1,1,0,1,0,.66,2,23.46,23.46,0,0,1,3.23-.82,1,1,0,0,0-.37-2.06Z"/><path class="b1838a08-c7ce-40c8-ae7f-fdbe346a3e3d" d="M27.23,16.66A15.63,15.63,0,0,0,24.35,19a1,1,0,0,0,1.52,1.44,13.54,13.54,0,0,1,2.49-2,1,1,0,0,0-1.13-1.76Z"/><path class="b1838a08-c7ce-40c8-ae7f-fdbe346a3e3d" d="M40.6,13.1a1,1,0,0,0,0,2.09,28.42,28.42,0,0,1,3.35.21H44a1,1,0,0,0,.19-2.08A30.56,30.56,0,0,0,40.6,13.1Z"/><path class="b1838a08-c7ce-40c8-ae7f-fdbe346a3e3d" d="M49.23,14.4a1,1,0,1,0-.62,2,23.49,23.49,0,0,1,3.1,1.21,1,1,0,1,0,.9-1.89A25.5,25.5,0,0,0,49.23,14.4Z"/><path class="b1838a08-c7ce-40c8-ae7f-fdbe346a3e3d" d="M14.22,41.29c.6,0,1.2.06,1.79.06a1,1,0,0,0,0-2.09A28.55,28.55,0,0,1,12.67,39a1,1,0,0,0-.25,2.08C13,41.2,13.61,41.25,14.22,41.29Z"/><path class="b1838a08-c7ce-40c8-ae7f-fdbe346a3e3d" d="M20.89,40.92a1,1,0,0,0,.25,0A25.48,25.48,0,0,0,24.66,40,1,1,0,0,0,24,38a23.41,23.41,0,0,1-3.23.82,1,1,0,0,0,.12,2.08Z"/><path class="b1838a08-c7ce-40c8-ae7f-fdbe346a3e3d" d="M28.75,38a1,1,0,0,0,.63-.17,15.62,15.62,0,0,0,2.88-2.36A1,1,0,1,0,30.74,34a13.54,13.54,0,0,1-2.49,2,1,1,0,0,0,.5,1.92Z"/><path class="b1838a08-c7ce-40c8-ae7f-fdbe346a3e3d" d="M4.57,39A25.81,25.81,0,0,0,7.37,40,1,1,0,0,0,8,38a23.68,23.68,0,0,1-2.58-1l-.52-.24A1,1,0,0,0,4,38.73Z"/><path class="b1838a08-c7ce-40c8-ae7f-fdbe346a3e3d" d="M28,52.29c-.57,0-1.15,0-1.73,0a1,1,0,0,0-.13,2.09c.64,0,1.3,0,1.94,0A1,1,0,0,0,28,52.29Z"/><path class="b1838a08-c7ce-40c8-ae7f-fdbe346a3e3d" d="M42.45,44.38a1,1,0,0,0-1.43.38q-.23.4-.49.79a14.32,14.32,0,0,1-1.42,1.79,1,1,0,0,0,1.53,1.43,16.44,16.44,0,0,0,1.63-2c.2-.3.39-.6.57-.91A1,1,0,0,0,42.45,44.38Z"/><path class="b1838a08-c7ce-40c8-ae7f-fdbe346a3e3d" d="M40.41,28.62a1,1,0,0,0-.23,1.46,14.17,14.17,0,0,1,1.58,2.79,1,1,0,1,0,1.93-.82,16.28,16.28,0,0,0-1.82-3.2A1,1,0,0,0,40.41,28.62Z"/><path class="b1838a08-c7ce-40c8-ae7f-fdbe346a3e3d" d="M35.48,50.18a16.17,16.17,0,0,1-3,1.31,1,1,0,1,0,.65,2A18.27,18.27,0,0,0,36.52,52a1,1,0,0,0-1-1.82Z"/><path class="b1838a08-c7ce-40c8-ae7f-fdbe346a3e3d" d="M44.89,37.19a1,1,0,1,0-2.09.12,13.32,13.32,0,0,1-.2,3.19,1,1,0,0,0,.84,1.22l.13,0a1,1,0,0,0,1.09-.86,15.43,15.43,0,0,0,.23-3.69Z"/><path class="b1838a08-c7ce-40c8-ae7f-fdbe346a3e3d" d="M38.19,25.14A18.25,18.25,0,0,0,35,23.26a1,1,0,0,0-.89,1.9,16.12,16.12,0,0,1,2.78,1.66,1,1,0,1,0,1.25-1.68Z"/><path class="b1838a08-c7ce-40c8-ae7f-fdbe346a3e3d" d="M27.43,3.13h.11c.57,0,1.15,0,1.73,0a1,1,0,0,0,.13-2.09c-.64,0-1.3,0-1.94,0a1,1,0,0,0,0,2.09Z"/><path class="b1838a08-c7ce-40c8-ae7f-fdbe346a3e3d" d="M17.31,30.29a18.27,18.27,0,0,0,3.14,1.88,1,1,0,0,0,.89-1.9,16.17,16.17,0,0,1-2.78-1.66,1,1,0,0,0-1.25,1.68Z"/><path class="b1838a08-c7ce-40c8-ae7f-fdbe346a3e3d" d="M13,11a1,1,0,0,0,1.43-.38,13.91,13.91,0,0,1,.9-1.37,14.49,14.49,0,0,1,1-1.21,1,1,0,1,0-1.53-1.43A16.51,16.51,0,0,0,13.71,8a16.1,16.1,0,0,0-1,1.57A1,1,0,0,0,13,11Z"/><path class="b1838a08-c7ce-40c8-ae7f-fdbe346a3e3d" d="M19.43,5.38A1,1,0,0,0,20,5.25a16.19,16.19,0,0,1,3-1.31,1,1,0,0,0-.65-2A18.29,18.29,0,0,0,19,3.43a1,1,0,0,0,.45,2Z"/><path class="b1838a08-c7ce-40c8-ae7f-fdbe346a3e3d" d="M10.84,14.55a15.43,15.43,0,0,0-.23,3.69,1,1,0,0,0,1,1h.13a1,1,0,0,0,1-1.11,13.36,13.36,0,0,1,.2-3.19,1,1,0,0,0-2.06-.38Z"/><path class="b1838a08-c7ce-40c8-ae7f-fdbe346a3e3d" d="M13.74,22.55a1,1,0,0,0-1.93.82,16.29,16.29,0,0,0,1.81,3.2,1,1,0,1,0,1.7-1.23A14.2,14.2,0,0,1,13.74,22.55Z"/><path class="b1838a08-c7ce-40c8-ae7f-fdbe346a3e3d" d="M32.76,24.37a1,1,0,0,0-.21-.12,6,6,0,0,0-2.47-2c5.51-1.48,12.51,0,17.63,4.05a17.72,17.72,0,0,1,2.93,2.94c2.5,3.21,3.34,6.87,2.31,10a1,1,0,1,0,2,.65c1.25-3.83.28-8.2-2.65-12A19.8,19.8,0,0,0,49,24.69c-7.48-6-18.67-6.76-24.95-1.74a1,1,0,0,0-.29.37,5.94,5.94,0,0,0-2,3.93A8.83,8.83,0,0,1,20.13,22c0-3.83,2.29-7.78,6.28-10.83a23.1,23.1,0,0,1,4-2.47c7.23-3.47,15.77-3.21,20.79.63a1,1,0,0,0,1.27-1.66c-5.61-4.29-15.06-4.64-23-.85a25.22,25.22,0,0,0-4.4,2.69C20.63,13,18,17.51,18,22a11.36,11.36,0,0,0,4.69,9.13,1,1,0,0,0,.19.1,6,6,0,0,0,2.49,2c-5.51,1.48-12.51,0-17.63-4.05a17.7,17.7,0,0,1-2.86-2.86C2,22.58,1.3,18.29,3.11,14.86a1,1,0,0,0-1.85-1c-2.21,4.19-1.46,9.32,2,13.73a19.82,19.82,0,0,0,3.2,3.19,23.55,23.55,0,0,0,14.47,5.05,16.72,16.72,0,0,0,10.48-3.31,1,1,0,0,0,.29-.37,5.94,5.94,0,0,0,2-3.93,8.83,8.83,0,0,1,1.68,5.24c0,3.83-2.29,7.78-6.28,10.83a23,23,0,0,1-4,2.44c-7.24,3.49-15.8,3.24-20.83-.6A1,1,0,0,0,3,47.83,19,19,0,0,0,14.51,51.3,26.71,26.71,0,0,0,26,48.65,25.17,25.17,0,0,0,30.36,46c4.51-3.45,7.1-8,7.1-12.49A11.36,11.36,0,0,0,32.76,24.37Zm-5,7.24a3.86,3.86,0,1,1,3.86-3.86A3.87,3.87,0,0,1,27.75,31.61Z"/><path class="b1838a08-c7ce-40c8-ae7f-fdbe346a3e3d" d="M56,45.63l-1.27-.55a3.84,3.84,0,0,1-2.17-2.45l-.82-2.79a1,1,0,0,0-2,0L49,42.63a3.84,3.84,0,0,1-2.17,2.45l-1.27.55a1,1,0,0,0,0,1.92l1.27.55A3.84,3.84,0,0,1,49,50.56l.82,2.79a1,1,0,0,0,2,0l.82-2.79a3.84,3.84,0,0,1,2.17-2.45L56,47.55a1,1,0,0,0,0-1.92Zm-5.26,3.79a5.93,5.93,0,0,0-2.37-2.83,5.93,5.93,0,0,0,2.37-2.83,5.93,5.93,0,0,0,2.37,2.83A5.93,5.93,0,0,0,50.78,49.42Z"/><path class="b1838a08-c7ce-40c8-ae7f-fdbe346a3e3d" d="M.63,8.29l1.24.53A3.71,3.71,0,0,1,4,11.19l.79,2.71a1,1,0,0,0,2,0l.79-2.71A3.71,3.71,0,0,1,9.65,8.82l1.23-.53a1,1,0,0,0,0-1.92L9.65,5.83A3.71,3.71,0,0,1,7.56,3.46L6.76.75a1,1,0,0,0-2,0L4,3.46A3.71,3.71,0,0,1,1.87,5.83L.63,6.37a1,1,0,0,0,0,1.92ZM5.76,4.65A5.79,5.79,0,0,0,8,7.33,5.8,5.8,0,0,0,5.76,10,5.79,5.79,0,0,0,3.5,7.33,5.8,5.8,0,0,0,5.76,4.65Z"/></g></g></g></svg>