<svg xmlns="http://www.w3.org/2000/svg" width="55.19" height="58.02" viewBox="0 0 55.19 58.02"><defs><style>.\34 053465a-4496-40aa-b35a-e981d9be12ce{opacity:0.8;}.e3d56c68-74eb-494c-b714-57758b9410df{fill:#fff;}</style></defs><title>ico_ext</title><g id="2453aa9a-96f3-47cd-a4ed-43c70211b973" data-name="Layer 2"><g id="4cb74a36-ce9d-413b-b8ca-bf27b01846e8" data-name="Layer 1"><g id="dbc547c6-68d5-4165-806c-4735d84b3f6d" data-name="13" class="4053465a-4496-40aa-b35a-e981d9be12ce"><path class="e3d56c68-74eb-494c-b714-57758b9410df" d="M9.61,17.18a1.06,1.06,0,0,0,1.4-.54,13,13,0,0,1,4.54-5.45,1.06,1.06,0,1,0-1.2-1.75,15.15,15.15,0,0,0-5.28,6.34A1.06,1.06,0,0,0,9.61,17.18Z"/><path class="e3d56c68-74eb-494c-b714-57758b9410df" d="M35.57,46.89a83.8,83.8,0,0,1-16,0,1.06,1.06,0,0,0-.2,2.11c2.74.26,5.5.4,8.25.4s5.44-.13,8.13-.39a1.06,1.06,0,0,0-.2-2.11Z"/><path class="e3d56c68-74eb-494c-b714-57758b9410df" d="M18.41,9.64a1.05,1.05,0,0,0,.34-.06,13.13,13.13,0,0,1,3.64-.68,1.06,1.06,0,0,0-.09-2.12,15.22,15.22,0,0,0-4.23.79,1.06,1.06,0,0,0,.34,2.07Z"/><path class="e3d56c68-74eb-494c-b714-57758b9410df" d="M50.91,19.18a1.05,1.05,0,0,0,0-.25V8a4.07,4.07,0,1,0-2.12,0v4.54A19,19,0,0,0,32.53,2.21c-3.3-.12-6.62-.12-9.89,0a19,19,0,0,0-18.27,17A5.13,5.13,0,0,0,0,24.23v8.84a5.13,5.13,0,0,0,4.27,5.05,15.21,15.21,0,0,0,1.89,6.63,3.24,3.24,0,0,0-1.43,4.31c2.36,4.81,7.56,8.1,13.57,8.58,3.09.25,6.24.37,9.36.37s6.18-.12,9.22-.36c6.44-.51,11.94-4.26,14-9.56a3.21,3.21,0,0,0-1.49-4,15.23,15.23,0,0,0,1.52-5.93,5.13,5.13,0,0,0,4.27-5.05V24.23A5.13,5.13,0,0,0,50.91,19.18Zm-3-15.11A1.95,1.95,0,1,1,49.88,6,1.95,1.95,0,0,1,47.93,4.07ZM6.37,21.33a16.9,16.9,0,0,1,16.34-17c1.56-.05,3.13-.08,4.7-.08s3.37,0,5,.09a16.93,16.93,0,0,1,16.36,17v16a12.94,12.94,0,0,1-11.72,13h0a99.78,99.78,0,0,1-19,0,12.94,12.94,0,0,1-11.7-13ZM2.12,33.08V24.23a3,3,0,0,1,2.12-2.87V36A3,3,0,0,1,2.12,33.08ZM48.9,46.45a1.11,1.11,0,0,1,0,.86c-1.79,4.55-6.58,7.78-12.22,8.22a116,116,0,0,1-18.24,0c-5.26-.42-9.8-3.25-11.83-7.4a1.12,1.12,0,0,1,.51-1.5l.17-.11a15,15,0,0,0,10.56,5.89c3.25.31,6.52.47,9.79.47s6.45-.15,9.65-.46a15,15,0,0,0,11-6.54A1.11,1.11,0,0,1,48.9,46.45Zm4.16-13.38A3,3,0,0,1,50.94,36V21.36a3,3,0,0,1,2.12,2.87Z"/><path class="e3d56c68-74eb-494c-b714-57758b9410df" d="M19.07,45.08a79.72,79.72,0,0,0,8.71.48,77.41,77.41,0,0,0,8.36-.45h0A11.81,11.81,0,0,0,46.7,33.36V28.87A11.86,11.86,0,0,0,36,17.1,98.62,98.62,0,0,0,19.31,17,11.87,11.87,0,0,0,8.49,28.8v4.53A11.83,11.83,0,0,0,19.07,45.08ZM10.61,28.8a9.74,9.74,0,0,1,8.88-9.66c2.5-.21,5-.31,7.62-.31,2.86,0,5.76.13,8.68.38a9.73,9.73,0,0,1,8.79,9.65v4.49A9.69,9.69,0,0,1,35.91,43h0A76.48,76.48,0,0,1,19.3,43a9.71,9.71,0,0,1-8.69-9.64Z"/><path class="e3d56c68-74eb-494c-b714-57758b9410df" d="M40.6,29.15V31a1.06,1.06,0,0,0,2.12,0v-1.8a1.06,1.06,0,1,0-2.12,0Z"/><path class="e3d56c68-74eb-494c-b714-57758b9410df" d="M27.58,23.15c2.09,0,4.23.11,6.38.3a7.3,7.3,0,0,1,5.58,3.49,1.06,1.06,0,0,0,1.82-1.1,9.43,9.43,0,0,0-7.21-4.5c-2.2-.19-4.4-.29-6.55-.31h0a1.06,1.06,0,0,0,0,2.12Z"/></g></g></g></svg>