<svg xmlns="http://www.w3.org/2000/svg" width="16" height="17.3" viewBox="0 0 16 17.3"><defs><style>.e0f4ebb0-db6e-4916-95c8-f3939a939ab0{fill:none;}.a1ce9dd8-4f94-4f70-9fd8-ec580cc9918b{fill:#fff;}</style></defs><title>cloud_overview_scale</title><g id="e043b798-f5e4-4e14-8f18-7638ec96e63c" data-name="Layer 2"><g id="cb657568-340b-4dc2-aa68-a2dc7e6c2610" data-name="Layer 1"><path class="e0f4ebb0-db6e-4916-95c8-f3939a939ab0" d="M12.17,7.54h0l.46-.46-.46.46a1.57,1.57,0,1,0,.46,1.11,1.56,1.56,0,0,0-.46-1.11Z"/><path class="e0f4ebb0-db6e-4916-95c8-f3939a939ab0" d="M6.05,13.32h0l.46-.46-.46.46a1.57,1.57,0,1,0,.46,1.11,1.56,1.56,0,0,0-.46-1.11Z"/><path class="e0f4ebb0-db6e-4916-95c8-f3939a939ab0" d="M6.05,1.76h0l.46-.46-.46.46a1.57,1.57,0,1,0,.46,1.11,1.56,1.56,0,0,0-.46-1.11Z"/><path class="a1ce9dd8-4f94-4f70-9fd8-ec580cc9918b" d="M7.73,2.22A2.85,2.85,0,0,0,7,.84H7A2.86,2.86,0,0,0,2.15,2.22H0v1.3H2.15a2.86,2.86,0,0,0,5.58,0H16V2.22ZM6,4a1.57,1.57,0,1,1,0-2.23l.46-.46-.46.46A1.57,1.57,0,0,1,6,4Z"/><polygon class="a1ce9dd8-4f94-4f70-9fd8-ec580cc9918b" points="6.05 1.76 6.05 1.76 6.05 1.76 6.05 1.76"/><polygon class="a1ce9dd8-4f94-4f70-9fd8-ec580cc9918b" points="12.17 7.54 12.17 7.54 12.17 7.54 12.17 7.54"/><path class="a1ce9dd8-4f94-4f70-9fd8-ec580cc9918b" d="M13.09,6.62h0A2.86,2.86,0,0,0,8.27,8H0V9.3H8.27a2.86,2.86,0,0,0,5.58,0H16V8H13.85A2.85,2.85,0,0,0,13.09,6.62Zm-.92,3.14a1.57,1.57,0,1,1,0-2.22l.46-.46-.46.46a1.57,1.57,0,0,1,0,2.22Z"/><path class="a1ce9dd8-4f94-4f70-9fd8-ec580cc9918b" d="M7,12.4H7a2.86,2.86,0,0,0-4.82,1.38H0v1.3H2.15a2.86,2.86,0,0,0,5.58,0H16v-1.3H7.73A2.86,2.86,0,0,0,7,12.4ZM6,15.54a1.57,1.57,0,1,1,0-2.22l.46-.46-.46.46a1.57,1.57,0,0,1,0,2.22Z"/><polygon class="a1ce9dd8-4f94-4f70-9fd8-ec580cc9918b" points="6.05 13.32 6.05 13.32 6.05 13.32 6.05 13.32"/></g></g></svg>