<svg xmlns="http://www.w3.org/2000/svg" width="12.21" height="16.08" viewBox="0 0 12.21 16.08"><defs><style>.\34 b80e4dd-a8a4-4f21-b509-556c2c2cda94{fill:none;}.cb7223b4-5ed8-48dd-9c5c-85365b9b7d9b{fill:#fff;}</style></defs><title>cloud_overview_trash</title><g id="590bc9b9-4ef8-4481-b943-3bffa7fe6bbb" data-name="Layer 2"><g id="66e80bac-188e-4305-b99b-8a8dd6599742" data-name="Layer 1"><path class="4b80e4dd-a8a4-4f21-b509-556c2c2cda94" d="M1.52,13.51A1.28,1.28,0,0,0,2.8,14.78H9.42a1.28,1.28,0,0,0,1.27-1.27V3.92H1.52Zm6.55-6.8h1.3V12H8.07Zm-2.62-1h1.3v7.22H5.46Zm-2.62,1h1.3V12H2.84Z"/><path class="4b80e4dd-a8a4-4f21-b509-556c2c2cda94" d="M8.33,1.46a.22.22,0,0,0-.21-.16h-4a.22.22,0,0,0-.21.15L3.51,2.62h5.2Z"/><path class="cb7223b4-5ed8-48dd-9c5c-85365b9b7d9b" d="M12.21,2.62H10.07l-.5-1.56A1.52,1.52,0,0,0,8.12,0h-4A1.52,1.52,0,0,0,2.64,1.06l-.5,1.56H0v1.3H.22v9.59A2.57,2.57,0,0,0,2.8,16.08H9.42A2.57,2.57,0,0,0,12,13.51V3.92h.22ZM3.88,1.45a.22.22,0,0,1,.21-.15h4a.22.22,0,0,1,.21.16l.37,1.16H3.51Zm6.81,12.05a1.28,1.28,0,0,1-1.27,1.27H2.8a1.28,1.28,0,0,1-1.27-1.27V3.92h9.17Z"/><rect class="cb7223b4-5ed8-48dd-9c5c-85365b9b7d9b" x="2.84" y="6.71" width="1.3" height="5.29"/><rect class="cb7223b4-5ed8-48dd-9c5c-85365b9b7d9b" x="5.46" y="5.69" width="1.3" height="7.22"/><rect class="cb7223b4-5ed8-48dd-9c5c-85365b9b7d9b" x="8.07" y="6.71" width="1.3" height="5.29"/></g></g></svg>