<svg xmlns="http://www.w3.org/2000/svg" width="21.37" height="9.65" viewBox="0 0 21.37 9.65"><defs><style>.\31 f338de7-f200-4f1a-9c93-a780abab8309{fill:none;stroke:#bc5bae;stroke-linecap:round;stroke-linejoin:round;stroke-width:1.2px;}</style></defs><title>cloud_overview_ram_1</title><g id="9772159f-5233-4769-9c10-7e159c0af902" data-name="Layer 2"><g id="1bbb482a-b500-45f7-a384-620902c10f01" data-name="Layer 1"><path class="1f338de7-f200-4f1a-9c93-a780abab8309" d="M.61,6.93h0A.46.46,0,0,1,1,6.45h0A1.61,1.61,0,0,0,2.16,4.54,1.58,1.58,0,0,0,.94,3.32H1a.47.47,0,0,1-.34-.47V1.6h0a1,1,0,0,1,1-1H19.8a1,1,0,0,1,1,1h0V8.09h0a1,1,0,0,1-1,1H1.56a1,1,0,0,1-1-1Z"/><path class="1f338de7-f200-4f1a-9c93-a780abab8309" d="M5.08,3.48H9.14A.48.48,0,0,1,9.63,4V5.79h0a.49.49,0,0,1-.49.49H5a.5.5,0,0,1-.49-.5h0V3.93h0A.48.48,0,0,1,5,3.44Z"/><path class="1f338de7-f200-4f1a-9c93-a780abab8309" d="M13.46,3.5h4.07A.48.48,0,0,1,18,4V5.82h0a.49.49,0,0,1-.49.49h-4.1a.5.5,0,0,1-.49-.5h0V4h0a.48.48,0,0,1,.48-.5Z"/></g></g></svg>