<svg xmlns="http://www.w3.org/2000/svg" width="37.65" height="30.51" viewBox="0 0 37.65 30.51"><defs><style>.b5b808bc-0e68-40c8-827a-92d05b188e19{fill:none;stroke:#70b5ef;stroke-linecap:round;stroke-linejoin:round;stroke-width:1.7px;}</style></defs><title>cloud_overview_paymethod</title><g id="99b1a0b2-84bb-4884-902d-a10f8cfdb65d" data-name="Layer 2"><g id="d7e84f5e-aaae-40b1-badb-18cdf51bfd6e" data-name="Layer 1"><path class="b5b808bc-0e68-40c8-827a-92d05b188e19" d="M.85,17.06,5.44,9.4h0A5.29,5.29,0,0,1,7.63,7.35l1-.54v0a5.29,5.29,0,0,1,2.41-.58h4.12"/><path class="b5b808bc-0e68-40c8-827a-92d05b188e19" d="M4.45,29.66,14.81,25.9h0a7.29,7.29,0,0,0,3.53-2.79L23.7,15v0a3,3,0,0,0-.38-3.74h0l0,0a3,3,0,0,0-4.19,0l-4,3.92h-3.6"/><path class="b5b808bc-0e68-40c8-827a-92d05b188e19" d="M15.24,15.26V5.37h0A4.48,4.48,0,0,1,19.72.85H32.3a4.47,4.47,0,0,1,4.5,4.48h0v7.2h0A4.5,4.5,0,0,1,32.3,17H22.39"/><path class="b5b808bc-0e68-40c8-827a-92d05b188e19" d="M31.44,6.27H26"/><path class="b5b808bc-0e68-40c8-827a-92d05b188e19" d="M31.44,11.66h-1.8"/></g></g></svg>