<svg xmlns="http://www.w3.org/2000/svg" width="32.7" height="32.7" viewBox="0 0 32.7 32.7"><defs><style>.\36 7b69edc-5a02-4ed0-a568-d826f2b62bda{fill:none;stroke:#70b5ef;stroke-linecap:round;stroke-linejoin:round;stroke-width:1.7px;}</style></defs><title>cloud_overview_ram</title><g id="c77fc462-916f-4fb4-b117-276c24daa084" data-name="Layer 2"><g id="4668da76-9229-47d9-a583-576c1db46307" data-name="Layer 1"><path class="67b69edc-5a02-4ed0-a568-d826f2b62bda" d="M7.34,30.12l0,0a.74.74,0,0,1-.14-.92h0a2.57,2.57,0,0,0-.78-3.52,2.52,2.52,0,0,0-2.75,0v0a.75.75,0,0,1-.92-.14L1.32,24.1l0,0a1.55,1.55,0,0,1,0-2.19L21.88,1.31h0a1.54,1.54,0,0,1,2.17,0h0l7.37,7.37h0a1.56,1.56,0,0,1,0,2.17h0L10.81,31.41h0a1.56,1.56,0,0,1-2.19,0Z"/><path class="67b69edc-5a02-4ed0-a568-d826f2b62bda" d="M8.48,21.17l4.6-4.6h0a.77.77,0,0,1,1.09,0l2.07,2.07h0a.79.79,0,0,1,0,1.1l-4.61,4.61h0a.79.79,0,0,1-1.11,0h0L8.42,22.27h0a.77.77,0,0,1,0-1.1Z"/><path class="67b69edc-5a02-4ed0-a568-d826f2b62bda" d="M18,11.74l4.6-4.6h0a.77.77,0,0,1,1.09,0l2.07,2.07h0a.79.79,0,0,1,0,1.1l-4.61,4.61h0a.79.79,0,0,1-1.11,0h0l-2.08-2.08h0a.77.77,0,0,1,0-1.1Z"/></g></g></svg>