<svg xmlns="http://www.w3.org/2000/svg" width="22" height="22" viewBox="0 0 22 22"><defs><style>.b0df43a2-612a-44af-8be6-b6a1674e91ac{fill:#e1f0ff;}.bcac9ce3-7f8c-482c-9a41-7f6eaa0ed90f{fill:none;stroke:#036691;stroke-linecap:round;stroke-linejoin:round;}</style></defs><title>cloud_overview_copy</title><g id="88dad698-8924-46f3-bc23-76d619850b42" data-name="Layer 2"><g id="7af0f093-2275-4456-ba0b-ea0481ff1ec2" data-name="Layer 1"><circle class="b0df43a2-612a-44af-8be6-b6a1674e91ac" cx="11" cy="11" r="11"/><path class="bcac9ce3-7f8c-482c-9a41-7f6eaa0ed90f" d="M12.83,15.42v-4.6h0a.86.86,0,0,0-.25-.61L11.36,9h0a.86.86,0,0,0-.61-.25h-3a.86.86,0,0,0-.86.86h0v5.82h0a.86.86,0,0,0,.86.86H12a.86.86,0,0,0,.86-.86Z"/><path class="bcac9ce3-7f8c-482c-9a41-7f6eaa0ed90f" d="M12.83,14.13h1.83a.86.86,0,0,0,.86-.86h0V7.66h0a1.08,1.08,0,0,0-1.08-1.08h-4a.86.86,0,0,0-.86.86V8.74"/><path class="bcac9ce3-7f8c-482c-9a41-7f6eaa0ed90f" d="M12.83,10.89H11.11a.43.43,0,0,1-.43-.43h0V8.74"/></g></g></svg>