<svg xmlns="http://www.w3.org/2000/svg" width="15.2" height="15.82" viewBox="0 0 15.2 15.82"><defs><style>.\37 9f3e5cb-f42b-45fe-a100-91a4e41c9b67{fill:none;stroke:#9797ce;stroke-miterlimit:10;stroke-width:1.2px;}</style></defs><title>cloud_overview_gear</title><g id="f5b9a88c-3e8d-4d52-be92-d15e332bc2fc" data-name="Layer 2"><g id="c0dccc64-d138-41b5-a297-95cc3206bc96" data-name="Layer 1"><path class="79f3e5cb-f42b-45fe-a100-91a4e41c9b67" d="M9.15,6.36a2.19,2.19,0,1,1-3.1,0,2.19,2.19,0,0,1,3.1,0"/><path class="79f3e5cb-f42b-45fe-a100-91a4e41c9b67" d="M2.12,7.91a5.8,5.8,0,0,0,.05.72l-1.29,1a.73.73,0,0,0-.18.94l1.15,2a.73.73,0,0,0,.9.31L3.9,12.4a.74.74,0,0,1,.69.08,5.75,5.75,0,0,0,.56.33.74.74,0,0,1,.41.55l.18,1.23a.73.73,0,0,0,.72.62H8.74a.73.73,0,0,0,.72-.62l.18-1.23a.75.75,0,0,1,.42-.55,5.31,5.31,0,0,0,.55-.32.74.74,0,0,1,.69-.08l1.15.46a.73.73,0,0,0,.9-.31l1.15-2a.73.73,0,0,0-.18-.94L13,8.62a5.8,5.8,0,0,0,.05-.72A5.8,5.8,0,0,0,13,7.19l1.29-1a.73.73,0,0,0,.18-.94l-1.15-2a.73.73,0,0,0-.9-.31l-1.15.46a.75.75,0,0,1-.69-.08A5.31,5.31,0,0,0,10.06,3a.74.74,0,0,1-.42-.55L9.47,1.22A.73.73,0,0,0,8.74.6H6.46a.73.73,0,0,0-.72.62L5.56,2.45A.75.75,0,0,1,5.15,3a5.75,5.75,0,0,0-.56.33.74.74,0,0,1-.69.08L2.75,2.95a.73.73,0,0,0-.9.31L.7,5.24a.73.73,0,0,0,.18.94l1.29,1A5.8,5.8,0,0,0,2.12,7.91Z"/></g></g></svg>