<svg xmlns="http://www.w3.org/2000/svg" width="14.29" height="14.3" viewBox="0 0 14.29 14.3"><defs><style>.e5025c49-fa22-4d4c-bf55-59c835e3e3c1{fill:#fff;}</style></defs><title>cloud_overview_refresh</title><g id="b37d32de-607f-4466-87e6-44365aa8f570" data-name="Layer 2"><g id="c8a72d0d-f2eb-46fd-894f-8ff7961dc129" data-name="Layer 1"><path class="e5025c49-fa22-4d4c-bf55-59c835e3e3c1" d="M13,7.17h0A5.85,5.85,0,0,1,3,11.29c-.12-.12-.22-.25-.33-.38H3.93V9.61H.41v3.52h1.3V11.77c.12.15.24.3.38.44a7.14,7.14,0,0,0,12.2-5Z"/><path class="e5025c49-fa22-4d4c-bf55-59c835e3e3c1" d="M1.3,7.06a5.85,5.85,0,0,1,10-4c.12.12.22.25.33.38H10.36v1.3h3.52V1.17h-1.3V2.53c-.12-.15-.24-.3-.38-.44A7.15,7.15,0,0,0,0,7l1.3,0Z"/></g></g></svg>