<svg xmlns="http://www.w3.org/2000/svg" xmlns:xlink="http://www.w3.org/1999/xlink" width="18.54" height="19.44" viewBox="0 0 18.54 19.44"><defs><linearGradient id="b5e7f923-2b58-4f0b-afe4-0e63b6a23635" x1="1.8" y1="4.82" x2="14.93" y2="4.82" gradientUnits="userSpaceOnUse"><stop offset="0" stop-color="#7695f6"/><stop offset="0.34" stop-color="#7698f4"/><stop offset="0.62" stop-color="#76a3ed"/><stop offset="0.89" stop-color="#75b5e2"/><stop offset="1" stop-color="#75bedc"/></linearGradient><linearGradient id="2ed135ad-1198-4d56-967b-5f2e0bd6c31f" x1="13.53" y1="11.84" x2="15.38" y2="11.84" xlink:href="#b5e7f923-2b58-4f0b-afe4-0e63b6a23635"/><linearGradient id="b026269e-e3a2-4133-9d99-008584c48b3e" x1="1.8" y1="11.68" x2="18.54" y2="11.68" xlink:href="#b5e7f923-2b58-4f0b-afe4-0e63b6a23635"/><linearGradient id="c9ff6d46-5fe3-4730-afb0-b137e0d8d15f" x1="0" y1="13.78" x2="11.32" y2="13.78" xlink:href="#b5e7f923-2b58-4f0b-afe4-0e63b6a23635"/><linearGradient id="056e80bb-34ef-4b59-a93e-5a356336b682" x1="4.96" y1="13.78" x2="6.36" y2="13.78" xlink:href="#b5e7f923-2b58-4f0b-afe4-0e63b6a23635"/><linearGradient id="94ed44be-dfa5-4895-a4db-22efe558e8a0" x1="3.68" y1="13.78" x2="7.64" y2="13.78" xlink:href="#b5e7f923-2b58-4f0b-afe4-0e63b6a23635"/></defs><title>ico_title_add_credit_wsp</title><g id="168ecd83-5d06-4926-b253-7e6934f73c89" data-name="Layer 2"><g id="f04db5a7-4264-40af-b18c-8e131727f7bf" data-name="Layer 1"><path d="M2.5,9.63V6.19A2.71,2.71,0,0,1,4.25,3.66L11.79.82a1.8,1.8,0,0,1,2.44,1.69v3" style="fill:none;stroke-miterlimit:10;stroke-width:1.39999997615814px;stroke:url(#b5e7f923-2b58-4f0b-afe4-0e63b6a23635)"/><path d="M14.45,11.61a.23.23,0,1,0,.23.23.23.23,0,0,0-.23-.23" style="fill:none;stroke-miterlimit:10;stroke-width:1.39999997615814px;stroke:url(#2ed135ad-1198-4d56-967b-5f2e0bd6c31f)"/><path d="M8.51,17.84h6.62a2.71,2.71,0,0,0,2.71-2.71V8.23a2.71,2.71,0,0,0-2.71-2.71H4.31a1.8,1.8,0,0,0-1.8,1.8V10" style="fill:none;stroke-miterlimit:10;stroke-width:1.39999997615814px;stroke:url(#b026269e-e3a2-4133-9d99-008584c48b3e)"/><path d="M5.66,18.74a5,5,0,1,1,5-5,5,5,0,0,1-5,5" style="fill:none;stroke-miterlimit:10;stroke-width:1.39999997615814px;stroke:url(#c9ff6d46-5fe3-4730-afb0-b137e0d8d15f)"/><path d="M5.66,11.8v4" style="fill:none;stroke-miterlimit:10;stroke-width:1.39999997615814px;stroke:url(#056e80bb-34ef-4b59-a93e-5a356336b682)"/><path d="M7.64,13.78h-4" style="fill:none;stroke-miterlimit:10;stroke-width:1.39999997615814px;stroke:url(#94ed44be-dfa5-4895-a4db-22efe558e8a0)"/></g></g></svg>