<?xml version="1.0" encoding="utf-8"?>
<!-- Generator: Adobe Illustrator 26.5.0, SVG Export Plug-In . SVG Version: 6.00 Build 0)  -->
<svg version="1.1" id="Layer_1" xmlns="http://www.w3.org/2000/svg" xmlns:xlink="http://www.w3.org/1999/xlink" x="0px" y="0px"
	 viewBox="0 0 111.6 30.2" style="enable-background:new 0 0 111.6 30.2;" xml:space="preserve">
<style type="text/css">
	.st0{fill:#D50C2D;}
	.st1{fill:#FFFFFF;}
</style>
<g>
	<g id="Ebene_2_00000036950894563824836450000011218226996422990015_">
		<g id="Logo_Pur_00000036214477066753077640000014629899345399850430_">
			<g id="Logo_00000097479506922345531500000017882191757538678420_">
				<g id="HETZNER_00000062158344412367035960000004396042067186408638_">
					<path class="st0" d="M73.1,16.2c0.7-0.1,1.3-0.4,1.9-0.8l0,0c0.5-0.5,0.8-1.3,0.7-2c0-0.6-0.2-1.2-0.5-1.7
						c-0.5-0.8-1.3-1.3-2.2-1.3h-0.5l-1.1,0h-4.8c-0.3,0-0.4,0.1-0.4,0.4v8.5c0,0.3,0.1,0.4,0.4,0.4h1.3c0.3,0,0.4-0.1,0.4-0.4v-2.8
						h1.5c0.3,0,0.7,0.2,0.9,0.4l2.4,2.5c0.2,0.2,0.5,0.4,0.8,0.4H76c0.3,0,0.4-0.2,0.2-0.4L73.1,16.2z M72.8,14.4h-4.5v-2.1h4.5
						c0.5,0.1,0.8,0.4,0.8,0.9v0.3C73.6,14,73.3,14.4,72.8,14.4L72.8,14.4z"/>
					<path class="st0" d="M64.3,17.7h-6.9v-1.8h5.5c0.3,0,0.4-0.1,0.4-0.4v-1c0-0.3-0.1-0.4-0.4-0.4h-5.5v-1.7h6.9
						c0.3,0,0.4-0.1,0.4-0.4v-1.2c0-0.3-0.1-0.4-0.4-0.4h-8.7c-0.3,0-0.4,0.1-0.4,0.4v8.5c0,0.3,0.1,0.4,0.4,0.4h8.7
						c0.3,0,0.4-0.1,0.4-0.4v-1.1C64.7,17.8,64.6,17.7,64.3,17.7z"/>
					<path class="st0" d="M53.7,13.4c0-0.6-0.2-1.2-0.5-1.7c-0.5-0.8-1.3-1.3-2.3-1.4h-6.4c-0.3,0-0.4,0.1-0.4,0.4v8.5
						c0,0.3,0.1,0.4,0.4,0.4h1.4c0.3,0,0.4-0.1,0.4-0.4v-6.9h3.7c0.8,0,1.6,0.5,1.6,1.3v5.6c0,0.3,0.1,0.4,0.4,0.4h1.2
						c0.3,0,0.4-0.1,0.4-0.4L53.7,13.4z"/>
					<path class="st0" d="M42.2,17.6h-6l6-5.3c0.2-0.2,0.4-0.5,0.4-0.8v-0.8c0-0.3-0.1-0.4-0.4-0.4h-8.7c-0.3,0-0.4,0.1-0.4,0.4v1.2
						c0,0.3,0.1,0.4,0.4,0.4h5.6l-5.6,5.2c-0.2,0.2-0.4,0.5-0.4,0.8v0.9c0,0.3,0.1,0.4,0.4,0.4h8.7c0.3,0,0.4-0.1,0.4-0.4V18
						C42.6,17.7,42.5,17.6,42.2,17.6z"/>
					<path class="st0" d="M31.2,10.3h-8.7c-0.3,0-0.4,0.1-0.4,0.4v1.2c0,0.3,0.1,0.4,0.4,0.4h3.3v6.9c0,0.3,0.1,0.4,0.4,0.4h1.4
						c0.3,0,0.4-0.1,0.4-0.4v-6.9h3.2c0.3,0,0.4-0.1,0.4-0.4v-1.2C31.6,10.4,31.5,10.3,31.2,10.3z"/>
					<path class="st0" d="M20.1,17.7h-6.9v-1.8h5.5c0.3,0,0.4-0.1,0.4-0.4v-1c0-0.3-0.1-0.4-0.4-0.4h-5.5v-1.7h6.9
						c0.3,0,0.4-0.1,0.4-0.4v-1.2c0-0.3-0.1-0.4-0.4-0.4h-8.6c-0.3,0-0.4,0.1-0.4,0.4v8.5c0,0.3,0.1,0.4,0.4,0.4h8.6
						c0.3,0,0.4-0.1,0.4-0.4v-1.1C20.5,17.8,20.4,17.7,20.1,17.7z"/>
					<path class="st0" d="M9.1,10.3H7.8c-0.3,0-0.4,0.1-0.4,0.4V14H2.2v-3.3c0-0.3-0.1-0.4-0.4-0.4H0.4c-0.3,0-0.4,0.1-0.4,0.4v8.5
						c0,0.3,0.1,0.4,0.4,0.4h1.3c0.3,0,0.4-0.1,0.4-0.4v-3.4h5.2v3.4c0,0.3,0.1,0.4,0.4,0.4h1.3c0.3,0,0.4-0.1,0.4-0.4v-8.5
						C9.5,10.4,9.4,10.3,9.1,10.3z"/>
				</g>
			</g>
		</g>
	</g>
	<g>
		<circle class="st0" cx="96.5" cy="15.1" r="15.1"/>
		<path class="st1" d="M103.8,7.2h-2.2c-0.5,0-0.7,0.2-0.7,0.7v5.6h-8.8V7.9c0-0.5-0.2-0.7-0.7-0.7h-2.2c-0.5,0-0.7,0.2-0.7,0.7
			v14.4c0,0.5,0.2,0.7,0.7,0.7h2.2c0.5,0,0.7-0.2,0.7-0.7v-5.7h8.8v5.7c0,0.5,0.2,0.7,0.7,0.7h2.2c0.5,0,0.7-0.2,0.7-0.7V7.9
			C104.5,7.5,104.3,7.2,103.8,7.2z"/>
	</g>
</g>
</svg>
