<?xml version="1.0" encoding="utf-8"?>
<!-- Generator: Adobe Illustrator 26.5.0, SVG Export Plug-In . SVG Version: 6.00 Build 0)  -->
<svg version="1.1" id="Layer_1" xmlns="http://www.w3.org/2000/svg" xmlns:xlink="http://www.w3.org/1999/xlink" x="0px" y="0px"
	 viewBox="0 0 108.7 31.2" style="enable-background:new 0 0 108.7 31.2;" xml:space="preserve">
<style type="text/css">
	.st0{fill:#E93A3C;}
</style>
<g>
	<g>
		<path class="st0" d="M93.1,0c-8.6,0-15.6,7-15.6,15.6c0,8.6,7,15.6,15.6,15.6c8.6,0,15.6-7,15.6-15.6C108.7,7,101.7,0,93.1,0z
			 M98.4,23.8L98.4,23.8L94,28.1l-0.6,0.6L93.1,29l-0.3,0.3h0L92.2,30L92,30.1l0,0l-0.2,0.2l-0.1-5c0-0.1-0.1-0.1-0.1-0.1
			c-4.8-0.6-8.3-4.6-8.3-9.6c0-5.4,4.4-9.7,9.7-9.7c1.7,0,3.2,0.4,4.6,1.2c0,0,0,0,0,0c0,0,0,0,0,0c0,0,0,0,0,0
			c3.1,1.6,5.1,4.9,5.1,8.6C102.8,19.1,101.3,22.1,98.4,23.8z"/>
	</g>
	<g>
		<path class="st0" d="M51.2,17.2c0-0.1,0-0.1-0.1-0.2c-0.6-1.5-0.4-3,0.5-4.4c0.1-0.2,0.2-0.3,0.2-0.5c0-0.6,0-1.3,0-1.9
			c0-0.3,0-0.3,0.3-0.3c3.1,0,6.2,0,9.3,0c0.9,0,1.8,0.3,2.5,0.8c1.3,0.9,2.2,2.1,2.4,3.7c0.3,1.9-0.2,3.5-1.6,4.8
			c-0.9,0.8-1.9,1.3-3.1,1.5c-0.1,0-0.3,0-0.5,0c-3,0-6,0-9.1,0c-1.2,0-2.4-0.3-3.4-1c-1.4-0.9-2.3-2.2-2.7-3.9
			c-0.1-0.5-0.1-1-0.1-1.5c0-2.1,0-4.2,0-6.4c0-0.1,0-0.1,0-0.2c0-0.3,0-0.3,0.3-0.3c0.9,0,1.8,0,2.7,0c0.3,0,0.3,0.1,0.3,0.3
			c0,0.1,0,0.2,0,0.2c0,2.2,0,4.5,0,6.7c0,1.1,0.9,2.2,1.9,2.5C51.1,17.2,51.1,17.2,51.2,17.2z M57.6,15.3c0-1-0.9-2.1-2.1-2.1
			c-1.1,0-2.1,1-2.1,2.1c0,1.2,0.9,2.1,2.1,2.1C56.7,17.4,57.6,16.4,57.6,15.3z M59.9,13.3c0,0.1,0.1,0.2,0.1,0.4
			c0.3,0.8,0.4,1.7,0.2,2.5c-0.1,0.3-0.2,0.6-0.2,0.9c-0.1,0.3,0,0.4,0.3,0.4c0.2,0,0.4,0,0.7,0c0.7,0,1.2-0.3,1.7-0.7
			c0.6-0.7,0.7-1.8,0.1-2.6C62.1,13.3,61,12.9,59.9,13.3z"/>
		<path class="st0" d="M30.6,14.1c0.1,0,0.2,0,0.3,0c0.9,0,1.7,0,2.6,0c0.4,0,0.4,0,0.4,0.4c0,0.8,0,1.5,0,2.3c0,1,0.6,1.8,1.6,2
			c0.1,0,0.3,0,0.4,0c1.2,0,2.3,0,3.5,0c0.9,0,1.7-0.6,1.9-1.4c0.2-0.8,0.1-1.4-0.7-1.8c-0.2-0.1-0.4-0.1-0.6-0.1c-0.7,0-1.3,0-2,0
			c-0.3,0-0.4,0-0.4-0.4c0-0.9,0-1.9,0-2.8c0.1-2.4,1.8-4.4,4.2-4.8c0.5-0.1,1.1,0,1.7-0.1c0.3,0,0.6,0,0.9,0c0.2,0,0.3,0,0.3,0.3
			c0,0.1,0,0.2,0,0.3c0,0.7,0,1.5,0,2.2c0,0.5,0,0.5-0.5,0.5c-0.5,0-1,0-1.6,0c-0.7,0-1.2,0.4-1.5,1.1c-0.2,0.4-0.1,0.5,0.3,0.6
			c1,0.3,1.9,0.9,2.5,1.8c0.7,0.9,0.9,1.9,0.8,3.1c-0.1,1.1-0.4,2-1.1,2.9c-0.9,1.1-2,1.7-3.3,1.9c-0.4,0.1-0.7,0.1-1.1,0.1
			c-1.1,0-2.2,0-3.2,0c-1.4,0-2.6-0.5-3.7-1.5c-1.1-1.1-1.6-2.4-1.6-3.9c0-0.8,0-1.7,0-2.5C30.6,14.2,30.6,14.2,30.6,14.1z"/>
		<path class="st0" d="M28.4,13c-0.2,0-0.3,0-0.4,0c-0.8,0-1.6,0-2.4,0c-0.4,0-0.4,0-0.4-0.4c0-0.5,0-1,0-1.5c0-0.3,0-0.3-0.3-0.3
			c-0.6,0-1.2,0-1.8,0c-0.6,0-1.1,0.3-1.4,0.9c-0.3,0.6-0.3,1.1,0.1,1.7c0.3,0.5,0.8,0.8,1.4,0.8c1.6,0,3.1,0,4.7,0
			c0.5,0,0.5,0,0.5,0.5c0,1,0,2,0,3c0,1.1-0.5,2.1-1.3,3c-0.6,0.7-1.4,1.2-2.3,1.4c-0.4,0.1-0.9,0.2-1.3,0.2c-1,0-2,0-3,0
			c-0.4,0-0.4,0-0.4-0.4c0-0.9,0-1.7,0-2.6c0-0.4,0-0.4,0.4-0.4c0.9,0,1.8,0,2.7,0c0.2,0,0.5,0,0.7-0.1c0.6-0.1,1.2-0.7,1.2-1.4
			c0,0-0.1,0-0.1,0c-0.6,0-1.3,0-1.9,0c-1.3-0.1-2.4-0.5-3.3-1.4c-0.9-0.8-1.4-1.8-1.5-3c-0.2-1.3,0.1-2.5,0.9-3.6
			c1-1.4,2.4-2,4.1-2c1.6,0,3.1,0,4.7,0c0.1,0,0.2,0,0.3,0c0.1,0,0.2,0.1,0.2,0.2c0,0.1,0,0.2,0,0.2c0,1.5,0,3.1,0,4.6
			C28.4,12.7,28.4,12.8,28.4,13z"/>
		<path class="st0" d="M5.9,14.1c1.8,0,3.6,0,5.3,0c1.2,0,2.1-0.6,2.7-1.6c0.2-0.4,0.3-0.8,0.3-1.3c0-1.1,0-2.2,0-3.4
			c0-0.4,0-0.4,0.4-0.4c0.9,0,1.7,0,2.6,0c0.3,0,0.3,0,0.3,0.3c0,1.3,0,2.5,0,3.8c0,0.9-0.3,1.8-0.8,2.6c-1,1.8-2.6,2.9-4.7,3.1
			c-0.4,0.1-0.9,0.1-1.3,0.1c-3.2,0-6.4,0-9.6,0c-0.3,0-0.5,0-0.8,0C0,17.4,0,17.4,0,17c0-0.9,0-1.7,0-2.6c0-0.3,0-0.4,0.4-0.4
			C2.2,14.1,4,14.1,5.9,14.1z"/>
		<path class="st0" d="M8.8,20.5c0,0.4,0,0.9,0,1.3c0,0.3,0,0.3-0.3,0.3c-0.9,0-1.8,0-2.7,0c-0.3,0-0.3,0-0.3-0.3c0-0.9,0-1.8,0-2.7
			c0-0.3,0-0.3,0.3-0.3c0.9,0,1.8,0,2.7,0c0.3,0,0.3,0,0.3,0.3C8.8,19.6,8.8,20.1,8.8,20.5C8.8,20.5,8.8,20.5,8.8,20.5z"/>
	</g>
</g>
</svg>
