<?xml version="1.0" encoding="utf-8"?>
<!-- Generator: Adobe Illustrator 26.5.0, SVG Export Plug-In . SVG Version: 6.00 Build 0)  -->
<svg version="1.1" id="Layer_1" xmlns="http://www.w3.org/2000/svg" xmlns:xlink="http://www.w3.org/1999/xlink" x="0px" y="0px"
	 viewBox="0 0 63 63" style="enable-background:new 0 0 63 63;" xml:space="preserve">
<g>
	<path d="M31.4,3.2c-2.2,0-4.3,0.3-6.4,1c-5.4,1.7-9.2,5.3-11.6,10.4c-1.6,3.3-2.3,6.8-2.3,10.5c0,0.1,0,0.2,0,0.3
		c0,0.9-0.4,1.4-1.2,1.4c-0.7,0-1.2-0.5-1.2-1.4c0-3.5,0.5-6.9,1.8-10.2c1.8-4.7,4.7-8.5,9-11.1c2.8-1.7,5.8-2.7,9.1-3c0,0,0,0,0,0
		c0.1,0,0.3,0,0.4,0c0.1,0,0.1,0,0.2,0c0.9-0.1,2.7-0.1,3.3,0.5l0,0c0,0,0.1,0.1,0.1,0.1c0,0,0,0,0,0c0.1,0.1,0.1,0.2,0.2,0.3
		C32.9,2.6,32.2,3.2,31.4,3.2z"/>
	<path d="M61.3,32.6L61.3,32.6c-0.1,0-0.1,0-0.1,0.1c-0.7,0.2-1.3-0.5-1.3-1.3c0-2.4-0.4-4.8-1.2-7c-1-3-2.7-5.5-5.1-7.6
		c-0.2-0.2-0.4-0.3-0.6-0.5c-0.5-0.5-0.5-1.2-0.1-1.7c0.4-0.5,1.2-0.6,1.7-0.1c0.9,0.9,1.9,1.7,2.7,2.7c2.7,3.3,4.3,7,4.8,11.2
		c0,0,0.1,0.6,0.1,0.9v0C62.2,30.2,62.2,32.1,61.3,32.6z"/>
	<path d="M18.3,26c0-7.6,4.4-13.6,11.8-16.1c2.5-0.8,5.1-1.3,7.8-1.3c1.1,0,1.8,0.9,1.3,1.8C38.9,10.9,38.5,11,38,11
		c-2.5,0-5,0.4-7.3,1.3c-3.6,1.3-6.6,3.5-8.4,7c-1.4,2.7-1.7,5.7-1.4,8.7c0.1,1.2,0.4,2.3,0.6,3.5c0.1,0.5,0.1,1-0.4,1.4
		c-0.4,0.3-0.9,0.4-1.3,0c-0.3-0.2-0.5-0.5-0.6-0.9C18.6,30,18.3,28,18.3,26z"/>
	<path d="M31.6,24.9c-3.6,0-6.6,3-6.6,6.6c0,3.6,3,6.6,6.6,6.6c3.6,0,6.6-3,6.6-6.6C38.1,27.9,35.2,24.9,31.6,24.9z M31.5,35.7
		c-2.3,0-4.2-1.9-4.2-4.2c0-2.3,1.9-4.2,4.2-4.2c2.3,0,4.2,1.9,4.2,4.2C35.7,33.8,33.8,35.7,31.5,35.7z"/>
	<path d="M36.6,18.2C44,18.2,49.7,22,52.5,28.6c1,2.3,1.5,4.7,1.8,7.2c0,0.3,0,0.6,0,0.8c-0.1,0.5-0.7,0.9-1.2,0.8
		c-0.6-0.1-1-0.5-1.1-1.3c-0.2-1.9-0.5-3.8-1.2-5.6c-1.3-3.4-3.3-6.3-6.5-8.1c-2.8-1.6-5.9-2-9.1-1.6c-1.1,0.1-2.3,0.4-3.4,0.6
		c-0.9,0.2-1.5-0.1-1.7-0.8c-0.2-0.7,0.3-1.3,1.1-1.5C33.1,18.5,35,18.2,36.6,18.2z"/>
	<path d="M54.1,42c-0.8,5.2-2.8,9.8-6.4,13.6c-3.5,3.6-7.8,5.6-12.7,6.3c-0.1,0-0.2,0-0.3,0C34.4,62,34.2,62,34,62
		c-0.2,0-0.4,0-0.7,0.1c0,0,0,0,0,0c-1.2,0.1-1.8,0.1-2,0c0,0,0,0,0,0c-0.5-0.1-0.9-0.6-0.9-1.1c0-0.7,0.5-1.2,1.2-1.2
		c1.5-0.1,3-0.2,4.5-0.4c6.4-1.2,10.8-5,13.6-10.8c1.1-2.2,1.7-4.5,2.1-7c0.1-0.9,0.7-1.3,1.4-1.2C53.9,40.6,54.2,41.1,54.1,42z"/>
	<path d="M44.8,36.6c0,8.4-4.8,14-11.9,16.4c-0.7,0.3-1.4,0-1.6-0.7c-0.2-0.7,0.1-1.3,0.9-1.6c2.4-0.8,4.6-2,6.4-3.9
		c2.7-2.7,3.9-6.1,3.8-9.9c0-1.8-0.4-3.5-0.6-5.3c0-0.4-0.1-0.8,0-1.1c0.2-0.5,0.6-0.7,1.1-0.7c0.6,0,1,0.4,1.1,1
		C44.5,32.9,44.8,34.9,44.8,36.6z"/>
	<path d="M0.9,32.4c0-0.3,0-0.5,0-0.6c0-1,0.4-1.5,1.2-1.5c0.7,0,1.2,0.5,1.2,1.5c0,1.9,0.2,3.8,0.8,5.6c1.8,6.2,5.8,10.3,11.7,12.8
		c0.2,0.1,0.4,0.1,0.6,0.2c0.7,0.3,1,1,0.7,1.6c-0.3,0.6-0.9,0.9-1.6,0.6c-1.8-0.7-3.6-1.6-5.2-2.7C4.6,45.9,1.6,40.5,1,33.7
		C0.9,33.2,0.9,32.8,0.9,32.4z"/>
	<path d="M26,44.7c-6.2-0.1-11-2.6-14.2-8c-0.2-0.3-0.3-0.7-0.3-1c0-0.5,0.3-0.9,0.9-1c0.6-0.1,1,0.1,1.4,0.6
		c0.8,1.1,1.5,2.2,2.4,3.1c2.8,2.8,6.3,4,10.1,3.9c1.7-0.1,3.3-0.5,5-0.7c0.3,0,0.7-0.1,1,0c0.5,0.2,0.8,0.6,0.7,1.1
		c0,0.6-0.4,1-1,1.1C30.1,44.4,28.1,44.7,26,44.7z"/>
	<path d="M24.1,48.9c-2.3,0-4.2,1.9-4.2,4.2c0,2.3,1.9,4.2,4.2,4.2c2.3,0,4.2-1.9,4.2-4.2C28.3,50.8,26.4,48.9,24.1,48.9z
		 M24.1,54.9c-1,0-1.8-0.8-1.8-1.8c0-1,0.8-1.8,1.8-1.8c1,0,1.8,0.8,1.8,1.8C25.9,54.1,25.1,54.9,24.1,54.9z"/>
	<path d="M46.4,7c-2.3,0-4.2,1.9-4.2,4.2c0,2.3,1.9,4.2,4.2,4.2c2.3,0,4.2-1.9,4.2-4.2C50.6,8.8,48.7,6.9,46.4,7z M46.4,12.9
		c-1,0-1.8-0.8-1.8-1.8c0-1,0.9-1.8,1.8-1.8c1,0,1.8,0.8,1.8,1.8C48.2,12.2,47.4,12.9,46.4,12.9z"/>
	<path d="M55.6,55.8c-0.7,0-1.2-0.6-1.2-1.2c0-0.6,0.5-1.2,1.2-1.2c0.7,0,1.2,0.6,1.2,1.2C56.8,55.2,56.2,55.8,55.6,55.8z"/>
	<path d="M9.2,54c0.7,0,1.2,0.5,1.2,1.2c0,0.7-0.5,1.2-1.2,1.2c-0.7,0-1.2-0.6-1.2-1.2C8,54.5,8.5,54,9.2,54z"/>
	<path d="M6,8.4c0-0.7,0.5-1.2,1.2-1.2c0.7,0,1.2,0.5,1.2,1.2c0,0.7-0.6,1.2-1.2,1.2C6.5,9.6,6,9.1,6,8.4z"/>
	<path d="M10.6,32.1c-0.6,0-1.2-0.5-1.2-1.2c0-0.7,0.6-1.2,1.2-1.2c0.7,0,1.2,0.6,1.1,1.2C11.8,31.5,11.3,32.1,10.6,32.1z"/>
</g>
</svg>
