<svg xmlns="http://www.w3.org/2000/svg" width="17.58" height="14.31" viewBox="0 0 17.58 14.31"><title>ico_add_fund</title><g id="f7a01df3-8166-4128-8bb3-7bf78e628942" data-name="Layer 2"><g id="d27dac2d-c251-49c6-8dc4-7df2f08cc4c3" data-name="Layer 1"><path d="M.55,8l2.1-3.51h0a2.43,2.43,0,0,1,1-.94l.48-.25h0A2.43,2.43,0,0,1,5.24,3H7.13" style="fill:none;stroke:#323232;stroke-linecap:round;stroke-linejoin:round;stroke-width:1.10000002384186px"/><path d="M2.2,13.76,7,12h0a3.34,3.34,0,0,0,1.62-1.28L11,7.05h0a1.37,1.37,0,0,0-.17-1.72h0a1.36,1.36,0,0,0-1.92,0L7.11,7.11H5.46" style="fill:none;stroke:#323232;stroke-linecap:round;stroke-linejoin:round;stroke-width:1.10000002384186px"/><path d="M7.15,7.16V2.62h0A2.05,2.05,0,0,1,9.2.55H15A2.05,2.05,0,0,1,17,2.6h0V5.9h0A2.06,2.06,0,0,1,15,8H10.42" style="fill:none;stroke:#323232;stroke-linecap:round;stroke-linejoin:round;stroke-width:1.10000002384186px"/><path d="M14.57,3H12.1" style="fill:none;stroke:#323232;stroke-linecap:round;stroke-linejoin:round;stroke-width:1.10000002384186px"/><path d="M14.57,5.51h-.82" style="fill:none;stroke:#323232;stroke-linecap:round;stroke-linejoin:round;stroke-width:1.10000002384186px"/></g></g></svg>