<?xml version="1.0" encoding="utf-8"?>
<!-- Generator: Adobe Illustrator 26.5.0, SVG Export Plug-In . SVG Version: 6.00 Build 0)  -->
<svg version="1.1" id="Layer_1" xmlns="http://www.w3.org/2000/svg" xmlns:xlink="http://www.w3.org/1999/xlink" x="0px" y="0px"
	 viewBox="0 0 33 33.3" style="enable-background:new 0 0 33 33.3;" xml:space="preserve">
<style type="text/css">
	.st0{opacity:0.75;}
	.st1{opacity:0.14;}
	.st2{opacity:0;fill:url(#SVGID_1_);}
	.st3{opacity:9.090909e-02;fill:url(#SVGID_00000016768264844104556580000014015987790080757431_);}
	.st4{opacity:0.1818;fill:url(#SVGID_00000026136852104895009220000003404353973535019656_);}
	.st5{opacity:0.2727;fill:url(#SVGID_00000040569424802199703340000011694382465503953800_);}
	.st6{opacity:0.3636;fill:url(#SVGID_00000055669794920037158520000009183255676219201671_);}
	.st7{opacity:0.4545;fill:url(#SVGID_00000037653790450638458800000012104403276884850833_);}
	.st8{opacity:0.5455;fill:url(#SVGID_00000090281875873164101630000004614117515784757132_);}
	.st9{opacity:0.6364;fill:url(#SVGID_00000053546260641698608200000014788067792334289595_);}
	.st10{opacity:0.7273;fill:url(#SVGID_00000154384532103566635970000006616945155104095918_);}
	.st11{opacity:0.8182;fill:url(#SVGID_00000121276309462038957560000003655614571465399203_);}
	.st12{opacity:0.9091;fill:url(#SVGID_00000001633978850018133400000004479212925618734993_);}
	.st13{fill:url(#SVGID_00000068678621543979484380000015205215239044792495_);}
	.st14{fill:url(#SVGID_00000074415281063140659550000012113328630058195872_);}
	.st15{fill:#FFFFFF;}
</style>
<g>
	<g class="st0">
		<g>
			<g class="st1">
				<linearGradient id="SVGID_1_" gradientUnits="userSpaceOnUse" x1="0" y1="16.5004" x2="33" y2="16.5004">
					<stop  offset="0" style="stop-color:#75D1DB"/>
					<stop  offset="1" style="stop-color:#76B4F5"/>
				</linearGradient>
				<path class="st2" d="M16.5,33L16.5,33C7.4,33,0,25.6,0,16.5v0C0,7.4,7.4,0,16.5,0h0C25.6,0,33,7.4,33,16.5v0
					C33,25.6,25.6,33,16.5,33z"/>
				
					<linearGradient id="SVGID_00000060009699641991539870000005872198960227827363_" gradientUnits="userSpaceOnUse" x1="0.8074" y1="15.5961" x2="32.114" y2="17.426">
					<stop  offset="0" style="stop-color:#75D1DB"/>
					<stop  offset="1" style="stop-color:#76B4F5"/>
				</linearGradient>
				<path style="opacity:9.090909e-02;fill:url(#SVGID_00000060009699641991539870000005872198960227827363_);" d="M16.5,32.2
					L16.5,32.2c-8.7,0-15.7-7-15.7-15.7v0c0-8.7,7-15.7,15.7-15.7h0c8.7,0,15.7,7,15.7,15.7v0C32.2,25.2,25.2,32.2,16.5,32.2z"/>
				
					<linearGradient id="SVGID_00000004534427255214163480000014543596056954731177_" gradientUnits="userSpaceOnUse" x1="1.6609" y1="14.7873" x2="31.1875" y2="18.2507">
					<stop  offset="0" style="stop-color:#75D1DB"/>
					<stop  offset="1" style="stop-color:#76B4F5"/>
				</linearGradient>
				<path style="opacity:0.1818;fill:url(#SVGID_00000004534427255214163480000014543596056954731177_);" d="M16.5,31.5L16.5,31.5
					c-8.3,0-14.9-6.7-14.9-14.9v0c0-8.3,6.7-14.9,14.9-14.9h0c8.3,0,14.9,6.7,14.9,14.9v0C31.4,24.8,24.7,31.5,16.5,31.5z"/>
				
					<linearGradient id="SVGID_00000169525373178089643420000008141576519599653261_" gradientUnits="userSpaceOnUse" x1="2.5526" y1="14.076" x2="30.2287" y2="18.9735">
					<stop  offset="0" style="stop-color:#75D1DB"/>
					<stop  offset="1" style="stop-color:#76B4F5"/>
				</linearGradient>
				<path style="opacity:0.2727;fill:url(#SVGID_00000169525373178089643420000008141576519599653261_);" d="M16.5,30.7L16.5,30.7
					c-7.8,0-14.2-6.3-14.2-14.2v0c0-7.8,6.3-14.2,14.2-14.2h0c7.8,0,14.2,6.3,14.2,14.2v0C30.6,24.4,24.3,30.7,16.5,30.7z"/>
				
					<linearGradient id="SVGID_00000031914608291395831440000010946865389744636821_" gradientUnits="userSpaceOnUse" x1="3.4746" y1="13.4636" x2="29.246" y2="19.5938">
					<stop  offset="0" style="stop-color:#75D1DB"/>
					<stop  offset="1" style="stop-color:#76B4F5"/>
				</linearGradient>
				<path style="opacity:0.3636;fill:url(#SVGID_00000031914608291395831440000010946865389744636821_);" d="M16.4,29.9L16.4,29.9
					c-7.4,0-13.4-6-13.4-13.4v0c0-7.4,6-13.4,13.4-13.4h0c7.4,0,13.4,6,13.4,13.4v0C29.8,23.9,23.8,29.9,16.4,29.9z"/>
				
					<linearGradient id="SVGID_00000035515314314087913290000004859296513649879192_" gradientUnits="userSpaceOnUse" x1="4.4183" y1="12.9512" x2="28.2478" y2="20.1117">
					<stop  offset="0" style="stop-color:#75D1DB"/>
					<stop  offset="1" style="stop-color:#76B4F5"/>
				</linearGradient>
				<path style="opacity:0.4545;fill:url(#SVGID_00000035515314314087913290000004859296513649879192_);" d="M16.4,29.2L16.4,29.2
					c-7,0-12.6-5.6-12.6-12.6v0C3.8,9.6,9.5,4,16.4,4h0C23.4,4,29,9.6,29,16.6v0C29,23.5,23.4,29.2,16.4,29.2z"/>
				
					<linearGradient id="SVGID_00000111910016886464274920000014877222209035651974_" gradientUnits="userSpaceOnUse" x1="5.3756" y1="12.5388" x2="27.2427" y2="20.5281">
					<stop  offset="0" style="stop-color:#75D1DB"/>
					<stop  offset="1" style="stop-color:#76B4F5"/>
				</linearGradient>
				<path style="opacity:0.5455;fill:url(#SVGID_00000111910016886464274920000014877222209035651974_);" d="M16.4,28.4L16.4,28.4
					c-6.5,0-11.8-5.3-11.8-11.8v0C4.6,10,9.9,4.8,16.4,4.8h0c6.5,0,11.8,5.3,11.8,11.8v0C28.2,23.1,22.9,28.4,16.4,28.4z"/>
				
					<linearGradient id="SVGID_00000063613893124421846750000001662946051264665732_" gradientUnits="userSpaceOnUse" x1="6.3378" y1="12.226" x2="26.239" y2="20.8443">
					<stop  offset="0" style="stop-color:#75D1DB"/>
					<stop  offset="1" style="stop-color:#76B4F5"/>
				</linearGradient>
				<path style="opacity:0.6364;fill:url(#SVGID_00000063613893124421846750000001662946051264665732_);" d="M16.4,27.6L16.4,27.6
					c-6.1,0-11-4.9-11-11v0c0-6.1,4.9-11,11-11h0c6.1,0,11,4.9,11,11v0C27.4,22.7,22.5,27.6,16.4,27.6z"/>
				
					<linearGradient id="SVGID_00000022550687968500533140000014404131094595400587_" gradientUnits="userSpaceOnUse" x1="7.2968" y1="12.0118" x2="25.2449" y2="21.0624">
					<stop  offset="0" style="stop-color:#75D1DB"/>
					<stop  offset="1" style="stop-color:#76B4F5"/>
				</linearGradient>
				<path style="opacity:0.7273;fill:url(#SVGID_00000022550687968500533140000014404131094595400587_);" d="M16.4,26.9L16.4,26.9
					c-5.7,0-10.3-4.6-10.3-10.3v0c0-5.7,4.6-10.3,10.3-10.3h0c5.7,0,10.3,4.6,10.3,10.3v0C26.6,22.3,22.1,26.9,16.4,26.9z"/>
				
					<linearGradient id="SVGID_00000127014231848789760690000013591505742598608048_" gradientUnits="userSpaceOnUse" x1="8.2442" y1="11.8943" x2="24.2684" y2="21.1851">
					<stop  offset="0" style="stop-color:#75D1DB"/>
					<stop  offset="1" style="stop-color:#76B4F5"/>
				</linearGradient>
				<path style="opacity:0.8182;fill:url(#SVGID_00000127014231848789760690000013591505742598608048_);" d="M16.4,26.1L16.4,26.1
					c-5.2,0-9.5-4.2-9.5-9.5v0c0-5.2,4.2-9.5,9.5-9.5h0c5.2,0,9.5,4.2,9.5,9.5v0C25.9,21.8,21.6,26.1,16.4,26.1z"/>
				
					<linearGradient id="SVGID_00000082366894031891002230000012916620126478723775_" gradientUnits="userSpaceOnUse" x1="9.1723" y1="11.8711" x2="23.3169" y2="21.2156">
					<stop  offset="0" style="stop-color:#75D1DB"/>
					<stop  offset="1" style="stop-color:#76B4F5"/>
				</linearGradient>
				<path style="opacity:0.9091;fill:url(#SVGID_00000082366894031891002230000012916620126478723775_);" d="M16.4,25.3L16.4,25.3
					c-4.8,0-8.7-3.9-8.7-8.7v0c0-4.8,3.9-8.7,8.7-8.7h0c4.8,0,8.7,3.9,8.7,8.7v0C25.1,21.4,21.2,25.3,16.4,25.3z"/>
				
					<linearGradient id="SVGID_00000025433949178591680220000006400414640741512353_" gradientUnits="userSpaceOnUse" x1="10.0732" y1="11.9394" x2="22.3978" y2="21.1578">
					<stop  offset="0" style="stop-color:#75D1DB"/>
					<stop  offset="1" style="stop-color:#76B4F5"/>
				</linearGradient>
				<path style="fill:url(#SVGID_00000025433949178591680220000006400414640741512353_);" d="M16.3,24.6L16.3,24.6
					c-4.4,0-7.9-3.5-7.9-7.9l0,0c0-4.4,3.5-7.9,7.9-7.9l0,0c4.4,0,7.9,3.5,7.9,7.9l0,0C24.3,21,20.7,24.6,16.3,24.6z"/>
			</g>
			<g>
				
					<linearGradient id="SVGID_00000032617628674481264440000007510584631366774178_" gradientUnits="userSpaceOnUse" x1="10.0734" y1="11.9393" x2="22.3981" y2="21.1578">
					<stop  offset="0" style="stop-color:#75D1DB"/>
					<stop  offset="1" style="stop-color:#76B4F5"/>
				</linearGradient>
				<path style="fill:url(#SVGID_00000032617628674481264440000007510584631366774178_);" d="M16.3,24.6L16.3,24.6
					c-4.4,0-7.9-3.5-7.9-7.9v0c0-4.4,3.5-7.9,7.9-7.9h0c4.4,0,7.9,3.5,7.9,7.9v0C24.3,21,20.7,24.6,16.3,24.6z"/>
				<g>
					<rect x="12" y="16.1" class="st15" width="8.7" height="1"/>
				</g>
			</g>
		</g>
	</g>
</g>
</svg>
