<?xml version="1.0" encoding="utf-8"?>
<!-- Generator: Adobe Illustrator 26.5.0, SVG Export Plug-In . SVG Version: 6.00 Build 0)  -->
<svg version="1.1" id="Layer_1" xmlns="http://www.w3.org/2000/svg" xmlns:xlink="http://www.w3.org/1999/xlink" x="0px" y="0px"
	 viewBox="0 0 33 33.3" style="enable-background:new 0 0 33 33.3;" xml:space="preserve">
<style type="text/css">
	.st0{opacity:0.75;}
	.st1{opacity:0.14;}
	.st2{opacity:0;fill:url(#SVGID_1_);}
	.st3{opacity:9.090909e-02;fill:url(#SVGID_00000102529029109425902680000002198560220314317465_);}
	.st4{opacity:0.1818;fill:url(#SVGID_00000128479106069027498790000003029117260120262793_);}
	.st5{opacity:0.2727;fill:url(#SVGID_00000043431812947164354590000017903419393324367768_);}
	.st6{opacity:0.3636;fill:url(#SVGID_00000114073366086433091350000007955107103945102244_);}
	.st7{opacity:0.4545;fill:url(#SVGID_00000101822648707338216660000003602904544832475567_);}
	.st8{opacity:0.5455;fill:url(#SVGID_00000051366159479518336160000007454354086035819432_);}
	.st9{opacity:0.6364;fill:url(#SVGID_00000035502978608497801170000011123068373247114685_);}
	.st10{opacity:0.7273;fill:url(#SVGID_00000165942028565412559080000008180649389166919820_);}
	.st11{opacity:0.8182;fill:url(#SVGID_00000023279709883294633780000013555884070386876563_);}
	.st12{opacity:0.9091;fill:url(#SVGID_00000068674592034952246660000005229462242461742009_);}
	.st13{fill:url(#SVGID_00000096036489926384263770000012755842174554501555_);}
	.st14{fill:url(#SVGID_00000067932731088474924360000011718358372873909651_);}
	.st15{fill:#FFFFFF;}
</style>
<g>
	<g class="st0">
		<g>
			<g class="st1">
				<linearGradient id="SVGID_1_" gradientUnits="userSpaceOnUse" x1="0" y1="16.5004" x2="33" y2="16.5004">
					<stop  offset="0" style="stop-color:#75D1DB"/>
					<stop  offset="1" style="stop-color:#76B4F5"/>
				</linearGradient>
				<path class="st2" d="M16.5,33L16.5,33C7.4,33,0,25.6,0,16.5v0C0,7.4,7.4,0,16.5,0h0C25.6,0,33,7.4,33,16.5v0
					C33,25.6,25.6,33,16.5,33z"/>
				
					<linearGradient id="SVGID_00000010285184150760078060000003878369850268570275_" gradientUnits="userSpaceOnUse" x1="0.8074" y1="15.5961" x2="32.114" y2="17.426">
					<stop  offset="0" style="stop-color:#75D1DB"/>
					<stop  offset="1" style="stop-color:#76B4F5"/>
				</linearGradient>
				<path style="opacity:9.090909e-02;fill:url(#SVGID_00000010285184150760078060000003878369850268570275_);" d="M16.5,32.2
					L16.5,32.2c-8.7,0-15.7-7-15.7-15.7v0c0-8.7,7-15.7,15.7-15.7h0c8.7,0,15.7,7,15.7,15.7v0C32.2,25.2,25.2,32.2,16.5,32.2z"/>
				
					<linearGradient id="SVGID_00000027601565361955507070000017373053632479777173_" gradientUnits="userSpaceOnUse" x1="1.6609" y1="14.7873" x2="31.1875" y2="18.2507">
					<stop  offset="0" style="stop-color:#75D1DB"/>
					<stop  offset="1" style="stop-color:#76B4F5"/>
				</linearGradient>
				<path style="opacity:0.1818;fill:url(#SVGID_00000027601565361955507070000017373053632479777173_);" d="M16.5,31.5L16.5,31.5
					c-8.3,0-14.9-6.7-14.9-14.9v0c0-8.3,6.7-14.9,14.9-14.9h0c8.3,0,14.9,6.7,14.9,14.9v0C31.4,24.8,24.7,31.5,16.5,31.5z"/>
				
					<linearGradient id="SVGID_00000016052208313124874860000005956819732124265390_" gradientUnits="userSpaceOnUse" x1="2.5526" y1="14.076" x2="30.2287" y2="18.9735">
					<stop  offset="0" style="stop-color:#75D1DB"/>
					<stop  offset="1" style="stop-color:#76B4F5"/>
				</linearGradient>
				<path style="opacity:0.2727;fill:url(#SVGID_00000016052208313124874860000005956819732124265390_);" d="M16.5,30.7L16.5,30.7
					c-7.8,0-14.2-6.3-14.2-14.2v0c0-7.8,6.3-14.2,14.2-14.2h0c7.8,0,14.2,6.3,14.2,14.2v0C30.6,24.4,24.3,30.7,16.5,30.7z"/>
				
					<linearGradient id="SVGID_00000183216014866166424110000015270987459239057835_" gradientUnits="userSpaceOnUse" x1="3.4746" y1="13.4636" x2="29.246" y2="19.5938">
					<stop  offset="0" style="stop-color:#75D1DB"/>
					<stop  offset="1" style="stop-color:#76B4F5"/>
				</linearGradient>
				<path style="opacity:0.3636;fill:url(#SVGID_00000183216014866166424110000015270987459239057835_);" d="M16.4,29.9L16.4,29.9
					c-7.4,0-13.4-6-13.4-13.4v0c0-7.4,6-13.4,13.4-13.4h0c7.4,0,13.4,6,13.4,13.4v0C29.8,23.9,23.8,29.9,16.4,29.9z"/>
				
					<linearGradient id="SVGID_00000039831528483326175850000012394895275373373845_" gradientUnits="userSpaceOnUse" x1="4.4183" y1="12.9512" x2="28.2478" y2="20.1117">
					<stop  offset="0" style="stop-color:#75D1DB"/>
					<stop  offset="1" style="stop-color:#76B4F5"/>
				</linearGradient>
				<path style="opacity:0.4545;fill:url(#SVGID_00000039831528483326175850000012394895275373373845_);" d="M16.4,29.2L16.4,29.2
					c-7,0-12.6-5.6-12.6-12.6v0C3.8,9.6,9.5,4,16.4,4h0C23.4,4,29,9.6,29,16.6v0C29,23.5,23.4,29.2,16.4,29.2z"/>
				
					<linearGradient id="SVGID_00000020363658185170953140000011032161271763901060_" gradientUnits="userSpaceOnUse" x1="5.3756" y1="12.5388" x2="27.2427" y2="20.5281">
					<stop  offset="0" style="stop-color:#75D1DB"/>
					<stop  offset="1" style="stop-color:#76B4F5"/>
				</linearGradient>
				<path style="opacity:0.5455;fill:url(#SVGID_00000020363658185170953140000011032161271763901060_);" d="M16.4,28.4L16.4,28.4
					c-6.5,0-11.8-5.3-11.8-11.8v0C4.6,10,9.9,4.8,16.4,4.8h0c6.5,0,11.8,5.3,11.8,11.8v0C28.2,23.1,22.9,28.4,16.4,28.4z"/>
				
					<linearGradient id="SVGID_00000147917264098531829690000011418676568285357990_" gradientUnits="userSpaceOnUse" x1="6.3378" y1="12.226" x2="26.239" y2="20.8443">
					<stop  offset="0" style="stop-color:#75D1DB"/>
					<stop  offset="1" style="stop-color:#76B4F5"/>
				</linearGradient>
				<path style="opacity:0.6364;fill:url(#SVGID_00000147917264098531829690000011418676568285357990_);" d="M16.4,27.6L16.4,27.6
					c-6.1,0-11-4.9-11-11v0c0-6.1,4.9-11,11-11h0c6.1,0,11,4.9,11,11v0C27.4,22.7,22.5,27.6,16.4,27.6z"/>
				
					<linearGradient id="SVGID_00000055684215979231067060000017267898267866670249_" gradientUnits="userSpaceOnUse" x1="7.2968" y1="12.0118" x2="25.2449" y2="21.0624">
					<stop  offset="0" style="stop-color:#75D1DB"/>
					<stop  offset="1" style="stop-color:#76B4F5"/>
				</linearGradient>
				<path style="opacity:0.7273;fill:url(#SVGID_00000055684215979231067060000017267898267866670249_);" d="M16.4,26.9L16.4,26.9
					c-5.7,0-10.3-4.6-10.3-10.3v0c0-5.7,4.6-10.3,10.3-10.3h0c5.7,0,10.3,4.6,10.3,10.3v0C26.6,22.3,22.1,26.9,16.4,26.9z"/>
				
					<linearGradient id="SVGID_00000159430102161553089080000005433593902499865018_" gradientUnits="userSpaceOnUse" x1="8.2442" y1="11.8943" x2="24.2684" y2="21.1851">
					<stop  offset="0" style="stop-color:#75D1DB"/>
					<stop  offset="1" style="stop-color:#76B4F5"/>
				</linearGradient>
				<path style="opacity:0.8182;fill:url(#SVGID_00000159430102161553089080000005433593902499865018_);" d="M16.4,26.1L16.4,26.1
					c-5.2,0-9.5-4.2-9.5-9.5v0c0-5.2,4.2-9.5,9.5-9.5h0c5.2,0,9.5,4.2,9.5,9.5v0C25.9,21.8,21.6,26.1,16.4,26.1z"/>
				
					<linearGradient id="SVGID_00000128461255571799234320000010309108730844326319_" gradientUnits="userSpaceOnUse" x1="9.1723" y1="11.8711" x2="23.3169" y2="21.2156">
					<stop  offset="0" style="stop-color:#75D1DB"/>
					<stop  offset="1" style="stop-color:#76B4F5"/>
				</linearGradient>
				<path style="opacity:0.9091;fill:url(#SVGID_00000128461255571799234320000010309108730844326319_);" d="M16.4,25.3L16.4,25.3
					c-4.8,0-8.7-3.9-8.7-8.7v0c0-4.8,3.9-8.7,8.7-8.7h0c4.8,0,8.7,3.9,8.7,8.7v0C25.1,21.4,21.2,25.3,16.4,25.3z"/>
				
					<linearGradient id="SVGID_00000028307482956811908020000013559877807377733785_" gradientUnits="userSpaceOnUse" x1="10.0732" y1="11.9394" x2="22.3978" y2="21.1578">
					<stop  offset="0" style="stop-color:#75D1DB"/>
					<stop  offset="1" style="stop-color:#76B4F5"/>
				</linearGradient>
				<path style="fill:url(#SVGID_00000028307482956811908020000013559877807377733785_);" d="M16.3,24.6L16.3,24.6
					c-4.4,0-7.9-3.5-7.9-7.9l0,0c0-4.4,3.5-7.9,7.9-7.9l0,0c4.4,0,7.9,3.5,7.9,7.9l0,0C24.3,21,20.7,24.6,16.3,24.6z"/>
			</g>
			<g>
				
					<linearGradient id="SVGID_00000119091869134032161340000008588101211072947135_" gradientUnits="userSpaceOnUse" x1="10.0734" y1="11.9393" x2="22.3981" y2="21.1578">
					<stop  offset="0" style="stop-color:#75D1DB"/>
					<stop  offset="1" style="stop-color:#76B4F5"/>
				</linearGradient>
				<path style="fill:url(#SVGID_00000119091869134032161340000008588101211072947135_);" d="M16.3,24.6L16.3,24.6
					c-4.4,0-7.9-3.5-7.9-7.9v0c0-4.4,3.5-7.9,7.9-7.9h0c4.4,0,7.9,3.5,7.9,7.9v0C24.3,21,20.7,24.6,16.3,24.6z"/>
				<g>
					<rect x="15.9" y="12.3" class="st15" width="1" height="8.7"/>
					<rect x="12" y="16.1" class="st15" width="8.7" height="1"/>
				</g>
			</g>
		</g>
	</g>
</g>
</svg>
