<?xml version="1.0" encoding="UTF-8"?>
<svg id="Layer_1" data-name="Layer 1" xmlns="http://www.w3.org/2000/svg" xmlns:xlink="http://www.w3.org/1999/xlink" viewBox="0 0 28.87 16.4">
  <defs>
    <style>
      .cls-1 {
        fill: #fff;
      }

      .cls-2 {
        fill: url(#linear-gradient);
      }
    </style>
    <linearGradient id="linear-gradient" x1="18.72" y1="16.53" x2="9.07" y2="-.18" gradientUnits="userSpaceOnUse">
      <stop offset="0" stop-color="#4cd9ed"/>
      <stop offset=".54" stop-color="#46a5ec"/>
      <stop offset="1" stop-color="#437fec"/>
    </linearGradient>
  </defs>
  <rect class="cls-2" x="1.03" y="1.74" width="25.74" height="12.87" rx="6.43" ry="6.43"/>
  <g>
    <path class="cls-1" d="M7.55,10.37c.22,0,.42-.02,.58-.06,.16-.04,.3-.1,.41-.19,.11-.08,.19-.2,.24-.33,.05-.14,.08-.3,.08-.49-.21-.06-.42-.11-.63-.17-.09-.02-.18-.05-.27-.07-.1-.03-.19-.05-.29-.08-.09-.03-.19-.05-.28-.07-.09-.02-.17-.04-.25-.06-.1-.24-.15-.47-.15-.71,0-.01,0-.08,0-.21s.05-.3,.14-.51c.09-.21,.22-.4,.39-.57,.17-.17,.36-.3,.58-.4,.22-.1,.46-.16,.72-.18,.05,0,.1,0,.16,0,.21,0,.42,.03,.65,.1l-.16,.6c-.15-.05-.31-.07-.46-.07-.16,0-.31,.02-.45,.07-.14,.04-.28,.11-.4,.19s-.23,.18-.31,.3c-.09,.11-.15,.24-.19,.39-.03,.09-.04,.19-.04,.29,0,.06,0,.12,.01,.17l1.28,.32c.18,.05,.31,.13,.4,.24,.09,.11,.13,.25,.13,.41,0,.29-.03,.55-.1,.77-.07,.22-.18,.4-.33,.55-.15,.15-.35,.25-.59,.33-.24,.07-.53,.11-.87,.11h-.74c-.17,0-.33-.02-.49-.06-.16-.04-.31-.1-.45-.18-.14-.08-.27-.17-.39-.27s-.22-.23-.31-.35c-.1-.17-.18-.36-.24-.56-.05-.2-.08-.42-.08-.64,0-.28,.04-.58,.13-.9,.09-.32,.22-.66,.39-1.02,.1,.05,.19,.09,.28,.14s.18,.09,.27,.14c-.29,.63-.44,1.17-.44,1.63,0,.17,.02,.32,.06,.47,.04,.15,.1,.28,.17,.4,.11,.18,.27,.32,.46,.42,.19,.1,.41,.15,.64,.15h.74Z"/>
    <path class="cls-1" d="M11.64,9.21c-.11,0-.23,0-.34-.02-.12-.01-.23-.03-.34-.05s-.22-.05-.32-.08-.19-.08-.28-.13l-.28-.16,.31-.55,.28,.16c.08,.04,.17,.08,.29,.11,.11,.03,.23,.05,.36,.06,.11,.01,.22,.02,.33,.02,.02,0,.07,0,.14,0,.07,0,.17,0,.27-.03,.13-.02,.24-.05,.32-.08s.14-.08,.16-.13c0-.02,.01-.05,.01-.07,0-.04-.01-.09-.03-.16-.02-.07-.07-.16-.14-.26l-1.21-1.83,.53-.35s.06,.09,.09,.14c.03,.05,.07,.1,.11,.17,.04,.06,.09,.14,.15,.22,.06,.09,.12,.19,.2,.31,.08,.12,.17,.26,.28,.42,.11,.16,.23,.35,.37,.56,.06,.08,.11,.17,.15,.27,.04,.09,.08,.19,.1,.28,.02,.08,.03,.17,.03,.25,0,0,0,.04,0,.09,0,.05-.02,.12-.07,.22-.14,.31-.46,.51-.97,.58-.08,.01-.16,.02-.25,.03s-.18,.01-.27,.01Z"/>
    <path class="cls-1" d="M13.89,10.37c.34,0,.62-.03,.85-.08,.23-.05,.41-.13,.54-.24,.12-.09,.2-.21,.26-.36s.08-.33,.08-.54h-.62c-.16,0-.31-.02-.47-.07-.16-.05-.31-.12-.44-.23s-.24-.25-.32-.42c-.08-.17-.12-.38-.12-.63,0-.15,.01-.28,.04-.4,.03-.12,.06-.23,.1-.32,.04-.09,.08-.18,.13-.24,.05-.07,.09-.13,.14-.18,.12-.12,.26-.22,.42-.28s.33-.1,.51-.1c.16,0,.31,.02,.44,.07,.14,.05,.26,.12,.37,.22,.3,.28,.45,.72,.45,1.32v1.26c0,.32-.05,.59-.14,.82-.09,.23-.24,.42-.43,.57-.2,.15-.44,.27-.73,.34-.29,.07-.64,.11-1.06,.11v-.63Zm1.09-3.46c-.22,0-.39,.08-.51,.23-.12,.16-.18,.38-.18,.66s.09,.49,.26,.6c.04,.03,.09,.05,.13,.06,.04,.02,.09,.03,.13,.04s.08,.01,.12,.02,.06,0,.09,0h.62v-.63c0-.16-.01-.3-.04-.41-.02-.11-.06-.21-.09-.28-.04-.07-.08-.13-.13-.17-.05-.04-.1-.07-.14-.09s-.09-.03-.13-.03-.08,0-.1,0Z"/>
    <path class="cls-1" d="M19.64,9.16h-.14c-.21,0-.41-.04-.59-.13,0,.31-.04,.59-.13,.84s-.21,.45-.38,.62c-.17,.17-.37,.3-.62,.39-.24,.09-.52,.13-.84,.13h-.46v-.63h.46c.23,0,.43-.03,.6-.08s.31-.14,.42-.25,.19-.26,.24-.43c.05-.18,.08-.39,.08-.63v-2.09h.63v1.11c0,.12,.03,.22,.08,.29,.05,.07,.11,.12,.18,.16,.07,.03,.14,.05,.2,.06s.11,.01,.13,.01h.14v.63Zm-1.65-3.61l.57-.58,.58,.58-.57,.58-.58-.58Z"/>
    <path class="cls-1" d="M21.3,6.44s.01,.05,.03,.11c.01,.06,.03,.13,.04,.22,.02,.09,.04,.18,.06,.28,.02,.1,.04,.21,.05,.31,.02,.11,.03,.21,.04,.31,.01,.1,.02,.18,.02,.26,0,.21-.04,.4-.11,.55s-.16,.28-.27,.38c-.11,.1-.24,.18-.38,.23-.14,.05-.28,.07-.42,.07h-.85v-.63h.85s.08,0,.14-.02c.06,0,.12-.04,.18-.08s.11-.1,.16-.18c.05-.08,.07-.19,.07-.33,0-.05,0-.11-.01-.19s-.02-.15-.03-.24c-.01-.09-.03-.17-.04-.26-.02-.09-.03-.18-.05-.26-.02-.08-.03-.15-.04-.21-.01-.06-.02-.11-.03-.14l.6-.18Zm-1.16,3.93l.57-.57,.58,.58-.58,.57-.58-.58Z"/>
  </g>
</svg>