<svg xmlns="http://www.w3.org/2000/svg" width="17" height="17.64" viewBox="0 0 17 17.64"><defs><style>.cls-1{fill:#f47421;}</style></defs><title>ic_ubuntu_2</title><g id="Layer_2" data-name="Layer 2"><g id="Layer_1-2" data-name="Layer 1"><path class="cls-1" d="M13.75,0a1.68,1.68,0,0,1,1.42.4,1.66,1.66,0,0,1,.45,1.77,1.65,1.65,0,0,1-3.2-.55A1.65,1.65,0,0,1,13.75,0Z"/><path class="cls-1" d="M6.76,2.47A7.06,7.06,0,0,1,11.84,2a2.29,2.29,0,0,0,1.3,1.69,2.23,2.23,0,0,0,1.76.05A7.14,7.14,0,0,1,17,8.4l-2.36,0a4.81,4.81,0,0,0-1.41-3A4.71,4.71,0,0,0,8.88,4.22c-.33.05-.63.23-1,.31C7.51,3.86,7.15,3.16,6.76,2.47Z"/><path class="cls-1" d="M3.11,6.92A7.15,7.15,0,0,1,6,2.9c.42.68.84,1.36,1.22,2.05a4.71,4.71,0,0,0,0,7.73c-.39.69-.8,1.38-1.22,2.05a7.27,7.27,0,0,1-2.78-3.61,1.35,1.35,0,0,1-.12-.58,2.41,2.41,0,0,0,.73-1.16A2.24,2.24,0,0,0,3.31,7.3C3.22,7.19,3,7.09,3.11,6.92Z"/><path class="cls-1" d="M1.34,7.2a1.65,1.65,0,0,1,1.32,2.92,1.69,1.69,0,0,1-1.87.11A1.66,1.66,0,0,1,0,8.46,1.63,1.63,0,0,1,1.34,7.2Z"/><path class="cls-1" d="M14.64,9.22c.79,0,1.58,0,2.36,0a7.1,7.1,0,0,1-2.11,4.64,2.28,2.28,0,0,0-3,1.75,6.91,6.91,0,0,1-3.11.17,5.83,5.83,0,0,1-2-.68c.42-.65.74-1.35,1.16-2a3.53,3.53,0,0,1,.55.18,4.68,4.68,0,0,0,4.22-.65A4.77,4.77,0,0,0,14.64,9.22Z"/><path class="cls-1" d="M13.85,14.35a1.65,1.65,0,1,1-.57,3.09,1.62,1.62,0,0,1-.85-1.5A1.65,1.65,0,0,1,13.85,14.35Z"/></g></g></svg>