<svg xmlns="http://www.w3.org/2000/svg" width="26" height="26.98" viewBox="0 0 26 26.98"><defs><style>.cls-1{fill:#f47421;}</style></defs><title>ic_ubuntu_1</title><g id="Layer_2" data-name="Layer 2"><g id="Layer_1-2" data-name="Layer 1"><path class="cls-1" d="M21,0a2.57,2.57,0,0,1,2.17.62,2.53,2.53,0,0,1,.69,2.7A2.52,2.52,0,0,1,19,2.51,2.52,2.52,0,0,1,21,0Z"/><path class="cls-1" d="M10.35,3.78a10.8,10.8,0,0,1,7.76-.71,3.5,3.5,0,0,0,2,2.59,3.4,3.4,0,0,0,2.68.08A10.93,10.93,0,0,1,26,12.84l-3.61,0a7.36,7.36,0,0,0-2.16-4.54,7.21,7.21,0,0,0-6.64-1.89c-.51.08-1,.35-1.47.47C11.48,5.91,10.93,4.83,10.35,3.78Z"/><path class="cls-1" d="M4.75,10.58A10.94,10.94,0,0,1,9.19,4.44c.64,1,1.28,2.07,1.87,3.14a7.21,7.21,0,0,0,0,11.83c-.6,1.06-1.23,2.1-1.87,3.14A11.13,11.13,0,0,1,4.94,17a2.06,2.06,0,0,1-.18-.89,3.69,3.69,0,0,0,1.11-1.78,3.43,3.43,0,0,0-.8-3.18C4.93,11,4.64,10.85,4.75,10.58Z"/><path class="cls-1" d="M2.06,11a2.52,2.52,0,0,1,2,4.47,2.59,2.59,0,0,1-2.85.17A2.54,2.54,0,0,1,.06,12.93,2.49,2.49,0,0,1,2.06,11Z"/><path class="cls-1" d="M22.39,14.1c1.21,0,2.41,0,3.61,0a10.85,10.85,0,0,1-3.23,7.09,3.48,3.48,0,0,0-4.66,2.67,10.57,10.57,0,0,1-4.76.27,8.91,8.91,0,0,1-3-1c.64-1,1.14-2.07,1.77-3.07a5.4,5.4,0,0,1,.84.28,7.16,7.16,0,0,0,6.45-1A7.3,7.3,0,0,0,22.39,14.1Z"/><path class="cls-1" d="M21.18,21.94a2.53,2.53,0,1,1-.87,4.72A2.47,2.47,0,0,1,19,24.37,2.52,2.52,0,0,1,21.18,21.94Z"/></g></g></svg>