<svg xmlns="http://www.w3.org/2000/svg" width="56.16" height="56.16" viewBox="0 0 56.16 56.16"><defs><style>.\32 3d09225-d855-4dc6-8e93-dcf34ea9ba1b{opacity:0.8;}.ae052ca5-0a20-4b14-b539-427607d9ab7a{fill:#fff;}</style></defs><title>ico_pro</title><g id="dabc779d-56ac-45ba-8d29-c032717fb8f6" data-name="Layer 2"><g id="f2b2e11c-3c45-406f-a435-45ff9038ef7b" data-name="Layer 1"><g id="e1cca6f0-6073-4ae4-98c7-6bfef5138fa5" data-name="3" class="23d09225-d855-4dc6-8e93-dcf34ea9ba1b"><path class="ae052ca5-0a20-4b14-b539-427607d9ab7a" d="M36.78,25.83a1.12,1.12,0,0,0,0,2.25,2.53,2.53,0,1,1,0,5.05,1.12,1.12,0,0,0,0,2.25,4.77,4.77,0,1,0,0-9.55Z"/><path class="ae052ca5-0a20-4b14-b539-427607d9ab7a" d="M27.54,47.35h.08a1.12,1.12,0,0,0,1.12-1,3.1,3.1,0,0,1,5.33-1.93,1.12,1.12,0,0,0,1.63-1.55,5.34,5.34,0,0,0-9.2,3.32A1.12,1.12,0,0,0,27.54,47.35Z"/><path class="ae052ca5-0a20-4b14-b539-427607d9ab7a" d="M56.13,27a1.11,1.11,0,0,0,0-.49,28,28,0,1,0,0,1.61C56.16,27.7,56.15,27.33,56.13,27ZM48.89,12.79v0a34,34,0,0,1-3.7,10.09,13.52,13.52,0,0,0-1.79,7.22,6.76,6.76,0,0,1-.11,1.55A6.66,6.66,0,0,1,35.68,37a13.1,13.1,0,0,0-7.16.77,33.94,33.94,0,0,1-13.21,2.65A34.15,34.15,0,0,1,4.54,38.7,25.61,25.61,0,0,1,3,34.42a30.7,30.7,0,0,0,12.55,2.7,30.51,30.51,0,0,0,9.62-1.55,7.38,7.38,0,0,0,4.92-6.05v-.09a6.78,6.78,0,0,1,6.24-5.65h.35a7.28,7.28,0,0,0,6.53-4.16A30.27,30.27,0,0,0,46,9.54,26,26,0,0,1,48.89,12.79ZM29,29.26l-1.12-.08a5.16,5.16,0,0,1-3.41,4.26,28.27,28.27,0,0,1-8.91,1.43A28.4,28.4,0,0,1,2.5,31.66a25.63,25.63,0,0,1,.81-10.92,15,15,0,0,0,5.58,2.78A1.12,1.12,0,0,0,10,23.19a3.92,3.92,0,0,1,6,.22,1.12,1.12,0,0,0,.89.43l.19,0a23,23,0,0,0,7-2.42C31.52,17.45,35.92,10,35,3.2a25.76,25.76,0,0,1,8.9,4.49,28.08,28.08,0,0,1-2.7,10.94,5,5,0,0,1-4.5,2.88h-.46a9,9,0,0,0-8.35,7.57ZM22.82,2.79a1.12,1.12,0,0,0,.12.39,5.17,5.17,0,0,1,0,4.66,1.12,1.12,0,1,0,2,.94,7.51,7.51,0,0,0,.12-6.35,25.33,25.33,0,0,1,7.59.23C34,8.72,30,15.73,23,19.43a20.82,20.82,0,0,1-5.72,2.07,6.16,6.16,0,0,0-8.46-.33,12.31,12.31,0,0,1-4.76-2.71A25.85,25.85,0,0,1,8,11.88,7.43,7.43,0,0,0,13,15a9.75,9.75,0,0,0,1.75.16,11.38,11.38,0,0,0,5.34-1.38,1.12,1.12,0,0,0-1.06-2,8.72,8.72,0,0,1-5.63,1A5.13,5.13,0,0,1,9.63,10.3a1.12,1.12,0,0,0-.11-.16A25.81,25.81,0,0,1,22.82,2.79ZM6,41.47a36.48,36.48,0,0,0,9.32,1.21A36.17,36.17,0,0,0,29.4,39.85a10.86,10.86,0,0,1,5.93-.62A8.91,8.91,0,0,0,45.63,30a11.27,11.27,0,0,1,1.51-6,36.19,36.19,0,0,0,3.45-8.59,25.64,25.64,0,0,1,3.29,11.28c-2.42,8.14-8.55,14.61-17.29,18.23a1.12,1.12,0,0,0-.68,1.18A3.92,3.92,0,0,1,32,50.54a3.87,3.87,0,0,1-1.82-.45,10,10,0,0,0-5.9-1,69.34,69.34,0,0,1-8.37.33h-.19c-.75,0-1.51,0-2.27-.06A26,26,0,0,1,6,41.47ZM28.08,53.91a25.67,25.67,0,0,1-10.52-2.25,60.48,60.48,0,0,0,7-.34,7.8,7.8,0,0,1,4.59.76,6.18,6.18,0,0,0,9-5.4A32.07,32.07,0,0,0,53.31,33.61,25.87,25.87,0,0,1,28.08,53.91Z"/><path class="ae052ca5-0a20-4b14-b539-427607d9ab7a" d="M17.41,25a1.12,1.12,0,0,0-1.12,1.12,3.37,3.37,0,1,1-6.74,0,1.12,1.12,0,0,0-2.25,0,5.62,5.62,0,1,0,11.23,0A1.12,1.12,0,0,0,17.41,25Z"/></g></g></g></svg>