<svg xmlns="http://www.w3.org/2000/svg" width="54.83" height="54.83" viewBox="0 0 54.83 54.83"><defs><style>.\35 55e27ad-e2ad-4e7f-90a1-649424bb17db{opacity:0.8;}.\38 05bbe9b-2605-47ff-b66b-a531a6fdc4f2{fill:#fff;}</style></defs><title>ico_business</title><g id="9d2f4610-4b6b-4f20-967b-776c7c193e4d" data-name="Layer 2"><g id="59404af9-296e-4389-b19a-6ac96f630b24" data-name="Layer 1"><g id="0f8e8f44-e74b-4fc6-9498-713a45124310" data-name="6" class="555e27ad-e2ad-4e7f-90a1-649424bb17db"><path class="805bbe9b-2605-47ff-b66b-a531a6fdc4f2" d="M52.8,2A6.91,6.91,0,0,0,45.62.39L37.33,3.32l0,0a9,9,0,0,0-3.13,2.15l-8.87,9.43,0,0-.13.1a10.77,10.77,0,0,1-9.34,1.75l-1.61-.45a8.66,8.66,0,0,0-9.12,2.92L3.25,21.52a3.22,3.22,0,0,0,.24,4.29l9.95,9.95-.49.52a4,4,0,0,0,5.62,5.62l.52-.49L29,51.35a3.22,3.22,0,0,0,4.29.24l2.26-1.81a8.66,8.66,0,0,0,2.92-9.12L38,39a10.76,10.76,0,0,1,1.84-9.46l0,0,9.44-8.88a9,9,0,0,0,2.15-3.13l2.95-8.33A6.91,6.91,0,0,0,52.8,2Zm-.08,5.2a4.81,4.81,0,0,1-.27,1.3l-2.92,8.26a6.87,6.87,0,0,1-1.64,2.38L25.34,40.37a1,1,0,1,0,1.43,1.53l9.09-8.55A12.81,12.81,0,0,0,36,39.61l.45,1.61a6.57,6.57,0,0,1-2.22,6.92L32,49.95a1.13,1.13,0,0,1-1.5-.08L20.59,40l6-5.68a1,1,0,0,0-1.45-1.52l-8,7.62a1.87,1.87,0,0,1-2.63,0,1.89,1.89,0,0,1,0-2.63l7.62-8a1,1,0,0,0-1.52-1.45l-5.68,6L5,24.33a1.13,1.13,0,0,1-.08-1.5l1.81-2.26a6.57,6.57,0,0,1,6.92-2.22l1.61.45a12.83,12.83,0,0,0,6.27.16l-8.55,9.1a1,1,0,1,0,1.53,1.43L35.68,6.93a6.87,6.87,0,0,1,2.38-1.64l8.26-2.92a4.81,4.81,0,0,1,6.41,4.85Z"/><path class="805bbe9b-2605-47ff-b66b-a531a6fdc4f2" d="M43.77,8.69a4.89,4.89,0,0,0-4.26-1.36l-1.8.3a5.53,5.53,0,0,0-3,1.58l-.16.16a2.09,2.09,0,0,0,1.25,3.55,5.34,5.34,0,0,1,3.15,1.52l1.48,1.48a5.34,5.34,0,0,1,1.52,3.15A2.08,2.08,0,0,0,43.3,20.8a2.11,2.11,0,0,0,.7.12,2.08,2.08,0,0,0,1.47-.61l.16-.16a5.53,5.53,0,0,0,1.58-3l.3-1.8a4.89,4.89,0,0,0-1.36-4.26ZM45.44,15l-.3,1.8a3.44,3.44,0,0,1-1,1.89l-.16.16a7.44,7.44,0,0,0-2.12-4.39L40.39,13A7.43,7.43,0,0,0,36,10.84l.16-.16a3.45,3.45,0,0,1,1.89-1l1.8-.3a2.76,2.76,0,0,1,.46,0,2.79,2.79,0,0,1,2,.82l2.38,2.38A2.79,2.79,0,0,1,45.44,15Z"/><path class="805bbe9b-2605-47ff-b66b-a531a6fdc4f2" d="M19.41,44.47a1,1,0,0,0-1.48-.07L9.76,51.84a1,1,0,1,0,1.41,1.55l8.17-7.44A1,1,0,0,0,19.41,44.47Z"/><path class="805bbe9b-2605-47ff-b66b-a531a6fdc4f2" d="M10.36,35.42a1,1,0,0,0-1.48.07L1.45,43.66A1,1,0,1,0,3,45.07l7.44-8.17A1,1,0,0,0,10.36,35.42Z"/><path class="805bbe9b-2605-47ff-b66b-a531a6fdc4f2" d="M21.92,48.27,15.86,53a1,1,0,0,0,1.28,1.66l6.06-4.68a1,1,0,0,0-1.28-1.66Z"/><path class="805bbe9b-2605-47ff-b66b-a531a6fdc4f2" d="M1.88,39l4.68-6.06A1,1,0,1,0,4.9,31.63L.22,37.69A1,1,0,1,0,1.88,39Z"/><path class="805bbe9b-2605-47ff-b66b-a531a6fdc4f2" d="M10.91,8.92A4.19,4.19,0,1,0,6.73,4.73,4.19,4.19,0,0,0,10.91,8.92Zm0-6.28A2.09,2.09,0,1,1,8.82,4.73,2.1,2.1,0,0,1,10.91,2.64Z"/><path class="805bbe9b-2605-47ff-b66b-a531a6fdc4f2" d="M19.73,7.78h.79v.79a1,1,0,1,0,2.09,0V7.78h.79a1,1,0,0,0,0-2.09h-.79V4.9a1,1,0,1,0-2.09,0v.79h-.79a1,1,0,0,0,0,2.09Z"/><path class="805bbe9b-2605-47ff-b66b-a531a6fdc4f2" d="M50.44,34.31h-.79v-.79a1,1,0,0,0-2.09,0v.79h-.79a1,1,0,0,0,0,2.09h.79v.79a1,1,0,1,0,2.09,0V36.4h.79a1,1,0,0,0,0-2.09Z"/></g></g></g></svg>