<?xml version="1.0" encoding="utf-8"?>
<!-- Generator: Adobe Illustrator 21.0.0, SVG Export Plug-In . SVG Version: 6.00 Build 0)  -->
<svg version="1.1" id="Layer_1" xmlns="http://www.w3.org/2000/svg" xmlns:xlink="http://www.w3.org/1999/xlink" x="0px" y="0px"
	 viewBox="0 0 14.3 14.3" style="enable-background:new 0 0 14.3 14.3;" xml:space="preserve">
<style type="text/css">
	.st0{fill:#FFFFFF;}
</style>
<title>cloud_overview_restart</title>
<g id="_x35_c361618-05e9-4abf-85ac-307ef37a5c18">
	<g id="e98c3683-0cfe-490c-baca-f1ca9dfa561e">
		<path class="st0" d="M13,7.2L13,7.2c0,3.2-2.6,5.8-5.9,5.8c-1.6,0-3-0.6-4.1-1.7c-0.1-0.1-0.2-0.3-0.3-0.4h1.3V9.6H0.4v3.5h1.3
			v-1.4c0.1,0.1,0.2,0.3,0.4,0.4c2.8,2.8,7.3,2.8,10.1,0c1.3-1.3,2.1-3.1,2.1-5L13,7.2z"/>
		<path class="st0" d="M1.3,7.1c0.1-3.2,2.7-5.8,6-5.7c1.5,0,3,0.7,4,1.7c0.1,0.1,0.2,0.3,0.3,0.4h-1.3v1.3h3.5V1.2h-1.3v1.4
			c-0.1-0.2-0.2-0.3-0.4-0.4c-2.8-2.8-7.3-2.8-10.1,0C0.8,3.4,0,5.2,0,7L1.3,7.1L1.3,7.1z"/>
		<line class="st0" x1="10.4" y1="4.7" x2="10.4" y2="4.7"/>
	</g>
</g>
</svg>
