<svg xmlns="http://www.w3.org/2000/svg" xmlns:xlink="http://www.w3.org/1999/xlink" width="18.5" height="16.38" viewBox="0 0 18.5 16.38"><defs><style>.\37 811fd79-1f8c-4346-aa1c-96e6b2acd33d,.\39 01041d8-9ce2-45a3-903a-e33903c10c1c,.\39 d702a06-af88-407a-b0f0-9221157f8c30,.c483b391-8bf0-46f7-9501-491b39713264,.d4f3e26a-fd33-4ffa-bc9d-b2ad55b72c16,.e2ae5e34-e061-4f49-87e0-0aa957ad7a2d{fill:none;stroke-miterlimit:10;stroke-width:1.5px;}.\39 01041d8-9ce2-45a3-903a-e33903c10c1c{stroke:url(#7f5f504b-ae66-478f-a048-c9d2e73513c7);}.\39 d702a06-af88-407a-b0f0-9221157f8c30{stroke:url(#e492673f-9950-408d-8dac-1673feefd484);}.e2ae5e34-e061-4f49-87e0-0aa957ad7a2d{stroke:url(#587137d7-10ba-4280-ab07-f1b941219f09);}.\37 811fd79-1f8c-4346-aa1c-96e6b2acd33d{stroke:url(#31a1a8f2-79b0-4e97-b4ba-e20f3d716634);}.c483b391-8bf0-46f7-9501-491b39713264{stroke:url(#9f070f46-141b-4150-b96c-11a2dcae772d);}.d4f3e26a-fd33-4ffa-bc9d-b2ad55b72c16{stroke:url(#35482635-2917-4ae2-a1f9-bf836f000a34);}</style><linearGradient id="7f5f504b-ae66-478f-a048-c9d2e73513c7" y1="4.47" x2="18.5" y2="4.47" gradientUnits="userSpaceOnUse"><stop offset="0" stop-color="#7695f6"/><stop offset="0.34" stop-color="#7698f4"/><stop offset="0.62" stop-color="#76a3ed"/><stop offset="0.89" stop-color="#75b5e2"/><stop offset="1" stop-color="#75bedc"/></linearGradient><linearGradient id="e492673f-9950-408d-8dac-1673feefd484" y1="11.91" y2="11.91" xlink:href="#7f5f504b-ae66-478f-a048-c9d2e73513c7"/><linearGradient id="587137d7-10ba-4280-ab07-f1b941219f09" x1="9.25" y1="4.47" x2="14.56" y2="4.47" xlink:href="#7f5f504b-ae66-478f-a048-c9d2e73513c7"/><linearGradient id="31a1a8f2-79b0-4e97-b4ba-e20f3d716634" x1="3.13" y1="4.47" x2="4.74" y2="4.47" xlink:href="#7f5f504b-ae66-478f-a048-c9d2e73513c7"/><linearGradient id="9f070f46-141b-4150-b96c-11a2dcae772d" x1="9.25" y1="11.91" x2="14.56" y2="11.91" xlink:href="#7f5f504b-ae66-478f-a048-c9d2e73513c7"/><linearGradient id="35482635-2917-4ae2-a1f9-bf836f000a34" x1="3.13" y1="11.91" x2="4.74" y2="11.91" xlink:href="#7f5f504b-ae66-478f-a048-c9d2e73513c7"/></defs><title>cloud_overview_server</title><g id="f27347cc-b6ae-48fd-a434-e8f2e34362df" data-name="Layer 2"><g id="6f04fee2-5473-42c8-ad8d-1b7ff8efc3d6" data-name="Layer 1"><path class="901041d8-9ce2-45a3-903a-e33903c10c1c" d="M14.56.75H3.94A3.48,3.48,0,0,0,.75,4.47h0A3.48,3.48,0,0,0,3.94,8.19H14.56a3.48,3.48,0,0,0,3.19-3.72h0A3.48,3.48,0,0,0,14.56.75Z"/><path class="9d702a06-af88-407a-b0f0-9221157f8c30" d="M14.56,8.19H3.94A3.48,3.48,0,0,0,.75,11.91h0a3.48,3.48,0,0,0,3.19,3.72H14.56a3.48,3.48,0,0,0,3.19-3.72h0A3.48,3.48,0,0,0,14.56,8.19Z"/><path class="e2ae5e34-e061-4f49-87e0-0aa957ad7a2d" d="M9.25,4.47h5.31"/><path class="7811fd79-1f8c-4346-aa1c-96e6b2acd33d" d="M4,4.43a.07.07,0,0,1,0,.09,0,0,0,0,1-.08,0,.07.07,0,0,1,0-.09,0,0,0,0,1,.08,0"/><path class="c483b391-8bf0-46f7-9501-491b39713264" d="M9.25,11.91h5.31"/><path class="d4f3e26a-fd33-4ffa-bc9d-b2ad55b72c16" d="M4,11.86A.07.07,0,0,1,4,12a0,0,0,0,1-.08,0,.07.07,0,0,1,0-.09,0,0,0,0,1,.08,0"/></g></g></svg>