<svg xmlns="http://www.w3.org/2000/svg" width="18.2" height="18.2" viewBox="0 0 18.2 18.2"><defs><style>.e9f49cb4-19a5-4c93-8a8d-01ad07ab7647{fill:none;stroke:#2d9fa5;stroke-linecap:round;stroke-linejoin:round;stroke-width:1.2px;}</style></defs><title>cloud_overview_cpu_1</title><g id="45c12973-e989-4ba8-b69d-268211352b91" data-name="Layer 2"><g id="8b7c521a-4065-4657-b46d-8547f2857c4f" data-name="Layer 1"><path class="e9f49cb4-19a5-4c93-8a8d-01ad07ab7647" d="M11.93,15.71H6.27a3.79,3.79,0,0,1-3.78-3.78V6.27h0A3.79,3.79,0,0,1,6.27,2.49h5.67a3.79,3.79,0,0,1,3.78,3.78v5.67h0a3.79,3.79,0,0,1-3.78,3.78Z"/><line class="e9f49cb4-19a5-4c93-8a8d-01ad07ab7647" x1="9.4" y1="2.49" x2="9.4" y2="0.6"/><line class="e9f49cb4-19a5-4c93-8a8d-01ad07ab7647" x1="13.02" y1="2.65" x2="13.02" y2="0.6"/><line class="e9f49cb4-19a5-4c93-8a8d-01ad07ab7647" x1="5.18" y1="2.65" x2="5.18" y2="0.6"/><line class="e9f49cb4-19a5-4c93-8a8d-01ad07ab7647" x1="9.4" y1="17.6" x2="9.4" y2="15.71"/><line class="e9f49cb4-19a5-4c93-8a8d-01ad07ab7647" x1="13.02" y1="17.6" x2="13.02" y2="15.55"/><line class="e9f49cb4-19a5-4c93-8a8d-01ad07ab7647" x1="5.18" y1="17.6" x2="5.18" y2="15.55"/><line class="e9f49cb4-19a5-4c93-8a8d-01ad07ab7647" x1="15.71" y1="9.4" x2="17.6" y2="9.4"/><line class="e9f49cb4-19a5-4c93-8a8d-01ad07ab7647" x1="15.55" y1="13.02" x2="17.6" y2="13.02"/><line class="e9f49cb4-19a5-4c93-8a8d-01ad07ab7647" x1="15.55" y1="5.18" x2="17.6" y2="5.18"/><line class="e9f49cb4-19a5-4c93-8a8d-01ad07ab7647" x1="0.6" y1="9.4" x2="2.49" y2="9.4"/><line class="e9f49cb4-19a5-4c93-8a8d-01ad07ab7647" x1="0.6" y1="13.02" x2="2.65" y2="13.02"/><line class="e9f49cb4-19a5-4c93-8a8d-01ad07ab7647" x1="0.6" y1="5.18" x2="2.65" y2="5.18"/><path class="e9f49cb4-19a5-4c93-8a8d-01ad07ab7647" d="M11,12.88H7.21A1.89,1.89,0,0,1,5.32,11V7.21h0A1.89,1.89,0,0,1,7.21,5.32H11a1.89,1.89,0,0,1,1.89,1.89V11h0A1.89,1.89,0,0,1,11,12.88Z"/></g></g></svg>