<svg xmlns="http://www.w3.org/2000/svg" width="31.16" height="27.89" viewBox="0 0 31.16 27.89"><defs><style>.\39 927e105-6129-4e85-a32b-cb5e075d868e{fill:none;stroke:#70b5ef;stroke-linecap:round;stroke-linejoin:round;stroke-width:1.7px;}</style></defs><title>cloud_overview_hdd</title><g id="2c0b8287-7695-4c26-bb6e-50a4920a2de5" data-name="Layer 2"><g id="69682500-af91-4e7c-b280-98be168bdfb5" data-name="Layer 1"><path class="9927e105-6129-4e85-a32b-cb5e075d868e" d="M25.4,17.22H5.76A4.91,4.91,0,0,0,.85,22.13h0A4.91,4.91,0,0,0,5.76,27H25.4a4.91,4.91,0,0,0,4.91-4.91h0A4.91,4.91,0,0,0,25.4,17.22Z"/><path class="9927e105-6129-4e85-a32b-cb5e075d868e" d="M25.4,22.13H13.94"/><path class="9927e105-6129-4e85-a32b-cb5e075d868e" d="M5.82,22.07a.08.08,0,1,1-.12,0,.08.08,0,0,1,.12,0"/><path class="9927e105-6129-4e85-a32b-cb5e075d868e" d="M30.29,21.73,28.91,3.87a3.27,3.27,0,0,0-3.26-3H5.52a3.27,3.27,0,0,0-3.26,3L.87,21.73"/></g></g></svg>