<svg xmlns="http://www.w3.org/2000/svg" width="21.2" height="12.3" viewBox="0 0 21.2 12.3"><defs><style>.ddd6bb96-1094-46f4-b39e-e48de72dab95{fill:#565656;}</style></defs><title>cloud_overview_ssh</title><g id="809e2ad7-4e8f-4215-a9c7-54935ee7a649" data-name="Layer 2"><g id="fb2ce11d-7129-4f28-b336-bad360f111a4" data-name="Layer 1"><g id="ceb4c2a0-a764-4593-80ea-6739a72a5c00" data-name="4d24bd02-c3a1-40e2-9acd-80deea41d7e5"><g id="7f8192c0-2ab3-4070-8a60-ea078cd4ba42" data-name="5a2fe49d-ccc3-420e-b42f-2d5d03d1c977"><path class="ddd6bb96-1094-46f4-b39e-e48de72dab95" d="M8.7,5.9H8.5a.65.65,0,0,0-.6.6v.3a.65.65,0,0,0,.6.6h.3a.65.65,0,0,0,.6-.6h0V6.5a.66.66,0,0,0-.7-.6Z"/><path class="ddd6bb96-1094-46f4-b39e-e48de72dab95" d="M10.2,1.6A.65.65,0,0,0,9.6,1h-7A2.65,2.65,0,0,0,0,3.6H0v6H0a2.65,2.65,0,0,0,2.6,2.6h7a.6.6,0,0,0,0-1.2h-7A1.37,1.37,0,0,1,1.2,9.6h0v-6A1.37,1.37,0,0,1,2.6,2.2h7A.65.65,0,0,0,10.2,1.6Z"/><path class="ddd6bb96-1094-46f4-b39e-e48de72dab95" d="M4.7,5.9H4.5a.65.65,0,0,0-.6.6v.3a.65.65,0,0,0,.6.6h.3a.65.65,0,0,0,.6-.6V6.5a.66.66,0,0,0-.7-.6Z"/><path class="ddd6bb96-1094-46f4-b39e-e48de72dab95" d="M19.7,4.6V3.1a3.1,3.1,0,0,0-6.2,0h0V4.7a2,2,0,0,0-1.5,2V10a2.33,2.33,0,0,0,2.3,2.3H19A2.24,2.24,0,0,0,21.2,10V6.7A2.26,2.26,0,0,0,19.7,4.6ZM16.6,1.2a1.9,1.9,0,0,1,1.9,1.9h0V4.5H14.8V3.1a1.76,1.76,0,0,1,1.8-1.9ZM20,10a1.08,1.08,0,0,1-1,1H14.3a1.08,1.08,0,0,1-1-1V6.7a1.09,1.09,0,0,1,1-1.1H19a1,1,0,0,1,1,1.1Z"/></g></g></g></g></svg>