<svg xmlns="http://www.w3.org/2000/svg" width="26" height="13.58" viewBox="0 0 26 13.58"><defs><style>.d750f5f0-3aa6-4231-9c80-afa132872b76{fill:#118947;}</style></defs><title>cloud_overview_xls</title><g id="880d7c1b-83b0-4a81-8f08-9b74ef59a138" data-name="Layer 2"><g id="d2687666-8ae4-4613-a6e8-a932867399a7" data-name="Layer 1"><path class="d750f5f0-3aa6-4231-9c80-afa132872b76" d="M1.77,0a3.87,3.87,0,0,1,.77,0h21.3A2.21,2.21,0,0,1,26,2.09c0,2.87,0,5.73,0,8.6a4.46,4.46,0,0,1-.11,1.39,2.2,2.2,0,0,1-2.05,1.5H3a4,4,0,0,1-1.63-.18,2.2,2.2,0,0,1-1.33-2q0-4.51,0-9A2.23,2.23,0,0,1,1.77,0ZM18.53,3.5a2,2,0,0,0-1.42,1.27,2.12,2.12,0,0,0,.43,2A8.49,8.49,0,0,0,19.61,8a.55.55,0,0,1,.35.54c0,.32-.4.45-.68.45A4.79,4.79,0,0,1,17,8.39c0,.56,0,1.13,0,1.69a5.11,5.11,0,0,0,2.87.36A2.4,2.4,0,0,0,21.6,9.32a2,2,0,0,0-.4-2.49,23.83,23.83,0,0,0-2.1-1.15A.42.42,0,0,1,19,5a1.14,1.14,0,0,1,.93-.17,8.42,8.42,0,0,1,1.37.4c.17-.48.4-.94.55-1.43A5.05,5.05,0,0,0,18.53,3.5ZM4,3.47C4.71,4.6,5.44,5.72,6.15,6.85,5.4,8,4.6,9.2,3.87,10.39c.7,0,1.41,0,2.11,0,.44-.72.88-1.44,1.33-2.16.47.71.9,1.45,1.36,2.16h2.17C10.06,9.26,9.27,8.14,8.49,7,9.2,5.82,10,4.65,10.68,3.47c-.72,0-1.43,0-2.15,0-.42.7-.77,1.44-1.22,2.12-.42-.7-.83-1.42-1.25-2.12C5.38,3.47,4.68,3.46,4,3.47Zm7.64,0q0,3.46,0,6.93h4.54q0-.76,0-1.51H13.51q0-2.71,0-5.41Z"/></g></g></svg>