<?xml version="1.0" encoding="utf-8"?>
<!-- Generator: Adobe Illustrator 26.5.0, SVG Export Plug-In . SVG Version: 6.00 Build 0)  -->
<svg version="1.1" id="Layer_1" xmlns="http://www.w3.org/2000/svg" xmlns:xlink="http://www.w3.org/1999/xlink" x="0px" y="0px"
	 viewBox="0 0 30.3 27" style="enable-background:new 0 0 30.3 27;" xml:space="preserve">
<style type="text/css">
	.st0{fill:none;stroke:url(#SVGID_1_);stroke-linecap:round;stroke-miterlimit:10;}
	
		.st1{fill:none;stroke:url(#SVGID_00000089560163983701207460000012318737157818016679_);stroke-linecap:round;stroke-miterlimit:10;}
	
		.st2{fill:none;stroke:url(#SVGID_00000123407299209198694660000006356080030582003622_);stroke-linecap:round;stroke-miterlimit:10;}
	
		.st3{fill:none;stroke:url(#SVGID_00000067935477940568471360000001279924698466063511_);stroke-linecap:round;stroke-miterlimit:10;}
</style>
<g id="_x36_9682500-af91-4e7c-b280-98be168bdfb5_00000157993619736243164690000000272359673583292292_">
	<linearGradient id="SVGID_1_" gradientUnits="userSpaceOnUse" x1="0.1095" y1="21.6094" x2="30.2529" y2="21.6094">
		<stop  offset="1.010379e-06" style="stop-color:#7694F5"/>
		<stop  offset="0.3352" style="stop-color:#7697F3"/>
		<stop  offset="0.6223" style="stop-color:#76A2EC"/>
		<stop  offset="0.8909" style="stop-color:#75B4E1"/>
		<stop  offset="1" style="stop-color:#75BDDB"/>
	</linearGradient>
	<path class="st0" d="M24.9,16.8H5.5c-2.7,0-4.9,2.2-4.9,4.9h0l0,0c0,2.7,2.2,4.8,4.9,4.8h19.4c2.7,0,4.9-2.2,4.9-4.9l0,0
		C29.7,18.9,27.6,16.8,24.9,16.8z"/>
	
		<linearGradient id="SVGID_00000104685978374683760530000003641366219792018336_" gradientUnits="userSpaceOnUse" x1="13.0588" y1="21.6292" x2="25.3956" y2="21.6292">
		<stop  offset="1.010379e-06" style="stop-color:#7694F5"/>
		<stop  offset="0.3352" style="stop-color:#7697F3"/>
		<stop  offset="0.6223" style="stop-color:#76A2EC"/>
		<stop  offset="0.8909" style="stop-color:#75B4E1"/>
		<stop  offset="1" style="stop-color:#75BDDB"/>
	</linearGradient>
	
		<path style="fill:none;stroke:url(#SVGID_00000104685978374683760530000003641366219792018336_);stroke-linecap:round;stroke-miterlimit:10;" d="
		M24.9,21.6H13.6"/>
	
		<linearGradient id="SVGID_00000035513738345175593370000012406112579759377339_" gradientUnits="userSpaceOnUse" x1="4.8876" y1="21.6222" x2="6.0459" y2="21.6222">
		<stop  offset="1.010379e-06" style="stop-color:#7694F5"/>
		<stop  offset="0.3352" style="stop-color:#7697F3"/>
		<stop  offset="0.6223" style="stop-color:#76A2EC"/>
		<stop  offset="0.8909" style="stop-color:#75B4E1"/>
		<stop  offset="1" style="stop-color:#75BDDB"/>
	</linearGradient>
	
		<path style="fill:none;stroke:url(#SVGID_00000035513738345175593370000012406112579759377339_);stroke-linecap:round;stroke-miterlimit:10;" d="
		M5.5,21.6c0,0,0,0.1,0,0.1c0,0-0.1,0-0.1,0c0,0,0-0.1,0-0.1C5.4,21.5,5.5,21.5,5.5,21.6C5.5,21.6,5.5,21.6,5.5,21.6"/>
	
		<linearGradient id="SVGID_00000152224716779559608340000013633600180199326371_" gradientUnits="userSpaceOnUse" x1="0.1293" y1="10.9156" x2="30.2331" y2="10.9156">
		<stop  offset="1.010379e-06" style="stop-color:#7694F5"/>
		<stop  offset="0.3352" style="stop-color:#7697F3"/>
		<stop  offset="0.6223" style="stop-color:#76A2EC"/>
		<stop  offset="0.8909" style="stop-color:#75B4E1"/>
		<stop  offset="1" style="stop-color:#75BDDB"/>
	</linearGradient>
	
		<path style="fill:none;stroke:url(#SVGID_00000152224716779559608340000013633600180199326371_);stroke-linecap:round;stroke-miterlimit:10;" d="
		M29.7,21.2L28.4,3.6c-0.1-1.7-1.5-3-3.2-3H5.2c-1.7,0-3.1,1.3-3.2,3L0.6,21.2"/>
</g>
</svg>
