<?xml version="1.0" encoding="utf-8"?>
<!-- Generator: Adobe Illustrator 26.5.0, SVG Export Plug-In . SVG Version: 6.00 Build 0)  -->
<svg version="1.2" baseProfile="tiny" id="Layer_1" xmlns="http://www.w3.org/2000/svg" xmlns:xlink="http://www.w3.org/1999/xlink"
	 x="0px" y="0px" viewBox="0 0 40 11.1" overflow="visible" xml:space="preserve">
<g>
	<path fill="#DF0022" d="M36.6,2.9h-5.5v1.6c-0.3,0.4-0.4,1-0.4,1.5c0,0.5,0.1,1,0.4,1.4h-0.1c-1,0-1.8-0.8-1.8-1.8V1.2h-1.7v4.3
		C27.4,7.5,29,9,30.9,9h5.6c1.7,0,3.1-1.4,3.1-3.1C39.6,4.2,38.2,2.9,36.6,2.9z M34.7,5.9c0,0.7-0.5,1.2-1.2,1.2s-1.2-0.5-1.2-1.2
		c0-0.7,0.5-1.2,1.2-1.2S34.7,5.3,34.7,5.9z M36.6,7.3h-0.5c0.2-0.4,0.4-0.9,0.4-1.4c0-0.5-0.1-1-0.3-1.4h0.4c0.8,0,1.4,0.6,1.4,1.4
		S37.3,7.3,36.6,7.3z"/>
	<path fill="#DF0022" d="M8.8,3.9c0,0.8-0.6,1.4-1.4,1.4H0.4V7h7.1c1.7,0,3.1-1.4,3.1-3.1V1.3H8.8V3.9z"/>
	<path fill="#DF0022" d="M15.4,5.6h-1C13.6,5.6,13,5,13,4.3s0.6-1.4,1.4-1.4h0.9v1.7H17V1.2h-2.6c-1.7,0-3.1,1.4-3.1,3.1
		c0,1.7,1.4,3.1,3.1,3.1h0.9C15,7.8,14.5,8,14,8h-1.7v1.7H14c1.7,0,3.1-1.4,3.1-3.1v-1L15.4,5.6L15.4,5.6z"/>
	<path fill="#DF0022" d="M24.4,4.5h-0.3c0.2-0.8,0.9-1.3,1.7-1.3h1V1.5h-1c-1.8,0-3.2,1.3-3.4,3c0,0.1,0,0.3,0,0.4v1.3H24h0.3
		c0.5,0,0.9,0.4,0.9,0.9c0,0.5-0.4,0.9-0.9,0.9h-3.3c-0.4,0-0.7-0.3-0.7-0.7V5.3h-1.7v2.1c0,1.3,1.1,2.4,2.4,2.4h3.3
		c1.4,0,2.6-1.2,2.6-2.6C26.9,5.7,25.8,4.5,24.4,4.5z"/>
	<rect x="3.7" y="8" fill="#DF0022" width="1.9" height="1.9"/>
</g>
</svg>
