<?xml version="1.0" encoding="utf-8"?>
<!-- Generator: Adobe Illustrator 26.5.0, SVG Export Plug-In . SVG Version: 6.00 Build 0)  -->
<svg version="1.1" id="Layer_1" xmlns="http://www.w3.org/2000/svg" xmlns:xlink="http://www.w3.org/1999/xlink" x="0px" y="0px"
	 viewBox="0 0 30.5 30.8" style="enable-background:new 0 0 30.5 30.8;" xml:space="preserve">
<style type="text/css">
	.st0{fill:#D50C2D;}
	.st1{fill:#FFFFFF;}
</style>
<g>
	<g>
		<circle class="st0" cx="15.2" cy="15.5" r="15.1"/>
		<path class="st1" d="M22.5,7.6h-2.2c-0.5,0-0.7,0.2-0.7,0.7v5.6h-8.8V8.3c0-0.5-0.2-0.7-0.7-0.7H7.9c-0.5,0-0.7,0.2-0.7,0.7v14.4
			c0,0.5,0.2,0.7,0.7,0.7h2.2c0.5,0,0.7-0.2,0.7-0.7V17h8.8v5.7c0,0.5,0.2,0.7,0.7,0.7h2.2c0.5,0,0.7-0.2,0.7-0.7V8.3
			C23.2,7.9,23,7.6,22.5,7.6z"/>
	</g>
</g>
</svg>
