<svg xmlns="http://www.w3.org/2000/svg" xmlns:xlink="http://www.w3.org/1999/xlink" width="16.33" height="12.13" viewBox="0 0 16.33 12.13"><defs><linearGradient id="8fc308a2-b9b2-4013-b62c-c2dfa06c42a4" y1="6.06" x2="16.33" y2="6.06" gradientUnits="userSpaceOnUse"><stop offset="0" stop-color="#8dbf52"/><stop offset="1" stop-color="#b3d959"/></linearGradient></defs><title>ico_message_check</title><g id="a6c9c1cb-c9d4-436e-ac72-557728706620" data-name="Layer 2"><g id="97bc79e6-a0d2-4792-9c77-73acb2b7815c" data-name="Layer 1"><path d="M16.15,1.18l-1-1a.62.62,0,0,0-.88,0L6,8.41a.31.31,0,0,1-.22.09.3.3,0,0,1-.22-.09L2.06,4.87a.62.62,0,0,0-.88,0l-1,1a.62.62,0,0,0,0,.88l5.2,5.2h0a.62.62,0,0,0,.88,0l9.89-9.89a.62.62,0,0,0,0-.88Z" style="fill:url(#8fc308a2-b9b2-4013-b62c-c2dfa06c42a4)"/></g></g></svg>