<?xml version="1.0" encoding="utf-8"?>
<!-- Generator: Adobe Illustrator 26.5.0, SVG Export Plug-In . SVG Version: 6.00 Build 0)  -->
<svg version="1.1" id="Layer_1" xmlns="http://www.w3.org/2000/svg" xmlns:xlink="http://www.w3.org/1999/xlink" x="0px" y="0px"
	 viewBox="0 0 63 63" style="enable-background:new 0 0 63 63;" xml:space="preserve">
<g>
	<path d="M62.6,2.3C62.6,2.3,62.6,2.3,62.6,2.3C62.6,2.3,62.6,2.2,62.6,2.3C62.5,2.2,62.5,2.2,62.6,2.3c-0.4-0.9-1-1.4-1.7-1.7
		c0,0-0.1,0-0.1-0.1c0,0,0,0,0,0c-1.4-0.5-3.3-0.1-4,0.1c0,0,0,0,0,0c-1,0.3-2.1,0.6-3.1,1c-2.9,1.2-5.6,2.9-8.3,4.7
		c-0.3,0.2-0.5,0.3-0.8,0.1c-3.4-1.7-6.9-2.7-10.7-3c-6.3-0.5-12.1,1-17.4,4.4c-0.7,0.5-0.9,1.2-0.5,1.8c0.4,0.6,1.1,0.7,1.8,0.3
		c3.7-2.3,7.6-3.7,12-4C33,5.6,36.3,6,39.5,7c0.2,0.1,0.4,0.3,0.4,0.4c0,1.7-0.1,3.4-0.2,5.1c0,0.4-0.2,0.6-0.6,0.7
		c-1.1,0.3-2.2,0.6-3.3,0.8c-1.6,0.4-2.6,1.4-2.8,3c-0.4,2.3-0.7,4.6-1.1,6.9c-0.3,1.6,0.1,3.1,1.2,4.3c1.1,1.3,2.3,2.5,3.4,3.8
		c1.1,1.3,2.5,1.8,4.2,1.3c0,0,0.1,0,0.1,0.1c-2.5,2.5-5,5-7.4,7.5c-1.7-1.2-3.5-1.7-5.4-1.4c-0.6,0.1-0.9,0.1-1.2-0.5
		c-0.1-0.2-0.4-0.4-0.6-0.6c-1.5-1.1-3-2.1-4.5-3.2c-1-0.7-2.2-0.9-3.4-0.7c-1.7,0.4-3.4,0.7-5.1,1.1c-2.1,0.5-4.3,0.9-6.4,1.4
		c-0.1-0.1-0.1-0.1-0.1-0.1c0-0.1-0.1-0.3-0.1-0.4c-1-5-0.6-9.8,1.3-14.6c0.6-1.6,1.5-3.1,2.4-4.6c0.5-0.9,0.1-1.9-0.9-2
		c-0.6-0.1-1,0.3-1.3,0.8c-3.6,5.7-5,11.9-4.2,18.6c1,7.7,4.6,13.9,10.6,18.7c0.5,0.4,1.1,0.8,1.8,1.3c-1.8,1-3.4,2.1-5.1,3
		c-1.9,1-3.8,1.9-6,2.3c-1.8,0.3-2.6-0.4-2.2-2.2c0.3-1.4,0.8-2.8,1.4-4.2c0.6-1.3,1.4-2.6,2-3.9c0.5-0.9,0-1.8-0.9-1.9
		c-0.6-0.1-1,0.3-1.3,0.8c-1.4,2.4-2.7,4.9-3.4,7.7c0,0,0,0,0,0c0,0.2-0.1,0.3-0.1,0.5c0,0,0,0,0,0c-0.2,1-0.4,3.1,1.1,4.6
		c0.6,0.6,1.5,0.9,2.6,0.9c2.1,0,4-0.7,5.8-1.5c2.8-1.2,5.4-2.8,7.9-4.6c0.4-0.3,0.7-0.3,1.2-0.1c15.5,7.9,34.7-0.4,39.6-17.1
		c2.1-7.1,1.5-14.1-1.9-20.7c-0.2-0.4-0.2-0.6,0.1-1c2-2.9,3.8-5.9,5.1-9.1c0.3-0.8,0.5-1.5,0.7-2.3c0,0,0,0,0,0
		C63.1,4,62.7,2.6,62.6,2.3z M16.9,52.4c-4.4-3.1-7.6-7.2-9.5-12.3c-0.1-0.2-0.1-0.4-0.2-0.6c1.7-0.4,3.4-0.8,5.1-1.1
		c2-0.4,4-0.9,6-1.3c0.7-0.2,1.4-0.1,2,0.4c1.3,0.9,2.6,1.9,3.9,2.8c0.2,0.1,0.4,0.3,0.6,0.5c-1.4,1.1-2.3,2.4-2.7,4.1
		c-0.4,1.7-0.1,3.3,0.7,4.9c-1.1,0.9-2.3,1.7-3.4,2.6C18.2,53.4,18.2,53.4,16.9,52.4z M20.7,54.6c1.3-1,2.5-1.9,3.8-2.9
		c2.2,1.7,4.6,2,7.2,1c0.4,1.4,0.7,2.8,1.1,4.3C28.5,57.2,24.6,56.4,20.7,54.6z M29,50.9c-2.5,0-4.5-2-4.5-4.5c0-2.5,2-4.5,4.5-4.5
		c2.5,0,4.5,2,4.5,4.5C33.4,48.9,31.4,50.9,29,50.9z M35.3,56.8c-0.5-1.8-0.9-3.5-1.4-5.3c0-0.1,0.1-0.4,0.2-0.5
		c2.1-2.5,2.3-5.2,0.8-8.1c0,0,7.6-8,10.3-10.9c0.6-0.6,0.7-0.6,1.3-0.1c0.5,0.4,1,0.9,1.5,1.3c0.4,0.3,0.4,0.6,0.2,1.1
		c-0.7,1.8-1.5,3.6-2.1,5.4c-0.3,0.9-0.5,1.9-0.5,2.8c0,1.2,0.8,2.2,1.7,3c0.9,0.8,1.9,1.6,2.8,2.3c0.2,0.2,0.4,0.3,0.6,0.5
		C46.7,53,41.5,55.8,35.3,56.8z M52.3,46.4c-1.2-1.1-2.5-2.1-3.7-3.2c-0.6-0.6-0.6-1.3-0.3-2.1c0.7-1.9,1.5-3.8,2.2-5.7
		c0.7-1.9,0.6-2.7-0.9-4.1c-0.6-0.6-1.3-1.2-2-1.8c0.7-0.8,1.4-1.6,2-2.4c0.2-0.2,0.4-0.5,0.5-0.8c0.2-0.5-0.1-1.1-0.6-1.3
		c-0.5-0.3-1.1-0.2-1.5,0.3c-0.8,0.9-1.6,1.7-2.3,2.6c-0.9,1.2-2.1,2-3.6,2.3c-0.8,0.2-1.6,0.5-2.4,0.8c-0.5,0.2-0.9,0.1-1.2-0.3
		c-1.3-1.4-2.6-2.9-3.8-4.3c-0.5-0.6-0.5-1.3-0.4-2c0.4-2.3,0.8-4.7,1.2-7c0.1-0.5,0.3-0.8,0.9-1c1.1-0.3,2.1-0.5,3.2-0.8
		c2-0.5,2.6-1.3,2.7-3.3c0.1-1.4,0-2.9,0-4.3c0.1,0,0.1,0,0.2,0.1c1.7,0.7,3.2,1.7,4.7,2.8c2.5,1.9,4.5,4.1,6.2,6.7
		c0.2,0.4,0.2,0.6,0,1c-0.6,0.8-1.2,1.6-1.8,2.3c-0.5,0.7-0.5,1.4,0.1,1.9c0.6,0.5,1.3,0.3,1.9-0.4c0.5-0.6,0.9-1.2,1.4-1.8
		C58.9,26.7,57.6,40.9,52.3,46.4z M60.5,3.9c0,0.9-0.2,1.8-0.5,2.6c-1.1,3.3-2.9,6.3-4.8,9.2c0,0-0.1,0-0.1,0.1
		c-2.1-3.1-4.7-5.7-7.9-7.8c1.5-0.9,2.8-1.7,4.2-2.5c2-1.1,4-2.1,6.2-2.6c0.6-0.1,1.1-0.2,1.7-0.2C60.1,2.7,60.5,3.1,60.5,3.9z"/>
	<path d="M13.8,12.5c0,0.7-0.5,1.2-1.2,1.2c-0.7,0-1.2-0.5-1.2-1.2c0-0.7,0.6-1.2,1.3-1.2C13.3,11.2,13.8,11.8,13.8,12.5z"/>
</g>
</svg>
