<?xml version="1.0" encoding="utf-8"?>
<!-- Generator: Adobe Illustrator 26.5.0, SVG Export Plug-In . SVG Version: 6.00 Build 0)  -->
<svg version="1.1" id="Layer_1" xmlns="http://www.w3.org/2000/svg" xmlns:xlink="http://www.w3.org/1999/xlink" x="0px" y="0px"
	 viewBox="0 0 63 63" style="enable-background:new 0 0 63 63;" xml:space="preserve">
<g>
	<g>
		<path d="M28.7,19.3c-1,0.5-1.9,1.1-2.7,1.7l-1.3-1.4c0.7-0.6,1.5-1.1,2.3-1.5C27.8,18.2,28.4,18.9,28.7,19.3z"/>
		<path d="M62.3,38c-0.2-6.9-2.9-12.7-8-17.3c-3.3-3-7.3-4.8-11.7-5.6c-0.3-0.1-0.7-0.1-1-0.1c-0.9-0.1-1.7-0.2-2.6-0.2h-0.4
			c-0.9,0-1.8,0.1-2.6,0.2l0,0c0.4,0.4,0.6,0.9,0.4,1.6c0,0.1,0,0.1-0.1,0.2c3-0.3,6,0,9.1,1c0.3,0.1,0.4,0.2,0.4,0.5
			c-0.1,1.3-0.1,2.7-0.2,4c0,0.9,0,0.8-1.3,1.1c-0.7,0.2-1.3,0.4-2,0.5c-1.3,0.3-2.1,1.1-2.4,2.5c-0.3,2.1-0.7,4.2-1,6.3
			c-0.2,1,0.1,2,0.8,2.8c1.1,1.3,2.3,2.6,3.5,3.9c0.7,0.8,1.6,1,2.7,0.7c1.5-0.4,2.9-0.9,4.4-1.4c0.6-0.2,1-0.1,1.5,0.5
			c0.2,0.3,0.5,0.5,0.8,0.7c0.5,0.3,0.6,0.6,0.4,1.1c-0.6,1.5-1.2,2.9-1.7,4.4c-0.3,0.8-0.6,1.6-0.4,2.5c0.2,1.4,1.1,2.2,2.1,3
			c0.4,0.3,1,0.2,1.3-0.2c0.3-0.4,0.2-0.9-0.1-1.2c-0.3-0.3-0.6-0.5-0.9-0.8c-0.6-0.6-0.8-1.3-0.5-2.1c0.6-1.6,1.2-3.2,1.8-4.8
			c0.1-0.2,0.2-0.4,0.2-0.6c0.3-0.9,0.1-1.8-0.6-2.5c-0.6-0.5-1.1-1-1.7-1.5c-0.7-0.6-1.5-0.8-2.4-0.5c-1.3,0.4-2.6,0.8-3.9,1.3
			c-1,0.4-1.6,0.2-2.3-0.7c-0.7-1-1.5-1.9-2.3-2.7C40.7,34,40.6,33.1,41,32c0.6-1.4,0.8-3,0.7-4.5c0-1,0.2-1.5,1-1.7
			c0.8-0.2,1.7-0.4,2.5-0.6c0.3-0.1,0.6-0.2,0.8-0.3c0.8-0.3,1.3-0.9,1.4-1.8c0.1-1.2,0.1-2.3,0.2-3.5c0-0.3,0-0.6,0-0.9
			c3.1,1.4,5.6,3.3,7.7,5.8c3.6,4.3,5.4,9.2,5.2,14.8c-0.4,11.2-9,19.5-18.7,20.8c-0.2-0.6-0.3-1.1-0.5-1.7
			c-0.3-1.2-0.6-2.3-0.9-3.5c-0.2-1-0.8-1.6-1.7-1.9c-1.1-0.4-2.2-0.8-3.3-1.3c-0.7-0.3-0.9-0.7-0.8-1.4c0.1-1,0.3-1.9,0.4-2.9
			c0.2-1.2-0.2-2.1-1.2-2.8c-1.2-0.9-2.4-1.7-3.6-2.6c-0.9-0.6-1.9-0.9-3-0.6c-0.4,0.1-0.8,0.2-1.1,0.2c-0.6,0.1-0.9,0.6-0.8,1.1
			c0.1,0.5,0.6,0.8,1.2,0.7c0.4-0.1,0.8-0.1,1.2-0.2c0.8-0.2,1.4,0.1,2,0.8c0.6,0.8,1.4,1.4,2.3,1.7c1,0.3,1.3,0.8,1.2,1.5
			c-0.2,0.9-0.3,1.9-0.4,2.8c-0.2,1.6,0.5,2.7,2,3.3c1.1,0.4,2.2,0.8,3.3,1.3c0.2,0.1,0.4,0.3,0.5,0.5c0.5,1.6,0.9,3.3,1.3,4.9
			c0,0.1,0,0.1,0,0.2c-9.4,0.7-18.9-5.6-21.7-14.9c0.8-0.3,1.1-0.6,1-1.2c-0.1-0.6-0.5-0.7-1.7-0.7C17.3,42,17,40.6,17,39.2
			c0-4.9,1.1-9.1,3.5-12.6c-0.5-0.4-0.9-0.8-1.3-1.2c-1.9,2.7-3.1,5.8-3.7,9.2c-0.1,0.8-0.2,1.6-0.3,2.5v3c0.1,0.9,0.2,1.8,0.4,2.6
			c1,5.4,3.5,10,7.7,13.6c3.5,3.1,7.7,5,12.3,5.7c0.6,0.1,1.2,0.1,1.7,0.2h2.9c0.9-0.1,1.7-0.2,2.6-0.4c7.1-1.3,12.5-5.1,16.2-11.3
			C61.3,46.7,62.4,42.5,62.3,38z"/>
		<path d="M23.2,43.4c0,0.5-0.4,0.9-0.9,0.9c-0.5,0-0.9-0.4-0.9-0.9c0-0.5,0.4-0.9,0.9-0.9C22.8,42.5,23.2,42.9,23.2,43.4z"/>
	</g>
	<g>
		<path d="M4.3,1c0.2-0.1,0.4-0.1,0.6,0c0.3,0.2,6.5,6.4,9.3,9.2c3.8,3.8,7.6,7.6,11.3,11.3c0.8,0.8,0.8,1.3,0,2.1
			c-0.8,0.8-1.6,1.6-2.5,2.4c-0.7,0.7-1.2,0.7-1.8,0C14.5,19.4,7.8,12.6,1.1,5.9c-0.5-0.5-0.5-1.3,0-1.8C1.9,3.3,4.1,1.1,4.3,1z
			 M3.2,5c4.8,4.8,9.7,9.7,14.5,14.5c0.5-0.5,1-1,1.4-1.4C14.3,13.3,9.4,8.4,4.6,3.6C4.1,4,3.6,4.6,3.2,5z M23.6,22.6c-1-1-2-2-3-3
			c-0.5,0.5-1,1-1.5,1.4c1,1,2,2,2.9,2.9C22.6,23.5,23.1,23,23.6,22.6z"/>
		<path d="M30.6,11.1c0.6,0,0.9,0.4,1.1,1c0.3,0.6,0.5,1.3,1,1.8c0.5,0.7,1.2,1,2,1.2c0.6,0.1,0.9,0.4,0.9,1c0,0.6-0.4,0.9-0.9,1
			c-1.6,0.4-2.6,1.4-3,3c-0.2,0.7-0.5,1-1.1,1c-0.6,0-0.9-0.4-1-1c-0.4-1.6-1.4-2.6-3-3c-0.7-0.2-1-0.5-1-1c0-0.6,0.4-0.9,1-1
			c1.6-0.4,2.6-1.4,3-3C29.8,11.5,30,11.1,30.6,11.1z M29.5,16c0.4,0.4,0.8,0.9,1.1,1.2c0.4-0.4,0.9-0.9,1.2-1.2
			c-0.4-0.4-0.8-0.8-1.2-1.2C30.3,15.2,29.8,15.7,29.5,16z"/>
		<path d="M39.7,13c-0.5-0.1-0.9-0.3-1-0.8c-0.4-1.8-1.5-2.8-3.2-3.2c-0.5-0.1-0.8-0.4-0.8-1c0-0.5,0.3-0.9,0.8-1
			c1.7-0.4,2.8-1.5,3.2-3.2c0.1-0.5,0.4-0.8,1-0.8c0.5,0,0.9,0.3,1,0.8c0.4,1.7,1.5,2.8,3.2,3.2c0.5,0.1,0.8,0.4,0.8,1
			c0,0.5-0.3,0.8-0.8,1c-1.8,0.4-2.8,1.5-3.2,3.2C40.5,12.7,40.2,13,39.7,13z M39.7,9.2c0.4-0.3,0.8-0.8,1.2-1.1
			c-0.4-0.4-0.9-0.9-1.2-1.2c-0.4,0.4-0.8,0.8-1.2,1.1C38.9,8.4,39.3,8.8,39.7,9.2z"/>
		<path d="M23.6,9c0,1,0,2,0,3c-0.7,0-1.3,0-2,0c0-1,0-1.9,0-2.9c-1,0-2,0-3,0c0-0.7,0-1.3,0-2c1,0,1.9,0,2.9,0c0-1,0-2,0-3
			c0.7,0,1.3,0,2,0c0,1,0,1.9,0,3c1,0,2,0,3,0c0,0.7,0,1.3,0,2C25.6,9,24.7,9,23.6,9z"/>
	</g>
</g>
</svg>
