<?xml version="1.0" encoding="utf-8"?>
<!-- Generator: Adobe Illustrator 26.5.0, SVG Export Plug-In . SVG Version: 6.00 Build 0)  -->
<svg version="1.1" id="Layer_1" xmlns="http://www.w3.org/2000/svg" xmlns:xlink="http://www.w3.org/1999/xlink" x="0px" y="0px"
	 viewBox="0 0 112.9 26.2" style="enable-background:new 0 0 112.9 26.2;" xml:space="preserve">
<style type="text/css">
	.st0{fill:#A6CE39;}
</style>
<g id="Group_259_00000008868673580297597450000015808986273089243306_" transform="translate(0 0.004)">
	<g id="Group_254_00000136386433279126314840000007371717320215440260_" transform="translate(98.783 -0.004)">
		<path id="Path_315_00000119819539412429112240000006211233009114843779_" class="st0" d="M0.2,0.1C1.5-0.1,2.9,0,4.3,0.3
			c4.9,1.1,8.7,4.9,9.8,9.7c0.3,0.8-0.2,1.7-1,2c-0.3,0.1-0.6,0.1-0.8,0c-0.6-0.2-1-0.7-1.1-1.3c-0.8-3.4-3.4-6.2-6.8-7.2
			C1.4,2.7-1.8,3.3-4.2,5.1c-2.5,1.9-4,4.9-4,8.1c0,0.8-0.7,1.5-1.5,1.5c-0.1,0-0.2,0-0.2,0c-0.9-0.2-1.5-1.1-1.3-2c0,0,0-0.1,0-0.1
			C-11,6.1-6.2,0.9,0.2,0.1z"/>
		<path id="Path_316_00000114782809554326964010000011580678599129962390_" class="st0" d="M-12.4,0.3c0.8-0.3,1.7,0.1,1.9,0.9
			c0.1,0.2,0.1,0.3,0.1,0.5c0,0.8-0.7,1.5-1.5,1.6c-4.3,0.9-7.5,4.4-7.9,8.7c0,0.8,0,1.6,0,2.4c0,0.8-0.7,1.5-1.5,1.5
			c-0.7,0-1.4-0.5-1.5-1.2c-0.6-4.5,1.2-9,4.7-11.9C-16.4,1.6-14.4,0.7-12.4,0.3z"/>
		<path id="Path_317_00000071536438138034709820000001611195681556888967_" class="st0" d="M0.7,5.7c0.6-0.1,1.1-0.1,1.7,0
			C6,6.1,8.8,9.1,8.9,12.8c0.1,1.4-0.3,2.8-1,4.1c-0.5,0.7-1.4,0.8-2.1,0.3c-0.3-0.2-0.5-0.5-0.6-0.8c-0.2-0.8,0.4-1.5,0.6-2.2
			c0.4-1.8-0.4-3.7-2-4.7c-2-1.2-4.6-0.5-5.8,1.5c-0.1,0.1-0.1,0.2-0.2,0.3c-0.2,0.7-0.7,1.5-1.5,1.4c-0.8,0-1.6-0.6-1.6-1.4
			c0-0.1,0-0.3,0-0.4C-4.5,8.1-2.1,6.1,0.7,5.7z"/>
		<path id="Path_318_00000056409137575309854990000006822020113611584442_" class="st0" d="M-15.2,8.2c0.8-0.3,1.7,0.2,1.9,1
			c0,0.1,0.1,0.2,0.1,0.3c0,0.5-0.2,1-0.5,1.3c-0.9,1.5-0.8,3.4,0.2,4.8c1.3,1.9,4,2.4,5.9,1c0.5-0.4,0.9-0.8,1.2-1.4
			c0.3-0.7,1.1-1,1.8-0.7c0.8,0.3,1.2,1.1,0.9,1.9c-1.6,3.2-5.3,4.7-8.7,3.6c-2.5-0.9-4.4-3-5-5.7c-0.3-1.5-0.1-3.1,0.6-4.5
			C-16.3,9.3-16,8.5-15.2,8.2z"/>
		<path id="Path_319_00000105405421736684185480000011862451368901650622_" class="st0" d="M0.9,11.6c0.8-0.2,1.7,0.2,1.9,1
			c0.3,6-3.7,11.5-9.5,13.1c-1.7,0.6-3.5,0.7-5.2,0.3c-3.1-0.5-6-2.2-8-4.7c-0.5-0.7-0.3-1.7,0.4-2.2c0.2-0.1,0.3-0.2,0.5-0.2
			c0.7-0.1,1.4,0.2,1.7,0.8c3.5,4.1,9.6,4.5,13.7,1c0.2-0.2,0.4-0.4,0.7-0.6c1.8-1.9,2.8-4.4,2.8-6.9C-0.2,12.4,0.2,11.8,0.9,11.6z"
			/>
		<path id="Path_320_00000147195037537654340900000003309480033159101089_" class="st0" d="M11.7,15.5c0.8-0.3,1.7,0,2,0.8
			c0,0,0,0,0,0.1c0.3,0.7-0.2,1.5-0.4,2.1c-1.7,3.8-5.2,6.6-9.3,7.4c-0.7,0.2-1.5-0.1-1.9-0.8c-0.4-0.8-0.1-1.7,0.7-2.1
			C2.9,23,3,23,3.1,22.9c3.5-0.6,6.3-2.9,7.6-6.2C10.8,16.2,11.2,15.8,11.7,15.5z"/>
	</g>
	<g id="Group_256_00000008828691659743144540000003217502566257595281_" transform="translate(0 1.588)">
		<path id="Path_321_00000121965411476808588690000018185999691881908921_" d="M24.3,2.8c0.4-0.1,0.9,0,1.2,0.3
			c0.5,0.5,0.5,1.3,0,1.7C25.4,4.9,25.3,5,25.2,5c-0.6,0.3-1.3,0-1.6-0.6c-0.1-0.1-0.1-0.3-0.1-0.5C23.5,3.5,23.8,3,24.3,2.8z"/>
		<path id="Path_322_00000078044136955076008710000014044515095129939630_" d="M7.9,5.4c0.7-0.1,1.3,0.4,1.4,1
			c0.1,0.7-0.4,1.3-1,1.4c-0.2,0-0.3,0-0.5,0C7.3,7.6,6.9,7.2,6.9,6.6C6.9,6.1,7.3,5.5,7.9,5.4z"/>
		<path id="Path_323_00000088129706997362086340000004322954214614015617_" d="M11.1,5.4c0.7-0.1,1.3,0.3,1.4,1
			c0.1,0.7-0.3,1.3-1,1.4c0,0-0.1,0-0.1,0c-0.7,0-1.2-0.5-1.2-1.2C10.1,6,10.5,5.5,11.1,5.4z"/>
		<path id="Path_324_00000016048765250092713890000011414030434159544243_" d="M35.8,5.4c0.7-0.1,1.3,0.3,1.4,1
			C37.3,7,37,7.6,36.4,7.8c-0.7,0.2-1.3-0.3-1.5-0.9C34.8,6.2,35.2,5.6,35.8,5.4z"/>
		<path id="Path_325_00000127033817944946029180000001778673347899855501_" d="M2.2,6.2c0.1,0,0.2,0,0.2,0.1c0,2.2,0,4.4,0,6.7
			c0,0.4,0.5,0.5,0.7,0.6c0.6,0.2,1.2,0.3,1.8,0.2h9.9c0.3,0,0.5-0.1,0.7-0.2c0.7-0.3,1.2-0.8,1.5-1.5c0.2-0.6,0.3-1.3,0.2-1.9
			c0-1.3,0-2.6,0-3.9c0.7,0,1.5,0,2.2,0c0,1.7,0,3.4,0,5.1c-0.1,0.6,0,1.2,0,1.8c0.6,0.4,1.2,0.7,1.9,0.6c1.3-0.1,2.3-1.1,2.2-2.4V7
			c0.7-0.5,1.5-0.7,2.3-0.7c0,1.8,0,3.7,0,5.5c-0.1,1.3-0.8,2.6-1.9,3.4c-1.7,1.1-3.8,1.1-5.6,0.1c-0.3-0.1-0.6-0.5-0.8-0.2
			c-0.6,0.5-1.4,0.8-2.1,0.9c-3.9,0-7.9,0-11.8,0c-1.4-0.2-2.6-0.7-3.7-1.6C0,11.9,0,9.4,0,7C0.7,6.6,1.4,6.3,2.2,6.2z"/>
		<g id="Group_255_00000016771012221598561850000012110069086074721692_" transform="translate(38.299 4.475)">
			<path id="Path_326_00000136379756452662806350000000595724156342506172_" d="M23.6,2.1c1.6-0.5,3.3-0.5,4.9-0.2
				c2.6,0.5,4.4,3,3.9,5.6s-3,4.4-5.6,3.9c-0.2,0-0.5-0.1-0.7-0.2c-0.7-0.2-1.3-0.4-2-0.8c-0.8,0.6-1.9,1-2.9,1
				c-1.3,0-2.5-0.4-3.6-1c-1.9,1.5-4.6,1.1-6.5,0c-0.7,0.5-1.6,0.9-2.5,1c-1.7,0-3.5,0.2-5.1-0.6c-0.8,1.1-2.1,1.7-3.5,1.7
				c-1.6,0-3.3,0-4.9,0c-2.2-0.2-3.8-2-4-4.2c-0.1-1.9,0-3.9,0-5.8c0.7-0.5,1.5-0.7,2.3-0.7c0,1.9,0,3.7,0,5.5c0,0.5,0,0.9,0.1,1.3
				c0.3,1,1.3,1.7,2.4,1.7c1.4,0,2.8,0,4.2,0c1.2-0.2,2.1-1.2,2.1-2.5V2.1c0-0.1,0-0.3,0.1-0.3c0.7,0,1.3,0,2,0
				c0.2,0,0.2,0.2,0.2,0.3v7c1,0.5,2.1,0.3,3.2,0.3c1.1,0.1,2.1-0.5,2.6-1.5c0.3-0.7,0.4-1.4,0.3-2.1c0-1.3,0-2.6,0-3.9
				c0.7,0,1.4,0,2.2,0c0,2.4,0,4.8,0,7.2l0.1,0.1c0.8,0.4,1.8,0.4,2.7,0C16.5,8.7,17,7.8,17,6.9V1.8c0.8-0.1,1.5-0.1,2.3-0.1
				c0,2.4,0,4.8,0,7.3c0,0,0.1,0,0.1,0.1c1.5,0.8,3.7,0.1,4.1-1.7C23.6,5.6,23.4,3.8,23.6,2.1z M25.8,4.1c0,1.7,0,3.4,0,5.1
				c1.2,0.5,2.5,0.2,3.5-0.6c1-1.1,0.9-2.8-0.2-3.8c0,0,0,0,0,0C28.2,4.1,27,3.9,25.8,4.1L25.8,4.1z"/>
		</g>
		<path id="Path_327_00000170969223935653041020000015793204540896944566_" d="M43.9,17.8c0.6-0.1,1.1,0.2,1.3,0.7
			c0.3,0.6,0,1.3-0.6,1.6c0,0,0,0,0,0c-0.6,0.2-1.3-0.1-1.6-0.7c0,0,0-0.1,0-0.1c-0.2-0.6,0.1-1.3,0.8-1.5
			C43.8,17.8,43.8,17.8,43.9,17.8z"/>
		<path id="Path_328_00000154387809967133189180000008781889351564344756_" d="M47.2,17.8c0.7-0.1,1.3,0.3,1.4,1
			c0.1,0.7-0.3,1.3-1,1.4c-0.6,0.1-1.3-0.3-1.4-0.9C46,18.7,46.4,18,47,17.8C47.1,17.8,47.1,17.8,47.2,17.8z"/>
		<path id="Path_329_00000101809083137736212640000004273721320335740340_" d="M53,17.8c0.7-0.1,1.3,0.3,1.4,1c0,0.1,0,0.1,0,0.2
			c0,0.7-0.5,1.2-1.2,1.3c-0.1,0-0.1,0-0.2,0c-0.5-0.1-0.9-0.5-1-1C51.8,18.6,52.3,17.9,53,17.8C53,17.8,53,17.8,53,17.8z"/>
	</g>
</g>
</svg>
