<?xml version="1.0" encoding="utf-8"?>
<!-- Generator: Adobe Illustrator 26.5.0, SVG Export Plug-In . SVG Version: 6.00 Build 0)  -->
<svg version="1.1" id="Layer_1" xmlns="http://www.w3.org/2000/svg" xmlns:xlink="http://www.w3.org/1999/xlink" x="0px" y="0px"
	 viewBox="0 0 63 63" style="enable-background:new 0 0 63 63;" xml:space="preserve">
<g>
	<path d="M29.5,0.6c0.5,0.2,0.8,0.6,0.9,1.2c0,0.1,0.3,0.3,0.4,0.3c1.5,0.1,3.1,0.4,4.6,0.2c2.7-0.2,5.3-0.6,8-0.9
		c2.6-0.3,5.1-0.3,7.6,0.4C51.7,2,52,2.4,52,3.2c0,4.8,0,9.5,0,14.3c0,1.1-0.7,1.6-1.7,1.3c-2.9-0.8-5.9-0.5-8.9-0.1
		c-2.1,0.3-4.2,0.6-6.3,0.7c-1.6,0.1-3.2-0.1-4.8-0.1c0,3.6,0,7.2,0,11.1c1.2,0,2.3-0.1,3.5,0c2.7,0.1,5.4,0.7,8,1.7
		c0.5,0.2,0.8,0.1,1.3-0.2c0.6-0.5,1.3-0.9,2-1.2c0.8-0.3,1.5-0.1,2.2,0.3c1.6,1,3.3,2.1,4.9,3.1c1.3,0.8,1.8,2.3,1.2,3.9
		c-0.3,0.9-0.1,1.4,0.5,2c4.6,4.9,7.4,10.7,8.2,17.5c0.1,1.1,0.2,2.2,0.2,3.4c0,1.1-0.4,1.5-1.5,1.5c-5.4,0-10.9,0-16.3,0
		c-14.1,0-28.2,0-42.3,0c-0.7,0-1.3-0.2-1.6-0.9c0-0.8,0-1.5,0-2.3c0.2-1.1,0.3-2.3,0.5-3.4c0.6-3.4,1.7-6.6,3.4-9.6
		c0.2-0.4,0.2-0.7-0.1-1.1c-0.4-0.6-0.8-1.3-1-2c-0.4-1.1-0.1-2.1,0.7-3c0.8-0.8,1.5-1.7,2.3-2.5c1.2-1.3,2.6-1.7,4.2-0.8
		c0.9,0.5,1.5,0.3,2.3-0.3c4.3-3.4,9.3-5.3,14.7-6.1c0.1,0,0.2,0,0.3-0.1c0-0.2,0-0.5,0-0.8c0-9.2,0-18.3,0-27.5
		c0-0.7,0.1-1.5,0.9-1.6C29,0.6,29.2,0.6,29.5,0.6z M59,54.1c0-0.2-0.1-0.3-0.1-0.4c-1.4-5-3.9-9.3-7.7-12.9
		c-0.7-0.6-0.9-1.3-0.5-2.1c0.2-0.4,0.3-0.9,0.4-1.3c0.2-0.6,0.1-1-0.5-1.4c-1.1-0.7-2.2-1.4-3.3-2c-1.8-1.1-1.5-1.6-3.4,0.4
		c-0.6,0.7-1.2,0.8-2.1,0.4c-2.9-1.2-5.9-1.8-9-2c-0.9,0-1.7,0-2.6,0c0,1.8,0,3.5,0,5.2c0.5,0,0.9,0,1.3,0c1.9,0,3.2,1.1,3.6,3
		c0.1,0.9-0.6,1.6-1.4,1.4c-0.6-0.1-0.8-0.5-1-1c-0.3-0.9-0.5-1-1.3-1c-1.5,0-3,0-4.5,0c-1.3,0-1.3,0-1.7,1.2
		c-0.3,0.7-0.8,1-1.5,0.8c-0.6-0.2-1-0.7-0.9-1.4c0.3-1.7,1.6-3,3.4-3c0.5,0,1,0,1.5,0c0-1.7,0-3.3,0-5c-1,0.2-2.1,0.4-3,0.6
		c-4.4,1.1-8.4,3.1-11.8,6.1c-0.8,0.7-1.1,0.7-2.1,0.2c-0.5-0.3-0.9-0.5-1.4-0.8c-0.5-0.2-0.9-0.2-1.3,0.3c-0.7,0.8-1.4,1.5-2.1,2.3
		c-0.5,0.6-0.6,0.9-0.2,1.5c0.4,0.6,0.7,1.1,1.1,1.6c0.4,0.6,0.4,1.2,0.1,1.8c-1.8,3-3.1,6.3-3.6,9.8c-0.2,1.2-0.3,2.4-0.4,3.6
		c19,0,38,0,56.9,0c-0.1-1.2-0.3-2.3-0.4-3.5c-0.3,0-0.5,0-0.7,0c-3.3,0-6.6,0-9.9,0c-0.8,0-1.4-0.5-1.4-1.2c0-0.7,0.5-1.2,1.3-1.2
		c2,0,4.1,0,6.1,0C56.3,54.1,57.6,54.1,59,54.1z M30.3,12c0.6,0.1,1.1,0.2,1.6,0.2c2.8,0.3,5.6-0.2,8.3-0.5c2.6-0.4,5.3-0.7,7.9-0.4
		c0.4,0,0.9,0.1,1.4,0.2c0-0.9,0-1.7,0-2.6c-0.5-0.1-1-0.2-1.6-0.2c-2.5-0.3-5,0.1-7.6,0.4c-2.9,0.4-5.7,0.9-8.6,0.5
		c-0.5-0.1-1-0.1-1.5-0.2C30.3,10.3,30.3,11.1,30.3,12z M49.6,13.9c-0.5-0.1-1-0.2-1.5-0.2c-2.6-0.3-5.1,0.1-7.6,0.4
		c-2.9,0.4-5.7,0.9-8.6,0.5c-0.5-0.1-1-0.1-1.5-0.2c0,0.8,0,1.5,0,2.3c0.6,0.1,1.2,0.2,1.8,0.3c2.8,0.3,5.6-0.2,8.3-0.5
		c2.6-0.4,5.2-0.7,7.8-0.4c0.4,0,0.9,0.1,1.3,0.1C49.6,15.4,49.6,14.7,49.6,13.9z M49.6,4c-0.5-0.1-1-0.2-1.4-0.2
		c-2.5-0.3-5,0.1-7.6,0.4c-3.4,0.5-6.8,1-10.3,0.3c0,0.8,0,1.6,0,2.4c0.5,0.1,1.1,0.2,1.6,0.2c2.8,0.3,5.6-0.2,8.3-0.5
		c2.6-0.4,5.3-0.7,7.9-0.4c0.5,0,0.9,0.1,1.4,0.2C49.6,5.5,49.6,4.8,49.6,4z"/>
	<path d="M32.1,56.5c-1.9,0-3.7,0-5.6,0c-2.6-0.1-4.3-2.4-3.5-4.8c0.5-1.5,1.6-2.3,3.1-2.4c1.5-0.1,2.9,0,4.4-0.1
		c2.1,0,4.1,0,6.2-0.1c0.8,0,1.5-0.3,1.8-1.1c0.2-0.5,0.5-0.9,0.8-1.4c0.7-1.2,1.7-1.9,3-1.9c2.8-0.1,5.6-0.1,8.4-0.1
		c0.7,0,1.2,0.6,1.2,1.2c0,0.7-0.5,1.2-1.3,1.2c-2,0-4,0-6,0c-0.2,0-0.3,0-0.5,0c-1.6-0.2-2.8,0.4-3.4,2c-0.8,1.8-2.3,2.6-4.3,2.6
		c-3.1,0-6.3,0-9.4,0c-0.3,0-0.7,0-1,0.1c-0.6,0.1-0.9,0.5-0.9,1.1c0,0.6,0.3,1,0.8,1.2c0.3,0.1,0.6,0.1,1,0.1c3.6,0,7.2,0,10.7,0
		c1,0,1.7,0.9,1.3,1.7c-0.2,0.5-0.7,0.7-1.2,0.7C35.8,56.5,33.9,56.5,32.1,56.5C32.1,56.5,32.1,56.5,32.1,56.5z"/>
	<path d="M17.3,50.2c-2,0-3.6-1.6-3.6-3.6c0-2,1.6-3.7,3.6-3.6c2,0,3.6,1.7,3.6,3.6C20.9,48.6,19.2,50.2,17.3,50.2z M18.5,46.6
		c0-0.7-0.6-1.2-1.3-1.2c-0.6,0-1.2,0.6-1.1,1.2c0,0.7,0.6,1.2,1.3,1.2C18,47.8,18.5,47.2,18.5,46.6z"/>
	<path d="M12,54.4c0.7,0,1.2,0.6,1.2,1.2c0,0.6-0.6,1.2-1.2,1.2c-0.7,0-1.2-0.6-1.2-1.2C10.8,54.9,11.3,54.4,12,54.4z"/>
	<path d="M42.1,55.2c0-0.7,0.5-1.2,1.2-1.2c0.7,0,1.2,0.6,1.2,1.2c0,0.6-0.6,1.2-1.2,1.2C42.6,56.5,42.1,55.9,42.1,55.2z"/>
	<path d="M42.5,38.7c0.7,0,1.2,0.6,1.2,1.2c0,0.7-0.6,1.2-1.3,1.2c-0.7,0-1.2-0.6-1.1-1.2C41.3,39.2,41.8,38.7,42.5,38.7z"/>
</g>
</svg>
