<svg xmlns="http://www.w3.org/2000/svg" width="19.4" height="11.3" viewBox="0 0 19.4 11.3"><defs><style>.cls-1{fill:none;stroke:#7c7c7c;stroke-linecap:round;stroke-linejoin:round;stroke-width:1.4px;}</style></defs><title>ic_ssh_key</title><g id="Layer_2" data-name="Layer 2"><g id="Layer_1-2" data-name="Layer 1"><path class="cls-1" d="M8,6a.17.17,0,1,1-.24,0h0A.17.17,0,0,1,8,6"/><path class="cls-1" d="M8.8,10.6H2.5A1.8,1.8,0,0,1,.7,8.8h0V3.4A1.8,1.8,0,0,1,2.5,1.6H8.8"/><path class="cls-1" d="M4.42,6a.17.17,0,1,1-.24,0h0a.17.17,0,0,1,.24,0"/><rect class="cls-1" x="11.5" y="4.75" width="7.2" height="5.85" rx="1.48" ry="1.48"/><path class="cls-1" d="M12.88,4.75V2.92A2.22,2.22,0,0,1,15.1.7h0a2.22,2.22,0,0,1,2.22,2.22h0V4.77"/></g></g></svg>