<svg xmlns="http://www.w3.org/2000/svg" width="11.59" height="12.91" viewBox="0 0 11.59 12.91"><title>ico_copy</title><g id="656e2203-9a99-48ba-821f-1552f236a1cc" data-name="Layer 2"><g id="bb396888-c649-4f53-9fb0-477708d991e1" data-name="Layer 1"><path d="M7.78,11.35V5.7h0A1.06,1.06,0,0,0,7.47,5L6,3.46H6a1.06,1.06,0,0,0-.75-.31H1.56A1.06,1.06,0,0,0,.5,4.21h0v7.15h0a1.06,1.06,0,0,0,1.06,1.06H6.72a1.06,1.06,0,0,0,1.06-1.06Z" style="fill:none;stroke:#036691;stroke-linecap:round;stroke-linejoin:round"/><path d="M7.78,9.76H10a1.06,1.06,0,0,0,1.06-1.06h0V1.82h0A1.32,1.32,0,0,0,9.76.5H4.87A1.06,1.06,0,0,0,3.81,1.56V3.15" style="fill:none;stroke:#036691;stroke-linecap:round;stroke-linejoin:round"/><path d="M7.78,5.79H5.66a.53.53,0,0,1-.53-.53h0V3.15" style="fill:none;stroke:#036691;stroke-linecap:round;stroke-linejoin:round"/></g></g></svg>