<?xml version="1.0" encoding="utf-8"?>
<!-- Generator: Adobe Illustrator 26.5.0, SVG Export Plug-In . SVG Version: 6.00 Build 0)  -->
<svg version="1.1" id="Layer_1" xmlns="http://www.w3.org/2000/svg" xmlns:xlink="http://www.w3.org/1999/xlink" x="0px" y="0px"
	 viewBox="0 0 7.9 7.9" style="enable-background:new 0 0 7.9 7.9;" xml:space="preserve">
<style type="text/css">
	.st0{clip-path:url(#SVGID_00000029029957480513285260000008800409771401139133_);fill:#F1F1F1;}
	.st1{fill:#D20000;}
	.st2{fill:#46BE00;}
	.st3{fill:#FFFFFF;}
</style>
<g>
	<g>
		<defs>
			<circle id="SVGID_1_" cx="4" cy="4" r="4"/>
		</defs>
		<use xlink:href="#SVGID_1_"  style="overflow:visible;fill:#F1F1F1;"/>
		<clipPath id="SVGID_00000138549153794968133600000017781546930813823651_">
			<use xlink:href="#SVGID_1_"  style="overflow:visible;"/>
		</clipPath>
		<circle style="clip-path:url(#SVGID_00000138549153794968133600000017781546930813823651_);fill:#F1F1F1;" cx="4" cy="4" r="4"/>
	</g>
	<g>
		<g>
			<path class="st1" d="M1,5.2h6c-0.5,1.2-1.6,2-3,2C2.6,7.2,1.4,6.4,1,5.2z"/>
			<path class="st2" d="M7,2.7H1c0.5-1.2,1.6-2,3-2C5.3,0.7,6.5,1.6,7,2.7z"/>
		</g>
		<path class="st3" d="M7.2,4c0,0.4-0.1,0.8-0.2,1.2H1C0.8,4.8,0.7,4.4,0.7,4c0-0.4,0.1-0.8,0.2-1.2h6C7.1,3.1,7.2,3.5,7.2,4z"/>
	</g>
</g>
</svg>
