<svg xmlns="http://www.w3.org/2000/svg" width="13.65" height="15.19" viewBox="0 0 13.65 15.19"><title>ico_rules</title><g id="2969252e-43da-4c9d-a82e-053656fef71b" data-name="Layer 2"><g id="c8607633-40a4-4568-b79b-ec6a125d4a9a" data-name="Layer 1"><path d="M13,4.52H9.9a.77.77,0,0,1-.77-.77h0V.68" style="fill:none;stroke:#565656;stroke-linecap:round;stroke-linejoin:round;stroke-width:1.35000002384186px"/><path d="M2.21,12.21V13h0a1.54,1.54,0,0,0,1.54,1.54h7.69A1.54,1.54,0,0,0,13,13V4.39h0a1.54,1.54,0,0,0-.45-1.09L10.35,1.13h0A1.54,1.54,0,0,0,9.26.68H3.75A1.54,1.54,0,0,0,2.21,2.21V4.52" style="fill:none;stroke:#565656;stroke-linecap:round;stroke-linejoin:round;stroke-width:1.35000002384186px"/><polyline points="2.21 9.9 0.68 8.36 2.21 6.83" style="fill:none;stroke:#565656;stroke-linecap:round;stroke-linejoin:round;stroke-width:1.35000002384186px"/><polyline points="4.52 6.83 6.06 8.36 4.52 9.9" style="fill:none;stroke:#565656;stroke-linecap:round;stroke-linejoin:round;stroke-width:1.35000002384186px"/></g></g></svg>