<svg xmlns="http://www.w3.org/2000/svg" width="21.82" height="22.9" viewBox="0 0 21.82 22.9"><title>ico_addfund_circle_button</title><g id="f22f57ad-1ed4-4b18-b285-894b48e8d5c2" data-name="Layer 2"><g id="688c565a-bcc4-4492-b016-62f6cd3d4847" data-name="Layer 1"><path d="M2.85,11.35V7.25a3.23,3.23,0,0,1,2.09-3l9-3.39a2.15,2.15,0,0,1,2.91,2v3.6" style="fill:none;stroke:#fff;stroke-linecap:round;stroke-linejoin:round;stroke-width:1.39999997615814px"/><path d="M17.09,13.71a.27.27,0,1,0,.27.27.27.27,0,0,0-.27-.27" style="fill:none;stroke:#fff;stroke-linecap:round;stroke-linejoin:round;stroke-width:1.39999997615814px"/><path d="M10,21.12H17.9a3.23,3.23,0,0,0,3.22-3.22V9.68A3.22,3.22,0,0,0,17.9,6.45H5A2.15,2.15,0,0,0,2.85,8.6v3.12" style="fill:none;stroke:#fff;stroke-linecap:round;stroke-linejoin:round;stroke-width:1.39999997615814px"/><path d="M6.61,22.2a5.91,5.91,0,1,1,5.91-5.91A5.91,5.91,0,0,1,6.61,22.2" style="fill:none;stroke:#fff;stroke-linecap:round;stroke-linejoin:round;stroke-width:1.39999997615814px"/><path d="M6.61,13.93v4.72" style="fill:none;stroke:#fff;stroke-linecap:round;stroke-linejoin:round;stroke-width:1.39999997615814px"/><path d="M9,16.29H4.25" style="fill:none;stroke:#fff;stroke-linecap:round;stroke-linejoin:round;stroke-width:1.39999997615814px"/></g></g></svg>