<svg xmlns="http://www.w3.org/2000/svg" xmlns:xlink="http://www.w3.org/1999/xlink" width="17.95" height="17.95" viewBox="0 0 17.95 17.95"><defs><linearGradient id="4b99ea8d-91e5-4a79-a1f9-96ada829105f" x1="6.58" y1="8.97" x2="11.37" y2="8.97" gradientUnits="userSpaceOnUse"><stop offset="0" stop-color="#7695f6"/><stop offset="0.34" stop-color="#7698f4"/><stop offset="0.62" stop-color="#76a3ed"/><stop offset="0.89" stop-color="#75b5e2"/><stop offset="1" stop-color="#75bedc"/></linearGradient><linearGradient id="1851af0e-7f03-4f91-a924-af4095d5452d" x1="2.97" y1="8.97" x2="14.97" y2="8.97" xlink:href="#4b99ea8d-91e5-4a79-a1f9-96ada829105f"/><linearGradient id="e27cb51d-409e-40e5-923c-ecce76e954fb" x1="0" y1="8.97" x2="17.95" y2="8.97" xlink:href="#4b99ea8d-91e5-4a79-a1f9-96ada829105f"/></defs><title>ico_enabled_setting</title><g id="549d6916-54d9-4fa6-a48c-db5b25f5216e" data-name="Layer 2"><g id="46b6985b-b6ec-4f3b-81e9-d63f888840a7" data-name="Layer 1"><path d="M1.66,1.66H16.28V16.28H1.66Z" style="fill:none"/><path d="M10.14,7.81a1.64,1.64,0,1,1-2.33,0,1.65,1.65,0,0,1,2.33,0" style="fill:none;stroke-miterlimit:10;stroke-width:1.5px;stroke:url(#4b99ea8d-91e5-4a79-a1f9-96ada829105f)"/><path d="M4.86,9a4.35,4.35,0,0,0,0,.54l-1,.76a.55.55,0,0,0-.14.7l.86,1.49a.55.55,0,0,0,.68.23l.87-.35a.56.56,0,0,1,.52.06,4.32,4.32,0,0,0,.42.24.56.56,0,0,1,.31.42l.13.92a.55.55,0,0,0,.54.47H9.83a.55.55,0,0,0,.54-.47l.13-.92a.56.56,0,0,1,.31-.42,4,4,0,0,0,.41-.24.56.56,0,0,1,.52-.06l.86.35a.55.55,0,0,0,.68-.23L14.15,11a.55.55,0,0,0-.14-.7l-1-.76a3.78,3.78,0,0,0,0-1.07l1-.76a.55.55,0,0,0,.14-.7l-.86-1.49a.55.55,0,0,0-.68-.23l-.86.35a.56.56,0,0,1-.52-.06,4,4,0,0,0-.41-.24.56.56,0,0,1-.31-.42L10.37,4a.55.55,0,0,0-.54-.47H8.12A.55.55,0,0,0,7.57,4l-.13.92a.56.56,0,0,1-.31.42,4.32,4.32,0,0,0-.42.24.56.56,0,0,1-.52.06l-.87-.35a.55.55,0,0,0-.68.23L3.8,7a.55.55,0,0,0,.14.7l1,.76A4.35,4.35,0,0,0,4.86,9Z" style="fill:none;stroke-miterlimit:10;stroke-width:1.5px;stroke:url(#1851af0e-7f03-4f91-a924-af4095d5452d)"/><circle cx="8.97" cy="8.97" r="8.22" style="fill:none;stroke-miterlimit:10;stroke-width:1.5px;stroke:url(#e27cb51d-409e-40e5-923c-ecce76e954fb)"/></g></g></svg>