<svg xmlns="http://www.w3.org/2000/svg" xmlns:xlink="http://www.w3.org/1999/xlink" width="18.1" height="15.59" viewBox="0 0 18.1 15.59"><defs><linearGradient id="4d981095-6008-4242-810a-74647091056f" x1="0.83" y1="2.85" x2="17.26" y2="2.85" gradientUnits="userSpaceOnUse"><stop offset="0" stop-color="#7695f6"/><stop offset="0.34" stop-color="#7698f4"/><stop offset="0.62" stop-color="#76a3ed"/><stop offset="0.89" stop-color="#75b5e2"/><stop offset="1" stop-color="#75bedc"/></linearGradient><linearGradient id="24b95e7f-a137-437e-bd4c-92a3e62a95fe" x1="11.55" y1="12.11" x2="17.26" y2="12.11" xlink:href="#4d981095-6008-4242-810a-74647091056f"/><linearGradient id="0c90e662-1200-410f-9a59-540d8ce3f7e3" x1="11.69" y1="7.38" x2="18.1" y2="7.38" xlink:href="#4d981095-6008-4242-810a-74647091056f"/><linearGradient id="a72bdca3-6806-44bd-a08c-c2762c1328af" x1="0.7" y1="10.72" x2="9.05" y2="10.72" xlink:href="#4d981095-6008-4242-810a-74647091056f"/><linearGradient id="81d906ea-c457-4772-b1f6-fa6208731b85" x1="0" y1="11.55" x2="9.75" y2="11.55" xlink:href="#4d981095-6008-4242-810a-74647091056f"/></defs><title>ico_title_wallet_wsp</title><g id="6c65d076-3ffa-4202-98d9-fcf3f33d7767" data-name="Layer 2"><g id="9d79f3f5-d907-402d-ae15-2740b78b2053" data-name="Layer 1"><path d="M16.56,5.29V2.79A2.09,2.09,0,0,0,14.48.7H3.62A2.09,2.09,0,0,0,1.53,2.79V5.71" style="fill:none;stroke-miterlimit:10;stroke-width:1.39999997615814px;stroke:url(#4d981095-6008-4242-810a-74647091056f)"/><path d="M16.56,9.47V12a2.09,2.09,0,0,1-2.09,2.09H11.55" style="fill:none;stroke-miterlimit:10;stroke-width:1.39999997615814px;stroke:url(#24b95e7f-a137-437e-bd4c-92a3e62a95fe)"/><path d="M14.48,5.29h2.09a.83.83,0,0,1,.83.83v2.5a.83.83,0,0,1-.83.83H14.48a2.09,2.09,0,0,1-2.09-2.09h0A2.09,2.09,0,0,1,14.48,5.29Z" style="fill:none;stroke-miterlimit:10;stroke-width:1.39999997615814px;stroke:url(#0c90e662-1200-410f-9a59-540d8ce3f7e3)"/><line x1="9.05" y1="10.72" x2="0.7" y2="10.72" style="fill:none;stroke-miterlimit:10;stroke-width:1.39999997615814px;stroke:url(#a72bdca3-6806-44bd-a08c-c2762c1328af)"/><path d="M7.38,8.21h-5A1.67,1.67,0,0,0,.7,9.88v3.34a1.67,1.67,0,0,0,1.67,1.67h5A1.67,1.67,0,0,0,9,13.22V9.88A1.67,1.67,0,0,0,7.38,8.21Z" style="fill:none;stroke-miterlimit:10;stroke-width:1.39999997615814px;stroke:url(#81d906ea-c457-4772-b1f6-fa6208731b85)"/></g></g></svg>