<svg xmlns="http://www.w3.org/2000/svg" xmlns:xlink="http://www.w3.org/1999/xlink" width="16.42" height="16.42" viewBox="0 0 16.42 16.42"><defs><linearGradient id="0075471d-ef97-42a6-b3f3-e37e2fbb4264" x1="7.57" y1="5.15" x2="15.76" y2="5.15" gradientUnits="userSpaceOnUse"><stop offset="0" stop-color="#7695f6"/><stop offset="0.34" stop-color="#7698f4"/><stop offset="0.62" stop-color="#76a3ed"/><stop offset="0.89" stop-color="#75b5e2"/><stop offset="1" stop-color="#75bedc"/></linearGradient><linearGradient id="3fc1e0a0-b0fc-4f5b-a381-e2ee71584a42" x1="4.21" y1="8.01" x2="12.34" y2="8.01" xlink:href="#0075471d-ef97-42a6-b3f3-e37e2fbb4264"/><linearGradient id="d571a99d-3293-4b4a-a126-49e55744c02e" x1="1.05" y1="4.01" x2="12.68" y2="4.01" xlink:href="#0075471d-ef97-42a6-b3f3-e37e2fbb4264"/><linearGradient id="343f0c4a-208e-4cfe-84fd-616a6bc3a256" x1="1.3" y1="7.99" x2="14.6" y2="7.99" xlink:href="#0075471d-ef97-42a6-b3f3-e37e2fbb4264"/><linearGradient id="a925f638-1a93-4a05-bcd2-1de952f6dcd6" x1="0" y1="8.21" x2="16.42" y2="8.21" xlink:href="#0075471d-ef97-42a6-b3f3-e37e2fbb4264"/></defs><title>ico_table_cdn_wsp</title><g id="72ed3843-20bc-4f7e-935b-70deaaeb99a6" data-name="Layer 2"><g id="089b82c4-901a-429c-9167-821eea2be866" data-name="Layer 1"><path d="M8.23.65A8,8,0,0,0,15.73,9" style="fill:none;stroke-miterlimit:10;stroke-width:1.29999995231628px;stroke:url(#0075471d-ef97-42a6-b3f3-e37e2fbb4264)"/><path d="M5.84,1a9.63,9.63,0,0,0,6.35,13.6" style="fill:none;stroke-miterlimit:10;stroke-width:1.29999995231628px;stroke:url(#3fc1e0a0-b0fc-4f5b-a381-e2ee71584a42)"/><path d="M12.1,1.73A8,8,0,0,1,7,5.72,7.94,7.94,0,0,1,1.36,5" style="fill:none;stroke-miterlimit:10;stroke-width:1.29999995231628px;stroke:url(#d571a99d-3293-4b4a-a126-49e55744c02e)"/><path d="M14,3.3a9.66,9.66,0,0,1-7.3,8.52,9.6,9.6,0,0,1-5.16-.16" style="fill:none;stroke-miterlimit:10;stroke-width:1.29999995231628px;stroke:url(#343f0c4a-208e-4cfe-84fd-616a6bc3a256)"/><path d="M13.56,2.86a7.56,7.56,0,1,1-10.69,0,7.56,7.56,0,0,1,10.69,0" style="fill:none;stroke-miterlimit:10;stroke-width:1.29999995231628px;stroke:url(#a925f638-1a93-4a05-bcd2-1de952f6dcd6)"/></g></g></svg>