<svg xmlns="http://www.w3.org/2000/svg" width="10.91" height="12.4" viewBox="0 0 10.91 12.4"><title>ico_attach</title><g id="b816718e-90d4-41be-bc3a-06b496631d77" data-name="Layer 2"><g id="72f0f210-9b24-4fbe-9cd5-e0a33f3ce8ac" data-name="Layer 1"><path d="M6.48,11.22a3.79,3.79,0,0,1-5.3.18A3.79,3.79,0,0,1,1,6.1L5.88.86a2.73,2.73,0,0,1,4,3.72l-4,4.24A1.71,1.71,0,1,1,3.42,6.5L6.91,2.76l.75.7L4.17,7.2a.64.64,0,0,0,0,1,.65.65,0,0,0,1,0l4-4.24A1.71,1.71,0,0,0,6.63,1.56L1.74,6.8a2.73,2.73,0,0,0,4,3.73l4.42-4.74.75.7Zm0,0" style="fill:#444"/></g></g></svg>