<svg xmlns="http://www.w3.org/2000/svg" xmlns:xlink="http://www.w3.org/1999/xlink" width="22.7" height="15.95" viewBox="0 0 22.7 15.95"><defs><linearGradient id="3474f639-0771-420b-b6a2-1caf1f7cdb39" x1="15.31" y1="7.98" x2="22.7" y2="7.98" gradientUnits="userSpaceOnUse"><stop offset="0" stop-color="#7695f6"/><stop offset="0.34" stop-color="#7698f4"/><stop offset="0.62" stop-color="#76a3ed"/><stop offset="0.89" stop-color="#75b5e2"/><stop offset="1" stop-color="#75bedc"/></linearGradient><linearGradient id="f2e68d6d-31d3-4e7d-91fc-cf3da7623f86" x1="0" y1="7.98" x2="16.54" y2="7.98" xlink:href="#3474f639-0771-420b-b6a2-1caf1f7cdb39"/><linearGradient id="4f8f0651-4f65-4a4e-ac3c-e6735e7b5fe8" x1="5.15" y1="7.7" x2="11.63" y2="7.7" xlink:href="#3474f639-0771-420b-b6a2-1caf1f7cdb39"/><linearGradient id="a21f08e6-4f8d-48b0-8022-9ca4d30dce7a" x1="5.15" y1="9.33" x2="8.49" y2="9.33" xlink:href="#3474f639-0771-420b-b6a2-1caf1f7cdb39"/><linearGradient id="c47529ff-7fae-4715-808c-ba75a84cbe89" x1="4.41" y1="10.96" x2="5.99" y2="10.96" xlink:href="#3474f639-0771-420b-b6a2-1caf1f7cdb39"/></defs><title>ico_menu_live_wsp</title><g id="4aae4181-ea57-490d-97d1-a9b6422bcda1" data-name="Layer 2"><g id="87560506-f147-4e4c-983e-503f1695da09" data-name="Layer 1"><path d="M15.79,9.22l4.16,3.46a1.23,1.23,0,0,0,2-1V4.27a1.23,1.23,0,0,0-2-1L15.79,6.73" style="fill:none;stroke-miterlimit:10;stroke-width:1.5px;stroke:url(#3474f639-0771-420b-b6a2-1caf1f7cdb39)"/><path d="M13.06,15.2H3.48A2.78,2.78,0,0,1,.75,12.38V3.58A2.78,2.78,0,0,1,3.48.75h9.57a2.78,2.78,0,0,1,2.73,2.83v8.8A2.78,2.78,0,0,1,13.06,15.2Z" style="fill:none;stroke-miterlimit:10;stroke-width:1.5px;stroke:url(#f2e68d6d-31d3-4e7d-91fc-cf3da7623f86)"/><path d="M12,11A7,7,0,0,0,5.15,3.87c-.77,0-.77,1.17,0,1.2A5.79,5.79,0,0,1,10.83,11c0,.77,1.23.77,1.2,0Z" style="fill:url(#4f8f0651-4f65-4a4e-ac3c-e6735e7b5fe8)"/><path d="M5.15,8.31A2.59,2.59,0,0,1,7.69,11c0,.77,1.23.77,1.2,0A3.81,3.81,0,0,0,5.15,7.11c-.77,0-.77,1.16,0,1.2Z" style="fill:url(#a21f08e6-4f8d-48b0-8022-9ca4d30dce7a)"/><path d="M5.41,10.75a.31.31,0,0,1,0,.42.28.28,0,0,1-.41,0,.31.31,0,0,1,0-.42H5a.28.28,0,0,1,.41,0" style="fill:none;stroke-miterlimit:10;stroke:url(#c47529ff-7fae-4715-808c-ba75a84cbe89)"/></g></g></svg>