<svg xmlns="http://www.w3.org/2000/svg" xmlns:xlink="http://www.w3.org/1999/xlink" width="20.62" height="17.74" viewBox="0 0 20.62 17.74"><defs><linearGradient id="efec81de-1006-4e9f-b554-b40e70fdc874" x1="0.96" y1="3.23" x2="19.66" y2="3.23" gradientUnits="userSpaceOnUse"><stop offset="0" stop-color="#7695f6"/><stop offset="0.34" stop-color="#7698f4"/><stop offset="0.62" stop-color="#76a3ed"/><stop offset="0.89" stop-color="#75b5e2"/><stop offset="1" stop-color="#75bedc"/></linearGradient><linearGradient id="22a2e14a-1e27-4bb0-bc51-84559f2677f7" x1="13.19" y1="13.79" x2="19.66" y2="13.79" xlink:href="#efec81de-1006-4e9f-b554-b40e70fdc874"/><linearGradient id="42b79464-64ce-46f5-a510-56f705939007" x1="13.46" y1="8.39" x2="20.62" y2="8.39" xlink:href="#efec81de-1006-4e9f-b554-b40e70fdc874"/><linearGradient id="06ba7142-8b0b-47d2-b919-d28cf530f71f" x1="0.7" y1="12.23" x2="10.31" y2="12.23" xlink:href="#efec81de-1006-4e9f-b554-b40e70fdc874"/><linearGradient id="922724f9-ba43-4f26-817c-626daeb886f4" x1="0" y1="13.19" x2="11.01" y2="13.19" xlink:href="#efec81de-1006-4e9f-b554-b40e70fdc874"/></defs><title>ico_menu_wallet_wsp</title><g id="ba745515-8f47-49dc-8839-b7105018ec30" data-name="Layer 2"><g id="3872552b-00d8-4034-9787-b083677ae7b6" data-name="Layer 1"><path d="M19,6V3.1A2.4,2.4,0,0,0,16.56.7H4.06a2.4,2.4,0,0,0-2.4,2.4V6.47" style="fill:none;stroke-miterlimit:10;stroke-width:1.39999997615814px;stroke:url(#efec81de-1006-4e9f-b554-b40e70fdc874)"/><path d="M19,10.79v2.88a2.4,2.4,0,0,1-2.4,2.4H13.19" style="fill:none;stroke-miterlimit:10;stroke-width:1.39999997615814px;stroke:url(#22a2e14a-1e27-4bb0-bc51-84559f2677f7)"/><path d="M16.56,6H19a1,1,0,0,1,1,1V9.83a1,1,0,0,1-1,1h-2.4a2.4,2.4,0,0,1-2.4-2.4h0A2.4,2.4,0,0,1,16.56,6Z" style="fill:none;stroke-miterlimit:10;stroke-width:1.39999997615814px;stroke:url(#42b79464-64ce-46f5-a510-56f705939007)"/><line x1="10.31" y1="12.23" x2="0.7" y2="12.23" style="fill:none;stroke-miterlimit:10;stroke:url(#06ba7142-8b0b-47d2-b919-d28cf530f71f)"/><path d="M8.39,9.35H2.62A1.92,1.92,0,0,0,.7,11.27v3.84A1.92,1.92,0,0,0,2.62,17H8.39a1.92,1.92,0,0,0,1.92-1.92V11.27A1.92,1.92,0,0,0,8.39,9.35Z" style="fill:none;stroke-miterlimit:10;stroke-width:1.39999997615814px;stroke:url(#922724f9-ba43-4f26-817c-626daeb886f4)"/></g></g></svg>