<?xml version="1.0" encoding="utf-8"?>
<!-- Generator: Adobe Illustrator 26.5.0, SVG Export Plug-In . SVG Version: 6.00 Build 0)  -->
<svg version="1.1" id="Layer_1" xmlns="http://www.w3.org/2000/svg" xmlns:xlink="http://www.w3.org/1999/xlink" x="0px" y="0px"
	 viewBox="0 0 17.1 17.1" style="enable-background:new 0 0 17.1 17.1;" xml:space="preserve">
<style type="text/css">
	.st0{opacity:0.44;}
	.st1{opacity:0;fill:url(#SVGID_1_);}
	.st2{opacity:6.250000e-02;fill:url(#SVGID_00000040565337252337059110000002095799202365231489_);}
	.st3{opacity:0.125;fill:url(#SVGID_00000111178867629626424100000012541179105862001079_);}
	.st4{opacity:0.1875;fill:url(#SVGID_00000099637700819783387540000000350807848252105904_);}
	.st5{opacity:0.25;fill:url(#SVGID_00000101063434196977491540000016875828989072863372_);}
	.st6{opacity:0.3125;fill:url(#SVGID_00000165938640149755448490000016684154991224988835_);}
	.st7{opacity:0.375;fill:url(#SVGID_00000170984558070243855910000006531119203188250511_);}
	.st8{opacity:0.4375;fill:url(#SVGID_00000146457336996642781080000015219137754162424739_);}
	.st9{opacity:0.5;fill:url(#SVGID_00000066512810663249283070000015983304539022563507_);}
	.st10{opacity:0.5625;fill:url(#SVGID_00000068674173413251712530000012197987769175850910_);}
	.st11{opacity:0.625;fill:url(#SVGID_00000000217214577423172650000013260726362409757327_);}
	.st12{opacity:0.6875;fill:url(#SVGID_00000039839652441037129670000017128091941289150609_);}
	.st13{opacity:0.75;fill:url(#SVGID_00000045585856754602440030000009053480734954719381_);}
	.st14{opacity:0.8125;fill:url(#SVGID_00000139290004859097489370000015190980540133252769_);}
	.st15{opacity:0.875;fill:url(#SVGID_00000061470511962150272760000018136139225886884992_);}
	.st16{opacity:0.9375;fill:url(#SVGID_00000163055177916487851360000017369268508681637769_);}
	.st17{fill:url(#SVGID_00000164508584217783927760000001888068604835510404_);}
	.st18{fill:url(#SVGID_00000151528537687194420610000005602136252167781549_);}
	.st19{fill:none;stroke:#FFFFFF;stroke-linecap:round;stroke-miterlimit:10;}
</style>
<g>
	<g class="st0">
		<g>
			
				<linearGradient id="SVGID_1_" gradientUnits="userSpaceOnUse" x1="336.4125" y1="8.5412" x2="353.495" y2="8.5412" gradientTransform="matrix(-1 0 0 1 353.495 0)">
				<stop  offset="0" style="stop-color:#75D1DB"/>
				<stop  offset="1" style="stop-color:#76B4F5"/>
			</linearGradient>
			<path class="st1" d="M0,8.5C0,3.8,3.8,0,8.5,0c4.7,0,8.5,3.8,8.5,8.5c0,4.7-3.8,8.5-8.5,8.5C3.8,17.1,0,13.3,0,8.5z"/>
			
				<linearGradient id="SVGID_00000160881058355787285590000015399596020805551545_" gradientUnits="userSpaceOnUse" x1="336.7411" y1="8.1378" x2="353.1715" y2="8.9449" gradientTransform="matrix(-1 0 0 1 353.495 0)">
				<stop  offset="0" style="stop-color:#6FC9D8"/>
				<stop  offset="1" style="stop-color:#76B4F5"/>
			</linearGradient>
			<path style="opacity:6.250000e-02;fill:url(#SVGID_00000160881058355787285590000015399596020805551545_);" d="M0.3,8.5
				C0.3,4,4,0.3,8.5,0.3c4.6,0,8.3,3.7,8.3,8.3c0,4.6-3.7,8.3-8.3,8.3C4,16.8,0.3,13.1,0.3,8.5z"/>
			
				<linearGradient id="SVGID_00000165206884552538495170000016197508429307985842_" gradientUnits="userSpaceOnUse" x1="337.0848" y1="7.7662" x2="352.8325" y2="9.3172" gradientTransform="matrix(-1 0 0 1 353.495 0)">
				<stop  offset="0" style="stop-color:#69C1D5"/>
				<stop  offset="1" style="stop-color:#76B4F5"/>
			</linearGradient>
			<path style="opacity:0.125;fill:url(#SVGID_00000165206884552538495170000016197508429307985842_);" d="M0.5,8.5c0-4.4,3.6-8,8-8
				c4.4,0,8,3.6,8,8c0,4.4-3.6,8-8,8C4.1,16.5,0.5,13,0.5,8.5z"/>
			
				<linearGradient id="SVGID_00000029746606186646349810000007905643949602847370_" gradientUnits="userSpaceOnUse" x1="337.4416" y1="7.4269" x2="352.4801" y2="9.6576" gradientTransform="matrix(-1 0 0 1 353.495 0)">
				<stop  offset="0" style="stop-color:#64B8D3"/>
				<stop  offset="1" style="stop-color:#76B4F5"/>
			</linearGradient>
			<path style="opacity:0.1875;fill:url(#SVGID_00000029746606186646349810000007905643949602847370_);" d="M0.8,8.5
				c0-4.3,3.5-7.7,7.7-7.7c4.3,0,7.7,3.5,7.7,7.7c0,4.3-3.5,7.7-7.7,7.7C4.3,16.3,0.8,12.8,0.8,8.5z"/>
			
				<linearGradient id="SVGID_00000141416552252985589320000003634507192583609761_" gradientUnits="userSpaceOnUse" x1="337.8091" y1="7.12" x2="352.1165" y2="9.966" gradientTransform="matrix(-1 0 0 1 353.495 0)">
				<stop  offset="0" style="stop-color:#5EB0D0"/>
				<stop  offset="1" style="stop-color:#76B4F5"/>
			</linearGradient>
			<path style="opacity:0.25;fill:url(#SVGID_00000141416552252985589320000003634507192583609761_);" d="M1.1,8.5
				c0-4.1,3.3-7.4,7.4-7.4c4.1,0,7.4,3.3,7.4,7.4c0,4.1-3.3,7.4-7.4,7.4C4.4,16,1.1,12.7,1.1,8.5z"/>
			
				<linearGradient id="SVGID_00000088094949104909081650000010240570939335762615_" gradientUnits="userSpaceOnUse" x1="338.1852" y1="6.8458" x2="351.7439" y2="10.2421" gradientTransform="matrix(-1 0 0 1 353.495 0)">
				<stop  offset="0" style="stop-color:#58A8CD"/>
				<stop  offset="1" style="stop-color:#76B4F5"/>
			</linearGradient>
			<path style="opacity:0.3125;fill:url(#SVGID_00000088094949104909081650000010240570939335762615_);" d="M1.4,8.5
				c0-4,3.2-7.2,7.2-7.2c4,0,7.2,3.2,7.2,7.2c0,4-3.2,7.2-7.2,7.2C4.6,15.7,1.4,12.5,1.4,8.5z"/>
			
				<linearGradient id="SVGID_00000167360410150676055290000000429722650121765000_" gradientUnits="userSpaceOnUse" x1="338.5676" y1="6.604" x2="351.3645" y2="10.4859" gradientTransform="matrix(-1 0 0 1 353.495 0)">
				<stop  offset="0" style="stop-color:#52A0CA"/>
				<stop  offset="1" style="stop-color:#76B4F5"/>
			</linearGradient>
			<path style="opacity:0.375;fill:url(#SVGID_00000167360410150676055290000000429722650121765000_);" d="M1.6,8.5
				c0-3.8,3.1-6.9,6.9-6.9c3.8,0,6.9,3.1,6.9,6.9c0,3.8-3.1,6.9-6.9,6.9C4.7,15.4,1.6,12.3,1.6,8.5z"/>
			
				<linearGradient id="SVGID_00000160875259387559062420000013155307838983421842_" gradientUnits="userSpaceOnUse" x1="338.9541" y1="6.3945" x2="350.9806" y2="10.6976" gradientTransform="matrix(-1 0 0 1 353.495 0)">
				<stop  offset="0" style="stop-color:#4C98C7"/>
				<stop  offset="1" style="stop-color:#76B4F5"/>
			</linearGradient>
			<path style="opacity:0.4375;fill:url(#SVGID_00000160875259387559062420000013155307838983421842_);" d="M1.9,8.5
				c0-3.7,3-6.6,6.6-6.6c3.7,0,6.6,3,6.6,6.6c0,3.7-3,6.6-6.6,6.6C4.9,15.2,1.9,12.2,1.9,8.5z"/>
			
				<linearGradient id="SVGID_00000062892857344354855670000006991432826810034875_" gradientUnits="userSpaceOnUse" x1="339.3424" y1="6.2169" x2="350.5942" y2="10.8775" gradientTransform="matrix(-1 0 0 1 353.495 0)">
				<stop  offset="0" style="stop-color:#4790C4"/>
				<stop  offset="1" style="stop-color:#76B4F5"/>
			</linearGradient>
			<path style="opacity:0.5;fill:url(#SVGID_00000062892857344354855670000006991432826810034875_);" d="M2.2,8.5
				C2.2,5,5,2.2,8.5,2.2c3.5,0,6.3,2.8,6.3,6.3c0,3.5-2.8,6.3-6.3,6.3C5,14.9,2.2,12,2.2,8.5z"/>
			
				<linearGradient id="SVGID_00000025406962593038990130000006466587485549592208_" gradientUnits="userSpaceOnUse" x1="339.7306" y1="6.0708" x2="350.2076" y2="11.0261" gradientTransform="matrix(-1 0 0 1 353.495 0)">
				<stop  offset="0" style="stop-color:#4187C2"/>
				<stop  offset="1" style="stop-color:#76B4F5"/>
			</linearGradient>
			<path style="opacity:0.5625;fill:url(#SVGID_00000025406962593038990130000006466587485549592208_);" d="M2.5,8.5
				c0-3.4,2.7-6.1,6.1-6.1c3.4,0,6.1,2.7,6.1,6.1c0,3.4-2.7,6.1-6.1,6.1C5.2,14.6,2.5,11.9,2.5,8.5z"/>
			
				<linearGradient id="SVGID_00000152255552685583258280000008327532261766269082_" gradientUnits="userSpaceOnUse" x1="340.1164" y1="5.9555" x2="349.823" y2="11.1438" gradientTransform="matrix(-1 0 0 1 353.495 0)">
				<stop  offset="0" style="stop-color:#3B7FBF"/>
				<stop  offset="1" style="stop-color:#76B4F5"/>
			</linearGradient>
			<path style="opacity:0.625;fill:url(#SVGID_00000152255552685583258280000008327532261766269082_);" d="M2.7,8.5
				c0-3.2,2.6-5.8,5.8-5.8c3.2,0,5.8,2.6,5.8,5.8c0,3.2-2.6,5.8-5.8,5.8C5.3,14.3,2.7,11.7,2.7,8.5z"/>
			
				<linearGradient id="SVGID_00000163767519843040329180000010969886659859160489_" gradientUnits="userSpaceOnUse" x1="340.4977" y1="5.8703" x2="349.4422" y2="11.2314" gradientTransform="matrix(-1 0 0 1 353.495 0)">
				<stop  offset="0" style="stop-color:#3577BC"/>
				<stop  offset="1" style="stop-color:#76B4F5"/>
			</linearGradient>
			<path style="opacity:0.6875;fill:url(#SVGID_00000163767519843040329180000010969886659859160489_);" d="M3,8.5
				C3,5.5,5.5,3,8.5,3c3,0,5.5,2.5,5.5,5.5c0,3-2.5,5.5-5.5,5.5C5.5,14.1,3,11.6,3,8.5z"/>
			
				<linearGradient id="SVGID_00000150789667199541524950000009225982476987752105_" gradientUnits="userSpaceOnUse" x1="340.8728" y1="5.8143" x2="349.0674" y2="11.2898" gradientTransform="matrix(-1 0 0 1 353.495 0)">
				<stop  offset="0" style="stop-color:#2F6FB9"/>
				<stop  offset="1" style="stop-color:#76B4F5"/>
			</linearGradient>
			<path style="opacity:0.75;fill:url(#SVGID_00000150789667199541524950000009225982476987752105_);" d="M3.3,8.5
				c0-2.9,2.3-5.2,5.2-5.2c2.9,0,5.2,2.3,5.2,5.2c0,2.9-2.3,5.2-5.2,5.2C5.6,13.8,3.3,11.4,3.3,8.5z"/>
			
				<linearGradient id="SVGID_00000052086636693656140930000008035886442166907786_" gradientUnits="userSpaceOnUse" x1="341.2396" y1="5.7865" x2="348.7003" y2="11.3197" gradientTransform="matrix(-1 0 0 1 353.495 0)">
				<stop  offset="0" style="stop-color:#2967B6"/>
				<stop  offset="1" style="stop-color:#76B4F5"/>
			</linearGradient>
			<path style="opacity:0.8125;fill:url(#SVGID_00000052086636693656140930000008035886442166907786_);" d="M3.6,8.5
				c0-2.7,2.2-5,5-5c2.7,0,5,2.2,5,5c0,2.7-2.2,5-5,5C5.8,13.5,3.6,11.3,3.6,8.5z"/>
			
				<linearGradient id="SVGID_00000065783047333667028870000012413017278087316625_" gradientUnits="userSpaceOnUse" x1="341.5965" y1="5.7859" x2="348.3427" y2="11.3224" gradientTransform="matrix(-1 0 0 1 353.495 0)">
				<stop  offset="0" style="stop-color:#245EB4"/>
				<stop  offset="1" style="stop-color:#76B4F5"/>
			</linearGradient>
			<path style="opacity:0.875;fill:url(#SVGID_00000065783047333667028870000012413017278087316625_);" d="M3.8,8.5
				c0-2.6,2.1-4.7,4.7-4.7c2.6,0,4.7,2.1,4.7,4.7c0,2.6-2.1,4.7-4.7,4.7C5.9,13.2,3.8,11.1,3.8,8.5z"/>
			
				<linearGradient id="SVGID_00000003096296110277684420000008573748798518776250_" gradientUnits="userSpaceOnUse" x1="341.9417" y1="5.8112" x2="347.9965" y2="11.2989" gradientTransform="matrix(-1 0 0 1 353.495 0)">
				<stop  offset="0" style="stop-color:#1E56B1"/>
				<stop  offset="1" style="stop-color:#76B4F5"/>
			</linearGradient>
			<path style="opacity:0.9375;fill:url(#SVGID_00000003096296110277684420000008573748798518776250_);" d="M4.1,8.5
				c0-2.4,2-4.4,4.4-4.4c2.4,0,4.4,2,4.4,4.4C13,11,11,13,8.5,13C6.1,13,4.1,11,4.1,8.5z"/>
			
				<linearGradient id="SVGID_00000165940153565755582850000011355718318629080763_" gradientUnits="userSpaceOnUse" x1="342.2738" y1="5.8611" x2="347.663" y2="11.2504" gradientTransform="matrix(-1 0 0 1 353.495 0)">
				<stop  offset="0" style="stop-color:#184EAE"/>
				<stop  offset="1" style="stop-color:#76B4F5"/>
			</linearGradient>
			<path style="fill:url(#SVGID_00000165940153565755582850000011355718318629080763_);" d="M4.4,8.5c0-2.3,1.9-4.1,4.1-4.1
				c2.3,0,4.1,1.9,4.1,4.1c0,2.3-1.9,4.1-4.1,4.1C6.3,12.7,4.4,10.8,4.4,8.5z"/>
		</g>
	</g>
	
		<linearGradient id="SVGID_00000116930509878540966110000006205778196338465425_" gradientUnits="userSpaceOnUse" x1="-10.8835" y1="0.5064" x2="17.4929" y2="12.244">
		<stop  offset="0" style="stop-color:#184EAE"/>
		<stop  offset="0.4494" style="stop-color:#5C5BD3"/>
		<stop  offset="0.8182" style="stop-color:#8D64EE"/>
		<stop  offset="1" style="stop-color:#A068F8"/>
	</linearGradient>
	<circle style="fill:url(#SVGID_00000116930509878540966110000006205778196338465425_);" cx="8.5" cy="8.5" r="5.6"/>
	<path class="st19" d="M6.7,8.7l1.2,1.2c0.1,0.1,0.3,0.1,0.5,0l2.8-2.6"/>
</g>
</svg>
