<?xml version="1.0" encoding="utf-8"?>
<svg viewBox="218.5088 227.3753 14.5952 23.3601" xmlns="http://www.w3.org/2000/svg">
  <g transform="matrix(1, 0, 0, 1, 161.9635009765625, 226.97526550292966)">
    <linearGradient id="SVGID_1_" gradientUnits="userSpaceOnUse" x1="56.5668" y1="18.4" x2="71.1287" y2="18.4" gradientTransform="matrix(1 0 0 -1 0 28)">
      <stop offset="0" style="stop-color:#4CD9ED"/>
      <stop offset="0.5438" style="stop-color:#47A6EC"/>
      <stop offset="1" style="stop-color:#437FEC"/>
    </linearGradient>
    <path class="st0" d="M70.8,18.8c-4.5-4.5-8.9-8.8-13.2-13.2c-1.5-1.5-1.4-3.3,0.3-5.2c1.2,1.3,2.3,2.6,3.5,3.8 c2.5,2.5,5,5,7.5,7.5C71,13.9,71.6,16.1,70.8,18.8z" style="fill: url('#SVGID_1_');"/>
    <linearGradient id="SVGID_00000017498843805639616060000009204097362316891779_" gradientUnits="userSpaceOnUse" x1="57.1624" y1="12.4557" x2="70.0814" y2="12.4557" gradientTransform="matrix(1 0 0 -1 0 28)">
      <stop offset="0" style="stop-color:#4CD9ED"/>
      <stop offset="0.5438" style="stop-color:#47A6EC"/>
      <stop offset="1" style="stop-color:#437FEC"/>
    </linearGradient>
    <path style="fill:url(#SVGID_00000017498843805639616060000009204097362316891779_);" d="M58.3,8.4c0.3,0.2,0.5,0.4,0.6,0.5 c3.6,3.6,7.1,7.1,10.7,10.7c0.6,0.6,0.6,1.1,0.1,1.6c-0.4,0.4-0.8,0.8-1.2,1.2c-0.5,0.4-0.9,0.4-1.3-0.1c-3-3-6-6-9-9 c-1.2-1.2-1.3-3.1-0.4-4.4C57.9,8.8,58.1,8.6,58.3,8.4z"/>
    <linearGradient id="SVGID_00000106847078313608268260000014630568606228706995_" gradientUnits="userSpaceOnUse" x1="59.5695" y1="6.42" x2="66.1558" y2="6.42" gradientTransform="matrix(1 0 0 -1 0 28)">
      <stop offset="0" style="stop-color:#4CD9ED"/>
      <stop offset="0.5438" style="stop-color:#47A6EC"/>
      <stop offset="1" style="stop-color:#437FEC"/>
    </linearGradient>
    <path style="fill:url(#SVGID_00000106847078313608268260000014630568606228706995_);" d="M62.2,19.4c1.3,1.4,2.6,2.7,3.9,4.1 c-2.4,0.6-4.4,0.2-6.6-1.6C61.2,21.8,61.9,20.9,62.2,19.4z"/>
  </g>
</svg>