<?xml version="1.0" encoding="utf-8"?>
<!-- Generator: Adobe Illustrator 26.5.0, SVG Export Plug-In . SVG Version: 6.00 Build 0)  -->
<svg version="1.1" id="Layer_1" xmlns="http://www.w3.org/2000/svg" xmlns:xlink="http://www.w3.org/1999/xlink" x="0px" y="0px"
	 viewBox="0 0 164.7 117.6" style="enable-background:new 0 0 164.7 117.6;" xml:space="preserve">
<style type="text/css">
	.st0{fill:#A5CD39;}
</style>
<g>
	<path class="st0" d="M110.4,3c22.5,0,44.7,17.1,50.7,41c0.9,3.6-0.9,6.9-4.2,7.9c-3.4,0.9-6.7-0.9-7.7-4.5c-2-7-5.3-13.2-10.3-18.5
		c-6.2-6.5-13.6-10.8-22.4-12.6c-23.7-5-46.6,10.5-51.1,34.3c-0.5,2.5-0.7,5-0.7,7.5c-0.1,3.8-3,6.6-6.6,6.3c-3.7-0.3-6-3.5-5.6-7.4
		c0.3-3.5,0.5-7.1,1.3-10.5c4.7-19.4,16.3-32.7,34.8-40C94.8,3.9,101.3,2.9,110.4,3z"/>
	<path class="st0" d="M58.5,113.3c-16.1-0.3-29.7-6.2-40.6-18c-3.1-3.3-1.7-8.7,2.6-10c2.3-0.7,4.4-0.3,6.1,1.4
		c3.2,3.1,6.5,6.1,10.4,8.4c15.1,9,35.1,7.5,48.7-3.8c9.1-7.5,14.2-17.1,15.6-28.8c0.2-1.5,0.2-3.1,0.3-4.7c0.2-3.5,2.8-5.9,6.3-5.9
		c3.4,0,6,2.7,6,6.2c0,7.9-1.5,15.6-4.9,22.7c-8.2,17.2-21.6,27.7-40.3,31.5C65.4,113.1,62,113.3,58.5,113.3z"/>
	<path class="st0" d="M3.5,59c0-26.7,17.7-48.8,43-54.6c1.4-0.3,2.7-0.8,4.2-0.5c2.8,0.6,4.8,2.8,5.1,5.6c0.2,2.8-1.5,5.4-4.2,6.3
		c-1.8,0.6-3.7,0.9-5.5,1.5C29.3,23,19.3,34.5,16.3,52c-0.9,5.3-0.5,10.7,0.6,15.9c1,4.5-1.9,8-6.3,7.9c-2.6-0.1-4.9-2-5.6-4.6
		C4,66.9,3.4,62.6,3.5,59z"/>
	<path class="st0" d="M138.3,58.4c-0.1,4.1-0.8,8-2.4,11.8c-1.2,2.8-3.8,4.3-6.7,3.9c-2.7-0.3-4.8-2.5-5.2-5.3
		c-0.2-1.3,0.2-2.5,0.7-3.7c3.9-9.7-0.8-20.5-10.6-24.2c-8.4-3.2-18.1,0.2-22.4,8.2c-1.8,3.3-5.6,4.2-8.3,2.8
		c-3-1.6-4.2-5.1-2.6-8.4c1.6-3.4,4-6.1,6.8-8.5c6.2-5.2,13.4-7.7,21.4-7.4c13.8,0.4,25.8,10.6,28.5,24.1
		C138.1,53.8,138.3,56.1,138.3,58.4z"/>
	<path class="st0" d="M61,88.8c-18.2,0-31.2-11.7-32.8-27.4c-0.6-5.3-0.1-10.4,2.3-15.3c1.3-2.8,4.3-4.1,7.2-3.3
		c2.7,0.7,4.6,3.4,4.5,6.4c0,0.8-0.3,1.5-0.6,2.2c-4.7,12,3.9,24.9,16.7,25.1c7.3,0.1,12.8-3.3,16.4-9.5c1.7-2.9,4.8-4.1,7.9-2.7
		c2.9,1.3,4.3,4.5,3.3,7.6c-0.8,2.4-2.2,4.3-3.9,6.2C75.8,85.1,68,88.7,61,88.8z"/>
	<path class="st0" d="M115.1,112.8c-3.6,0-6.2-2.2-6.5-5.4c-0.4-3.1,1.6-6,4.7-6.7c4.2-0.9,8.3-1.8,12.2-3.6
		c11.9-5.7,19.9-14.9,23.6-27.6c1-3.6,3.3-5.4,6.6-5.2c3.9,0.2,6.5,3.8,5.5,7.8c-2.1,8.1-5.9,15.4-11.3,21.8
		c-8.9,10.3-20.1,16.6-33.5,18.8C115.8,112.8,115.3,112.8,115.1,112.8z"/>
</g>
</svg>
