<?xml version="1.0" encoding="utf-8"?>
<!-- Generator: Adobe Illustrator 26.5.0, SVG Export Plug-In . SVG Version: 6.00 Build 0)  -->
<svg version="1.1" id="Layer_1" xmlns="http://www.w3.org/2000/svg" xmlns:xlink="http://www.w3.org/1999/xlink" x="0px" y="0px"
	 viewBox="0 0 65.5 13.9" style="enable-background:new 0 0 65.5 13.9;" xml:space="preserve">
<style type="text/css">
	.st0{fill:#0078D4;}
</style>
<g>
	<path class="st0" d="M3.2,6.6c-1,0-2,0-2.9,0c-0.1,0-0.1,0-0.2,0S0,6.6,0,6.5V6.4c0-2,0-4,0-6V0.3c0-0.1,0-0.2,0.2-0.2h0.1
		c2,0,3.9,0,5.9,0c0.3,0,0.3,0,0.3,0.3c0,2,0,3.9,0,5.9c0,0,0,0,0,0.1c0,0.2,0,0.2-0.2,0.2C5.2,6.6,4.2,6.6,3.2,6.6z"/>
	<path class="st0" d="M3.2,13.9c-1,0-2,0-3,0c-0.1,0-0.1,0-0.2,0s-0.1,0-0.1-0.1v-0.1c0-2,0-4,0-6V7.6c0-0.2,0-0.2,0.2-0.2h0.1
		c2,0,3.9,0,5.9,0c0.3,0,0.3,0,0.3,0.3c0,2,0,3.9,0,5.9c0,0.3,0,0.3-0.3,0.3C5.2,13.9,4.2,13.9,3.2,13.9z"/>
	<path class="st0" d="M7.3,3.3c0-1,0-1.9,0-2.9c0-0.1,0-0.1,0-0.2S7.3,0,7.4,0s0.1,0,0.2,0c1.9,0,3.9,0,5.8,0c0.3,0,0.3,0,0.3,0.3
		c0,2,0,3.9,0,5.9c0,0.3,0,0.3-0.3,0.3c-2,0-3.9,0-5.9,0c-0.3,0-0.3,0-0.3-0.3C7.3,5.3,7.3,4.3,7.3,3.3z"/>
	<path class="st0" d="M13.7,10.6c0,1,0,1.9,0,2.9c0,0.1,0,0.1,0,0.2s0,0.2-0.1,0.2h-0.1c-2,0-3.9,0-5.9,0c-0.3,0-0.3,0-0.3-0.3
		c0-2,0-3.9,0-5.9c0,0,0,0,0-0.1c0-0.2,0-0.2,0.2-0.2c1.3,0,2.7,0,4,0c0.6,0,1.3,0,1.9,0c0.1,0,0.1,0,0.2,0c0.1,0,0.1,0,0.1,0.1
		s0,0.1,0,0.2C13.7,8.7,13.7,9.7,13.7,10.6z"/>
	<path class="st0" d="M23.6,4.8c0,0.1-0.1,0.1-0.1,0.2c-0.3,1.2-0.6,2.3-0.9,3.5c-0.2,0.8-0.4,1.6-0.6,2.4V11
		c-0.1,0.2-0.1,0.2-0.2,0.2c-0.4,0-0.7,0-1.1,0c-0.1,0-0.2,0-0.3,0c-0.2,0-0.2,0-0.2-0.2c-0.2-0.7-0.4-1.4-0.6-2.1
		c-0.2-0.8-0.4-1.5-0.6-2.3c-0.3-1.2-0.6-2.3-1-3.5c0,0,0-0.1,0-0.2c0.1,0,0.1,0,0.2,0c0.4,0,0.7,0,1.1,0c0.2,0,0.2,0,0.2,0.2
		c0.3,1.3,0.7,2.6,1,4c0.2,0.7,0.4,1.4,0.5,2.1c0,0.1,0,0.1,0.1,0.2c0.1,0,0.1-0.1,0.1-0.2c0.1-0.5,0.3-0.9,0.4-1.4
		c0.2-0.8,0.5-1.7,0.7-2.5c0.2-0.7,0.4-1.5,0.6-2.2C23,2.9,23,2.9,23.2,2.9c0.4,0,0.7,0,1.1,0c0.2,0,0.2,0,0.3,0.2
		c0.3,1.1,0.6,2.1,0.8,3.2c0.3,1,0.5,2,0.8,2.9c0,0.1,0,0.1,0.1,0.2c0.1-0.1,0.1-0.1,0.1-0.2c0.2-0.6,0.3-1.3,0.4-1.9
		c0.2-0.9,0.4-1.8,0.7-2.8c0.1-0.5,0.2-1,0.4-1.5c0-0.1,0.1-0.2,0.2-0.2c0.4,0,0.8,0,1.1,0h0.1c0,0.1,0,0.2-0.1,0.2
		c-0.2,0.7-0.4,1.4-0.6,2.1c-0.2,0.8-0.4,1.6-0.7,2.5c-0.3,1-0.5,2-0.8,3.1v0.1c0,0.1-0.1,0.1-0.2,0.1c-0.2,0-0.4,0-0.5,0
		c-0.3,0-0.5,0-0.8,0c-0.2,0-0.2,0-0.2-0.2c-0.2-0.7-0.3-1.3-0.5-2c-0.2-0.9-0.5-1.8-0.7-2.7c-0.1-0.4-0.2-0.8-0.3-1.3
		C23.7,4.9,23.7,4.8,23.6,4.8C23.7,4.8,23.6,4.8,23.6,4.8z"/>
	<path class="st0" d="M58.6,9.7c0-0.1,0-0.1,0.1-0.2C59,8.2,59.3,7,59.6,5.7c0-0.1,0.1-0.2,0.1-0.4c0-0.1,0.1-0.1,0.2-0.1
		c0.3,0,0.7,0,1,0c0,0,0,0,0.1,0c0,0.1,0,0.1,0,0.2c-0.4,1.4-0.8,2.7-1.2,4.1c-0.1,0.5-0.3,0.9-0.4,1.4c-0.1,0.2-0.1,0.2-0.3,0.2
		c-0.4,0-0.7,0-1.1,0c-0.2,0-0.2,0-0.2-0.2c-0.3-1.2-0.7-2.5-1-3.7c0-0.1-0.1-0.2-0.1-0.4c-0.1,0-0.1,0.1-0.1,0.2
		c-0.2,0.7-0.4,1.3-0.6,2c-0.2,0.6-0.4,1.3-0.6,1.9c-0.1,0.2-0.1,0.2-0.2,0.2c-0.3,0-0.7,0-1,0c-0.2,0-0.2,0-0.2-0.2
		C53.7,10,53.5,9,53.2,8.1s-0.5-1.8-0.8-2.6c0-0.1,0-0.1-0.1-0.2c0.1,0,0.1,0,0.2,0c0.3,0,0.7,0,1,0c0.2,0,0.2,0,0.2,0.2
		c0.2,0.9,0.5,1.9,0.7,2.8c0.1,0.5,0.2,0.9,0.3,1.4c0,0.1,0,0.1,0.1,0.2l0,0c0-0.1,0.1-0.1,0.1-0.2c0.3-1.2,0.7-2.4,1-3.5
		C56,6,56,5.8,56.1,5.6c0.1-0.2,0.1-0.2,0.2-0.2c0.3,0,0.6,0,0.9,0c0.2,0,0.2,0,0.2,0.2c0.2,0.7,0.4,1.5,0.6,2.2
		C58.2,8.4,58.3,9.1,58.6,9.7C58.5,9.6,58.5,9.7,58.6,9.7C58.5,9.7,58.6,9.7,58.6,9.7z"/>
	<path class="st0" d="M43.4,10.3c-0.1,0-0.1,0.1-0.1,0.1C43,10.8,42.5,11,42,11.1c-0.4,0.1-0.7,0.1-1.1,0c-0.8-0.2-1.4-0.6-1.7-1.4
		C39,9.1,38.9,8.5,39,7.8c0-0.4,0.1-0.7,0.2-1.1c0.2-0.6,0.6-1.1,1.2-1.4C40.8,5.1,41.3,5,41.8,5c0.3,0,0.5,0.1,0.8,0.1
		c0.3,0.1,0.5,0.2,0.7,0.5c0,0,0,0,0.1,0.1l0,0V5.6c0-0.1,0-0.1,0-0.2c0-0.9,0-1.9,0-2.8c0-0.1,0-0.1,0-0.2s0-0.1,0.1-0.1
		c0.3,0,0.7,0,1,0c0.1,0,0.1,0,0.1,0.1s0,0.1,0,0.2c0,2.7,0,5.4,0,8.1c0,0,0,0,0,0.1c0,0.2,0,0.2-0.2,0.2c-0.3,0-0.6,0-0.9,0
		c-0.2,0-0.2,0-0.2-0.2c0-0.1,0-0.2,0-0.4C43.4,10.5,43.4,10.4,43.4,10.3z M43.4,8.1c0-0.2,0-0.4,0-0.5c-0.1-0.6-0.3-1.1-0.9-1.3
		c-0.2-0.1-0.5-0.1-0.7-0.1c-0.5,0-0.9,0.3-1.1,0.7c-0.3,0.6-0.4,1.2-0.3,1.8c0,0.3,0.1,0.5,0.2,0.8c0.4,0.8,1.5,1,2.1,0.5
		c0.3-0.2,0.5-0.5,0.6-0.9C43.4,8.7,43.4,8.4,43.4,8.1z"/>
	<path class="st0" d="M45.8,8.2c0-0.6,0.1-1.1,0.4-1.6C46.5,6,47,5.5,47.6,5.3C48.4,5,49.2,5,50,5.2c0.9,0.3,1.4,0.9,1.7,1.7
		c0.1,0.5,0.2,1,0.2,1.4c0,0.5-0.1,0.9-0.3,1.3c-0.4,0.8-1,1.2-1.8,1.4c-0.6,0.1-1.2,0.1-1.8,0c-1.1-0.3-1.7-0.9-1.9-2
		C45.8,8.8,45.8,8.5,45.8,8.2z M50.5,8.2C50.5,8.2,50.4,8.2,50.5,8.2c0-0.1,0-0.1,0-0.2c0-0.3-0.1-0.6-0.2-0.9
		c-0.1-0.3-0.3-0.5-0.6-0.7c-0.4-0.2-0.8-0.2-1.2-0.2c-0.7,0.1-1,0.5-1.2,1.1c-0.1,0.4-0.1,0.8-0.1,1.3c0.1,0.8,0.6,1.4,1.4,1.5
		c0.9,0.1,1.5-0.3,1.8-1.2C50.4,8.7,50.4,8.4,50.5,8.2z"/>
	<path class="st0" d="M34.1,6l0.1-0.1c0.4-0.6,1-0.8,1.7-0.8c0.3,0,0.7,0,1,0.1c0.4,0.1,0.7,0.4,0.9,0.8C37.9,6.3,38,6.6,38,6.9
		c0,0.4,0,0.8,0,1.1c0,0.9,0,1.8,0,2.7v0.1c0,0.1,0,0.1-0.1,0.1c-0.4,0-0.7,0-1.1,0c-0.1,0-0.1,0-0.1-0.1s0-0.1,0-0.2
		c0-1.1,0-2.1,0-3.2c0-0.3,0-0.6-0.2-0.8C36.3,6.2,36,6,35.6,6c-0.8,0-1.3,0.5-1.4,1.1c-0.1,0.2-0.1,0.5-0.1,0.7c0,1,0,1.9,0,2.9
		v0.1c0,0.1,0,0.2-0.2,0.2c-0.3,0-0.6,0-0.9,0c-0.1,0-0.2,0-0.2-0.2v-0.1c0-1.8,0-3.5,0-5.3V5.3c0-0.2,0-0.2,0.2-0.2
		c0.3,0,0.6,0,0.9,0c0.2,0,0.2,0,0.2,0.2c0,0.1,0,0.3,0,0.4C34,5.9,34,5.9,34.1,6C34,6,34,6,34.1,6z"/>
	<path class="st0" d="M61.4,9.7c0.3,0.1,0.5,0.3,0.7,0.4c0.4,0.2,0.8,0.2,1.2,0.1c0.1,0,0.2,0,0.3-0.1c0.4-0.2,0.5-0.7,0.2-1
		c-0.1-0.1-0.3-0.2-0.5-0.3c-0.3-0.2-0.6-0.3-0.9-0.4C62.2,8.3,62,8.2,61.9,8c-0.7-0.6-0.7-1.9,0.3-2.5c0.3-0.2,0.6-0.3,0.9-0.3
		c0.5-0.1,1.1-0.1,1.6,0.1c0.1,0,0.1,0,0.2,0.1C65,5.4,65,5.5,65,5.6c0,0.4,0,0.7,0,1.1c-0.1,0-0.1,0-0.1-0.1
		c-0.4-0.2-0.8-0.4-1.3-0.3c-0.1,0-0.3,0-0.4,0.1c-0.4,0.2-0.4,0.5-0.2,0.8c0.1,0.2,0.2,0.3,0.4,0.4c0.2,0.1,0.5,0.2,0.8,0.4
		c0.2,0.1,0.5,0.2,0.7,0.4c0.4,0.2,0.6,0.6,0.6,1.1c0,0.2,0,0.3,0,0.5c-0.1,0.7-0.6,1.1-1.2,1.3c-0.7,0.2-1.5,0.2-2.2,0
		c-0.1,0-0.2-0.1-0.4-0.1c-0.1,0-0.1-0.1-0.1-0.2C61.4,10.5,61.4,10.1,61.4,9.7z"/>
	<path class="st0" d="M29.9,8.1c0-0.9,0-1.8,0-2.6c0-0.1,0-0.1,0-0.2c0-0.1,0-0.1,0.1-0.1c0.2,0,0.3,0,0.5,0s0.4,0,0.5,0
		s0.2,0,0.2,0.2v0.1c0,1.8,0,3.5,0,5.3v0.1c0,0.2,0,0.2-0.2,0.2c-0.3,0-0.6,0-0.9,0c-0.2,0-0.2,0-0.2-0.2C29.9,10,29.9,9,29.9,8.1z"
		/>
	<path class="st0" d="M30.6,4.2c-0.4,0-0.7-0.2-0.8-0.5c-0.1-0.3,0-0.6,0.3-0.8c0.5-0.4,1.2-0.1,1.3,0.5C31.5,3.8,31.1,4.2,30.6,4.2
		C30.7,4.2,30.6,4.2,30.6,4.2z"/>
</g>
</svg>
