<svg xmlns="http://www.w3.org/2000/svg" xmlns:xlink="http://www.w3.org/1999/xlink" width="18.02" height="18.02" viewBox="0 0 18.02 18.02"><defs><linearGradient id="a484366b-2864-4dfa-ad8b-bbd02ca08780" y1="9.01" x2="0" y2="9.01" gradientUnits="userSpaceOnUse"><stop offset="0" stop-color="#7695f6"/><stop offset="0.33" stop-color="#7698f4"/><stop offset="0.62" stop-color="#76a3ed"/><stop offset="0.89" stop-color="#75b5e2"/><stop offset="1" stop-color="#75bedc"/></linearGradient><linearGradient id="ac607c36-deed-481a-825c-0158b5b5b371" y1="9.01" x2="18.02" y2="9.01" xlink:href="#a484366b-2864-4dfa-ad8b-bbd02ca08780"/><linearGradient id="3e7679f9-1daa-42c1-90e3-3868eb6cd448" x1="0.55" y1="12.1" x2="0.55" y2="12.1" xlink:href="#a484366b-2864-4dfa-ad8b-bbd02ca08780"/><linearGradient id="63a61a25-b82e-41be-9071-875820f13fba" x1="2.28" y1="7.03" x2="2.28" y2="7.03" xlink:href="#a484366b-2864-4dfa-ad8b-bbd02ca08780"/><linearGradient id="5979e972-bb3a-4e52-a46d-c0ca0fb071de" x1="17.47" y1="12.1" x2="17.47" y2="12.1" xlink:href="#a484366b-2864-4dfa-ad8b-bbd02ca08780"/><linearGradient id="06c4a6d5-3fe9-4189-8bc3-48d40d517536" x1="9.78" y1="9.47" x2="11.02" y2="9.47" xlink:href="#a484366b-2864-4dfa-ad8b-bbd02ca08780"/><linearGradient id="efd964d6-818e-48b7-8dd0-67e96176f134" x1="7" y1="9.48" x2="8.23" y2="9.48" xlink:href="#a484366b-2864-4dfa-ad8b-bbd02ca08780"/></defs><title>ico_menu_support_wsp</title><g id="d466c941-04c3-4aa1-8013-a67729c36d89" data-name="Layer 2"><g id="eff6eb4f-8d4f-4e0c-8aa9-20ec88d94210" data-name="Layer 1"><polygon points="0 9.01 0 9.01 0 9.01 0 9.01" style="fill:url(#a484366b-2864-4dfa-ad8b-bbd02ca08780)"/><path d="M17.68,11.43l.06-.23c0-.18.09-.35.12-.53s0-.26.06-.4,0-.27.06-.41,0-.56,0-.85h0A9,9,0,0,0,9,0H9A9,9,0,0,0,0,9H0A8.92,8.92,0,0,0,.55,12.1a1.56,1.56,0,0,0,1.46,1l.26,0h0l.92-.16a2,2,0,0,0,1.65-2.27L4.57,8.73A2,2,0,0,0,2.58,7l-.3,0H2.23l-.77.14A7.76,7.76,0,0,1,9,1.23H9a7.76,7.76,0,0,1,7.55,5.94L15.79,7h-.05l-.3,0a2,2,0,0,0-2,1.73l-.28,1.94h0a2,2,0,0,0,0,.29,2,2,0,0,0,1.67,2l.81.14A7.71,7.71,0,0,1,9,16.79.62.62,0,1,0,9,18a9,9,0,0,0,8.45-5.91h0l0,0C17.56,11.85,17.62,11.64,17.68,11.43ZM2.44,8.25h.14a.78.78,0,0,1,.77.67l.28,1.94V11a.78.78,0,0,1-.65.77l-.91.16H2a.33.33,0,0,1-.31-.21h0A7.69,7.69,0,0,1,1.23,9h0c0-.19,0-.37,0-.55ZM16,11.89h-.06L15,11.73a.78.78,0,0,1-.65-.77v-.11h0l.28-1.94a.78.78,0,0,1,.77-.67h.14l1.18.21c0,.18,0,.37,0,.55h0c0,.24,0,.49,0,.72s0,.25,0,.37,0,.22,0,.32-.07.33-.11.49l0,.17c-.05.19-.12.39-.19.58v0A.33.33,0,0,1,16,11.89Z" style="fill:url(#ac607c36-deed-481a-825c-0158b5b5b371)"/><polygon points="0.56 12.1 0.55 12.1 0.55 12.1 0.56 12.1" style="fill:url(#3e7679f9-1daa-42c1-90e3-3868eb6cd448)"/><polygon points="2.28 7.03 2.28 7.03 2.28 7.03 2.28 7.03" style="fill:url(#63a61a25-b82e-41be-9071-875820f13fba)"/><polygon points="17.46 12.1 17.47 12.1 17.47 12.1 17.46 12.1" style="fill:url(#5979e972-bb3a-4e52-a46d-c0ca0fb071de)"/><path d="M10.4,10.1a.62.62,0,0,0,.45-.19h0A.61.61,0,0,0,11,9.24l0,0a.6.6,0,0,0-.09-.14h0A.57.57,0,0,0,10.73,9l-.09-.06a.62.62,0,0,0-.23-.05h0a.62.62,0,0,0-.24,0A.61.61,0,0,0,10,9h0a.62.62,0,0,0,0,.86h0A.62.62,0,0,0,10.4,10.1Z" style="fill:url(#06c4a6d5-3fe9-4189-8bc3-48d40d517536)"/><path d="M8.23,9.43a.6.6,0,0,0,0-.19l0-.07a.56.56,0,0,0-.05-.09h0l0,0L8,9,7.95,9l-.09-.06a.6.6,0,0,0-.18,0H7.61l-.15,0-.09,0-.06,0a.62.62,0,0,0-.14.1h0a.61.61,0,0,0-.08.13l0,.05a.6.6,0,0,0,.14.69h0a.62.62,0,0,0,.85,0H8a.61.61,0,0,0,.19-.47Z" style="fill:url(#efd964d6-818e-48b7-8dd0-67e96176f134)"/></g></g></svg>