<svg xmlns="http://www.w3.org/2000/svg" xmlns:xlink="http://www.w3.org/1999/xlink" width="19.4" height="19.51" viewBox="0 0 19.4 19.51"><defs><linearGradient id="75808007-bad3-4cc3-825d-24b195367489" y1="6.83" x2="19.4" y2="6.83" gradientUnits="userSpaceOnUse"><stop offset="0" stop-color="#7695f6"/><stop offset="0.34" stop-color="#7698f4"/><stop offset="0.62" stop-color="#76a3ed"/><stop offset="0.89" stop-color="#75b5e2"/><stop offset="1" stop-color="#75bedc"/></linearGradient><linearGradient id="c5fd8693-8861-4020-90fd-86522ed17dfa" x1="6.72" y1="17.26" x2="18.65" y2="17.26" xlink:href="#75808007-bad3-4cc3-825d-24b195367489"/><linearGradient id="105ef316-bd6c-48a8-b9c4-990d058865aa" x1="0.75" y1="17.26" x2="3.73" y2="17.26" xlink:href="#75808007-bad3-4cc3-825d-24b195367489"/><linearGradient id="36039d86-4ac3-46e8-8200-a40372f1db7c" x1="2.98" y1="17.26" x2="7.47" y2="17.26" xlink:href="#75808007-bad3-4cc3-825d-24b195367489"/><linearGradient id="2074c728-8502-42e8-be6c-9da722a6d208" x1="7.56" y1="7.11" x2="13" y2="7.11" xlink:href="#75808007-bad3-4cc3-825d-24b195367489"/></defs><title>ico_menu_vod_wsp</title><g id="1da4d295-7d3f-4ca2-9382-ac53e9f15a2a" data-name="Layer 2"><g id="d127b7d4-f64a-444e-abbb-f0432d898cca" data-name="Layer 1"><path d="M16.74.75H2.65a1.9,1.9,0,0,0-1.9,1.9V11a1.9,1.9,0,0,0,1.9,1.9H16.74a1.9,1.9,0,0,0,1.9-1.9V2.65A1.9,1.9,0,0,0,16.74.75Z" style="fill:none;stroke-miterlimit:10;stroke-width:1.5px;stroke:url(#75808007-bad3-4cc3-825d-24b195367489)"/><path d="M18.65,16.51H6.72a.75.75,0,0,0,0,1.5H18.65a.75.75,0,0,0,0-1.5Z" style="fill:url(#c5fd8693-8861-4020-90fd-86522ed17dfa)"/><path d="M.75,18h3a.75.75,0,0,0,0-1.5h-3a.75.75,0,0,0,0,1.5Z" style="fill:url(#105ef316-bd6c-48a8-b9c4-990d058865aa)"/><path d="M6.28,16.21a1.49,1.49,0,1,1-2.11,0,1.49,1.49,0,0,1,2.11,0" style="fill:none;stroke-miterlimit:10;stroke-width:1.5px;stroke:url(#36039d86-4ac3-46e8-8200-a40372f1db7c)"/><path d="M8.16,8.91V5.3a.59.59,0,0,1,.89-.51L12.11,6.6a.59.59,0,0,1,0,1L9.06,9.42a.59.59,0,0,1-.89-.51Z" style="fill:none;stroke-miterlimit:10;stroke-width:1.20000004768372px;stroke:url(#2074c728-8502-42e8-be6c-9da722a6d208)"/></g></g></svg>