<?xml version="1.0" encoding="utf-8"?>
<!-- Generator: Adobe Illustrator 26.5.0, SVG Export Plug-In . SVG Version: 6.00 Build 0)  -->
<svg version="1.1" id="Layer_1" xmlns="http://www.w3.org/2000/svg" xmlns:xlink="http://www.w3.org/1999/xlink" x="0px" y="0px"
	 viewBox="0 0 62.2 21.5" style="enable-background:new 0 0 62.2 21.5;" xml:space="preserve">
<style type="text/css">
	.st0{fill:#FEFEFE;}
	.st1{fill:#262577;}
	.st2{fill:#EFA724;}
	.st3{fill:#932279;}
	.st4{fill:#9CCD2A;}
	.st5{fill:#141414;}
</style>
<g>
	<g>
		
			<rect x="3.1" y="3.1" transform="matrix(0.7071 -0.7071 0.7071 0.7071 -4.4519 10.7479)" class="st0" width="15.2" height="15.2"/>
		<g>
			<path class="st1" d="M18.4,8.2C18.4,8.2,18.4,8.3,18.4,8.2c0.8,0.9,1.6,1.6,2.4,2.4c0.1,0.1,0.1,0.1,0,0.1
				c-0.8,0.8-1.6,1.6-2.3,2.3c0,0,0,0-0.1,0.1V13c0-0.6,0-1.2,0-1.8c0,0,0,0,0-0.1c0,0,0-0.1,0,0c0,0,0,0-0.1,0c-1.9,0-3.7,0-5.6,0
				c-0.1,0-0.1,0-0.2-0.1c-0.1-0.1-0.3-0.3-0.4-0.4c0,0,0,0,0.1-0.1s0.2-0.2,0.4-0.4c0,0,0.1-0.1,0.1,0c0.1,0,0.2,0,0.3,0
				c1.8,0,3.5,0,5.3,0c0.1,0,0.1,0,0.1-0.1C18.4,9.4,18.4,8.8,18.4,8.2C18.4,8.3,18.3,8.2,18.4,8.2z"/>
			<path class="st2" d="M17.9,14.3v0.1c0,1.1,0,2.2,0,3.3c0,0.1,0,0.1-0.1,0.1c-1.1,0-2.2,0-3.3,0h-0.1c0,0,0-0.1,0.1-0.1
				c0.4-0.4,0.8-0.8,1.3-1.3c0.1-0.1,0.1-0.1,0-0.1c-1.3-1.3-2.6-2.6-4-3.9c-0.1-0.1-0.1-0.1-0.1-0.2c0-0.2,0-0.3,0-0.5
				c0-0.1,0-0.1,0.1-0.1c0.2,0,0.4,0,0.5,0h0.1l0,0c1.3,1.3,2.6,2.6,3.9,3.9c0.1,0.1,0.1,0.1,0.2,0C17,15.2,17.4,14.8,17.9,14.3
				C17.8,14.4,17.8,14.3,17.9,14.3z"/>
			<path class="st3" d="M3.1,8.2c0,0.1,0,0.1,0,0.1c0,0.6,0,1.2,0,1.8c0,0.1,0,0.1,0.1,0.1c1.9,0,3.7,0,5.6,0c0.1,0,0.1,0,0.2,0.1
				c0.1,0.1,0.2,0.2,0.3,0.3c0,0,0,0,0.1,0.1c-0.1,0.1-0.2,0.2-0.3,0.3s-0.2,0.2-0.4,0.2c-1.8,0-3.6,0-5.5,0
				c-0.1-0.1-0.1-0.1-0.1,0.1c0,0.6,0,1.2,0,1.8v0.1L3,13.1c-0.8-0.8-1.6-1.6-2.3-2.3l0,0c0,0,0,0,0-0.1l0,0C1.5,9.8,2.3,9,3.1,8.2
				L3.1,8.2z"/>
			<path class="st4" d="M5,5.6C4.6,6.1,4.1,6.6,3.6,7V6.9c0-1.1,0-2.2,0-3.3c0,0,0,0,0-0.1l0,0l0,0c1.1,0,2.2,0,3.4,0c0,0,0,0,0.1,0
				C6.9,3.8,6.6,4,6.4,4.3C6.2,4.5,5.9,4.7,5.7,4.9c0,0,0,0.1,0.1,0.1c1.3,1.3,2.6,2.7,3.9,4c0.1,0.1,0.1,0.1,0.1,0.2
				c0,0.2,0,0.3,0,0.5c0,0.1,0,0.1-0.1,0.1c-0.2,0-0.4,0-0.6,0H9c0,0,0,0-0.1-0.1C7.7,8.3,6.4,7,5,5.6C5.1,5.7,5.1,5.7,5,5.6z"/>
			<path class="st1" d="M3.6,14.3C3.7,14.3,3.7,14.4,3.6,14.3c0.5,0.5,0.9,0.9,1.3,1.3l0,0c0,0,0,0,0.1,0c0,0,0,0,0.1-0.1
				c1.3-1.3,2.6-2.6,3.9-3.9c0.1-0.1,0.1-0.1,0.2-0.1c0.2,0,0.3,0,0.5,0c0,0,0.1,0,0.1,0.1c0,0.2,0,0.4,0,0.6v0.1l-0.1,0.1
				c-1.3,1.3-2.6,2.6-3.9,3.9c0,0,0,0-0.1,0.1c0.5,0.5,0.9,0.9,1.4,1.4l0,0c0,0,0,0-0.1,0c-1.1,0-2.2,0-3.3,0l0,0
				c-0.1,0-0.1,0-0.1-0.1c0-0.5,0-0.9,0-1.4c0-0.6,0-1.3,0-1.9C3.6,14.4,3.6,14.4,3.6,14.3z"/>
			<path class="st4" d="M8.3,18.3c0.3,0,0.5,0,0.8,0c0.4,0,0.7,0,1.1,0c0,0,0,0,0.1,0l0,0v-0.1c0-1.9,0-3.7,0-5.6
				c0-0.1,0-0.1,0.1-0.2c0.1-0.1,0.2-0.2,0.4-0.4h0.1c0.1,0.1,0.3,0.3,0.4,0.4v0.1c0,0,0,0,0,0.1c0,1.8,0,3.7,0,5.5
				c0,0.1,0,0.1,0.1,0.1c0.6,0,1.2,0,1.8,0h0.1c0,0,0,0,0,0.1c-0.8,0.8-1.6,1.6-2.4,2.4l0,0c0,0,0,0-0.1,0l0,0
				C9.9,19.9,9.1,19.1,8.3,18.3L8.3,18.3z"/>
			<path class="st3" d="M17.8,7c-0.5-0.5-0.9-0.9-1.4-1.4c0,0,0,0.1-0.1,0.1c-1.2,1.3-2.5,2.6-3.9,3.9c-0.1,0.1-0.1,0.1-0.2,0.1
				c-0.2,0-0.3,0-0.5,0c-0.1,0-0.1,0-0.1-0.1c0-0.2,0-0.4,0-0.5V9c0,0,0,0,0.1-0.1c1.4-1.2,2.7-2.6,4-3.9c0,0,0.1,0,0.1-0.1
				c-0.5-0.5-0.9-0.9-1.4-1.4c0,0,0,0,0.1,0c1.1,0,2.2,0,3.3,0l0,0l0,0c0,0,0,0,0,0.1C17.9,4.7,17.9,5.8,17.8,7
				C17.9,7,17.9,7,17.8,7C17.9,7,17.9,7,17.8,7z"/>
			<path class="st2" d="M13.2,3.1h-0.1c-0.6,0-1.2,0-1.8,0c0,0,0,0-0.1,0l0,0v0.1c0,1.9,0,3.7,0,5.6c0,0.1,0,0.1-0.1,0.2
				c-0.1,0.1-0.2,0.2-0.4,0.3c-0.1,0.1-0.1,0.1-0.1,0c-0.1-0.1-0.3-0.3-0.4-0.4V8.8c0,0,0,0,0-0.1c0-1.8,0-3.7,0-5.5
				c0-0.1,0-0.1-0.1-0.1c-0.6,0-1.2,0-1.8,0H8.2c0,0,0,0,0-0.1C9,2.2,9.8,1.4,10.6,0.6h0.1C11.6,1.4,12.4,2.2,13.2,3.1
				C13.2,3,13.2,3,13.2,3.1z"/>
			<path class="st2" d="M11.7,13C11.7,13,11.8,13,11.7,13c1.2,1.1,2.3,2.2,3.4,3.3l0,0c0,0,0,0,0,0.1l0,0c-0.4,0.4-0.9,0.9-1.3,1.3
				l-0.1,0.1c-0.6,0-1.2,0-1.8,0c-0.1,0-0.1,0-0.1-0.1C11.7,16.2,11.7,14.6,11.7,13L11.7,13z"/>
			<path class="st4" d="M9.8,8.3C8.6,7.2,7.5,6.1,6.4,4.9c0,0,0,0,0-0.1c0.4-0.4,0.9-0.9,1.3-1.3l0.1-0.1c0.6,0,1.2,0,1.8,0l0,0
				c0,0,0.1,0,0,0c0,0,0,0,0,0.1C9.8,5.2,9.8,6.7,9.8,8.3L9.8,8.3z"/>
			<path class="st3" d="M11.7,8.3L11.7,8.3c0-1.6,0-3.2,0-4.7c0-0.1,0-0.1,0.1-0.1c0.6,0,1.2,0,1.8,0h0.1c0.4,0.4,0.9,0.9,1.3,1.3
				l0,0C14,6.1,12.8,7.2,11.7,8.3z"/>
			<path class="st1" d="M8.4,11.6C7.3,12.7,6.1,13.9,5,15c0,0,0,0-0.1-0.1C4.5,14.5,4,14,3.6,13.6l-0.1-0.1c0-0.6,0-1.2,0-1.8l0,0
				c0,0,0-0.1,0.1-0.1l0,0C5.3,11.6,6.8,11.6,8.4,11.6L8.4,11.6z"/>
			<path class="st2" d="M16.5,15c-1.1-1.1-2.3-2.3-3.4-3.4h0.1c1.5,0,3.1,0,4.6,0c0.1,0,0.1,0,0.1,0.1c0,0.6,0,1.2,0,1.8
				c0,0.1,0,0.1-0.1,0.2C17.4,14.1,17,14.5,16.5,15L16.5,15z"/>
			<path class="st1" d="M9.8,13C9.8,13,9.8,13.1,9.8,13c0,1.6,0,3.2,0,4.7c0,0,0,0,0,0.1c0,0,0,0.1,0,0l0,0c-0.6,0-1.2,0-1.8,0
				c-0.1,0-0.1,0-0.1-0.1c-0.4-0.4-0.9-0.9-1.3-1.3c-0.1-0.1-0.1-0.1,0-0.1c1-1,2.1-2.1,3.1-3.1C9.6,13.2,9.7,13.1,9.8,13L9.8,13z"
				/>
			<path class="st4" d="M8.4,9.7L8.4,9.7c-1.6,0-3.2,0-4.7,0l0,0c0,0-0.1,0-0.1-0.1l0,0c0-0.6,0-1.2,0-1.8c0-0.1,0-0.1,0.1-0.1
				C4.1,7.2,4.5,6.8,5,6.4l0,0c0,0,0,0,0.1,0c0.2,0.2,0.5,0.5,0.7,0.7C6.6,7.9,7.5,8.8,8.4,9.7C8.4,9.6,8.4,9.7,8.4,9.7z"/>
			<path class="st3" d="M13,9.7C13.1,9.7,13.1,9.7,13,9.7c1.2-1.2,2.3-2.2,3.3-3.3c0.1-0.1,0.1-0.1,0.1,0c0.4,0.4,0.9,0.9,1.3,1.3
				l0.1,0.1c0,0.6,0,1.2,0,1.8c0,0,0,0,0,0.1l0,0c0,0,0,0-0.1,0C16.2,9.7,14.6,9.7,13,9.7C13.1,9.7,13.1,9.7,13,9.7z"/>
		</g>
	</g>
	<g>
		<path class="st5" d="M62.2,11.8c0-0.3-0.1-0.5-0.2-0.8c-0.2-0.4-0.6-0.7-1-0.8c-0.3-0.1-0.6-0.1-0.9-0.1c-0.7,0-1.4,0-2.1,0
			c-0.1,0-0.2,0-0.3,0c-0.3-0.1-0.5-0.3-0.6-0.6s0.1-0.6,0.3-0.8c0.2-0.1,0.4-0.2,0.6-0.2c1.2,0,2.4,0,3.6,0c0.1,0,0.1,0,0.1,0
			c0.1,0,0.1,0,0.1-0.1c0-0.3,0-0.6,0-1c0-0.1,0-0.1-0.1-0.1c-0.2,0-0.4,0-0.6,0c-1.3,0-2.7,0-4,0c-0.5,0-0.9,0.1-1.3,0.4l0,0l0,0
			l0,0l0,0l0,0C55.1,8.3,55,9,55.2,9.8c0.2,0.7,0.7,1,1.3,1.3c0.3,0.1,0.6,0.1,0.9,0.1c0.6,0,1.3,0,1.9,0c0.3,0,0.6,0.1,0.8,0.2
			c0.1,0.1,0.2,0.2,0.2,0.3v0.1c0.1,0.3,0,0.6-0.3,0.8c-0.1,0.1-0.2,0.1-0.3,0.2l0,0c-0.1,0-0.2,0-0.2,0c-0.1,0-0.2,0-0.3,0
			c-1.1,0-2.3,0-3.4,0c-0.1,0-0.1,0-0.2,0c-0.1,0-0.1,0-0.1,0.1c0,0.4,0,0.7,0,1.1c0,0.1,0,0.1,0.1,0.1h0.1c1.5,0,3,0,4.5,0
			c0.1,0,0.3,0,0.4,0c0.5-0.1,1-0.4,1.3-0.8C62.1,12.9,62.2,12.3,62.2,11.8z"/>
		<path class="st5" d="M54.3,9.1c-0.2-0.8-0.7-1.4-1.4-1.7c-0.5-0.2-1-0.3-1.6-0.3c-0.4,0-0.7,0-1.1,0c-0.4,0-0.8,0.1-1.2,0.3
			c-0.4,0.2-0.8,0.4-1.1,0.7c-0.5,0.5-0.7,1.2-0.8,1.9c0,0.3-0.1,0.7,0,1c0,0.4,0.1,0.8,0.2,1.2c0.3,0.9,0.8,1.5,1.7,1.8
			c0.5,0.2,1,0.2,1.5,0.2c0.3,0,0.5,0,0.8,0c0.4,0,0.9-0.1,1.3-0.3c0.8-0.3,1.3-0.8,1.6-1.6c0.2-0.6,0.3-1.2,0.3-1.8
			C54.5,10.1,54.5,9.6,54.3,9.1z M52.8,11c0,0.2,0,0.5-0.1,0.7c-0.1,0.3-0.2,0.6-0.4,0.8c-0.3,0.3-0.6,0.4-1,0.4c-0.3,0-0.6,0-0.8,0
			c-0.8-0.1-1.3-0.5-1.5-1.3c-0.1-0.5-0.1-1-0.1-1.5C49,9.5,49.1,9,49.6,8.6c0.2-0.1,0.5-0.2,0.9-0.3c0.3,0,0.6,0,0.8,0
			c0,0.1,0.1,0,0.2,0l0,0c0.1,0,0.1,0.1,0.2,0.1c0,0.1,0.1,0.1,0.2,0.1c0.4,0.3,0.7,0.6,0.8,1.1C52.8,10.1,52.8,10.5,52.8,11z"/>
		<path class="st5" d="M32.5,13C32.5,13,32.5,12.9,32.5,13c-0.1-0.1-0.2-0.1-0.2-0.1c-0.8,0-1.6,0-2.3,0c-0.2,0-0.3,0-0.5-0.1
			c-0.3-0.1-0.5-0.3-0.6-0.5c-0.2-0.4-0.3-0.7-0.3-1.1c0-0.3,0-0.5,0-0.8c0-0.4,0.1-0.8,0.2-1.2C28.9,9,29,8.8,29.2,8.6
			c0.1-0.1,0.2-0.1,0.2-0.1c0.1,0,0.3-0.1,0.4,0c0.3,0,0.6,0,0.9,0c0.5,0,1.1,0,1.6,0c0.1,0,0.1,0,0.1-0.1c0-0.2,0-0.5,0-0.7
			c0-0.1,0-0.3,0-0.4s0-0.1-0.1-0.1h-0.1c-0.8,0-1.6,0-2.4,0c-0.4,0-0.7,0-1,0.1c-0.4,0.1-0.8,0.3-1.1,0.6c-0.2,0.3-0.4,0.6-0.6,0.9
			c-0.2,0.4-0.3,0.9-0.4,1.4c0,0.6,0,1.2,0.1,1.8c0.1,0.5,0.3,0.9,0.6,1.3c0.3,0.3,0.6,0.6,1,0.8c0.3,0.1,0.5,0.1,0.8,0.1
			c0.5,0,0.9,0,1.4,0l0,0c0.2,0,0.4,0,0.6,0c0.3,0,0.6,0,0.9,0c0.1,0,0.1,0,0.1-0.1C32.5,13.7,32.5,13.4,32.5,13z"/>
		<path class="st5" d="M41.8,9.1C41.5,9,41.3,9,41,9c-0.9,0-1.7,0-2.6,0l0,0c-0.1,0-0.1,0-0.1,0.1s0,0.1,0,0.2c0,0.8,0,1.6,0,2.3
			c0,0.8,0,1.6,0,2.4c0,0.1,0,0.1,0,0.2c0,0.1,0,0.1,0.1,0.1c0.4,0,0.8,0,1.2,0c0.1,0,0.1,0,0.1-0.1v-0.1c0-1.2,0-2.3,0-3.5
			c0-0.1,0-0.1,0-0.2c0-0.1,0-0.1,0.1-0.1c0.4,0,0.8,0,1.1,0c0.1,0,0.3,0,0.4,0.1c0.2,0.1,0.3,0.3,0.3,0.6c0,0.7,0,1.4,0,2.1
			c0,0.4,0,0.7,0,1.1c0,0.2,0,0.2,0.2,0.2c0.4,0,0.7,0,1.1,0c0.1,0,0.1,0,0.1-0.1c0-1.2,0-2.3,0-3.5c0-0.2,0-0.4-0.1-0.6
			C42.6,9.6,42.3,9.2,41.8,9.1z"/>
		<path class="st5" d="M37.4,13.5c0-0.3,0-0.3-0.3-0.3c-0.7,0-1.3,0-2,0c-0.1-0.1-0.1-0.1-0.2-0.1l0,0l0,0l0,0l0,0
			c-0.1-0.1-0.2-0.2-0.3-0.4c0-0.1,0-0.2,0-0.3s0-0.1,0.1-0.1s0.3,0,0.4,0c0.8,0,1.5,0,2.3,0c0.1,0,0.1,0,0.1-0.1c0-0.3,0-0.5,0-0.8
			c0-0.2,0-0.2-0.2-0.2c-0.4,0-0.8,0-1.2,0c-0.5,0-0.9,0-1.4,0c-0.1,0-0.1,0-0.1-0.1c0-0.4,0.3-0.8,0.6-0.8c0.2-0.1,0.5-0.1,0.7-0.1
			c0.5,0,1,0,1.5,0c0.1,0,0.1,0,0.1-0.1c0-0.3,0-0.6,0-0.8c0-0.1,0-0.1-0.1-0.1c-0.7,0-1.4,0-2.1,0c-0.3,0-0.5,0-0.7,0.2
			c-0.5,0.3-0.9,0.7-1.2,1.3c-0.2,0.4-0.3,0.9-0.3,1.3c0,0.5,0.1,1,0.4,1.4c0.2,0.3,0.3,0.5,0.6,0.7c0,0,0,0.1,0.1,0.1l0,0l0.1,0.1
			l0.1,0.1c0.2,0.1,0.5,0.1,0.7,0.1c0.6,0,1.3,0,1.9,0c0.1,0,0.2,0,0.3,0s0.1,0,0.1-0.1C37.4,13.9,37.4,13.7,37.4,13.5z"/>
		<path class="st5" d="M46.6,9c-0.3,0-0.7,0-1,0c-0.2,0-0.2,0-0.2-0.2c0-0.5,0-1,0-1.5c0-0.1,0-0.1-0.1-0.1c-0.2,0-0.5,0-0.7,0
			c-0.1,0-0.3,0-0.4,0c-0.1,0-0.1,0-0.1,0.1v0.1c0,0.5,0,1,0,1.5C44.1,9,44.1,9,44,9c-0.2,0-0.4,0-0.6,0c-0.1,0-0.1,0-0.1,0.1
			c0,0.3,0,0.6,0,0.9c0,0.1,0,0.1,0.1,0.1c0.2,0,0.4,0,0.6,0c0.1,0,0.1,0,0.1,0.1c0,0.4,0,0.9,0,1.3l0,0c0,0.4,0,0.9,0,1.3
			c0,0.3,0.1,0.6,0.3,0.9c0.2,0.2,0.5,0.4,0.8,0.4c0.4,0,0.9,0,1.3,0c0,0,0.1,0,0.1-0.1c0-0.3,0-0.6,0-0.9c0-0.1,0-0.1-0.1-0.1
			c-0.2,0-0.3,0-0.5,0c-0.4,0-0.6-0.3-0.6-0.7c0-0.7,0-1.5,0-2.2c0-0.1,0-0.1,0.1-0.1c0.3,0,0.7,0,1,0c0.1,0,0.1,0,0.1-0.1
			C46.6,9.6,46.6,9.3,46.6,9C46.7,9,46.7,9,46.6,9z"/>
	</g>
</g>
</svg>
