<?xml version="1.0" encoding="utf-8"?>
<!-- Generator: Adobe Illustrator 26.5.0, SVG Export Plug-In . SVG Version: 6.00 Build 0)  -->
<svg version="1.1" id="Layer_1" xmlns="http://www.w3.org/2000/svg" xmlns:xlink="http://www.w3.org/1999/xlink" x="0px" y="0px"
	 viewBox="0 0 67.3 21" style="enable-background:new 0 0 67.3 21;" xml:space="preserve">
<style type="text/css">
	.st0{fill:#48B0E4;}
	.st1{fill:#73B925;}
	.st2{fill:#4FA325;}
	.st3{fill:#EBEBEB;}
	.st4{fill:#10B880;}
	.st5{fill:#25BF8B;}
	.st6{fill:#1EBC88;}
	.st7{fill:#39C496;}
	.st8{fill:#51CCA3;}
	.st9{fill:#7ED8BA;}
	.st10{fill:#98E0C8;}
	.st11{fill:#A5E4CF;}
	.st12{fill:#1792D1;}
	.st13{fill:#50A0D8;}
	.st14{fill:#77B6E1;}
	.st15{fill:#7AB8E2;}
	.st16{fill:#A6CFEB;}
	.st17{fill:#D7E9F6;}
	.st18{fill:#FEFEFE;}
</style>
<g>
	<path class="st0" d="M42.1,11.5c0,1-0.2,1.8-0.5,2.6c-0.3,0.7-0.8,1.3-1.4,1.7c-0.6,0.4-1.3,0.6-2.2,0.6c-1.2,0-2.2-0.4-3-1.3
		c-0.8-0.9-1.1-2.1-1.1-3.6v-1.1c0-1,0.2-1.8,0.5-2.6c0.3-0.7,0.8-1.3,1.4-1.7c0.6-0.4,1.3-0.6,2.2-0.6c0.8,0,1.5,0.2,2.1,0.6
		c0.6,0.4,1.1,0.9,1.4,1.7c0.3,0.7,0.5,1.5,0.5,2.5V11.5z M41.2,10.4c0-1.3-0.3-2.3-0.9-3C39.8,6.6,39,6.3,38,6.3
		c-1,0-1.8,0.4-2.3,1.1c-0.6,0.7-0.9,1.7-0.9,3v1.1c0,1.3,0.3,2.2,0.9,3s1.4,1.1,2.4,1.1c1,0,1.8-0.4,2.4-1.1c0.6-0.7,0.8-1.7,0.8-3
		V10.4z"/>
	<path class="st0" d="M45.2,6.4v2h1.6v0.7h-1.6v5.2c0,0.4,0.1,0.8,0.2,1c0.2,0.2,0.4,0.3,0.8,0.3c0.1,0,0.4,0,0.7-0.1l0,0.7
		c-0.2,0.1-0.5,0.1-0.9,0.1c-0.6,0-1-0.2-1.3-0.5c-0.3-0.3-0.4-0.9-0.4-1.5V9.1h-1.4V8.4h1.4v-2H45.2z"/>
	<path class="st0" d="M49.2,9.7c0.3-0.5,0.7-0.8,1.1-1.1c0.4-0.3,0.9-0.4,1.5-0.4c0.8,0,1.5,0.2,1.9,0.7c0.4,0.5,0.6,1.2,0.6,2.1
		v5.1h-0.9v-5.2c0-0.7-0.2-1.2-0.4-1.6C52.6,9.1,52.1,9,51.5,9c-0.5,0-1,0.2-1.4,0.5c-0.4,0.3-0.7,0.8-0.9,1.4v5.4h-0.9V5.1h0.9V9.7
		z"/>
	<path class="st0" d="M59.2,16.3c-0.7,0-1.3-0.2-1.8-0.5c-0.5-0.3-1-0.8-1.3-1.4c-0.3-0.6-0.4-1.2-0.4-2v-0.3c0-0.8,0.1-1.4,0.4-2
		c0.3-0.6,0.7-1.1,1.2-1.4c0.5-0.3,1.1-0.5,1.7-0.5c1,0,1.7,0.3,2.3,1c0.6,0.6,0.8,1.5,0.8,2.7v0.5h-5.6v0.2c0,0.9,0.3,1.6,0.8,2.2
		c0.5,0.6,1.1,0.9,1.9,0.9c0.5,0,0.9-0.1,1.2-0.3c0.4-0.2,0.7-0.4,1-0.8l0.5,0.4C61.3,15.9,60.4,16.3,59.2,16.3z M59,9
		c-0.7,0-1.2,0.2-1.6,0.7s-0.7,1.1-0.8,1.9h4.7v-0.1c0-0.8-0.2-1.4-0.6-1.8C60.2,9.2,59.7,9,59,9z"/>
	<path class="st0" d="M67.1,9.1c-0.2,0-0.4,0-0.6,0c-0.5,0-1,0.2-1.4,0.5c-0.4,0.3-0.6,0.7-0.8,1.3v5.4h-0.9V8.4h0.8l0,1.2
		c0.5-0.9,1.2-1.4,2.2-1.4c0.2,0,0.4,0,0.6,0.1L67.1,9.1z"/>
</g>
<g>
	<g>
		<path class="st1" d="M19,2.3c-0.4,0-0.8,0.4-0.8,0.8c0,0.4,0.3,0.8,0.8,0.8c0.4,0,0.8-0.3,0.8-0.8C19.8,2.6,19.5,2.3,19,2.3z
			 M19.2,3.2c-0.1,0-0.2-0.1-0.2-0.3c0-0.1,0.1-0.2,0.3-0.2c0.1,0,0.2,0.1,0.2,0.3C19.4,3.1,19.3,3.2,19.2,3.2z"/>
		<path class="st1" d="M21.2,3.7c0-0.1,0-0.1,0-0.2c0,0,0,0,0-0.1c0,0,0-0.1,0-0.1c0,0,0-0.1,0-0.1c0-0.2-0.2-0.4-0.3-0.6
			C20.6,2,20.2,1.5,19.6,1c-0.8-0.7-1.8-1.1-2.9-1c-0.1,0-0.1,0-0.1,0.1c0,0.2,0,0.4,0.1,0.5c0,0,0,0.1,0,0.1c-0.1,0-0.2,0-0.3,0
			c0,0-0.1,0-0.1,0c-0.2,0-0.3,0.1-0.5,0.1c-0.2,0.1-0.4,0.1-0.6,0.2c-0.4,0.2-0.8,0.4-1.1,0.7c-0.1,0.1-0.2,0.2-0.3,0.3
			c-0.1,0.1-0.2,0.3-0.3,0.4C13.2,2.7,13.1,3,13,3.2c-0.1,0.2-0.2,0.4-0.2,0.6c-0.1,0.3-0.2,0.6-0.2,1c0,0,0,0.1,0,0.1v0.5
			c0,0,0,0.1,0,0.1c0,0,0,0,0,0.1c0,0,0,0.1,0,0.1c0,0.2,0.1,0.4,0.1,0.6c0,0,0,0,0,0c0.3-0.2,0.6-0.5,1-0.6
			c0.5-0.3,1.1-0.5,1.7-0.7c0.5-0.1,0.9-0.1,1.4,0c0,0,0.1,0,0.1,0c0.2,0.1,0.3,0.1,0.5,0.2c0.2,0.1,0.4,0.1,0.5,0.2
			c0.2,0.1,0.4,0.1,0.5,0.1c0.2,0.1,0.5,0.1,0.7,0.1c0,0,0.1,0,0.1,0c0,0,0.1,0,0.1,0c0,0,0.1,0,0.1,0H20c0,0,0.1,0,0.1,0
			c0,0,0.1,0,0.1,0c0,0,0.1,0,0.1,0c0.2,0,0.3,0,0.5-0.1c0.1,0,0.1-0.1,0.2-0.2c0.1-0.4,0.2-0.8,0.3-1.2c0,0,0-0.1,0-0.1
			c0,0,0-0.1,0-0.1c0-0.1,0-0.1,0-0.2C21.2,3.8,21.2,3.7,21.2,3.7z M19,4.2c-0.6,0-1.1-0.5-1.1-1.1c0-0.6,0.5-1.1,1.1-1.1
			c0.6,0,1.1,0.5,1.1,1.1C20.1,3.7,19.6,4.2,19,4.2z"/>
		<path class="st2" d="M12.7,6.3c0.1-0.1,0.2-0.2,0.3-0.2c0.3-0.2,0.7-0.4,1-0.6c0.4-0.2,0.9-0.4,1.3-0.5c0.2,0,0.4-0.1,0.6-0.1
			c0.3,0,0.6,0,0.9,0.1c0,0,0,0,0,0c-0.2,0-0.5,0.1-0.7,0.2c-0.2,0.1-0.4,0.2-0.5,0.3c-0.2,0.2-0.4,0.3-0.5,0.6
			c-0.1,0.2-0.2,0.4-0.2,0.7c0,0.1,0,0.2,0,0.3c0,0.4,0.1,0.7,0.3,0.9c0.2,0.3,0.5,0.4,0.8,0.5c0,0,0.1,0,0.1,0c0,0,0.1,0,0.1,0
			c0.1,0,0.1,0,0.2,0c0,0,0.1,0,0.1,0c0.3,0,0.5-0.1,0.7-0.3c0.2-0.1,0.3-0.2,0.4-0.4c0.1-0.1,0.1-0.3,0.2-0.5
			c0.1-0.4-0.2-0.7-0.5-0.9c-0.3-0.1-0.5-0.1-0.8,0c-0.1,0.1-0.3,0.2-0.4,0.3c-0.1,0.1-0.1,0.2,0,0.3c0.1,0.2,0.2,0.2,0.3,0.1
			c0.1-0.1,0.4-0.1,0.5,0c0,0.1,0.1,0.1,0.1,0.2c0,0,0,0.1,0,0.1c-0.1,0.3-0.3,0.4-0.5,0.4c-0.3,0.1-0.5,0-0.7-0.2
			c-0.1-0.1-0.2-0.3-0.3-0.5c0,0,0-0.1,0-0.1c0-0.1,0-0.2,0-0.2c0-0.1,0-0.3,0.1-0.4c0.1-0.2,0.3-0.4,0.5-0.5
			c0.3-0.2,0.5-0.2,0.8-0.2c0,0,0.1,0,0.1,0c0.3,0,0.6,0.1,0.9,0.3c0.3,0.2,0.5,0.5,0.5,0.9c0,0.1,0,0.1,0,0.2c0,0.1,0,0.1,0,0.2
			l0,0c0,0.1,0,0.1,0,0.2c0,0.5-0.3,0.8-0.6,1.1c-0.4,0.3-0.8,0.5-1.4,0.7c-0.1,0-0.1,0-0.2,0c0,0-0.1,0-0.1,0c0,0-0.1,0-0.1,0
			c0,0-0.1,0-0.1,0c0,0-0.1,0-0.1,0c0,0-0.1,0-0.1,0c-0.3,0-0.5-0.1-0.7-0.2c-0.3-0.1-0.5-0.2-0.7-0.4c-0.1-0.1-0.3-0.2-0.4-0.3
			c-0.2-0.2-0.5-0.5-0.6-0.8c-0.2-0.3-0.4-0.6-0.5-1C12.8,6.5,12.7,6.4,12.7,6.3z"/>
		<path class="st3" d="M19,2.3c-0.4,0-0.8,0.4-0.8,0.8c0,0.4,0.3,0.8,0.8,0.8c0.4,0,0.8-0.3,0.8-0.8C19.8,2.6,19.5,2.3,19,2.3z
			 M19.2,3.2c-0.1,0-0.2-0.1-0.2-0.3c0-0.1,0.1-0.2,0.3-0.2c0.1,0,0.2,0.1,0.2,0.3C19.4,3.1,19.3,3.2,19.2,3.2z"/>
		<path class="st1" d="M19,2.3c-0.4,0-0.8,0.4-0.8,0.8c0,0.4,0.3,0.8,0.8,0.8c0.4,0,0.8-0.3,0.8-0.8C19.8,2.6,19.5,2.3,19,2.3z
			 M19.2,3.2c-0.1,0-0.2-0.1-0.2-0.3c0-0.1,0.1-0.2,0.3-0.2c0.1,0,0.2,0.1,0.2,0.3C19.4,3.1,19.3,3.2,19.2,3.2z"/>
	</g>
	<g>
		<path class="st4" d="M10,15.7C10,15.8,10,15.8,10,15.7c0,0.1,0,0.2,0,0.2c0,0,0,0.1,0,0.1c0,0,0,0.1,0,0.1c0,0,0,0.1,0,0.1
			c0,0,0,0,0,0c0,0,0,0,0,0.1c0,0.1,0,0.3,0,0.4c0,0.3-0.1,0.5-0.2,0.8c0,0.1-0.1,0.1-0.1,0c0,0-0.1-0.1-0.1-0.1
			c-1-1-1.9-1.9-2.9-2.9c-0.1-0.1-0.1-0.1-0.2,0c-1.6,1.6-3.2,3.2-4.8,4.8c0,0,0,0,0,0c-0.1,0.1-0.1,0.1-0.2,0
			c-0.2-0.2-0.3-0.3-0.4-0.5c-0.4-0.6-0.7-1.3-0.9-2.1c0-0.1,0-0.3,0-0.4c0-0.4,0-0.8,0-1.2c0-0.2,0.1-0.4,0.1-0.6
			c0.1-0.5,0.4-1,0.6-1.4c0.2-0.3,0.4-0.6,0.7-0.8c0.7-0.7,1.6-1.1,2.5-1.3c0.2,0,0.3,0,0.5,0c0,0,0,0,0,0c0,0,0.1,0,0.1,0
			c0,0,0.1,0,0.1,0c0,0,0.1,0,0.1,0c0,0,0.1,0,0.1,0c0,0,0.1,0,0.1,0c0,0,0.1,0,0.1,0c0,0,0.1,0,0.1,0c0.2,0,0.3,0,0.5,0
			c0.4,0.1,0.7,0.2,1.1,0.3c0.4,0.2,0.8,0.4,1.2,0.7c0.5,0.4,0.9,0.9,1.2,1.4c0.3,0.5,0.5,1,0.6,1.5c0,0.2,0,0.3,0,0.5
			c0,0,0,0,0,0.1C10,15.6,10,15.6,10,15.7C10,15.7,10,15.7,10,15.7C10,15.7,10,15.7,10,15.7z"/>
		<path class="st5" d="M5,11c0,0-0.1,0-0.1,0c0,0,0,0,0,0C4.9,11,5,11,5,11z"/>
		<path class="st5" d="M5.2,11c0,0-0.1,0-0.1,0C5.1,11,5.2,11,5.2,11C5.2,11,5.2,11,5.2,11z"/>
		<path class="st6" d="M10,15.9c0,0,0-0.1,0-0.1C10,15.9,10,15.9,10,15.9z"/>
		<path class="st7" d="M10,16.2c0,0,0-0.1,0-0.1C10,16.1,10,16.1,10,16.2z"/>
		<path class="st8" d="M4.9,11C4.9,11,4.9,11,4.9,11C4.8,11,4.8,11,4.9,11C4.8,11,4.9,11,4.9,11z"/>
		<path class="st8" d="M5.2,11C5.2,11,5.2,11,5.2,11C5.2,11,5.3,11,5.2,11C5.3,11,5.2,11,5.2,11z"/>
		<path class="st9" d="M10,15.7C10,15.7,10,15.7,10,15.7C10,15.7,10,15.7,10,15.7C10,15.7,10,15.7,10,15.7z"/>
		<path class="st10" d="M10,16.3C10,16.3,10,16.3,10,16.3C10,16.3,10,16.3,10,16.3z"/>
		<path class="st11" d="M10,15.7C10,15.7,10,15.7,10,15.7C10,15.7,10,15.6,10,15.7C10,15.7,10,15.7,10,15.7z"/>
		<path class="st4" d="M3,20.5C3,20.4,3,20.4,3,20.5c1.2-1.2,2.4-2.4,3.5-3.5c0,0,0.1-0.1,0.1,0c0.7,0.7,1.4,1.5,2.2,2.2
			c0,0,0,0.1,0,0.1c-0.8,0.9-1.8,1.4-3,1.6C4.8,21,3.9,20.9,3,20.5C3,20.5,3,20.5,3,20.5z"/>
	</g>
	<path class="st12" d="M0,10.1C0,10.1,0,10.1,0,10.1C0,10,0.1,9.9,0.1,9.9c0.1-0.2,0.2-0.3,0.3-0.5c0,0,0.1-0.1,0.1-0.1
		c0,0,0-0.1,0-0.1c0-0.1,0.1-0.1,0.1-0.2c0,0,0.1-0.1,0.1-0.1c0,0,0-0.1,0.1-0.1c0-0.1,0.1-0.1,0.1-0.2c0,0,0,0,0-0.1
		c0-0.1,0.1-0.1,0.1-0.2c0-0.1,0.1-0.1,0.1-0.2c0,0,0,0,0,0c0-0.1,0.1-0.1,0.1-0.2c0.1-0.1,0.2-0.3,0.2-0.4c0,0,0,0,0,0
		C1.6,7.2,1.6,7.1,1.7,7c0-0.1,0.1-0.1,0.1-0.2c0,0,0,0,0-0.1c0-0.1,0.1-0.2,0.1-0.2c0,0,0-0.1,0-0.1c0,0,0-0.1,0.1-0.1
		c0-0.1,0.1-0.1,0.1-0.2c0,0,0-0.1,0.1-0.1c0,0,0.1-0.1,0.1-0.1c0-0.1,0.1-0.2,0.1-0.2c0,0,0,0,0,0c0-0.1,0.1-0.1,0.1-0.2
		c0-0.1,0.1-0.1,0.1-0.2c0,0,0,0,0,0c0-0.1,0.1-0.1,0.1-0.2c0-0.1,0.1-0.2,0.1-0.2C2.9,4.6,3,4.5,3,4.5c0-0.1,0.1-0.1,0.1-0.2
		c0-0.1,0.1-0.1,0.1-0.2c0.1-0.2,0.2-0.3,0.2-0.5c0-0.1,0.1-0.1,0.1-0.2c0,0,0-0.1,0.1-0.1c0,0,0,0,0.1,0c0,0,0.1,0,0.1,0.1
		c0,0,0.1,0.1,0.1,0.1C4,3.4,4,3.4,4,3.4c0.1,0.1,0.3,0.2,0.5,0.3c0.1,0.1,0.3,0.1,0.4,0.2c0,0,0,0,0.1,0c0,0,0,0-0.1-0.1
		c0,0-0.1,0-0.1-0.1c0,0-0.1-0.1-0.1-0.1c-0.1,0-0.1-0.1-0.2-0.1c0,0,0,0-0.1,0C4.4,3.5,4.4,3.4,4.3,3.4c0,0,0,0,0,0
		C4.1,3.2,4,3.1,3.9,3c0,0,0,0-0.1-0.1c0,0,0,0,0-0.1c0-0.1,0-0.1,0.1-0.2C3.9,2.6,4,2.5,4,2.5c0,0,0-0.1,0-0.1c0-0.1,0-0.1,0.1-0.2
		c0-0.1,0.1-0.1,0.1-0.2c0,0,0,0,0-0.1c0,0,0,0,0-0.1c0,0,0-0.1,0.1-0.1c0-0.1,0.1-0.1,0.1-0.2c0.1-0.2,0.1-0.3,0.2-0.5
		C4.6,1,4.6,1,4.7,0.9c0,0,0-0.1,0-0.1c0,0,0-0.1,0-0.1c0-0.1,0.1-0.2,0.1-0.2C4.9,0.3,5,0.2,5,0c0,0,0,0,0,0c0,0,0,0,0,0
		c0.1,0.1,0.1,0.3,0.2,0.4c0,0.1,0.1,0.2,0.1,0.2c0,0,0,0.1,0,0.1c0,0.1,0,0.1,0.1,0.1C5.5,1,5.5,1,5.5,1.1c0,0.1,0,0.1,0.1,0.2
		c0,0,0,0,0,0c0,0.1,0.1,0.2,0.1,0.2C5.8,1.7,5.9,1.9,5.9,2C6,2.1,6,2.2,6,2.2c0,0,0,0.1,0,0.1c0,0,0,0.1,0.1,0.1
		c0,0.1,0.1,0.1,0.1,0.2c0,0,0,0.1,0.1,0.1c0,0,0,0.1,0.1,0.1c0,0.1,0.1,0.2,0.1,0.2c0,0,0,0.1,0,0.1c0,0,0,0.1,0.1,0.1
		c0,0.1,0.1,0.1,0.1,0.2c0,0,0,0.1,0.1,0.1c0,0,0,0.1,0,0.1C6.8,3.9,6.9,4,6.9,4c0,0,0,0.1,0.1,0.1c0,0,0,0.1,0.1,0.1
		c0,0.1,0.1,0.1,0.1,0.2c0,0,0,0.1,0.1,0.1c0,0,0,0.1,0,0.1c0,0.1,0.1,0.2,0.1,0.2c0,0,0,0.1,0,0.1c0,0,0.1,0.1,0.1,0.1
		c0,0.1,0.1,0.1,0.1,0.2c0,0,0,0.1,0,0.1c0,0,0,0.1,0.1,0.1c0,0.1,0.1,0.1,0.1,0.2c0,0,0,0,0,0.1C7.9,5.9,7.9,6,8,6.1
		C8,6.1,8,6.2,8.1,6.3c0,0.1,0.1,0.1,0.1,0.2c0.1,0.2,0.2,0.3,0.2,0.5c0,0.1,0.1,0.1,0.1,0.2c0,0,0,0,0,0c0,0.1,0.1,0.1,0.1,0.2
		c0,0.1,0.1,0.1,0.1,0.2c0,0,0,0,0,0c0,0.1,0.1,0.1,0.1,0.2c0,0,0,0,0,0.1c0,0,0,0,0,0c0,0-0.1,0-0.1-0.1c-0.1,0-0.1-0.1-0.2-0.1
		c0,0-0.1,0-0.1-0.1c0,0-0.1,0-0.1,0c-0.1,0-0.2-0.1-0.2-0.1c-0.1,0-0.1,0-0.2-0.1c0,0-0.1,0-0.1,0c-0.1,0-0.1,0-0.2,0c0,0,0,0,0,0
		c0,0,0,0,0,0c0,0,0.1,0,0.1,0c0.1,0,0.1,0.1,0.2,0.1C7.9,7.5,8,7.6,8.1,7.6c0.1,0,0.1,0.1,0.2,0.1c0,0,0.1,0.1,0.1,0.1
		c0,0,0.1,0.1,0.1,0.1C8.6,8,8.6,8,8.7,8.1c0,0,0,0,0,0C8.8,8.2,8.9,8.2,9,8.3c0,0,0,0,0,0c0.1,0.1,0.1,0.1,0.2,0.2c0,0,0,0,0,0
		c0.1,0.1,0.1,0.2,0.1,0.2c0,0,0,0,0,0.1c0,0.1,0.1,0.1,0.1,0.2c0,0.1,0.1,0.2,0.1,0.2c0,0,0,0,0,0c0,0,0,0.1,0,0.1c0,0,0,0.1,0,0.1
		C9.8,9.6,9.9,9.7,10,9.9c0,0,0,0.1,0.1,0.1c0,0,0,0.1,0,0.1c0,0-0.1,0-0.1,0c0,0-0.1,0-0.1-0.1C9.7,9.9,9.6,9.8,9.4,9.7
		c0,0-0.1-0.1-0.1-0.1c0,0-0.1,0-0.1,0C9.1,9.6,9.1,9.5,9,9.5c0,0-0.1-0.1-0.1-0.1c0,0,0,0-0.1,0c-0.1,0-0.2-0.1-0.2-0.1
		c0,0,0,0-0.1,0c0,0,0,0-0.1,0c0,0-0.1,0-0.1-0.1c-0.1,0-0.1-0.1-0.2-0.1C8,9,8,9,7.9,9c0,0,0,0,0,0c-0.1,0-0.2-0.1-0.2-0.1
		c-0.1,0-0.1-0.1-0.2-0.1c0,0-0.1,0-0.1,0c-0.1,0-0.1,0-0.2-0.1C7.1,8.7,7,8.6,6.9,8.6c-0.1,0-0.1,0-0.2-0.1c0,0-0.1,0-0.1,0
		c0,0-0.1,0-0.1,0c-0.1,0-0.2,0-0.2-0.1c0,0,0,0-0.1,0c-0.1,0-0.1,0-0.1-0.1c0-0.1,0-0.2,0-0.2c0-0.1,0-0.1,0-0.2c0-0.1,0-0.2,0-0.3
		c0-0.1,0-0.1,0-0.2c0-0.1,0-0.2,0-0.3C6.1,7.1,6.1,7,6,6.9c0,0,0-0.1,0-0.1c0-0.1-0.1-0.2-0.1-0.2c0,0,0-0.1-0.1-0.1
		c0,0-0.1-0.1-0.1-0.1c0,0-0.1-0.1-0.1-0.1c0,0-0.1-0.1-0.1-0.1c0,0-0.1,0-0.1-0.1c-0.1,0-0.2-0.1-0.2-0.1c-0.1,0-0.1,0-0.2,0
		c-0.1,0-0.2,0-0.2,0.1c0,0-0.1,0-0.1,0.1c0,0-0.1,0.1-0.1,0.1c0,0-0.1,0.1-0.1,0.1c0,0-0.1,0.1-0.1,0.2c0,0,0,0,0,0.1
		c0,0.1-0.1,0.2-0.1,0.2c0,0.1,0,0.1-0.1,0.2c0,0,0,0,0,0C4,7,4,7.1,4,7.2c0,0.1,0,0.2,0,0.3c0,0,0,0,0,0c0,0,0,0.1,0,0.1
		c0,0.1,0,0.2,0,0.3c0,0,0,0.1,0,0.1C4,8,4,8,4,8.1c0,0.1,0,0.2,0,0.3c0,0,0,0.1-0.1,0.1c0,0-0.1,0-0.1,0c-0.1,0-0.2,0-0.2,0.1
		c0,0-0.1,0-0.1,0c0,0-0.1,0-0.1,0c-0.1,0-0.1,0-0.2,0.1C3.1,8.6,3,8.7,2.9,8.7c0,0-0.1,0-0.1,0c0,0-0.1,0-0.1,0
		c-0.1,0-0.1,0.1-0.2,0.1c-0.1,0-0.1,0-0.2,0.1C2.2,9,2.1,9,2,9.1c-0.1,0-0.1,0.1-0.2,0.1c0,0-0.1,0-0.1,0.1c0,0-0.1,0-0.1,0.1
		c-0.1,0-0.2,0.1-0.2,0.1c0,0,0,0-0.1,0c0,0-0.1,0.1-0.1,0.1C1,9.5,1,9.6,0.9,9.6c0,0-0.1,0-0.1,0c-0.1,0-0.1,0-0.1,0.1
		C0.5,9.8,0.4,9.9,0.2,10C0.2,10,0.1,10,0,10.1C0.1,10.1,0,10.1,0,10.1z"/>
	<g>
		<path class="st13" d="M11.8,19.9c0-1.3,0-2.6,0-3.9c0,0,0-0.1,0-0.1c0,0,0,0,0-0.1c0,0,0,0,0,0c0-0.4,0.1-0.8,0.2-1.2
			c0.1-0.3,0.2-0.6,0.4-0.9c0.1-0.3,0.3-0.5,0.5-0.8c0.1-0.2,0.3-0.3,0.4-0.5c0.3-0.3,0.6-0.5,0.9-0.7c0.3-0.2,0.6-0.3,1-0.4
			c0.3-0.1,0.5-0.2,0.8-0.2c0.2,0,0.4-0.1,0.5-0.1c0,0,0.1,0,0.1,0c0,0,0,0,0.1,0c0,0,0,0,0.1,0c0,0,0.1,0,0.1,0c0,0,0,0,0,0
			c0,0,0.1,0,0.1,0c0,0,0,0,0.1,0c0.5,0,0.9,0.1,1.4,0.2c0.3,0.1,0.6,0.2,0.9,0.4c0.3,0.2,0.6,0.4,0.8,0.6c0.1,0.1,0.3,0.3,0.4,0.4
			c0.2,0.2,0.4,0.5,0.6,0.8c0.1,0.2,0.2,0.3,0.3,0.5c0.2,0.4,0.4,0.9,0.4,1.4c0,0.2,0,0.3,0,0.5c0,0.1,0,0.3,0,0.4
			c0,0.5-0.1,0.9-0.2,1.3c-0.1,0.3-0.2,0.6-0.4,0.8c-0.2,0.3-0.3,0.6-0.6,0.8c-0.1,0.1-0.2,0.2-0.3,0.3c-0.2,0.3-0.5,0.5-0.8,0.7
			c-0.4,0.3-0.9,0.5-1.4,0.6c-0.3,0.1-0.5,0.1-0.8,0.2c-0.1,0-0.2,0-0.3,0c-1.5,0-3,0-4.5,0c-0.2,0-0.4-0.1-0.6-0.2
			c-0.2-0.1-0.3-0.3-0.4-0.5c0-0.1,0-0.2,0-0.3c0,0,0,0,0,0C11.8,20,11.8,20,11.8,19.9C11.8,19.9,11.8,19.9,11.8,19.9z"/>
		<path class="st14" d="M11.8,15.9c0,0,0,0.1,0,0.1C11.8,16,11.8,15.9,11.8,15.9C11.8,15.9,11.8,15.9,11.8,15.9z"/>
		<path class="st15" d="M11.8,19.9C11.8,19.9,11.8,19.9,11.8,19.9C11.8,19.9,11.8,19.9,11.8,19.9z"/>
		<path class="st16" d="M11.8,15.9C11.8,15.9,11.8,15.9,11.8,15.9C11.8,15.9,11.8,15.9,11.8,15.9C11.8,15.8,11.8,15.8,11.8,15.9
			C11.8,15.8,11.8,15.9,11.8,15.9z"/>
		<path class="st17" d="M11.8,15.8C11.8,15.8,11.8,15.8,11.8,15.8C11.8,15.8,11.8,15.8,11.8,15.8C11.8,15.8,11.8,15.8,11.8,15.8
			C11.8,15.8,11.8,15.8,11.8,15.8z"/>
		<path class="st18" d="M16.3,16.2c0-0.5,0-1,0-1.5c0-0.4,0.2-0.8,0.5-1.1c0.3-0.3,0.6-0.4,1-0.4c0.7,0,1.2,0.3,1.5,0.8
			c0.1,0.2,0.2,0.4,0.2,0.7c0,0.1,0,0.2,0,0.3c0,0.2-0.3,0.4-0.5,0.3c-0.2,0-0.4-0.2-0.4-0.5c0-0.2,0-0.4-0.1-0.6
			c-0.1-0.1-0.3-0.2-0.4-0.3c-0.3-0.1-0.5,0-0.7,0.2c-0.2,0.1-0.3,0.3-0.3,0.6c0,0.4,0,0.8,0,1.2c0,0.1,0,0.1,0.1,0.1
			c0.2,0,0.5,0,0.7,0c0.2,0,0.3,0.1,0.4,0.3c0.1,0.2-0.1,0.5-0.4,0.5c-0.2,0-0.5,0-0.7,0c-0.1,0-0.1,0-0.1,0.1c0,0.3,0,0.7,0,1
			c0,0.3-0.1,0.6-0.2,0.8c-0.3,0.5-0.8,0.8-1.4,0.9c-1,0.1-1.9-0.5-2.1-1.5c-0.1-0.5,0-0.9,0.3-1.4c0.4-0.6,0.9-0.8,1.6-0.9
			c0.2,0,0.4,0,0.6,0c0,0,0,0,0,0c0,0.2,0,0.5,0,0.7c0,0,0,0,0,0c-0.2,0-0.4,0-0.6,0c-0.3,0-0.6,0.1-0.8,0.4
			c-0.4,0.5-0.2,1.3,0.4,1.5c0.4,0.2,0.8,0.1,1.1-0.2c0.2-0.2,0.3-0.4,0.3-0.7c0-0.3,0-0.5,0-0.8C16.3,16.7,16.3,16.4,16.3,16.2
			C16.3,16.2,16.3,16.2,16.3,16.2z"/>
	</g>
</g>
</svg>
