<?xml version="1.0" encoding="utf-8"?>
<!-- Generator: Adobe Illustrator 26.5.0, SVG Export Plug-In . SVG Version: 6.00 Build 0)  -->
<svg version="1.1" id="Layer_1" xmlns="http://www.w3.org/2000/svg" xmlns:xlink="http://www.w3.org/1999/xlink" x="0px" y="0px"
	 viewBox="0 0 61.3 21.3" style="enable-background:new 0 0 61.3 21.3;" xml:space="preserve">
<style type="text/css">
	.st0{fill:#DA4714;}
</style>
<g>
	<g>
		<path class="st0" d="M12,19.1c-1.3,0-2.5-0.3-3.7-0.8c-0.1,0-0.1-0.1,0-0.1c0.4-0.7,0.8-1.5,1.2-2.2c0-0.1,0.1-0.1,0.2-0.1
			c2,0.8,3.9,0.6,5.7-0.6c1.3-0.9,2.1-2.3,2.3-3.9c0-0.2,0-0.2,0.3-0.2c0.8,0,1.6,0,2.4,0c0.2,0,0.2,0,0.2,0.2
			c-0.1,1.2-0.4,2.3-1,3.3c-0.4,0.7-0.9,1.3-1.4,1.9c-0.1,0.1-0.1,0.1-0.2,0.1c-1.6-0.5-3.2,0.4-3.6,2.1c0,0.1-0.1,0.1-0.2,0.2
			C13.4,19,12.7,19.1,12,19.1z"/>
		<path class="st0" d="M19,10.1c-0.4,0-0.8,0-1.3,0c-0.1,0-0.1,0-0.1-0.1c-0.1-1-0.5-2-1.1-2.8c-0.9-1.2-2.2-2-3.7-2.2
			c-1.1-0.2-2.1,0-3.2,0.4c-0.1,0-0.1,0-0.1,0C9.1,4.6,8.7,3.9,8.2,3.2c0-0.1,0-0.1,0-0.2c1.3-0.6,2.7-0.9,4.1-0.8
			c0.6,0,1.2,0.1,1.7,0.3c0.1,0,0.1,0,0.1,0.1c0.3,1.6,2,2.6,3.6,2.1c0.1,0,0.1,0,0.2,0C19.2,6,20,7.6,20.3,9.4c0,0.2,0,0.4,0.1,0.6
			c0,0.1,0,0.2-0.1,0.2C19.9,10.1,19.4,10.1,19,10.1L19,10.1z"/>
		<path class="st0" d="M7.2,3.6C7.3,3.6,7.3,3.6,7.2,3.6c0.5,0.8,1,1.6,1.4,2.3c0,0.1,0,0.1,0,0.1C8.1,6.4,7.7,6.8,7.3,7.3
			c-0.6,0.9-1,1.9-1,2.9c-0.1,2.1,0.7,3.7,2.3,5c0.1,0,0.1,0.1,0,0.1c-0.4,0.7-0.9,1.5-1.3,2.2c0,0.1-0.1,0.1-0.1,0
			c-1.7-1.2-2.8-2.8-3.4-4.8c0-0.1,0-0.1,0-0.2c1.3-1.1,1.3-3,0-4.1c-0.1,0.1-0.1,0.1-0.1,0C4.3,6.4,5.4,4.8,7.2,3.6L7.2,3.6z"/>
		<path class="st0" d="M0,10.6c0-1.1,0.9-2,2-2s2,0.9,2,2s-0.9,2-2,2S0,11.7,0,10.6z"/>
		<path class="st0" d="M18.9,2c0,1.1-0.9,2-2,1.9c-1,0-1.9-0.9-1.9-2S15.9,0,17,0C18,0.1,18.9,1,18.9,2z"/>
		<path class="st0" d="M18.9,19.3c0,1.1-0.9,2-1.9,2c-1.1,0-2-0.9-2-2s0.9-2,1.9-2C18,17.3,18.9,18.2,18.9,19.3z"/>
	</g>
	<path class="st0" d="M58.7,13c0.8,0.1,1.5-0.1,1.5-0.1V7.6h1.1v6.1c-0.9,0.2-3.5,1-4.6-0.7c-0.5-0.8-0.5-1.7-0.5-1.7V7.6h1.2
		c0,0,0,3.2,0,3.7C57.5,12.3,57.9,13,58.7,13L58.7,13z M55.3,12.8c0,0-0.2,0.2-1.2,0.3c-1,0-1.2-0.8-1.2-1.2V8.8h2.3v-1h-2.3v-2
		L51.8,6v5.8c0,0,0,1.2,0.5,1.7s1.3,0.9,3.2,0.2C55.4,13.1,55.3,12.8,55.3,12.8L55.3,12.8z M48,8.4c-0.8-0.1-1.5,0.1-1.5,0.1v5.3
		h-1.1V7.7c0.9-0.2,3.5-1,4.6,0.7c0.5,0.8,0.5,1.7,0.5,1.7v3.7h-1.2c0,0,0-3.2,0-3.7C49.2,9.1,48.8,8.4,48,8.4z M41.2,13
		c0.8,0.1,1.5-0.1,1.5-0.1V7.6h1.1v6.1c-0.9,0.2-3.5,1-4.6-0.7c-0.5-0.8-0.5-1.7-0.5-1.7V7.6h1.2c0,0,0,3.2,0,3.7
		C39.9,12.3,40.4,13,41.2,13z M33.3,13V9.1c0,0,0.2-0.5,1.4-0.5c1.1,0,1.3,0.3,1.4,0.5c0.1,0.1,0.4,0.4,0.4,1.5
		c0,1.2-0.2,2.6-1.9,2.6C33.5,13.1,33.3,13.1,33.3,13L33.3,13z M32.1,13.8c0,0,0.8,0.4,2.3,0.4s3.2-0.9,3.2-3.4s-1.9-3.2-2.8-3.2
		s-1.6,0.5-1.6,0.5V4.7l-1.1,0.2C32.1,4.9,32.1,13.8,32.1,13.8z M28.2,13c0.8,0.1,1.5-0.1,1.5-0.1V7.6h1.1v6.1
		c-0.9,0.2-3.5,1-4.6-0.7c-0.5-0.8-0.5-1.7-0.5-1.7V7.6h1.2c0,0,0,3.2,0,3.7C26.9,12.3,27.4,13,28.2,13L28.2,13z"/>
</g>
</svg>
