<svg xmlns="http://www.w3.org/2000/svg" xmlns:xlink="http://www.w3.org/1999/xlink" width="10.51" height="10.51" viewBox="0 0 10.51 10.51"><defs><linearGradient id="c7517b59-1230-445a-ac66-a89f659f9304" y1="5.26" x2="10.51" y2="5.26" gradientUnits="userSpaceOnUse"><stop offset="0" stop-color="#e50058"/><stop offset="0.6" stop-color="#ed4152"/><stop offset="1" stop-color="#f2684e"/></linearGradient></defs><title>ico_close</title><g id="c9b9bb3c-aa59-453d-86b5-22f62a774f84" data-name="Layer 2"><g id="c8498e2c-f317-4804-9d36-b75933a96ae5" data-name="Layer 1"><path d="M7,5.26,10.24,2a.92.92,0,0,0,0-1.3L9.81.27a.92.92,0,0,0-1.3,0L5.26,3.52,2,.27A.92.92,0,0,0,.7.27L.27.7A.92.92,0,0,0,.27,2L3.52,5.26.27,8.51a.92.92,0,0,0,0,1.3l.43.43a.92.92,0,0,0,1.3,0L5.26,7l3.25,3.25a.92.92,0,0,0,1.3,0l.43-.43a.92.92,0,0,0,0-1.3Z" style="fill:url(#c7517b59-1230-445a-ac66-a89f659f9304)"/></g></g></svg>