<svg xmlns="http://www.w3.org/2000/svg" xmlns:xlink="http://www.w3.org/1999/xlink" width="13.56" height="14.23" viewBox="0 0 13.56 14.23"><defs><style>.\33 77507be-a92e-4b38-991b-75daea4d10ac{fill:url(#d2d258f0-2cdb-4d64-8bbd-59b3965c25ee);}.\32 3685661-0f9f-4a2f-bed0-35d9c9f23f21{fill:url(#a6d82928-61ac-43ba-8ca6-8074e1ec0e34);}</style><linearGradient id="d2d258f0-2cdb-4d64-8bbd-59b3965c25ee" x1="6.1" y1="4.07" x2="7.46" y2="4.07" gradientUnits="userSpaceOnUse"><stop offset="0" stop-color="#72ab52"/><stop offset="0.39" stop-color="#8cbe55"/><stop offset="1" stop-color="#b3d959"/></linearGradient><linearGradient id="a6d82928-61ac-43ba-8ca6-8074e1ec0e34" x1="0" y1="7.79" x2="13.56" y2="7.79" xlink:href="#d2d258f0-2cdb-4d64-8bbd-59b3965c25ee"/></defs><title>server_on</title><g id="13a37642-56be-4350-bffe-6d339ed8472c" data-name="Layer 2"><g id="d90ee1ee-9b6e-40c4-b444-4f651254b2cf" data-name="Layer 1"><path class="377507be-a92e-4b38-991b-75daea4d10ac" d="M6.78,8.14a.68.68,0,0,0,.68-.68V.68A.68.68,0,1,0,6.1.68V7.46a.68.68,0,0,0,.68.68Z"/><path class="23685661-0f9f-4a2f-bed0-35d9c9f23f21" d="M9.89,1.43a.68.68,0,1,0-.62,1.21,5.42,5.42,0,1,1-5,0,.68.68,0,1,0-.62-1.21,6.78,6.78,0,1,0,6.22,0Z"/></g></g></svg>