<?xml version="1.0" encoding="utf-8"?>
<!-- Generator: Adobe Illustrator 26.5.0, SVG Export Plug-In . SVG Version: 6.00 Build 0)  -->
<svg version="1.1" id="Layer_1" xmlns="http://www.w3.org/2000/svg" xmlns:xlink="http://www.w3.org/1999/xlink" x="0px" y="0px"
	 viewBox="0 0 23.4 23.2" style="enable-background:new 0 0 23.4 23.2;" xml:space="preserve">
<style type="text/css">
	.st0{fill:none;stroke:url(#SVGID_1_);stroke-width:1.5;stroke-miterlimit:10;}
	.st1{fill:none;stroke:url(#SVGID_00000098206364015996498460000011529496153874553496_);stroke-width:1.5;stroke-miterlimit:10;}
	.st2{fill:url(#SVGID_00000001640448462645200170000007322969073712633499_);}
</style>
<g>
	
		<linearGradient id="SVGID_1_" gradientUnits="userSpaceOnUse" x1="2539.3367" y1="3490.7986" x2="2556.1196" y2="3490.7986" gradientTransform="matrix(6.123234e-17 1 -1 6.123234e-17 3502.3308 -2539.0596)">
		<stop  offset="1.010379e-06" style="stop-color:#7695F6"/>
		<stop  offset="0.3352" style="stop-color:#7698F4"/>
		<stop  offset="0.6223" style="stop-color:#76A3ED"/>
		<stop  offset="0.8909" style="stop-color:#75B5E2"/>
		<stop  offset="1" style="stop-color:#75BEDC"/>
	</linearGradient>
	<path class="st0" d="M1.1,14.2V3.1C1.1,2,2,1,3.2,1h16.7C21.1,1,22,2,22,3.1v11.1c0,1.2-0.9,2.1-2.1,2.1H3.2
		C2,16.3,1.1,15.4,1.1,14.2z"/>
	
		<linearGradient id="SVGID_00000055681493392819643530000008982330414564754857_" gradientUnits="userSpaceOnUse" x1="11.5325" y1="17.6212" x2="11.5325" y2="22.9209">
		<stop  offset="1.010379e-06" style="stop-color:#7695F6"/>
		<stop  offset="0.3352" style="stop-color:#7698F4"/>
		<stop  offset="0.6223" style="stop-color:#76A3ED"/>
		<stop  offset="0.8909" style="stop-color:#75B5E2"/>
		<stop  offset="1" style="stop-color:#75BEDC"/>
	</linearGradient>
	
		<path style="fill:none;stroke:url(#SVGID_00000055681493392819643530000008982330414564754857_);stroke-width:1.5;stroke-miterlimit:10;" d="
		M3.1,22.2c-1.9,0-2.4-2.6-0.7-3.6c0.2-0.1,0.5-0.2,0.8-0.2h16.7c0.3,0,0.5,0.1,0.8,0.2c1.6,1,1.2,3.5-0.7,3.6c0,0,0,0,0,0L3.1,22.2
		C3.2,22.2,3.1,22.2,3.1,22.2z"/>
	
		<linearGradient id="SVGID_00000106861030952554012930000007879425803819110829_" gradientUnits="userSpaceOnUse" x1="11.0907" y1="2.8536" x2="11.9737" y2="2.8536">
		<stop  offset="1.010379e-06" style="stop-color:#7695F6"/>
		<stop  offset="0.3352" style="stop-color:#7698F4"/>
		<stop  offset="0.6223" style="stop-color:#76A3ED"/>
		<stop  offset="0.8909" style="stop-color:#75B5E2"/>
		<stop  offset="1" style="stop-color:#75BEDC"/>
	</linearGradient>
	<path style="fill:url(#SVGID_00000106861030952554012930000007879425803819110829_);" d="M11.5,2.4c0.2,0,0.4,0.2,0.4,0.4
		s-0.2,0.4-0.4,0.4s-0.4-0.2-0.4-0.4C11.1,2.6,11.3,2.4,11.5,2.4"/>
</g>
</svg>
