<svg xmlns="http://www.w3.org/2000/svg" width="43.25" height="43.25" viewBox="0 0 43.25 43.25"><title>ico_help</title><g id="edc75474-4409-4236-b377-45553e04c787" data-name="Layer 2"><g id="9ce525d2-a411-495d-a762-fb3317d4f558" data-name="Layer 1"><path d="M28.26,0H15A15,15,0,0,0,0,15V28.26a15,15,0,0,0,15,15H28.26a15,15,0,0,0,15-15V15a15,15,0,0,0-15-15" style="fill:#ffecec"/><path d="M30.88,16.14a10.82,10.82,0,0,1,0,11.74.75.75,0,0,0,1.26.81,12.32,12.32,0,0,0,0-13.37.75.75,0,0,0-1.26.81Z" style="fill:#fe696e"/><path d="M25.82,18a5.7,5.7,0,1,1-4-1.67,5.68,5.68,0,0,1,4,1.67.75.75,0,1,0,1.06-1.06A7.2,7.2,0,1,0,29,22a7.18,7.18,0,0,0-2.11-5.09A.75.75,0,1,0,25.82,18Z" style="fill:#fe696e"/><path d="M25.35,16.76l3.32-4a.54.54,0,0,1,.8,0l1.64,1.64a.53.53,0,0,1,.16.38.54.54,0,0,1-.2.42l-4,3.32a.75.75,0,0,0,1,1.16l4-3.32a2,2,0,0,0,.15-3l-1.64-1.64a2,2,0,0,0-3,.15l-3.32,4a.75.75,0,0,0,1.16,1Z" style="fill:#fe696e"/><path d="M18.22,27.25l-3.32,4a.54.54,0,0,1-.8,0l-1.64-1.64a.54.54,0,0,1,0-.8l4-3.32a.75.75,0,0,0-1-1.16l-4,3.32a2,2,0,0,0-.15,3L13,32.39a2,2,0,0,0,3-.15l3.32-4a.75.75,0,1,0-1.16-1Z" style="fill:#fe696e"/><path d="M16.54,18.44l-4-3.32a.54.54,0,0,1,0-.8l1.64-1.64a.54.54,0,0,1,.8,0l3.32,4a.75.75,0,0,0,1.16-1l-3.32-4a2,2,0,0,0-3-.15L11.4,13.26a2,2,0,0,0,.15,3l4,3.32a.75.75,0,0,0,1-1.16Z" style="fill:#fe696e"/><path d="M27,25.57l4,3.32a.54.54,0,0,1,0,.8h0l-1.64,1.64a.54.54,0,0,1-.8,0l-3.32-4a.75.75,0,1,0-1.16,1l3.32,4a2,2,0,0,0,3,.15l1.64-1.64h0a2,2,0,0,0-.15-3l-4-3.32a.75.75,0,1,0-1,1.16Z" style="fill:#fe696e"/><path d="M27.66,31.1a10.82,10.82,0,0,1-11.74,0,.75.75,0,0,0-.81,1.26,12.32,12.32,0,0,0,13.37,0,.75.75,0,1,0-.81-1.26Z" style="fill:#fe696e"/><path d="M11.43,15.32a12.32,12.32,0,0,0,0,13.37.75.75,0,1,0,1.26-.81,10.82,10.82,0,0,1,0-11.74.75.75,0,1,0-1.26-.81Z" style="fill:#fe696e"/><path d="M28.47,11.65a12.32,12.32,0,0,0-13.37,0,.75.75,0,1,0,.81,1.26,10.82,10.82,0,0,1,11.74,0,.75.75,0,0,0,.81-1.26Z" style="fill:#fe696e"/></g></g></svg>