<svg xmlns="http://www.w3.org/2000/svg" width="12.4" height="15.63" viewBox="0 0 12.4 15.63"><title>ico_calculator</title><g id="aec31963-f81a-479b-b7b8-ed8ca0f45bd5" data-name="Layer 2"><g id="14c5960f-c17f-4008-a38c-1f0e66ca5211" data-name="Layer 1"><path d="M10.29,15.08H2.11A1.56,1.56,0,0,1,.55,13.52V2.11A1.56,1.56,0,0,1,2.11.55h8.18a1.56,1.56,0,0,1,1.56,1.56V13.52A1.56,1.56,0,0,1,10.29,15.08Z" style="fill:none;stroke:#323232;stroke-linecap:round;stroke-linejoin:round;stroke-width:1.10000002384186px"/><path d="M11.85,4.59H.55" style="fill:none;stroke:#323232;stroke-linecap:round;stroke-linejoin:round;stroke-width:1.10000002384186px"/><path d="M3.78,10.2a0,0,0,0,1,0,.08,0,0,0,0,1,0-.08,0,0,0,0,1,0,0" style="fill:none;stroke:#323232;stroke-linecap:round;stroke-linejoin:round;stroke-width:1.10000002384186px"/><path d="M6.2,10.2a0,0,0,0,1,0,.08,0,0,0,0,1,0-.08,0,0,0,0,1,0,0" style="fill:none;stroke:#323232;stroke-linecap:round;stroke-linejoin:round;stroke-width:1.10000002384186px"/><path d="M8.63,10.2a0,0,0,0,1,0,.08,0,0,0,0,1,0-.08,0,0,0,0,1,0,0" style="fill:none;stroke:#323232;stroke-linecap:round;stroke-linejoin:round;stroke-width:1.10000002384186px"/><path d="M3.78,7.77a0,0,0,0,1,0,.08,0,0,0,0,1,0-.08,0,0,0,0,1,0,0" style="fill:none;stroke:#323232;stroke-linecap:round;stroke-linejoin:round;stroke-width:1.10000002384186px"/><path d="M6.2,7.78a0,0,0,0,1,0,.08,0,0,0,0,1,0-.08,0,0,0,0,1,0,0" style="fill:none;stroke:#323232;stroke-linecap:round;stroke-linejoin:round;stroke-width:1.10000002384186px"/><path d="M8.63,7.77a0,0,0,0,1,0,.08,0,0,0,0,1,0-.08,0,0,0,0,1,0,0" style="fill:none;stroke:#323232;stroke-linecap:round;stroke-linejoin:round;stroke-width:1.10000002384186px"/><path d="M3.78,12.62a0,0,0,1,1,0,.08,0,0,0,0,1,0-.08,0,0,0,0,1,0,0" style="fill:none;stroke:#323232;stroke-linecap:round;stroke-linejoin:round;stroke-width:1.10000002384186px"/><path d="M6.2,12.62a0,0,0,1,1,0,.08,0,0,0,0,1,0-.08,0,0,0,0,1,0,0" style="fill:none;stroke:#323232;stroke-linecap:round;stroke-linejoin:round;stroke-width:1.10000002384186px"/><path d="M8.63,12.62a0,0,0,1,1,0,.08,0,0,0,0,1,0-.08,0,0,0,0,1,0,0" style="fill:none;stroke:#323232;stroke-linecap:round;stroke-linejoin:round;stroke-width:1.10000002384186px"/><path d="M3,2.57H5.39" style="fill:none;stroke:#323232;stroke-linecap:round;stroke-linejoin:round;stroke-width:1.10000002384186px"/></g></g></svg>