<svg xmlns="http://www.w3.org/2000/svg" width="15.7" height="15.7" viewBox="0 0 15.7 15.7"><title>ico_top_search</title><g id="42b8c2a4-77ef-4dd5-8546-a1f0191ece8d" data-name="Layer 2"><g id="4d1e1c04-675e-461a-83c9-ee86b086654d" data-name="Layer 1"><path d="M15.35,13.65l-3.24-3.24a6.46,6.46,0,0,0,1.17-3.77,6.52,6.52,0,0,0-.52-2.58A6.51,6.51,0,0,0,9.22.52a6.62,6.62,0,0,0-5.16,0A6.51,6.51,0,0,0,.52,4.06a6.62,6.62,0,0,0,0,5.16,6.51,6.51,0,0,0,3.54,3.54,6.53,6.53,0,0,0,2.58.52,6.46,6.46,0,0,0,3.77-1.17l3.24,3.23a1.12,1.12,0,0,0,.85.36,1.21,1.21,0,0,0,.86-2.06Zm-5.72-4a4.07,4.07,0,0,1-3,1.24,4.07,4.07,0,0,1-3-1.24,4.07,4.07,0,0,1-1.24-3,4.07,4.07,0,0,1,1.24-3,4.07,4.07,0,0,1,3-1.24,4.07,4.07,0,0,1,3,1.24,4.07,4.07,0,0,1,1.24,3,4.07,4.07,0,0,1-1.24,3Zm0,0" style="fill:#6596ef"/></g></g></svg>