<svg xmlns="http://www.w3.org/2000/svg" width="18.1" height="11" viewBox="0 0 18.1 11"><title>ico_password_changer</title><g id="96e983d3-55b1-49e0-a43e-edf85e24fcf3" data-name="Layer 2"><g id="9bee6635-cc1d-4d4c-a5d5-e3c25ab8877c" data-name="Layer 1"><path d="M6.87,5.83a.17.17,0,1,1-.24,0h0a.17.17,0,0,1,.24,0" style="fill:none;stroke:#323232;stroke-linecap:round;stroke-linejoin:round;stroke-width:1.10000002384186px"/><path d="M7.65,10.45H2.35a1.8,1.8,0,0,1-1.8-1.8h0V3.25a1.8,1.8,0,0,1,1.8-1.8h5.3" style="fill:none;stroke:#323232;stroke-linecap:round;stroke-linejoin:round;stroke-width:1.10000002384186px"/><path d="M4.27,5.83a.17.17,0,1,1-.24,0H4a.17.17,0,0,1,.24,0" style="fill:none;stroke:#323232;stroke-linecap:round;stroke-linejoin:round;stroke-width:1.10000002384186px"/><rect x="10.35" y="4.6" width="7.2" height="5.85" rx="1.48" ry="1.48" style="fill:none;stroke:#323232;stroke-linecap:round;stroke-linejoin:round;stroke-width:1.10000002384186px"/><path d="M11.73,4.6V2.77A2.22,2.22,0,0,1,14,.55h0a2.22,2.22,0,0,1,2.22,2.22h0V4.62" style="fill:none;stroke:#323232;stroke-linecap:round;stroke-linejoin:round;stroke-width:1.10000002384186px"/></g></g></svg>