<svg xmlns="http://www.w3.org/2000/svg" width="10.4" height="10.4" viewBox="0 0 10.4 10.4"><title>ico_edit_order</title><g id="3ac6a968-3bbb-4100-95cf-c36a5765d42e" data-name="Layer 2"><g id="2c469e30-fb40-4be8-96c7-c7f3c99f05fd" data-name="Layer 1"><path d="M10,5.2A4.75,4.75,0,0,1,5.2,9.95H5.07A4.8,4.8,0,0,1,.45,5.33,4.75,4.75,0,0,1,5.07.45H5.2" style="fill:none;stroke:#323232;stroke-linecap:round;stroke-linejoin:round;stroke-width:0.899999976158142px"/><path d="M7,1.78a1.12,1.12,0,0,1,1.58,0h0a1.12,1.12,0,0,1,0,1.58h0L5.7,6.29a1.06,1.06,0,0,1-.62.3L4,6.73a.26.26,0,0,1-.29-.3l.16-1.15a1.06,1.06,0,0,1,.3-.6Z" style="fill:none;stroke:#323232;stroke-linecap:round;stroke-linejoin:round;stroke-width:0.899999976158142px"/></g></g></svg>