<svg xmlns="http://www.w3.org/2000/svg" width="15.48" height="11.49" viewBox="0 0 15.48 11.49"><title>ico_invoices</title><g id="f3e982cd-806b-43d5-982a-a19ce9980645" data-name="Layer 2"><g id="c27dab24-c8d9-4b56-a5e8-422a851555ea" data-name="Layer 1"><path d="M13.34,10.94h0a1.6,1.6,0,0,0,1.6-1.6V4.55a.8.8,0,0,0-.8-.8h-2.4V9.34A1.6,1.6,0,0,0,13.34,10.94Z" style="fill:none;stroke:#323232;stroke-linecap:round;stroke-linejoin:round;stroke-width:1.10000002384186px"/><path d="M3.75,4.15H8.54" style="fill:none;stroke:#323232;stroke-linecap:round;stroke-linejoin:round;stroke-width:1.10000002384186px"/><path d="M3.75,7.28H8.54" style="fill:none;stroke:#323232;stroke-linecap:round;stroke-linejoin:round;stroke-width:1.10000002384186px"/><path d="M11.74,3.75V1.35a.8.8,0,0,0-.8-.8H1.35a.8.8,0,0,0-.8.8v8a1.6,1.6,0,0,0,1.6,1.6H13.34" style="fill:none;stroke:#323232;stroke-linecap:round;stroke-linejoin:round;stroke-width:1.10000002384186px"/></g></g></svg>