<svg xmlns="http://www.w3.org/2000/svg" width="15.4" height="11.68" viewBox="0 0 15.4 11.68"><title>ico_transactions</title><g id="d5c47750-4ade-47dc-977f-7d367f5ea6ba" data-name="Layer 2"><g id="dcf305f2-a794-427a-9367-b83e8064e546" data-name="Layer 1"><path d="M14.23,4V2.11A1.56,1.56,0,0,0,12.66.55h-10A1.56,1.56,0,0,0,1.13,2.11V4.3" style="fill:none;stroke:#323232;stroke-linecap:round;stroke-linejoin:round;stroke-width:1.10000002384186px"/><path d="M14.23,7.11V9a1.56,1.56,0,0,1-1.56,1.56h-4" style="fill:none;stroke:#323232;stroke-linecap:round;stroke-linejoin:round;stroke-width:1.10000002384186px"/><path d="M10.66,4h3.56a.63.63,0,0,1,.63.63V6.49a.63.63,0,0,1-.63.63H10.66A1.56,1.56,0,0,1,9.1,5.55h0A1.56,1.56,0,0,1,10.66,4Z" style="fill:none;stroke:#323232;stroke-linecap:round;stroke-linejoin:round;stroke-width:1.10000002384186px"/><line x1="6.75" y1="8.05" x2="0.5" y2="8.05" style="fill:none;stroke:#323232;stroke-linecap:round;stroke-linejoin:round;stroke-width:0.75px"/><path d="M6.14,6.18h-5a.61.61,0,0,0-.61.61v3.77a.61.61,0,0,0,.61.61h5a.61.61,0,0,0,.61-.61V6.79A.61.61,0,0,0,6.14,6.18Z" style="fill:none;stroke:#323232;stroke-linecap:round;stroke-linejoin:round"/></g></g></svg>