<svg xmlns="http://www.w3.org/2000/svg" xmlns:xlink="http://www.w3.org/1999/xlink" width="15.5" height="18.5" viewBox="0 0 15.5 18.5"><defs><style>.\30 547aeb7-c9db-47d1-9028-9aeeaaf14bb0,.\30 ac47da7-957f-4663-8095-27f7a7178c2d,.\31 bd88415-72e6-40e8-bc91-6bfb8d5c4308,.\31 c95c5ad-9314-47ac-aeee-56a2b8089e40,.\35 824a0ba-30ca-4916-b6c7-28d58198163d,.\39 ce222c1-ceaf-4d95-aa9d-2048db22a3c0,.b0325ff2-3b42-4163-b1e0-f9b43c49b998,.cfab175a-dc45-4348-ae1b-16c1659228d0{fill:none;stroke-miterlimit:10;stroke-width:1.5px;}.\31 c95c5ad-9314-47ac-aeee-56a2b8089e40{stroke:url(#f89cf1ef-e8d5-4b68-868e-b2629cc29506);}.cfab175a-dc45-4348-ae1b-16c1659228d0{stroke:url(#a8a19737-74aa-42c9-9e56-9d610b54ba5f);}.\39 ce222c1-ceaf-4d95-aa9d-2048db22a3c0{stroke:url(#2aa0b306-0d9f-483b-907b-fb17026af868);}.\35 824a0ba-30ca-4916-b6c7-28d58198163d{stroke:url(#7ac4b1f1-8a11-4b8b-82e6-3ec23916c8a2);}.\31 bd88415-72e6-40e8-bc91-6bfb8d5c4308{stroke:url(#580d5269-7852-475a-a662-22e74d10138e);}.b0325ff2-3b42-4163-b1e0-f9b43c49b998{stroke:url(#aa5f45a0-2d2c-4c76-94bd-38ae7e9b7249);}.\30 547aeb7-c9db-47d1-9028-9aeeaaf14bb0{stroke:url(#a96c964d-8fba-4b58-8d6c-f5cc57a1e995);}.\30 ac47da7-957f-4663-8095-27f7a7178c2d{stroke:url(#fcffe524-8d17-4284-afaa-112ca9158fc2);}</style><linearGradient id="f89cf1ef-e8d5-4b68-868e-b2629cc29506" y1="9.25" x2="15.5" y2="9.25" gradientUnits="userSpaceOnUse"><stop offset="0" stop-color="#7695f6"/><stop offset="0.34" stop-color="#7698f4"/><stop offset="0.62" stop-color="#76a3ed"/><stop offset="0.89" stop-color="#75b5e2"/><stop offset="1" stop-color="#75bedc"/></linearGradient><linearGradient id="a8a19737-74aa-42c9-9e56-9d610b54ba5f" x1="9" y1="3.63" x2="14.75" y2="3.63" xlink:href="#f89cf1ef-e8d5-4b68-868e-b2629cc29506"/><linearGradient id="2aa0b306-0d9f-483b-907b-fb17026af868" x1="7" y1="7.87" x2="11.75" y2="7.87" xlink:href="#f89cf1ef-e8d5-4b68-868e-b2629cc29506"/><linearGradient id="7ac4b1f1-8a11-4b8b-82e6-3ec23916c8a2" x1="7" y1="10.75" x2="11.75" y2="10.75" xlink:href="#f89cf1ef-e8d5-4b68-868e-b2629cc29506"/><linearGradient id="580d5269-7852-475a-a662-22e74d10138e" x1="7" y1="13.63" x2="11.75" y2="13.63" xlink:href="#f89cf1ef-e8d5-4b68-868e-b2629cc29506"/><linearGradient id="aa5f45a0-2d2c-4c76-94bd-38ae7e9b7249" x1="3" y1="7.88" x2="4.75" y2="7.88" xlink:href="#f89cf1ef-e8d5-4b68-868e-b2629cc29506"/><linearGradient id="a96c964d-8fba-4b58-8d6c-f5cc57a1e995" x1="3" y1="10.75" x2="4.75" y2="10.75" xlink:href="#f89cf1ef-e8d5-4b68-868e-b2629cc29506"/><linearGradient id="fcffe524-8d17-4284-afaa-112ca9158fc2" x1="3" y1="13.63" x2="4.75" y2="13.63" xlink:href="#f89cf1ef-e8d5-4b68-868e-b2629cc29506"/></defs><title>cloud_overview_log</title><g id="6a0ec529-2d7d-437a-bd37-077c1898d72b" data-name="Layer 2"><g id="1945db97-efca-4e7b-8aef-41609334d256" data-name="Layer 1"><path class="1c95c5ad-9314-47ac-aeee-56a2b8089e40" d="M14.16,4.16,11.34,1.34A2,2,0,0,0,9.92.75H2.75a2,2,0,0,0-2,2v13a2,2,0,0,0,2,2h10a2,2,0,0,0,2-2V5.58A2,2,0,0,0,14.16,4.16Z"/><path class="cfab175a-dc45-4348-ae1b-16c1659228d0" d="M14.75,5.75h-4a1,1,0,0,1-1-1v-4"/><line class="9ce222c1-ceaf-4d95-aa9d-2048db22a3c0" x1="11.75" y1="7.87" x2="7" y2="7.87"/><line class="5824a0ba-30ca-4916-b6c7-28d58198163d" x1="11.75" y1="10.75" x2="7" y2="10.75"/><line class="1bd88415-72e6-40e8-bc91-6bfb8d5c4308" x1="11.75" y1="13.63" x2="7" y2="13.63"/><path class="b0325ff2-3b42-4163-b1e0-f9b43c49b998" d="M3.88,7.75A.13.13,0,1,0,4,7.88a.13.13,0,0,0-.12-.12"/><path class="0547aeb7-c9db-47d1-9028-9aeeaaf14bb0" d="M3.88,10.63a.13.13,0,1,0,.13.13.13.13,0,0,0-.12-.12"/><path class="0ac47da7-957f-4663-8095-27f7a7178c2d" d="M3.88,13.5a.13.13,0,1,0,.13.13.13.13,0,0,0-.12-.12"/></g></g></svg>