<svg xmlns="http://www.w3.org/2000/svg" width="19.4" height="19.4" viewBox="0 0 19.4 19.4"><defs><style>.d93f74e0-f8ed-456a-b90a-71f535b78ac1{fill:none;}.cfc7cc0e-c729-4dcf-9aeb-75b0edd41a41{fill:#fff;}</style></defs><title>cloud_overview_repair</title><g id="0811b6f9-4081-4f73-b620-97320618ebb9" data-name="Layer 2"><g id="91d262f6-45bc-4a27-bd00-b5cac089d28a" data-name="Layer 1"><path class="d93f74e0-f8ed-456a-b90a-71f535b78ac1" d="M12.7,9.66A.7.7,0,0,1,12,9a2.3,2.3,0,0,0-4.48-.74A.7.7,0,0,1,7,8.69a1.79,1.79,0,0,0,.24,3.57h5.5a1.3,1.3,0,0,0,0-2.6Z"/><path class="cfc7cc0e-c729-4dcf-9aeb-75b0edd41a41" d="M1.4,9.7A8.28,8.28,0,0,1,15.5,3.79h-.61a.7.7,0,0,0,0,1.4h2.39a.7.7,0,0,0,.7-.7V2.11a.7.7,0,1,0-1.4,0h0v.78A9.67,9.67,0,0,0,.16,11.4a.7.7,0,0,0,1.38-.25A8.25,8.25,0,0,1,1.4,9.7Z"/><path class="cfc7cc0e-c729-4dcf-9aeb-75b0edd41a41" d="M19.24,8a.7.7,0,1,0-1.38.25,8.28,8.28,0,0,1-14,7.36h.61a.7.7,0,1,0,0-1.4H2.12a.7.7,0,0,0-.7.7v2.39a.7.7,0,0,0,1.4,0h0v-.79A9.67,9.67,0,0,0,19.24,8Z"/><path class="cfc7cc0e-c729-4dcf-9aeb-75b0edd41a41" d="M13.34,8.35a3.68,3.68,0,0,0-7-1,3.19,3.19,0,0,0,.84,6.27h5.5a2.7,2.7,0,0,0,.64-5.32Zm-.64,3.92H7.2A1.79,1.79,0,0,1,7,8.69a.7.7,0,0,0,.57-.47A2.3,2.3,0,0,1,12,9a.7.7,0,0,0,.7.7,1.3,1.3,0,0,1,0,2.6Z"/></g></g></svg>