<svg xmlns="http://www.w3.org/2000/svg" width="18.3" height="18.3" viewBox="0 0 18.3 18.3"><defs><style>.cb0ef624-06a0-47b4-8e24-c7c537f1523c{fill:none;}.d23d9c24-244f-42cd-b003-4bf1c53281a5{fill:#fff;}</style></defs><title>cloud_overview_rescue</title><g id="b18e4884-361f-4f4b-b881-7ed33caa1bfb" data-name="Layer 2"><g id="f59e6177-6ccd-454a-84ad-2c5fb566e0d0" data-name="Layer 1"><path class="cb0ef624-06a0-47b4-8e24-c7c537f1523c" d="M12.3,4.8a5.34,5.34,0,0,1,.65.53h0A5.32,5.32,0,0,1,13.5,6L15.9,4,16,3.79l-.09-.21-1.2-1.2-.21-.09-.23.11Z"/><path class="cb0ef624-06a0-47b4-8e24-c7c537f1523c" d="M7.14,4.15a5.37,5.37,0,0,1,4,0l1.6-1.95a7.69,7.69,0,0,0-7.22,0Z"/><path class="cb0ef624-06a0-47b4-8e24-c7c537f1523c" d="M3.76,9.15a5.39,5.39,0,0,1,.39-2L2.2,5.54a7.69,7.69,0,0,0,0,7.22l1.95-1.6A5.39,5.39,0,0,1,3.76,9.15Z"/><path class="cb0ef624-06a0-47b4-8e24-c7c537f1523c" d="M12,6.26h0a4.09,4.09,0,1,0,1.2,2.89A4.07,4.07,0,0,0,12,6.26Z"/><path class="cb0ef624-06a0-47b4-8e24-c7c537f1523c" d="M16.1,5.54l-1.95,1.6a5.37,5.37,0,0,1,0,4l1.95,1.6a7.68,7.68,0,0,0,0-7.22Z"/><path class="cb0ef624-06a0-47b4-8e24-c7c537f1523c" d="M13.5,12.3A5.36,5.36,0,0,1,13,13a5.36,5.36,0,0,1-.66.54l2,2.41.23.11.21-.09,1.2-1.2.09-.21-.11-.23Z"/><path class="cb0ef624-06a0-47b4-8e24-c7c537f1523c" d="M4.8,6a5.35,5.35,0,0,1,.54-.66A5.36,5.36,0,0,1,6,4.8L4,2.39l-.23-.11-.21.09-1.2,1.2h0l-.08.21L2.4,4Z"/><path class="cb0ef624-06a0-47b4-8e24-c7c537f1523c" d="M11.16,14.15a5.37,5.37,0,0,1-4,0L5.54,16.1a7.69,7.69,0,0,0,7.22,0Z"/><path class="cb0ef624-06a0-47b4-8e24-c7c537f1523c" d="M6,13.5A5.35,5.35,0,0,1,5.34,13a5.37,5.37,0,0,1-.54-.66l-2.41,2h0l-.11.23.09.21,1.2,1.2.21.09L4,15.9Z"/><path class="d23d9c24-244f-42cd-b003-4bf1c53281a5" d="M18.3,9.15a9.13,9.13,0,0,0-1.23-4.54,1.57,1.57,0,0,0-.23-2l-1.2-1.2a1.57,1.57,0,0,0-2-.23,9,9,0,0,0-9.07,0,1.57,1.57,0,0,0-2,.23l-1.2,1.2h0a1.57,1.57,0,0,0-.23,2,9,9,0,0,0,0,9.07,1.57,1.57,0,0,0,.23,2l1.2,1.2h0a1.57,1.57,0,0,0,2,.22,9,9,0,0,0,9.07,0,1.57,1.57,0,0,0,2-.22l1.2-1.2h0a1.57,1.57,0,0,0,.22-2A9.14,9.14,0,0,0,18.3,9.15Zm-4.15,2a5.37,5.37,0,0,0,0-4l1.95-1.6a7.68,7.68,0,0,1,0,7.22Zm-5,2.08a4.09,4.09,0,1,1,2.89-7h0a4.09,4.09,0,0,1-2.89,7ZM2.2,12.76a7.69,7.69,0,0,1,0-7.22l1.95,1.6a5.38,5.38,0,0,0,0,4ZM14.72,2.37l1.2,1.2.09.21L15.9,4,13.5,6A5.32,5.32,0,0,0,13,5.34h0a5.34,5.34,0,0,0-.65-.53l2-2.41.23-.11Zm-2-.17-1.6,1.95a5.37,5.37,0,0,0-4,0L5.54,2.2a7.69,7.69,0,0,1,7.22,0ZM2.37,3.58h0l1.2-1.2.21-.09L4,2.39,6,4.8a5.36,5.36,0,0,0-.66.54A5.35,5.35,0,0,0,4.8,6L2.4,4l-.11-.23Zm1.2,12.34-1.2-1.2-.09-.21.11-.23h0l2.41-2a5.37,5.37,0,0,0,.54.66A5.35,5.35,0,0,0,6,13.5L4,15.9,3.79,16Zm2,.17,1.6-1.95a5.37,5.37,0,0,0,4,0l1.6,1.95a7.69,7.69,0,0,1-7.22,0Zm10.38-1.37-1.2,1.2-.21.09-.23-.11-2-2.41A5.36,5.36,0,0,0,13,13a5.36,5.36,0,0,0,.54-.66l2.41,2,.11.23Z"/></g></g></svg>