<?xml version="1.0" encoding="utf-8"?>
<!-- Generator: Adobe Illustrator 21.0.0, SVG Export Plug-In . SVG Version: 6.00 Build 0)  -->
<svg version="1.1" id="Layer_1" xmlns="http://www.w3.org/2000/svg" xmlns:xlink="http://www.w3.org/1999/xlink" x="0px" y="0px"
     viewBox="0 0 12.3 12.3" style="enable-background:new 0 0 12.3 12.3;" xml:space="preserve">
<style type="text/css">
    .st0{fill:#FFFFFF;}
</style>
<title>cloud_overview_rename</title>
<g id="_x35_ac9b5ed-74e1-41c2-8b24-7fc98f445cf9">
    <g id="_x37_b51ad4c-8a6f-4d41-9383-5d7483e9c979">
        <g>
            <path class="st0" d="M11.6,4.9c-0.4,0-0.6,0.3-0.6,0.7l0,0v4.9c0,0.3-0.3,0.6-0.6,0.6H1.9c-0.3,0-0.6-0.3-0.6-0.6V1.9
                c0-0.3,0.3-0.6,0.6-0.6h4.3c0.4,0,0.7-0.3,0.7-0.6S6.5,0,6.2,0H1.9C0.8,0,0,0.8,0,1.9v8.6c0,1,0.8,1.9,1.9,1.9h8.6
                c1,0,1.9-0.8,1.9-1.9V5.5C12.3,5.2,12,4.9,11.6,4.9L11.6,4.9z"/>
            <path class="st0" d="M4.1,5.9l-0.3,2c0,0.3,0.2,0.6,0.5,0.6c0,0,0.1,0,0.1,0l1.9-0.2C6.6,8.3,6.8,8.2,7,8l4.6-4.7
                c0.7-0.7,0.7-1.9,0-2.6S9.7-0.1,9,0.6L4.4,5.3C4.2,5.4,4.1,5.7,4.1,5.9z M5.2,6l4.6-4.6c0.3-0.3,0.8-0.3,1.1,0s0.3,0.8,0,1.1
                L6.2,7.2l0,0L5,7.3L5.2,6L5.2,6z"/>
        </g>
    </g>
</g>
</svg>
