<svg xmlns="http://www.w3.org/2000/svg" width="27" height="27" viewBox="0 0 27 27"><defs><style>.cls-1{fill:#e1f0ff;}.cls-2{fill:none;stroke:#036691;stroke-linecap:round;stroke-linejoin:round;}</style></defs><title>ico_copy</title><g id="Layer_2" data-name="Layer 2"><g id="Layer_1-2" data-name="Layer 1"><circle class="cls-1" cx="13.5" cy="13.5" r="13.5"/><path class="cls-2" d="M15.75,18.93V13.28h0a1.06,1.06,0,0,0-.31-.75L13.94,11h0a1.06,1.06,0,0,0-.75-.31H9.53a1.06,1.06,0,0,0-1.06,1.06h0v7.15h0A1.06,1.06,0,0,0,9.53,20h5.16a1.06,1.06,0,0,0,1.06-1.06Z"/><path class="cls-2" d="M15.75,17.34H18a1.06,1.06,0,0,0,1.06-1.06h0V9.4h0a1.32,1.32,0,0,0-1.32-1.32h-4.9a1.06,1.06,0,0,0-1.06,1.06v1.59"/><path class="cls-2" d="M15.75,13.37H13.63a.53.53,0,0,1-.53-.53h0V10.72"/></g></g></svg>