<svg xmlns="http://www.w3.org/2000/svg" xmlns:xlink="http://www.w3.org/1999/xlink" width="102.66" height="22.69" viewBox="0 0 102.66 22.69"><defs><style>.cls-1{opacity:0.83;fill:url(#linear-gradient);}.cls-2{fill:#fff;}.cls-3{fill:none;stroke:#fff;stroke-miterlimit:10;stroke-width:1.4px;}</style><linearGradient id="linear-gradient" y1="11.34" x2="102.66" y2="11.34" gradientTransform="translate(102.66 22.69) rotate(180)" gradientUnits="userSpaceOnUse"><stop offset="0" stop-color="#e50058"/><stop offset="0.6" stop-color="#ed4152"/><stop offset="1" stop-color="#f2684e"/></linearGradient></defs><title>Asset 168</title><g id="Layer_2" data-name="Layer 2"><g id="Layer_1-2" data-name="Layer 1"><rect class="cls-1" width="102.66" height="22.69" rx="11.34" ry="11.34" transform="translate(102.66 22.69) rotate(-180)"/><path class="cls-2" d="M28.53,13.44h-.19a1.77,1.77,0,0,1-.76-.16,3.2,3.2,0,0,1-.17,1.08,2.16,2.16,0,0,1-.49.8,2.1,2.1,0,0,1-.79.5,3.15,3.15,0,0,1-1.08.17h-.59V15H25a2.5,2.5,0,0,0,.77-.11,1.29,1.29,0,0,0,.54-.33,1.33,1.33,0,0,0,.31-.56,2.86,2.86,0,0,0,.1-.81V10.53h.81V12a.62.62,0,0,0,.1.38.64.64,0,0,0,.23.2.82.82,0,0,0,.26.08h.36Z"/><path class="cls-2" d="M33.06,12.63v.81h-.75a2,2,0,0,1-.69-.11,1.09,1.09,0,0,1-.48-.34,1.8,1.8,0,0,1-1.33.45H28.35v-.81h1.46a1.56,1.56,0,0,0,.49-.06.71.71,0,0,0,.27-.16.43.43,0,0,0,.12-.21.9.9,0,0,0,0-.22V10.53h.81V12a.67.67,0,0,0,0,.27.63.63,0,0,0,.12.19.55.55,0,0,0,.17.12l.18.06.15,0h.86Zm-2.84,2.49-.7.7-.67-.7.68-.69Zm1.65,0-.7.7-.67-.7.68-.69Z"/><path class="cls-2" d="M37.58,12.63v.81h-.75a2,2,0,0,1-.69-.11,1.09,1.09,0,0,1-.48-.34,1.8,1.8,0,0,1-1.33.45H32.86v-.81h1.46a1.56,1.56,0,0,0,.49-.06.71.71,0,0,0,.27-.16.43.43,0,0,0,.12-.21.9.9,0,0,0,0-.22V10.53H36V12a.67.67,0,0,0,0,.27.63.63,0,0,0,.12.19.55.55,0,0,0,.17.12l.18.06.15,0h.86Zm-2.84,2.49-.7.7-.67-.7.68-.69Zm1.65,0-.7.7-.67-.7.68-.69Z"/><path class="cls-2" d="M41.38,13.44l-.17,0L41,13.35l-.3-.16-.39-.27a4,4,0,0,1-1.17.4,8,8,0,0,1-1.49.13h-.25v-.81h.25a7.82,7.82,0,0,0,1.11-.07,3.78,3.78,0,0,0,.83-.2L39.14,12l-.41-.38-.32-.31-.18-.18v-.17q0-.08,0-.18a1.27,1.27,0,0,1,0-.2,1,1,0,0,1,.08-.21,1,1,0,0,1,.14-.2,1.33,1.33,0,0,1,1-.37H41a1.22,1.22,0,0,1,.65.17,1,1,0,0,1,.42.48.85.85,0,0,1,.1.39,1.06,1.06,0,0,1-.07.37,1.57,1.57,0,0,1-.19.35,3.35,3.35,0,0,1-.27.33l-.3.3-.28.27.16.11.11.06.07,0H43v.81ZM39,10.76l.24.23.34.31.37.34.34.29q.23-.19.45-.39a5,5,0,0,0,.43-.48.61.61,0,0,0,.08-.14.16.16,0,0,0,0-.06.23.23,0,0,0,0-.1.37.37,0,0,0-.11-.12.36.36,0,0,0-.22-.06H39.32l-.13,0-.07,0,0,0,0,0ZM39.56,8l.73-.74L41,8l-.74.74Z"/><path class="cls-2" d="M45.13,9.94l0,.14.06.28.07.37q0,.2.07.4t.05.39a3,3,0,0,1,0,.33,1.72,1.72,0,0,1-.14.71,1.47,1.47,0,0,1-.35.5,1.43,1.43,0,0,1-.49.29,1.65,1.65,0,0,1-.55.09H42.13v-.81h1.78l.18,0a.61.61,0,0,0,.24-.1.66.66,0,0,0,.21-.23.88.88,0,0,0,.09-.43c0-.06,0-.14,0-.24s0-.2,0-.31,0-.22-.05-.34l-.06-.33-.06-.28,0-.18ZM43.4,9l-.68-.69.67-.7.7.7Zm1.65,0-.68-.69.67-.7.7.7Z"/><path class="cls-2" d="M47.34,15.83V15h.59a2.5,2.5,0,0,0,.77-.11,1.29,1.29,0,0,0,.54-.33,1.33,1.33,0,0,0,.31-.56,2.86,2.86,0,0,0,.1-.81V10.53h.81v2.69a3.48,3.48,0,0,1-.16,1.1,2.17,2.17,0,0,1-.48.82,2.09,2.09,0,0,1-.79.51,3.12,3.12,0,0,1-1.1.18Z"/><path class="cls-2" d="M53.25,13.44a4.18,4.18,0,0,1-.75-.06,1.78,1.78,0,0,1-.5-.17,1,1,0,0,1-.33-.28,1.29,1.29,0,0,1-.19-.39,2.3,2.3,0,0,1-.09-.5q0-.28,0-.61V7.3h.81v4.14q0,.37,0,.61a.68.68,0,0,0,.13.36.52.52,0,0,0,.31.17,3.21,3.21,0,0,0,.61,0Z"/><path class="cls-2" d="M59.54,13.44H53.08v-.81h1l.21-.34.22-.35V7.3h.81v3.48a5.35,5.35,0,0,1,.39-.41,2.58,2.58,0,0,1,.42-.33,2.14,2.14,0,0,1,.46-.22,1.63,1.63,0,0,1,.51-.08,1.74,1.74,0,0,1,.62.12,1.53,1.53,0,0,1,.54.36,1.79,1.79,0,0,1,.39.61,2.39,2.39,0,0,1,.15.88,2.09,2.09,0,0,1-.06.52,1.68,1.68,0,0,1-.16.41h1ZM57,12.63a1.17,1.17,0,0,0,.37-.06.81.81,0,0,0,.29-.17.79.79,0,0,0,.2-.29,1.1,1.1,0,0,0,.07-.42,1.37,1.37,0,0,0-.23-.85.77.77,0,0,0-.65-.3.91.91,0,0,0-.39.09,1.69,1.69,0,0,0-.37.24,2.88,2.88,0,0,0-.36.36q-.17.2-.33.44c-.11.15-.21.31-.31.47l-.29.47v0Zm-.54-4.71.73-.74.75.75-.74.74Z"/><path class="cls-2" d="M64.08,12.63v.81h-.75a2,2,0,0,1-.69-.11,1.09,1.09,0,0,1-.48-.34,1.8,1.8,0,0,1-1.33.45H59.36v-.81h1.46a1.56,1.56,0,0,0,.49-.06.71.71,0,0,0,.27-.16.43.43,0,0,0,.12-.21.9.9,0,0,0,0-.22V10.53h.81V12a.67.67,0,0,0,0,.27.63.63,0,0,0,.12.19.55.55,0,0,0,.17.12l.18.06.15,0h.86ZM61,9.47l-.68-.69.67-.7.7.7Zm1.65,0L62,8.79l.67-.7.7.7Z"/><path class="cls-2" d="M66.21,9.94l0,.14.06.28.07.37q0,.2.07.4t.05.39a3,3,0,0,1,0,.33,1.72,1.72,0,0,1-.14.71,1.47,1.47,0,0,1-.35.5,1.43,1.43,0,0,1-.49.29,1.65,1.65,0,0,1-.55.09h-1.1v-.81H65l.18,0a.61.61,0,0,0,.24-.1.66.66,0,0,0,.21-.23.88.88,0,0,0,.09-.43q0-.09,0-.24t0-.31q0-.17-.05-.34l-.06-.33-.06-.28,0-.18ZM64.79,8.16l.73-.74.75.75-.74.74Z"/><path class="cls-2" d="M68.14,13.44h-.81V7.3h.81Z"/><path class="cls-2" d="M70.36,15.83V15H71a2.5,2.5,0,0,0,.77-.11,1.29,1.29,0,0,0,.54-.33,1.33,1.33,0,0,0,.31-.56,2.86,2.86,0,0,0,.1-.81V10.53h.81v2.69a3.48,3.48,0,0,1-.16,1.1,2.17,2.17,0,0,1-.48.82,2.09,2.09,0,0,1-.79.51,3.12,3.12,0,0,1-1.1.18Z"/><path class="cls-2" d="M75.87,13.51l-.44,0L75,13.43a3,3,0,0,1-.41-.11,1.89,1.89,0,0,1-.36-.16l-.36-.2.4-.71.36.2a1.42,1.42,0,0,0,.37.14,3.1,3.1,0,0,0,.47.08l.42,0h.18l.35,0a1.68,1.68,0,0,0,.41-.11.39.39,0,0,0,.2-.16.26.26,0,0,0,0-.09.71.71,0,0,0,0-.2,1.49,1.49,0,0,0-.18-.34L75.27,9.39,76,8.94l.12.18.14.22.19.29.26.4.36.54.48.72a3,3,0,0,1,.19.34,1.78,1.78,0,0,1,.13.36,1.41,1.41,0,0,1,0,.33s0,.05,0,.12a.81.81,0,0,1-.09.28,1.47,1.47,0,0,1-1.25.75l-.32,0Z"/><path class="cls-2" d="M16.29,15h-.9L12,9.83V15h-.89V8.29H12l3.4,5.22V8.29h.89Z"/><path class="cls-2" d="M19.47,12a4.16,4.16,0,0,1-1.66-.81A1.55,1.55,0,0,1,17.29,10a1.63,1.63,0,0,1,.64-1.32,2.53,2.53,0,0,1,1.65-.52,2.76,2.76,0,0,1,1.24.27,2,2,0,0,1,.84.74,1.9,1.9,0,0,1,.3,1h-.89a1.22,1.22,0,0,0-.39-1,1.59,1.59,0,0,0-1.1-.35,1.62,1.62,0,0,0-1,.29,1,1,0,0,0-.37.81.86.86,0,0,0,.35.69,3.44,3.44,0,0,0,1.19.52,5.52,5.52,0,0,1,1.31.52,2,2,0,0,1,.7.66,1.71,1.71,0,0,1,.23.9,1.57,1.57,0,0,1-.64,1.31,2.72,2.72,0,0,1-1.71.49,3.18,3.18,0,0,1-1.3-.27,2.16,2.16,0,0,1-.93-.73,1.78,1.78,0,0,1-.33-1H18a1.16,1.16,0,0,0,.45,1,1.9,1.9,0,0,0,1.21.36,1.75,1.75,0,0,0,1.08-.29.93.93,0,0,0,.37-.78.92.92,0,0,0-.35-.77A4,4,0,0,0,19.47,12Z"/><path class="cls-3" d="M91.13,14.1l-3-1.77V8.51"/><path class="cls-3" d="M92.17,7.84a5.43,5.43,0,1,1-7.68,0,5.43,5.43,0,0,1,7.68,0"/></g></g></svg>