<svg xmlns="http://www.w3.org/2000/svg" xmlns:xlink="http://www.w3.org/1999/xlink" width="20.25" height="16.49" viewBox="0 0 20.25 16.49"><defs><style>.cls-1,.cls-10,.cls-11,.cls-2,.cls-3,.cls-4,.cls-5,.cls-6,.cls-7,.cls-8,.cls-9{fill:none;stroke-miterlimit:10;stroke-width:1.4px;}.cls-1{stroke:url(#linear-gradient);}.cls-2{stroke:url(#linear-gradient-2);}.cls-3{stroke:url(#linear-gradient-3);}.cls-4{stroke:url(#linear-gradient-4);}.cls-5{stroke:url(#linear-gradient-5);}.cls-6{stroke:url(#linear-gradient-6);}.cls-7{stroke:url(#linear-gradient-7);}.cls-8{stroke:url(#linear-gradient-8);}.cls-9{stroke:url(#linear-gradient-9);}.cls-10{stroke:url(#linear-gradient-10);}.cls-11{stroke:url(#linear-gradient-11);}</style><linearGradient id="linear-gradient" x1="17.08" y1="12.66" x2="18.48" y2="12.66" gradientUnits="userSpaceOnUse"><stop offset="0" stop-color="#7695f6"/><stop offset="0.34" stop-color="#7698f4"/><stop offset="0.62" stop-color="#76a3ed"/><stop offset="0.89" stop-color="#75b5e2"/><stop offset="1" stop-color="#75bedc"/></linearGradient><linearGradient id="linear-gradient-2" x1="12.01" y1="13.94" x2="13.41" y2="13.94" xlink:href="#linear-gradient"/><linearGradient id="linear-gradient-3" x1="1.77" y1="15.06" x2="3.17" y2="15.06" xlink:href="#linear-gradient"/><linearGradient id="linear-gradient-4" x1="6.84" y1="13.43" x2="8.24" y2="13.43" xlink:href="#linear-gradient"/><linearGradient id="linear-gradient-5" x1="10.34" y1="6.68" x2="15.09" y2="6.68" xlink:href="#linear-gradient"/><linearGradient id="linear-gradient-6" x1="15.51" y1="2.37" x2="20.25" y2="2.37" xlink:href="#linear-gradient"/><linearGradient id="linear-gradient-7" x1="0" y1="7.54" x2="4.75" y2="7.54" xlink:href="#linear-gradient"/><linearGradient id="linear-gradient-8" x1="5.17" y1="3.23" x2="9.92" y2="3.23" xlink:href="#linear-gradient"/><linearGradient id="linear-gradient-9" x1="13.54" y1="4.53" x2="17.05" y2="4.53" xlink:href="#linear-gradient"/><linearGradient id="linear-gradient-10" x1="8.54" y1="4.96" x2="11.7" y2="4.96" xlink:href="#linear-gradient"/><linearGradient id="linear-gradient-11" x1="3.21" y1="5.39" x2="6.71" y2="5.39" xlink:href="#linear-gradient"/></defs><title>ico_report1</title><g id="Layer_2" data-name="Layer 2"><g id="Layer_1-2" data-name="Layer 1"><path class="cls-1" d="M17.78,8.84v7.65"/><path class="cls-2" d="M12.71,11.39v5.1"/><path class="cls-3" d="M2.47,13.62v2.87"/><path class="cls-4" d="M7.54,10.37v6.12"/><path class="cls-5" d="M13.9,5.5a1.67,1.67,0,1,1-2.37,0,1.67,1.67,0,0,1,2.37,0"/><path class="cls-6" d="M19.06,1.19a1.67,1.67,0,1,1-2.37,0,1.67,1.67,0,0,1,2.37,0"/><path class="cls-7" d="M3.56,6.35a1.67,1.67,0,1,1-2.37,0,1.67,1.67,0,0,1,2.37,0"/><path class="cls-8" d="M8.73,2A1.67,1.67,0,1,1,6.36,2,1.67,1.67,0,0,1,8.73,2"/><path class="cls-9" d="M16.6,3.44,14,5.61"/><path class="cls-10" d="M11.31,5.76,8.93,4.16"/><path class="cls-11" d="M3.66,6.48,6.26,4.3"/></g></g></svg>