<svg xmlns="http://www.w3.org/2000/svg" xmlns:xlink="http://www.w3.org/1999/xlink" width="18.4" height="17.51" viewBox="0 0 18.4 17.51"><defs><style>.cls-1,.cls-2,.cls-3,.cls-4,.cls-5,.cls-6{fill:none;stroke-miterlimit:10;stroke-width:1.4px;}.cls-1{stroke:url(#linear-gradient);}.cls-2{stroke:url(#linear-gradient-2);}.cls-3{stroke:url(#linear-gradient-3);}.cls-4{stroke:url(#linear-gradient-4);}.cls-5{stroke:url(#linear-gradient-5);}.cls-6{stroke:url(#linear-gradient-6);}</style><linearGradient id="linear-gradient" y1="8.31" x2="17.51" y2="8.31" gradientUnits="userSpaceOnUse"><stop offset="0" stop-color="#7695f6"/><stop offset="0.34" stop-color="#7698f4"/><stop offset="0.62" stop-color="#76a3ed"/><stop offset="0.89" stop-color="#75b5e2"/><stop offset="1" stop-color="#75bedc"/></linearGradient><linearGradient id="linear-gradient-2" x1="8.05" y1="12.63" x2="18.4" y2="12.63" xlink:href="#linear-gradient"/><linearGradient id="linear-gradient-3" x1="12.53" y1="11.93" x2="13.93" y2="11.93" xlink:href="#linear-gradient"/><linearGradient id="linear-gradient-4" x1="12.45" y1="14.62" x2="14.01" y2="14.62" xlink:href="#linear-gradient"/><linearGradient id="linear-gradient-5" x1="4.28" y1="4.73" x2="13.23" y2="4.73" xlink:href="#linear-gradient"/><linearGradient id="linear-gradient-6" x1="4.28" y1="8.75" x2="7.86" y2="8.75" xlink:href="#linear-gradient"/></defs><title>ico_info</title><g id="Layer_2" data-name="Layer 2"><g id="Layer_1-2" data-name="Layer 1"><path class="cls-1" d="M16.81,6.07V3.38A2.68,2.68,0,0,0,14.12.7H3.38A2.68,2.68,0,0,0,.7,3.38v9.84a2.68,2.68,0,0,0,2.68,2.68H5.17"/><path class="cls-2" d="M14.77,9.37l2.7,4.8a1.77,1.77,0,0,1-1.55,2.64h-5.4A1.77,1.77,0,0,1,9,14.16l2.7-4.8A1.77,1.77,0,0,1,14.77,9.37Z"/><path class="cls-3" d="M13.23,12.75V11.12"/><path class="cls-4" d="M13.23,14.54a.08.08,0,0,0-.08.08.08.08,0,1,0,.08-.08"/><line class="cls-5" x1="4.28" y1="4.73" x2="13.23" y2="4.73"/><line class="cls-6" x1="4.28" y1="8.75" x2="7.86" y2="8.75"/></g></g></svg>