<svg xmlns="http://www.w3.org/2000/svg" xmlns:xlink="http://www.w3.org/1999/xlink" width="16.4" height="16.4" viewBox="0 0 16.4 16.4"><defs><style>.cls-1,.cls-2,.cls-3{fill:none;stroke-miterlimit:10;stroke-width:1.4px;}.cls-1{stroke:url(#linear-gradient);}.cls-2{stroke:url(#linear-gradient-2);}.cls-3{stroke:url(#linear-gradient-3);}</style><linearGradient id="linear-gradient" y1="8.2" x2="16.4" y2="8.2" gradientUnits="userSpaceOnUse"><stop offset="0" stop-color="#7695f6"/><stop offset="0.34" stop-color="#7698f4"/><stop offset="0.62" stop-color="#76a3ed"/><stop offset="0.89" stop-color="#75b5e2"/><stop offset="1" stop-color="#75bedc"/></linearGradient><linearGradient id="linear-gradient-2" x1="7.5" y1="7.35" x2="14" y2="7.35" xlink:href="#linear-gradient"/><linearGradient id="linear-gradient-3" x1="7.91" y1="6.31" x2="15.04" y2="6.31" xlink:href="#linear-gradient"/></defs><title>ico_report3</title><g id="Layer_2" data-name="Layer 2"><g id="Layer_1-2" data-name="Layer 1"><path class="cls-1" d="M15.7,8.2h0a7.5,7.5,0,0,1-7.5,7.5h0A7.5,7.5,0,0,1,.7,8.2h0A7.5,7.5,0,0,1,8.2.7h0A7.5,7.5,0,0,1,15.7,8.2Z"/><path class="cls-2" d="M13.5,13.5,8.44,8.44a.83.83,0,0,1-.24-.59V.7"/><path class="cls-3" d="M8.26,8.17l6.43-3.72"/></g></g></svg>