<svg xmlns="http://www.w3.org/2000/svg" xmlns:xlink="http://www.w3.org/1999/xlink" width="17.23" height="17.23" viewBox="0 0 17.23 17.23"><defs><style>.cls-1,.cls-2,.cls-3,.cls-4,.cls-5{fill:none;stroke-miterlimit:10;stroke-width:1.3px;}.cls-1{stroke:url(#linear-gradient);}.cls-2{stroke:url(#linear-gradient-2);}.cls-3{stroke:url(#linear-gradient-3);}.cls-4{stroke:url(#linear-gradient-4);}.cls-5{stroke:url(#linear-gradient-5);}</style><linearGradient id="linear-gradient" x1="7.97" y1="5.37" x2="16.57" y2="5.37" gradientUnits="userSpaceOnUse"><stop offset="0" stop-color="#7695f6"/><stop offset="0.34" stop-color="#7698f4"/><stop offset="0.62" stop-color="#76a3ed"/><stop offset="0.89" stop-color="#75b5e2"/><stop offset="1" stop-color="#75bedc"/></linearGradient><linearGradient id="linear-gradient-2" x1="4.43" y1="8.39" x2="12.95" y2="8.39" xlink:href="#linear-gradient"/><linearGradient id="linear-gradient-3" x1="1.09" y1="4.18" x2="13.28" y2="4.18" xlink:href="#linear-gradient"/><linearGradient id="linear-gradient-4" x1="1.34" y1="8.37" x2="15.31" y2="8.37" xlink:href="#linear-gradient"/><linearGradient id="linear-gradient-5" x1="0" y1="8.61" x2="17.23" y2="8.61" xlink:href="#linear-gradient"/></defs><title>ico_domain</title><g id="Layer_2" data-name="Layer 2"><g id="Layer_1-2" data-name="Layer 1"><path class="cls-1" d="M8.63.65a8.37,8.37,0,0,0,7.89,8.82"/><path class="cls-2" d="M6.11,1.06a10.15,10.15,0,0,0,6.68,14.32"/><path class="cls-3" d="M12.71,1.79A8.37,8.37,0,0,1,7.32,6a8.36,8.36,0,0,1-5.93-.73"/><path class="cls-4" d="M14.66,3.44a10.17,10.17,0,0,1-7.69,9,10.11,10.11,0,0,1-5.44-.17"/><path class="cls-5" d="M14.24,3A8,8,0,1,1,3,3,8,8,0,0,1,14.24,3"/></g></g></svg>