<svg xmlns="http://www.w3.org/2000/svg" width="13.88" height="13.21" viewBox="0 0 13.88 13.21"><title>ico_my_invoice</title><g id="d3e2bd7e-309e-4adf-a8b0-8b74b2ae6b56" data-name="Layer 2"><g id="5456299e-159f-4d18-867b-860bd6951789" data-name="Layer 1"><path d="M12.66,4.59v-2a2,2,0,0,0-2-2H2.57a2,2,0,0,0-2,2V10a2,2,0,0,0,2,2H3.91" style="fill:none;stroke:#323232;stroke-linecap:round;stroke-linejoin:round;stroke-width:1.10000002384186px"/><path d="M11.13,7.06l2,3.61a1.33,1.33,0,0,1-1.16,2H7.94a1.33,1.33,0,0,1-1.16-2l2-3.61A1.33,1.33,0,0,1,11.13,7.06Z" style="fill:none;stroke:#323232;stroke-linecap:round;stroke-linejoin:round;stroke-width:1.10000002384186px"/><path d="M10,9.61V8.38" style="fill:none;stroke:#323232;stroke-linecap:round;stroke-linejoin:round;stroke-width:1.10000002384186px"/><path d="M10,11A.06.06,0,0,0,9.9,11,.06.06,0,1,0,10,11" style="fill:none;stroke:#323232;stroke-linecap:round;stroke-linejoin:round;stroke-width:1.10000002384186px"/><line x1="3.24" y1="3.58" x2="9.97" y2="3.58" style="fill:none;stroke:#323232;stroke-linecap:round;stroke-linejoin:round;stroke-width:1.10000002384186px"/><line x1="3.24" y1="6.6" x2="5.93" y2="6.6" style="fill:none;stroke:#323232;stroke-linecap:round;stroke-linejoin:round;stroke-width:1.10000002384186px"/></g></g></svg>