<svg xmlns="http://www.w3.org/2000/svg" width="13.6" height="13.6" viewBox="0 0 13.6 13.6"><title>ico_my_tickets</title><g id="2ae3a75d-44f7-4283-a683-ecff683b5dfe" data-name="Layer 2"><g id="52b1a0f9-ebbe-4101-ab11-927279fa05ca" data-name="Layer 1"><path d="M12.51,4.56,7.64.84A1.39,1.39,0,0,0,6,.84L1.09,4.56a1.39,1.39,0,0,0-.54,1.1v6a1.39,1.39,0,0,0,1.39,1.39h9.72a1.39,1.39,0,0,0,1.39-1.39v-6A1.39,1.39,0,0,0,12.51,4.56Z" style="fill:none;stroke:#323232;stroke-linecap:round;stroke-linejoin:round;stroke-width:1.10000002384186px"/><path d="M.68,5.08,6,9.12a1.39,1.39,0,0,0,1.69,0l5.28-4" style="fill:none;stroke:#323232;stroke-linecap:round;stroke-linejoin:round;stroke-width:1.10000002384186px"/><polyline points="8.88 4.02 6.41 6.2 4.72 5.11" style="fill:none;stroke:#323232;stroke-linecap:round;stroke-linejoin:round;stroke-width:1.10000002384186px"/></g></g></svg>