<svg xmlns="http://www.w3.org/2000/svg" width="15.43" height="15.22" viewBox="0 0 15.43 15.22"><defs><style>.cls-1{fill:#565656;}.cls-2{fill:none;stroke:#565656;stroke-linecap:round;stroke-linejoin:round;stroke-width:1.2px;}</style></defs><title>ic_firewall1</title><g id="Layer_2" data-name="Layer 2"><g id="Layer_1-2" data-name="Layer 1"><path class="cls-1" d="M0,4.24A4.42,4.42,0,0,1,4.18,0c2.14,0,4.29,0,6.44,0a4.41,4.41,0,0,1,4.05,2.77A7.63,7.63,0,0,1,15,5.93a.57.57,0,0,1-1,.37c-.25-.5-.07-1.12-.11-1.67H11.14a7.6,7.6,0,0,1-.05,1.59A.58.58,0,0,1,10,6.16a11.68,11.68,0,0,1,0-1.52H5c0,.76,0,1.52,0,2.28A24.64,24.64,0,0,1,7.73,7c.64.22.35,1.23-.31,1.13-2.08,0-4.17,0-6.25,0,0,.75,0,1.5,0,2.24,2.16.09,4.33,0,6.48.05a.59.59,0,0,1,.13,1.1c-.91.09-1.83,0-2.74,0,0,.76,0,1.53,0,2.29.87,0,1.75,0,2.61,0,.61,0,.63,1.09,0,1.12-1.14.06-2.28,0-3.41,0A4.44,4.44,0,0,1,0,10.88C0,8.67,0,6.45,0,4.24Zm3.89-3A3.52,3.52,0,0,0,1.25,3.47c1.88,0,3.76,0,5.65,0,0-.77,0-1.55,0-2.32C5.9,1.2,4.89,1.11,3.89,1.22Zm4.19,0c0,.76,0,1.53,0,2.29,1.88,0,3.76,0,5.65,0a3.71,3.71,0,0,0-1.53-1.87C10.94.89,9.45,1.25,8.08,1.17ZM1.15,4.63c0,.76,0,1.52,0,2.28.9,0,1.8,0,2.7,0,0-.76,0-1.51,0-2.27Zm.12,6.91a3.62,3.62,0,0,0,2.57,2.28q0-1.14,0-2.29C3,11.55,2.13,11.53,1.27,11.54Z"/><rect class="cls-2" x="10.18" y="10.84" width="4.65" height="3.78" rx="0.96" ry="0.96"/><path class="cls-2" d="M11.06,10.84V9.66A1.44,1.44,0,0,1,12.5,8.23h0a1.44,1.44,0,0,1,1.44,1.44h0v1.19"/></g></g></svg>