<svg xmlns="http://www.w3.org/2000/svg" width="15.3" height="15.3" viewBox="0 0 15.3 15.3"><defs><style>.c8a0e027-beef-4bd2-a0fb-f9925cc1c694{fill:none;stroke:#565656;stroke-linecap:round;stroke-linejoin:round;stroke-width:1.3px;}</style></defs><title>ic_rescue_mode</title><g id="a3ae08cd-1eb9-4a63-867f-8cba7c27ca6e" data-name="Layer 2"><g id="433ae4c2-7f6c-4804-a104-063aaff72296" data-name="Layer 1"><path class="c8a0e027-beef-4bd2-a0fb-f9925cc1c694" d="M13.53,3.85a7,7,0,0,1,0,7.59"/><path class="c8a0e027-beef-4bd2-a0fb-f9925cc1c694" d="M10.41,4.89a3.9,3.9,0,1,1-5.52,0,3.9,3.9,0,0,1,5.52,0"/><path class="c8a0e027-beef-4bd2-a0fb-f9925cc1c694" d="M9.46,4.19l2-2.44a.78.78,0,0,1,1.15-.06l1,1a.78.78,0,0,1-.06,1.15l-2.44,2"/><path class="c8a0e027-beef-4bd2-a0fb-f9925cc1c694" d="M5.84,11.11l-2,2.44a.78.78,0,0,1-1.15.06l-1-1a.78.78,0,0,1,.06-1.15l2.44-2"/><path class="c8a0e027-beef-4bd2-a0fb-f9925cc1c694" d="M4.19,5.84l-2.44-2a.78.78,0,0,1-.06-1.15l1-1a.78.78,0,0,1,1.15.06l2,2.44"/><path class="c8a0e027-beef-4bd2-a0fb-f9925cc1c694" d="M11.11,9.46l2.44,2a.78.78,0,0,1,.06,1.15l-1,1a.78.78,0,0,1-1.15-.06l-2-2.44"/><path class="c8a0e027-beef-4bd2-a0fb-f9925cc1c694" d="M11.45,13.53a7,7,0,0,1-7.59,0"/><path class="c8a0e027-beef-4bd2-a0fb-f9925cc1c694" d="M1.77,3.85a7,7,0,0,0,0,7.59"/><path class="c8a0e027-beef-4bd2-a0fb-f9925cc1c694" d="M11.45,1.77a7,7,0,0,0-7.59,0"/></g></g></svg>