<svg xmlns="http://www.w3.org/2000/svg" width="15.3" height="15.25" viewBox="0 0 15.3 15.25"><title>ico_cluster_manage</title><g id="09958c50-b649-445c-89ad-8a8982433954" data-name="Layer 2"><g id="decf35de-c142-4093-9d0e-c6446052ef48" data-name="Layer 1"><path d="M13.09,14.65h0a1.56,1.56,0,0,1-1.56-1.56h0a1.56,1.56,0,0,1,1.56-1.56h0a1.56,1.56,0,0,1,1.56,1.56h0A1.56,1.56,0,0,1,13.09,14.65Z" style="fill:none;stroke:#565656;stroke-linecap:round;stroke-linejoin:round;stroke-width:1.20000004768372px"/><path d="M7.65,6.87v4.67" style="fill:none;stroke:#565656;stroke-linecap:round;stroke-linejoin:round;stroke-width:1.29999995231628px"/><path d="M7.65,14.65h0a1.56,1.56,0,0,1-1.56-1.56h0a1.56,1.56,0,0,1,1.56-1.56h0a1.56,1.56,0,0,1,1.56,1.56h0A1.56,1.56,0,0,1,7.65,14.65Z" style="fill:none;stroke:#565656;stroke-linecap:round;stroke-linejoin:round;stroke-width:1.20000004768372px"/><path d="M2.21,14.65h0A1.56,1.56,0,0,1,.65,13.09h0a1.56,1.56,0,0,1,1.56-1.56h0a1.56,1.56,0,0,1,1.56,1.56h0A1.56,1.56,0,0,1,2.21,14.65Z" style="fill:none;stroke:#565656;stroke-linecap:round;stroke-linejoin:round;stroke-width:1.20000004768372px"/><path d="M2.21,11.54V10A.78.78,0,0,1,3,9.21h9.33a.78.78,0,0,1,.78.78v1.56" style="fill:none;stroke:#565656;stroke-linecap:round;stroke-linejoin:round;stroke-width:1.29999995231628px"/><path d="M11.54.65H3.76A3.11,3.11,0,0,0,.65,3.76h0A3.11,3.11,0,0,0,3.76,6.87h7.78a3.11,3.11,0,0,0,3.11-3.11h0A3.11,3.11,0,0,0,11.54.65Z" style="fill:none;stroke:#565656;stroke-linecap:round;stroke-linejoin:round;stroke-width:1.29999995231628px"/><path d="M6.87,3.76h4.67" style="fill:none;stroke:#565656;stroke-linecap:round;stroke-linejoin:round;stroke-width:1.29999995231628px"/><path d="M3.79,3.73a0,0,0,1,1-.06,0,0,0,0,0,1,.06,0" style="fill:none;stroke:#565656;stroke-linecap:round;stroke-linejoin:round;stroke-width:1.29999995231628px"/></g></g></svg>