<svg xmlns="http://www.w3.org/2000/svg" width="97.22" height="69.2" viewBox="0 0 97.22 69.2"><title>ico_cloud</title><g id="e9bd35ab-992e-4dcb-abd8-f1d6bb52303c" data-name="Layer 2"><g id="00a1e8c6-a0fa-4c42-bd8b-3e91b76ba078" data-name="Layer 1"><path d="M22.1,20.9,21.84,19A25.34,25.34,0,0,0,6.31,27.31,25,25,0,0,0,0,43.94,25.26,25.26,0,0,0,25.26,69.2H76.64a20.58,20.58,0,0,0,0-41.17v1.9h1.9A29.91,29.91,0,0,0,20.3,20.29l1.8.61L21.84,19l.26,1.88,1.8.61A26.23,26.23,0,0,1,33.27,8.79,26.12,26.12,0,0,1,74.74,29.93a1.9,1.9,0,0,0,1.9,1.9,16.78,16.78,0,0,1,0,33.57H25.26A21.46,21.46,0,0,1,3.8,43.94,21.16,21.16,0,0,1,9.15,29.83a21.54,21.54,0,0,1,13.21-7,1.9,1.9,0,0,0,1.54-1.27Z" style="fill:#323232"/><path d="M28.87,56.52a10.4,10.4,0,0,1-1.28.08,11.7,11.7,0,1,1,11.7-11.7,10.51,10.51,0,0,1-.08,1.29,1.3,1.3,0,0,0,2.58.32,13.12,13.12,0,0,0,.1-1.6,14.3,14.3,0,1,0-14.3,14.3,13,13,0,0,0,1.6-.1,1.3,1.3,0,0,0-.32-2.58Z" style="fill:#323232"/><path d="M38.43,51.41l-2.9,2.9-1.46-1.46a1,1,0,1,0-1.41,1.41l2.17,2.17a1,1,0,0,0,1.41,0l3.61-3.61a1,1,0,0,0-1.41-1.41Z" style="fill:#323232"/><path d="M21.8,45h1V41.92a.44.44,0,0,1,.31-.42l4.33-1.35.13,0,.13,0h0L32,41.5a.44.44,0,0,1,.31.42V45a6.22,6.22,0,0,1-4,5.83l-.84.31.1.26v-.28l-.1,0,.1.26v0l.1-.26-.1,0v.28l.1-.26-.84-.31a6.22,6.22,0,0,1-4-5.83h-2a8.22,8.22,0,0,0,5.33,7.7L27,53a1.72,1.72,0,0,0,1.21,0L29,52.7A8.22,8.22,0,0,0,34.36,45V41.92a2.44,2.44,0,0,0-1.72-2.33l-4.33-1.35h0a2.46,2.46,0,0,0-1.45,0l-4.33,1.36a2.44,2.44,0,0,0-1.72,2.33V45Z" style="fill:#323232"/></g></g></svg>