<svg xmlns="http://www.w3.org/2000/svg" xmlns:xlink="http://www.w3.org/1999/xlink" width="25.89" height="25.89" viewBox="0 0 25.89 25.89"><defs><linearGradient id="0c51f161-d2b1-45e8-8a96-25fa73c417d7" y1="12.95" x2="25.89" y2="12.95" gradientUnits="userSpaceOnUse"><stop offset="0" stop-color="#e50058"/><stop offset="0.6" stop-color="#ed4152"/><stop offset="1" stop-color="#f2684e"/></linearGradient><linearGradient id="722dda1b-4d21-4f36-9bfe-56b2830e7e4b" x1="8.55" y1="12.6" x2="17.18" y2="12.6" xlink:href="#0c51f161-d2b1-45e8-8a96-25fa73c417d7"/></defs><title>ico_wizard_step</title><g id="09480021-256f-439e-ba54-07c166a81ddb" data-name="Layer 2"><g id="a2308d53-6277-44e6-986a-1254f779d1d6" data-name="Layer 1"><circle cx="12.95" cy="12.67" r="3.76" style="fill:none"/><path d="M1.88,12.95A11.17,11.17,0,1,0,11.3,2q-.05-.47-.15-.93A12,12,0,0,0,1.1,11.1a8.54,8.54,0,0,0,.92.18A11,11,0,0,0,1.88,12.95Zm11.07-4a3.76,3.76,0,1,1-3.76,3.76A3.76,3.76,0,0,1,12.95,8.92Z" style="fill:none"/><path d="M12.95,25a12,12,0,1,0,0-24,11.91,11.91,0,0,0-1.79.15q.1.46.15.93A11,11,0,1,1,1.88,12.95,11,11,0,0,1,2,11.28a8.54,8.54,0,0,1-.92-.18,11.91,11.91,0,0,0-.16,1.85A12,12,0,0,0,12.95,25Z" style="fill:#fff"/><path d="M12.95,0a12.85,12.85,0,0,0-2,.18,9.06,9.06,0,0,1,.24.91q.1.46.15.93A11,11,0,1,1,1.88,12.95,11,11,0,0,1,2,11.28a8.54,8.54,0,0,1-.92-.18,7.77,7.77,0,0,1-.9-.29A12.94,12.94,0,1,0,12.95,0Z" style="opacity:0.77;fill:url(#0c51f161-d2b1-45e8-8a96-25fa73c417d7)"/><circle cx="12.95" cy="12.67" r="3.76" style="fill:#fff"/><path d="M12.18,16.86A4.32,4.32,0,1,0,8.6,13.28,4.32,4.32,0,0,0,12.18,16.86Z" style="opacity:0.77;fill:url(#722dda1b-4d21-4f36-9bfe-56b2830e7e4b)"/></g></g></svg>