<svg xmlns="http://www.w3.org/2000/svg" width="10" height="10" viewBox="0 0 10 10"><defs><style>.cls-1{fill:#c1272d;}</style></defs><title>ico_red_false</title><g id="Layer_2" data-name="Layer 2"><g id="Layer_1-2" data-name="Layer 1"><path class="cls-1" d="M6.65,5,9.74,1.91a.87.87,0,0,0,0-1.24L9.33.26a.87.87,0,0,0-1.24,0L5,3.35,1.91.26A.87.87,0,0,0,.67.26L.26.67a.87.87,0,0,0,0,1.24L3.35,5,.26,8.09a.87.87,0,0,0,0,1.24l.41.41a.87.87,0,0,0,1.24,0L5,6.65,8.09,9.74a.87.87,0,0,0,1.24,0l.41-.41a.87.87,0,0,0,0-1.24Z"/></g></g></svg>