<svg xmlns="http://www.w3.org/2000/svg" xmlns:xlink="http://www.w3.org/1999/xlink" width="20" height="20" viewBox="0 0 20 20"><defs><linearGradient id="dceb0a63-e224-416a-a21f-b552bf6f12f5" x1="9.36" y1="6.14" x2="19.33" y2="6.14" gradientUnits="userSpaceOnUse"><stop offset="0" stop-color="#7695f6"/><stop offset="0.34" stop-color="#7698f4"/><stop offset="0.62" stop-color="#76a3ed"/><stop offset="0.89" stop-color="#75b5e2"/><stop offset="1" stop-color="#75bedc"/></linearGradient><linearGradient id="92babe50-c7fa-40a6-8c8d-4a1df02a34df" x1="5.2" y1="9.71" x2="15.07" y2="9.71" xlink:href="#dceb0a63-e224-416a-a21f-b552bf6f12f5"/><linearGradient id="d8ff8047-08bc-4c9d-88d6-a0172196370b" x1="1.22" y1="4.77" x2="15.39" y2="4.77" xlink:href="#dceb0a63-e224-416a-a21f-b552bf6f12f5"/><linearGradient id="38cd24d0-5ae9-4117-b326-a2ad96398181" x1="1.5" y1="9.66" x2="17.75" y2="9.66" xlink:href="#dceb0a63-e224-416a-a21f-b552bf6f12f5"/><linearGradient id="14819957-7426-4185-a739-b33aef428164" x1="0" y1="10" x2="20" y2="10" xlink:href="#dceb0a63-e224-416a-a21f-b552bf6f12f5"/></defs><title>ico_dns</title><g id="c8dd21ab-ed1c-49cb-9fe9-c2186066e4f8" data-name="Layer 2"><g id="a3097233-6569-4722-afaf-4567a91cf225" data-name="Layer 1"><path d="M10,.65A9.83,9.83,0,0,0,19.29,11" style="fill:none;stroke-miterlimit:10;stroke-width:1.29999995231628px;stroke:url(#dceb0a63-e224-416a-a21f-b552bf6f12f5)"/><path d="M7.06,1.13a11.91,11.91,0,0,0,7.85,16.82" style="fill:none;stroke-miterlimit:10;stroke-width:1.29999995231628px;stroke:url(#92babe50-c7fa-40a6-8c8d-4a1df02a34df)"/><path d="M14.81,2A9.83,9.83,0,0,1,8.48,6.92a9.82,9.82,0,0,1-7-.86" style="fill:none;stroke-miterlimit:10;stroke-width:1.29999995231628px;stroke:url(#d8ff8047-08bc-4c9d-88d6-a0172196370b)"/><path d="M17.1,3.92a11.94,11.94,0,0,1-9,10.53,11.87,11.87,0,0,1-6.39-.2" style="fill:none;stroke-miterlimit:10;stroke-width:1.29999995231628px;stroke:url(#38cd24d0-5ae9-4117-b326-a2ad96398181)"/><path d="M16.61,3.39a9.35,9.35,0,1,1-13.22,0,9.35,9.35,0,0,1,13.22,0" style="fill:none;stroke-miterlimit:10;stroke-width:1.29999995231628px;stroke:url(#14819957-7426-4185-a739-b33aef428164)"/></g></g></svg>