<svg xmlns="http://www.w3.org/2000/svg" width="15.5" height="15.5" viewBox="0 0 15.5 15.5"><title>ico_domain</title><g id="ecbb1576-8199-4d80-bb72-55488b1edce1" data-name="Layer 2"><g id="497e833a-bdec-4704-9af8-801223b364c6" data-name="Layer 1"><path d="M7.77.65a7.47,7.47,0,0,0,7,7.87" style="fill:none;stroke:#565656;stroke-linecap:round;stroke-linejoin:round;stroke-width:1.29999995231628px"/><path d="M5.52,1a9,9,0,0,0,6,12.77" style="fill:none;stroke:#565656;stroke-linecap:round;stroke-linejoin:round;stroke-width:1.29999995231628px"/><path d="M11.4,1.66A7.47,7.47,0,0,1,6.6,5.41a7.46,7.46,0,0,1-5.29-.65" style="fill:none;stroke:#565656;stroke-linecap:round;stroke-linejoin:round;stroke-width:1.29999995231628px"/><path d="M13.14,3.14a9.07,9.07,0,0,1-6.86,8A9,9,0,0,1,1.44,11" style="fill:none;stroke:#565656;stroke-linecap:round;stroke-linejoin:round;stroke-width:1.29999995231628px"/><path d="M12.77,2.73a7.1,7.1,0,1,1-10,0,7.1,7.1,0,0,1,10,0" style="fill:none;stroke:#565656;stroke-linecap:round;stroke-linejoin:round;stroke-width:1.29999995231628px"/></g></g></svg>