<svg xmlns="http://www.w3.org/2000/svg" width="14.3" height="14.3" viewBox="0 0 14.3 14.3"><title>ico_server_management</title><g id="fbbbafc5-3933-43bd-830d-ba6b9fc32031" data-name="Layer 2"><g id="1f4ade4f-43ac-4411-96a0-64b208d2a1ab" data-name="Layer 1"><path d="M10.23.65a3.42,3.42,0,1,0,3.42,3.42A3.42,3.42,0,0,0,10.23.65" style="fill:none;stroke:#565656;stroke-linecap:round;stroke-linejoin:round;stroke-width:1.29999995231628px"/><path d="M7.1,2.7H2.6A1.37,1.37,0,0,0,1.24,4L.66,11.43" style="fill:none;stroke:#565656;stroke-linecap:round;stroke-linejoin:round;stroke-width:1.29999995231628px"/><path d="M13,11.43l-.38-4.89" style="fill:none;stroke:#565656;stroke-linecap:round;stroke-linejoin:round;stroke-width:1.29999995231628px"/><path d="M10.91,9.54H2.7A2.05,2.05,0,0,0,.65,11.6h0A2.05,2.05,0,0,0,2.7,13.65h8.21A2.05,2.05,0,0,0,13,11.6h0A2.05,2.05,0,0,0,10.91,9.54Z" style="fill:none;stroke:#565656;stroke-linecap:round;stroke-linejoin:round;stroke-width:1.29999995231628px"/><path d="M10.91,11.6H6.12" style="fill:none;stroke:#565656;stroke-linecap:round;stroke-linejoin:round;stroke-width:1.29999995231628px"/><path d="M2.73,11.57a0,0,0,0,1,0,0,0,0,0,0,1,0,0,0,0,0,0,1,0,0,0,0,0,0,1,0,0" style="fill:none;stroke:#565656;stroke-linecap:round;stroke-linejoin:round;stroke-width:1.29999995231628px"/><line x1="10.23" y1="5.49" x2="10.23" y2="5.78" style="fill:none;stroke:#565656;stroke-linecap:round;stroke-linejoin:round;stroke-width:1.29999995231628px"/><line x1="10.23" y1="2.65" x2="10.23" y2="2.36" style="fill:none;stroke:#565656;stroke-linecap:round;stroke-linejoin:round;stroke-width:1.29999995231628px"/><line x1="8.75" y1="4.93" x2="9" y2="4.78" style="fill:none;stroke:#565656;stroke-linecap:round;stroke-linejoin:round;stroke-width:1.29999995231628px"/><line x1="11.71" y1="3.22" x2="11.46" y2="3.36" style="fill:none;stroke:#565656;stroke-linecap:round;stroke-linejoin:round;stroke-width:1.29999995231628px"/><line x1="9" y1="3.36" x2="8.75" y2="3.22" style="fill:none;stroke:#565656;stroke-linecap:round;stroke-linejoin:round;stroke-width:1.29999995231628px"/><line x1="11.71" y1="4.93" x2="11.46" y2="4.78" style="fill:none;stroke:#565656;stroke-linecap:round;stroke-linejoin:round;stroke-width:1.29999995231628px"/></g></g></svg>