<svg xmlns="http://www.w3.org/2000/svg" width="15" height="16.84" viewBox="0 0 15 16.84"><defs><style>.cls-1{fill:#565656;}</style></defs><title>ic_attack_mode</title><g id="Layer_2" data-name="Layer 2"><g id="Layer_1-2" data-name="Layer 1"><path class="cls-1" d="M6.21,4.6v-4a.62.62,0,0,0-1-.44l-2.06,2L1,.17A.62.62,0,0,0,0,.62v4A.61.61,0,0,0,.19,5L1.86,6.66A3.11,3.11,0,0,0,0,9.5v4.18a3.11,3.11,0,1,0,6.22,0V9.5A3.11,3.11,0,0,0,4.36,6.66L6,5A.63.63,0,0,0,6.21,4.6Zm-5-2.52L2.49,3.29V5.55L1.23,4.34ZM5,13H1.23V10.2H5ZM3.11,15.55a1.88,1.88,0,0,1-1.8-1.34H4.9A1.88,1.88,0,0,1,3.11,15.55ZM4.9,9H1.31A1.87,1.87,0,0,1,4.9,9ZM5,4.33,3.72,5.55V3.29L5,2.07Z"/><path class="cls-1" d="M15,4.65v-4a.62.62,0,0,0-1-.44l-2.06,2L9.83.23a.62.62,0,0,0-1,.44v4A.61.61,0,0,0,9,5.09l1.67,1.62A3.11,3.11,0,0,0,8.78,9.56v4.18a3.11,3.11,0,0,0,6.22,0V9.56a3.11,3.11,0,0,0-1.86-2.84L14.81,5.1A.64.64,0,0,0,15,4.65ZM10,2.13l1.26,1.22V5.61L10,4.39Zm3.75,10.7H10V10.46h3.75Zm-1.88,2.78A1.87,1.87,0,0,1,10,14.07h3.69A1.87,1.87,0,0,1,11.89,15.61Zm1.84-6.38H10a1.87,1.87,0,0,1,3.69,0Zm0-4.83L12.51,5.61V3.35l1.26-1.22Z"/></g></g></svg>