<svg xmlns="http://www.w3.org/2000/svg" width="14.25" height="16" viewBox="0 0 14.25 16"><defs><style>.e0fbd0f7-b947-4cbf-b897-ff04b3cedcf2{fill:#565656;}</style></defs><title>ic_ddos</title><g id="c025e533-3585-42eb-81be-61274b617aaa" data-name="Layer 2"><g id="99ee06a5-4811-4185-8a7a-9c054c4f32c1" data-name="Layer 1"><path class="e0fbd0f7-b947-4cbf-b897-ff04b3cedcf2" d="M5.9,4.37V.59a.59.59,0,0,0-1-.42L3,2.07,1,.17A.59.59,0,0,0,0,.59V4.37a.58.58,0,0,0,.18.42L1.77,6.32A3,3,0,0,0,0,9v4a3,3,0,0,0,5.91,0V9a3,3,0,0,0-1.77-2.7L5.73,4.79A.59.59,0,0,0,5.9,4.37ZM1.17,2,2.36,3.13V5.28L1.17,4.12ZM4.73,12.33H1.17V9.69H4.73ZM3,14.77A1.78,1.78,0,0,1,1.25,13.5H4.66A1.78,1.78,0,0,1,3,14.77ZM4.66,8.52H1.25a1.78,1.78,0,0,1,3.41,0Zm.07-4.4L3.54,5.27V3.13L4.73,2Z"/><path class="e0fbd0f7-b947-4cbf-b897-ff04b3cedcf2" d="M14.25,4.42V.64a.59.59,0,0,0-1-.42l-2,1.9-2-1.9a.59.59,0,0,0-1,.42V4.42a.58.58,0,0,0,.18.42l1.59,1.54a3,3,0,0,0-1.77,2.7v4a3,3,0,0,0,5.91,0v-4a3,3,0,0,0-1.77-2.7l1.59-1.54A.61.61,0,0,0,14.25,4.42ZM9.52,2l1.19,1.16V5.33L9.52,4.17Zm3.56,10.17H9.52V9.93h3.56ZM11.3,14.83a1.78,1.78,0,0,1-1.75-1.46H13A1.78,1.78,0,0,1,11.3,14.83ZM13,8.77H9.54a1.78,1.78,0,0,1,3.5,0Zm0-4.59L11.88,5.33V3.18L13.08,2Z"/></g></g></svg>