<svg xmlns="http://www.w3.org/2000/svg" width="15.3" height="15.3" viewBox="0 0 15.3 15.3"><defs><style>.e2fb76ad-65d4-46bb-8747-8938eb93a975{fill:none;stroke:#565656;stroke-linecap:round;stroke-linejoin:round;stroke-width:1.3px;}</style></defs><title>ic_snapshot</title><g id="6f426c8c-3f4c-4ad8-bd67-0556814ee887" data-name="Layer 2"><g id="dd4f21b9-183f-49c3-b6db-4c4838681851" data-name="Layer 1"><path class="e2fb76ad-65d4-46bb-8747-8938eb93a975" d="M11,.65a3.68,3.68,0,1,0,3.68,3.68A3.68,3.68,0,0,0,11,.65"/><path class="e2fb76ad-65d4-46bb-8747-8938eb93a975" d="M7.59,2.86H2.75A1.47,1.47,0,0,0,1.28,4.22l-.62,8"/><path class="e2fb76ad-65d4-46bb-8747-8938eb93a975" d="M13.91,12.26,13.5,7"/><path class="e2fb76ad-65d4-46bb-8747-8938eb93a975" d="M11.7,10.23H2.86A2.21,2.21,0,0,0,.65,12.44h0a2.21,2.21,0,0,0,2.21,2.21H11.7a2.21,2.21,0,0,0,2.21-2.21h0A2.21,2.21,0,0,0,11.7,10.23Z"/><path class="e2fb76ad-65d4-46bb-8747-8938eb93a975" d="M11.7,12.44H6.54"/><path class="e2fb76ad-65d4-46bb-8747-8938eb93a975" d="M2.89,12.41a0,0,0,1,1-.05,0,0,0,0,0,1,.05,0"/><line class="e2fb76ad-65d4-46bb-8747-8938eb93a975" x1="10.97" y1="5.87" x2="10.97" y2="6.18"/><line class="e2fb76ad-65d4-46bb-8747-8938eb93a975" x1="10.97" y1="2.8" x2="10.97" y2="2.49"/><line class="e2fb76ad-65d4-46bb-8747-8938eb93a975" x1="9.37" y1="5.26" x2="9.64" y2="5.1"/><line class="e2fb76ad-65d4-46bb-8747-8938eb93a975" x1="12.56" y1="3.41" x2="12.29" y2="3.57"/><line class="e2fb76ad-65d4-46bb-8747-8938eb93a975" x1="9.64" y1="3.57" x2="9.37" y2="3.41"/><line class="e2fb76ad-65d4-46bb-8747-8938eb93a975" x1="12.56" y1="5.26" x2="12.29" y2="5.1"/></g></g></svg>