<svg xmlns="http://www.w3.org/2000/svg" width="19.54" height="19.54" viewBox="0 0 19.54 19.54"><title>ic_table_call</title><g id="ced6a579-2f7d-48fa-bd43-45446beb5951" data-name="Layer 2"><g id="3821b3d0-a108-4065-9312-4476c8435be4" data-name="Layer 1"><path d="M16.71,14.4l-1.17-1.17a1.5,1.5,0,0,0-2.12,0l-.92.92a.71.71,0,0,1-.78.16,12.63,12.63,0,0,1-3.83-2.65A12.64,12.64,0,0,1,5.24,7.84.73.73,0,0,1,5.4,7l.83-.83A1.53,1.53,0,0,0,6.31,4L5.14,2.82a2,2,0,0,0-2.83,0l-.65.65A3.19,3.19,0,0,0,.81,6.34a15.71,15.71,0,0,0,4.46,7.92,15.71,15.71,0,0,0,7.92,4.46,3.19,3.19,0,0,0,2.87-.85l.65-.65A2,2,0,0,0,16.71,14.4Z" style="fill:none;stroke:#323232;stroke-linecap:round;stroke-linejoin:round;stroke-width:1.5px"/><path d="M10.75,4.78A3.94,3.94,0,0,1,13.6,5.93" style="fill:none;stroke:#323232;stroke-linecap:round;stroke-linejoin:round;stroke-width:1.5px"/><path d="M16.43,3.1A8,8,0,0,0,10.75.75" style="fill:none;stroke:#323232;stroke-linecap:round;stroke-linejoin:round;stroke-width:1.5px"/><path d="M14.76,8.79A3.94,3.94,0,0,0,13.6,5.93" style="fill:none;stroke:#323232;stroke-linecap:round;stroke-linejoin:round;stroke-width:1.5px"/><path d="M16.43,3.1a8,8,0,0,1,2.35,5.68" style="fill:none;stroke:#323232;stroke-linecap:round;stroke-linejoin:round;stroke-width:1.5px"/></g></g></svg>