<svg xmlns="http://www.w3.org/2000/svg" width="13.66" height="15.74" viewBox="0 0 13.66 15.74"><defs><style>.cls-1,.cls-2{fill:#565656;}.cls-1{stroke:#565656;stroke-miterlimit:10;stroke-width:0.5px;}</style></defs><title>ic_under_attack_2</title><g id="Layer_2" data-name="Layer 2"><g id="Layer_1-2" data-name="Layer 1"><path class="cls-1" d="M6.83,15.49A6.59,6.59,0,0,1,.25,8.91V4.3a.52.52,0,0,1,.26-.45L6.57.32a.52.52,0,0,1,.52,0l6.06,3.53a.52.52,0,0,1,.26.45V8.91A6.59,6.59,0,0,1,6.83,15.49ZM1.29,4.6V8.91a5.54,5.54,0,1,0,11.08,0V4.6L6.83,1.37Z"/><path class="cls-2" d="M8.6,6.76,5.82,9.53h1L5.15,7.87a.7.7,0,0,0-1,1l1.66,1.66a.71.71,0,0,0,1,0L9.59,7.75a.7.7,0,0,0-1-1Z"/></g></g></svg>