<svg xmlns="http://www.w3.org/2000/svg" width="71.71" height="69.27" viewBox="0 0 71.71 69.27"><title>ico_browser</title><g id="cf7b657b-df1f-43de-a5d1-3692f734efaa" data-name="Layer 2"><g id="2e9f7373-5717-48e7-b081-6e8cf1f08b94" data-name="Layer 1"><path d="M24.07,67.62V31a5.68,5.68,0,0,1,5.68-5.68H70.06a1.65,1.65,0,0,0,0-3.3H29.75a9,9,0,0,0-9,9V67.62a1.65,1.65,0,1,0,3.3,0Z" style="fill:#323232"/><path d="M22.42,43.61H70.06a1.65,1.65,0,0,0,0-3.3H22.42a1.65,1.65,0,1,0,0,3.3" style="fill:#323232"/><path d="M32,31.35l0,0a2,2,0,0,0,0,2.83l0,0a2,2,0,0,0,2.87,0l0,0a2,2,0,0,0,0-2.75l0,0A2,2,0,1,0,32,34.14l0,0,1.45-1.38L32,31.41l0,0,1.45,1.38,1.41-1.41,0,0-1.41,1.41,1.41,1.41,0,0A2,2,0,1,0,32,31.35Z" style="fill:#323232"/><path d="M41.34,31.35l0,0a2,2,0,0,0,0,2.83l0,0a2,2,0,0,0,2.83,0l0,0a2,2,0,0,0,0-2.83l0,0a2,2,0,1,0-2.83,2.83l0,0,1.41-1.41-1.41-1.41,0,0,1.41,1.41,1.41-1.41,0,0-1.41,1.41,1.41,1.41,0,0a2,2,0,1,0-2.83-2.83Z" style="fill:#323232"/><path d="M50.61,31.39l0,0a2,2,0,0,0,0,2.75l0,0a2,2,0,0,0,2.87,0l0,0a2,2,0,0,0,0-2.83l0,0a2,2,0,1,0-2.83,2.83l0,0,1.41-1.41-1.41-1.41,0,0,1.41,1.41,1.45-1.38,0,0L52,32.78l1.45,1.38,0,0a2,2,0,1,0-2.9-2.75Z" style="fill:#323232"/><path d="M51.74,67.62V66H20A16.68,16.68,0,0,1,3.3,49.29V20A16.68,16.68,0,0,1,20,3.3H51.74A16.68,16.68,0,0,1,68.41,20V49.29A16.68,16.68,0,0,1,51.74,66v3.3a20,20,0,0,0,20-20V20a20,20,0,0,0-20-20H20A20,20,0,0,0,0,20V49.29a20,20,0,0,0,20,20H51.74Z" style="fill:#323232"/></g></g></svg>