<svg xmlns="http://www.w3.org/2000/svg" xmlns:xlink="http://www.w3.org/1999/xlink" width="18.43" height="13.42" viewBox="0 0 18.43 13.42"><defs><style>.a8d21acb-9623-4f27-9058-b38d856e1b5f{opacity:0.84;}.b4642072-2496-4b7a-b8f8-70eb4645c5e5{fill:url(#7dc4086e-bfaa-4f8e-9b59-1399a1433d59);}.a4989997-2034-4ed5-bc6c-4ec302cb92e9{fill:none;stroke:#fff;stroke-linecap:round;stroke-linejoin:round;stroke-width:1.1px;}</style><linearGradient id="7dc4086e-bfaa-4f8e-9b59-1399a1433d59" y1="6.71" x2="18.43" y2="6.71" gradientUnits="userSpaceOnUse"><stop offset="0" stop-color="#e50058"/><stop offset="0.6" stop-color="#ed4152"/><stop offset="1" stop-color="#f2684e"/></linearGradient></defs><title>ico_active_inactive.svg</title><g id="bad562c6-aa67-4f72-a17e-4cf549adee3d" data-name="Layer 2"><g id="360aeb54-48d3-4301-a621-fdb241b5bc78" data-name="Layer 1"><g id="ceef7cc1-a650-4677-9025-0c8fe36ef744" data-name="94765fb2-b444-4e20-b924-15be05612567" class="a8d21acb-9623-4f27-9058-b38d856e1b5f"><g id="b7594328-97bb-4823-889d-ec727831f774" data-name="532ea12f-b5a7-473c-8419-4a46067ff142"><path class="b4642072-2496-4b7a-b8f8-70eb4645c5e5" d="M14.92,5.18A5.83,5.83,0,0,0,3.75,3.57a5,5,0,0,0,1.11,9.84h9.35a4.14,4.14,0,0,0,.71-8.23Z"/></g></g><path class="a4989997-2034-4ed5-bc6c-4ec302cb92e9" d="M8.86,11.51a4.85,4.85,0,0,1-1.55-.27"/><path class="a4989997-2034-4ed5-bc6c-4ec302cb92e9" d="M14.37,8C13.2,9.87,11,11.51,8.86,11.51"/><path class="a4989997-2034-4ed5-bc6c-4ec302cb92e9" d="M13.26,6a8.28,8.28,0,0,1,1.12,1.42.48.48,0,0,1,0,.51"/><path class="a4989997-2034-4ed5-bc6c-4ec302cb92e9" d="M4.52,11.51l8.69-7.6"/><path class="a4989997-2034-4ed5-bc6c-4ec302cb92e9" d="M7.48,8.92a1.56,1.56,0,0,1,0-2.42,2.16,2.16,0,0,1,2.76,0"/><path class="a4989997-2034-4ed5-bc6c-4ec302cb92e9" d="M12,5A5.67,5.67,0,0,0,8.86,3.91c-2.17,0-4.34,1.65-5.51,3.55a.48.48,0,0,0,0,.51,8.37,8.37,0,0,0,2.38,2.48"/></g></g></svg>