<svg xmlns="http://www.w3.org/2000/svg" width="14.14" height="14.19" viewBox="0 0 14.14 14.19"><defs><style>.\36 88fb095-e61d-4e70-8bae-20c0b456bc34{fill:none;stroke:#565656;stroke-linecap:round;stroke-linejoin:round;stroke-width:1.5px;}</style></defs><title>ico_save</title><g id="9a894e07-54b1-4c9d-a44e-e0f71067716d" data-name="Layer 2"><g id="aea05575-cfc1-4a2a-af8c-a3992605dbfe" data-name="Layer 1"><path class="688fb095-e61d-4e70-8bae-20c0b456bc34" d="M12,13.44H2.24A1.41,1.41,0,0,1,.83,12L.76,2.19h0A1.41,1.41,0,0,1,2.14.76H10a1.39,1.39,0,0,1,1,.41l2,2h0a1.41,1.41,0,0,1,.41,1V12h0A1.41,1.41,0,0,1,12,13.39h0Z"/><path class="688fb095-e61d-4e70-8bae-20c0b456bc34" d="M9.91.77V3.59h0a.72.72,0,0,1-.7.7H5a.71.71,0,0,1-.7-.7V.77"/><path class="688fb095-e61d-4e70-8bae-20c0b456bc34" d="M7.1,7.11A1.76,1.76,0,1,0,8.86,8.87,1.76,1.76,0,0,0,7.1,7.11Z"/></g></g></svg>