<svg xmlns="http://www.w3.org/2000/svg" width="10.41" height="10.41" viewBox="0 0 10.41 10.41"><title>ico_wrong</title><g id="8827b4e6-f235-44f3-a1b0-153947a26667" data-name="Layer 2"><g id="231af7f4-f7d8-4def-8c1f-b64b7c4a1c1f" data-name="Layer 1"><path d="M6.92,5.21,10.14,2a.91.91,0,0,0,0-1.29L9.71.27a.91.91,0,0,0-1.29,0L5.21,3.49,2,.27A.91.91,0,0,0,.7.27L.27.7A.91.91,0,0,0,.27,2L3.49,5.21.27,8.43a.91.91,0,0,0,0,1.29l.43.43a.91.91,0,0,0,1.29,0L5.21,6.92l3.22,3.22a.91.91,0,0,0,1.29,0l.43-.43a.91.91,0,0,0,0-1.29Z" style="fill:#fff"/></g></g></svg>