<svg xmlns="http://www.w3.org/2000/svg" width="12.26" height="15.34" viewBox="0 0 12.26 15.34"><title>ico_add_rule</title><g id="7f3ce2cf-f3af-43fe-a9a6-1b0193819dbc" data-name="Layer 2"><g id="b58e2e52-379d-4882-a1a6-8cc5e7a3e2d5" data-name="Layer 1"><path d="M11.51,4.59H8.44a.77.77,0,0,1-.77-.77h0V.75" style="fill:none;stroke:#565656;stroke-linecap:round;stroke-linejoin:round;stroke-width:1.5px"/><path d="M.75,12.28v.77h0a1.54,1.54,0,0,0,1.54,1.54H10a1.54,1.54,0,0,0,1.54-1.54V4.46h0a1.54,1.54,0,0,0-.45-1.09L8.89,1.2h0A1.54,1.54,0,0,0,7.8.75H2.29A1.54,1.54,0,0,0,.75,2.29V12.59" style="fill:none;stroke:#565656;stroke-linecap:round;stroke-linejoin:round;stroke-width:1.5px"/><path d="M5.86,6v5" style="fill:none;stroke:#565656;stroke-linecap:round;stroke-linejoin:round;stroke-width:1.5px"/><path d="M8.2,8.32H3.53" style="fill:none;stroke:#565656;stroke-linecap:round;stroke-linejoin:round;stroke-width:1.5px"/></g></g></svg>