<svg xmlns="http://www.w3.org/2000/svg" width="15.25" height="15.85" viewBox="0 0 15.25 15.85"><title>ico_manage</title><g id="c930542b-822a-4453-b3ae-6b81349ec07c" data-name="Layer 2"><g id="843a1591-3c02-423d-a165-fefc1822a2c5" data-name="Layer 1"><path d="M9.15,6.4a2.15,2.15,0,1,1-3,0,2.15,2.15,0,0,1,3,0" style="fill:none;stroke:#565656;stroke-linecap:round;stroke-linejoin:round;stroke-width:1.5px"/><path d="M2.24,7.93a5.69,5.69,0,0,0,.05.7L1,9.62a.71.71,0,0,0-.18.92L2,12.49a.72.72,0,0,0,.89.31L4,12.34a.73.73,0,0,1,.67.08,5.65,5.65,0,0,0,.55.32.73.73,0,0,1,.41.54l.17,1.21a.72.72,0,0,0,.71.61H8.75a.72.72,0,0,0,.71-.61l.17-1.21a.73.73,0,0,1,.41-.54,5.22,5.22,0,0,0,.54-.32.73.73,0,0,1,.68-.08l1.13.45a.72.72,0,0,0,.89-.31l1.13-1.95a.72.72,0,0,0-.18-.92L13,8.63a5.69,5.69,0,0,0,.05-.7,5.69,5.69,0,0,0-.05-.7l1.27-1a.71.71,0,0,0,.18-.92L13.27,3.36a.72.72,0,0,0-.89-.31l-1.13.45a.73.73,0,0,1-.68-.08A5.22,5.22,0,0,0,10,3.11a.73.73,0,0,1-.41-.54L9.46,1.36A.72.72,0,0,0,8.75.75H6.5a.72.72,0,0,0-.71.61L5.62,2.57a.74.74,0,0,1-.41.54,5.65,5.65,0,0,0-.55.32A.73.73,0,0,1,4,3.51L2.86,3.06A.72.72,0,0,0,2,3.36L.85,5.31A.72.72,0,0,0,1,6.23l1.27,1A5.69,5.69,0,0,0,2.24,7.93Z" style="fill:none;stroke:#565656;stroke-linecap:round;stroke-linejoin:round;stroke-width:1.5px"/></g></g></svg>