<svg xmlns="http://www.w3.org/2000/svg" width="14.5" height="14.5" viewBox="0 0 14.5 14.5"><defs><style>.\35 cd1da0c-6c3e-4808-81ed-847d954d506a{fill:none;stroke:#565656;stroke-linecap:round;stroke-linejoin:round;stroke-width:1.5px;}</style></defs><title>ico_resource_change</title><g id="e4a3e1f5-85f1-4af2-b0fd-64e9e5eaf604" data-name="Layer 2"><g id="c0f407d2-7432-4693-b5b5-7d3f65c53bef" data-name="Layer 1"><path class="5cd1da0c-6c3e-4808-81ed-847d954d506a" d="M.75,2.56H3"/><path id="2a224887-8d4b-46ae-9de4-ca8db927cd84" data-name="a" class="5cd1da0c-6c3e-4808-81ed-847d954d506a" d="M6,1.28a1.81,1.81,0,1,1-2.55,0A1.81,1.81,0,0,1,6,1.28"/><path class="5cd1da0c-6c3e-4808-81ed-847d954d506a" d="M6.57,2.56h7.18"/><path id="0aae237b-bb46-4272-a32f-61a4f4309119" data-name="a" class="5cd1da0c-6c3e-4808-81ed-847d954d506a" d="M6,1.28a1.81,1.81,0,1,1-2.55,0A1.81,1.81,0,0,1,6,1.28"/><path class="5cd1da0c-6c3e-4808-81ed-847d954d506a" d="M13.75,7.25H11.54"/><path class="5cd1da0c-6c3e-4808-81ed-847d954d506a" d="M7.93,7.25H.75"/><path class="5cd1da0c-6c3e-4808-81ed-847d954d506a" d="M11,6A1.81,1.81,0,1,1,8.46,6,1.81,1.81,0,0,1,11,6"/><path class="5cd1da0c-6c3e-4808-81ed-847d954d506a" d="M6.57,11.94h7.18"/><path class="5cd1da0c-6c3e-4808-81ed-847d954d506a" d="M.75,11.94H3"/><path class="5cd1da0c-6c3e-4808-81ed-847d954d506a" d="M6,10.67a1.81,1.81,0,1,1-2.55,0,1.81,1.81,0,0,1,2.55,0"/></g></g></svg>