<svg xmlns="http://www.w3.org/2000/svg" xmlns:xlink="http://www.w3.org/1999/xlink" width="13.56" height="14.23" viewBox="0 0 13.56 14.23"><defs><style>.e7829c76-8786-4ab7-8ad2-be2571a0f90c{opacity:0.77;}.\35 c50a114-2c16-415d-90fc-ee5883c65c4d{fill:url(#a36f5711-88f1-425e-bcbb-57e74c8f4eb2);}.\31 7615f2d-17d0-4bc7-90fd-98ebe9865730{fill:url(#d5126f46-752c-4243-9ed5-f353a0649566);}</style><linearGradient id="a36f5711-88f1-425e-bcbb-57e74c8f4eb2" x1="6.1" y1="4.07" x2="7.46" y2="4.07" gradientUnits="userSpaceOnUse"><stop offset="0" stop-color="#e50058"/><stop offset="0.6" stop-color="#ed4152"/><stop offset="1" stop-color="#f2684e"/></linearGradient><linearGradient id="d5126f46-752c-4243-9ed5-f353a0649566" x1="0" y1="7.79" x2="13.56" y2="7.79" xlink:href="#a36f5711-88f1-425e-bcbb-57e74c8f4eb2"/></defs><title>server_off</title><g id="9b7469ff-f254-43dd-a34f-9faebd49f0ec" data-name="Layer 2"><g id="75a846d1-2fa9-4569-9925-fe74008072c1" data-name="Layer 1"><g class="e7829c76-8786-4ab7-8ad2-be2571a0f90c"><path class="5c50a114-2c16-415d-90fc-ee5883c65c4d" d="M6.78,8.14a.68.68,0,0,0,.68-.68V.68A.68.68,0,1,0,6.1.68V7.46a.68.68,0,0,0,.68.68Z"/><path class="17615f2d-17d0-4bc7-90fd-98ebe9865730" d="M9.89,1.43a.68.68,0,1,0-.62,1.21,5.42,5.42,0,1,1-5,0,.68.68,0,1,0-.62-1.21,6.78,6.78,0,1,0,6.22,0Z"/></g></g></g></svg>