<?xml version="1.0" encoding="utf-8"?>
<!-- Generator: Adobe Illustrator 25.2.3, SVG Export Plug-In . SVG Version: 6.00 Build 0)  -->
<svg version="1.1" id="Layer_1" xmlns="http://www.w3.org/2000/svg" xmlns:xlink="http://www.w3.org/1999/xlink" x="0px" y="0px"
	 viewBox="0 0 21.8 22.9" style="enable-background:new 0 0 21.8 22.9;" xml:space="preserve">
<style type="text/css">
	.st0{fill:#FFFFFF;stroke:#000000;stroke-miterlimit:10;}
</style>
<g id="f22f57ad-1ed4-4b18-b285-894b48e8d5c2">
	<g id="_x36_88c565a-bcc4-4492-b016-62f6cd3d4847">
		<path class="st0" d="M2.8,11.4V7.2c0-1.3,0.8-2.5,2.1-3l9-3.4c1.1-0.4,2.4,0.1,2.8,1.3c0.1,0.2,0.1,0.5,0.1,0.7v3.6"/>
		<path class="st0" d="M17.1,13.7c-0.1,0-0.3,0.1-0.3,0.3c0,0.1,0.1,0.3,0.3,0.3s0.3-0.1,0.3-0.3S17.2,13.7,17.1,13.7L17.1,13.7"/>
		<path class="st0" d="M10,21.1h7.9c1.8,0,3.2-1.4,3.2-3.2V9.7c0-1.8-1.4-3.2-3.2-3.2c0,0,0,0,0,0H5c-1.2,0-2.2,1-2.2,2.2l0,0v3.1"
			/>
		<path class="st0" d="M6.6,22.2c-3.3,0-5.9-2.6-5.9-5.9s2.6-5.9,5.9-5.9s5.9,2.6,5.9,5.9S9.9,22.2,6.6,22.2
			C6.6,22.2,6.6,22.2,6.6,22.2"/>
		<path class="st0" d="M6.6,13.9v4.7"/>
		<path class="st0" d="M9,16.3H4.2"/>
	</g>
</g>
</svg>
