<svg xmlns="http://www.w3.org/2000/svg" width="21.82" height="21.82" viewBox="0 0 21.82 21.82"><title>ico_support_circle_button</title><g id="4ab65959-7032-42d0-8b48-3ae118af706f" data-name="Layer 2"><g id="3f764f0d-030d-4215-a448-fe6781ed29cf" data-name="Layer 1"><path d="M21.12,10.91A10.21,10.21,0,0,1,10.91,21.12h0" style="fill:none;stroke:#fff;stroke-linecap:round;stroke-linejoin:round;stroke-width:1.39999997615814px"/><path d="M.7,10.91A10.21,10.21,0,0,1,10.91.7" style="fill:none;stroke:#fff;stroke-linecap:round;stroke-linejoin:round;stroke-width:1.39999997615814px"/><path d="M.7,10.91a10.09,10.09,0,0,0,.63,3.5,1.15,1.15,0,0,0,1.27.74L3.72,15A1.7,1.7,0,0,0,5.11,13l-.34-2.36A1.7,1.7,0,0,0,2.85,9.24H2.79l-2,.35" style="fill:none;stroke:#fff;stroke-linecap:round;stroke-linejoin:round;stroke-width:1.39999997615814px"/><path d="M21.12,10.91A10.21,10.21,0,0,0,10.91.7" style="fill:none;stroke:#fff;stroke-linecap:round;stroke-linejoin:round;stroke-width:1.39999997615814px"/><path d="M21.12,10.91a10.09,10.09,0,0,1-.63,3.5,1.15,1.15,0,0,1-1.27.74L18.1,15A1.7,1.7,0,0,1,16.71,13l.34-2.36A1.7,1.7,0,0,1,19,9.24H19l2,.35" style="fill:none;stroke:#fff;stroke-linecap:round;stroke-linejoin:round;stroke-width:1.39999997615814px"/><path d="M12.6,11.47h0" style="fill:none;stroke:#fff;stroke-linecap:round;stroke-linejoin:round;stroke-width:1.39999997615814px"/><path d="M9.22,11.47h0" style="fill:none;stroke:#fff;stroke-linecap:round;stroke-linejoin:round;stroke-width:1.39999997615814px"/></g></g></svg>