<?xml version="1.0" encoding="utf-8"?>
<!-- Generator: Adobe Illustrator 25.2.3, SVG Export Plug-In . SVG Version: 6.00 Build 0)  -->
<svg version="1.1" id="Layer_1" xmlns="http://www.w3.org/2000/svg" xmlns:xlink="http://www.w3.org/1999/xlink" x="0px" y="0px"
	 viewBox="0 0 21.8 21.8" style="enable-background:new 0 0 21.8 21.8;" xml:space="preserve">
<style type="text/css">
	.st0{fill:#FFFFFF;stroke:#000000;stroke-miterlimit:10;}
</style>
<g id="_x34_ab65959-7032-42d0-8b48-3ae118af706f">
	<g id="_x33_f764f0d-030d-4215-a448-fe6781ed29cf">
		<path class="st0" d="M21.1,10.9c0,5.6-4.6,10.2-10.2,10.2c0,0,0,0,0,0l0,0"/>
		<path class="st0" d="M0.7,10.9c0-5.6,4.6-10.2,10.2-10.2"/>
		<path class="st0" d="M0.7,10.9c0,1.2,0.2,2.4,0.6,3.5c0.2,0.5,0.7,0.8,1.3,0.7L3.7,15c0.9-0.2,1.6-1,1.4-2c0,0,0,0,0,0l-0.3-2.4
			c-0.2-0.9-1-1.5-1.9-1.4H2.8l-2,0.4"/>
		<path class="st0" d="M21.1,10.9c0-5.6-4.6-10.2-10.2-10.2c0,0,0,0,0,0"/>
		<path class="st0" d="M21.1,10.9c0,1.2-0.2,2.4-0.6,3.5c-0.2,0.5-0.7,0.8-1.3,0.7L18.1,15c-0.9-0.2-1.6-1-1.4-2c0,0,0,0,0,0
			l0.3-2.4c0.2-0.9,1-1.6,2-1.4l0,0l2,0.4"/>
		<path class="st0" d="M12.6,11.5L12.6,11.5"/>
		<path class="st0" d="M9.2,11.5L9.2,11.5"/>
	</g>
</g>
</svg>
