<?xml version="1.0" encoding="utf-8"?>
<!-- Generator: Adobe Illustrator 25.2.3, SVG Export Plug-In . SVG Version: 6.00 Build 0)  -->
<svg version="1.1" id="Layer_1" xmlns="http://www.w3.org/2000/svg" xmlns:xlink="http://www.w3.org/1999/xlink" x="0px" y="0px"
	 viewBox="0 0 17.5 19.5" style="enable-background:new 0 0 17.5 19.5;" xml:space="preserve">
<style type="text/css">
	.st0{fill:#FFFFFF;stroke:#000000;stroke-miterlimit:10;}
</style>
<g id="_x33_cc2bb6a-8546-48ca-8b93-ef4a2c7c9d3c">
	<g id="b192f6a6-7dca-466a-8331-ae9e3b9f6dba">
		<path class="st0" d="M10.8,17.8c-0.8,1.1-2.4,1.3-3.5,0.5c-0.2-0.1-0.4-0.3-0.5-0.5"/>
		<path class="st0" d="M2.8,10.2V6.8c0-3.3,2.7-6,6-6l0,0c3.3,0,6,2.7,6,6v3.5l0,0l1.4,1.4c0.8,0.8,0.8,2.2,0,3
			c-0.4,0.4-0.9,0.6-1.5,0.6H2.9c-1.2,0-2.1-1-2.1-2.1c0-0.6,0.2-1.1,0.6-1.5L2.8,10.2"/>
	</g>
</g>
</svg>
