<?xml version="1.0" encoding="utf-8"?>
<!-- Generator: Adobe Illustrator 21.0.0, SVG Export Plug-In . SVG Version: 6.00 Build 0)  -->
<svg version="1.1" id="Layer_1" xmlns="http://www.w3.org/2000/svg" xmlns:xlink="http://www.w3.org/1999/xlink" x="0px" y="0px"
     viewBox="0 0 19 19" style="enable-background:new 0 0 19 19;" xml:space="preserve">
<style type="text/css">
    .st0{fill:#FFFFFF;}
</style>
<title>cloud_overview_snapshot</title>
<g id="_x36_4cdea9b-4679-4bb2-87e8-8652507f28b0">
    <g id="_x32_d1fdc5b-5e1b-4d92-8a56-9e2f1638d2bc">
        <path class="st0" d="M18,15.3l-0.5-6.4c2-2.2,1.8-5.5-0.4-7.5s-5.5-1.8-7.5,0.4C9.4,2.1,9.2,2.4,9,2.8H3.3c-1.3,0-2.4,1-2.5,2.3
            L0,15.3l0,0c0,0.1,0,0.2,0,0.3C0,17.4,1.5,19,3.4,19c0,0,0,0,0,0h11.2c1.9,0,3.4-1.6,3.4-3.5C18,15.4,18,15.4,18,15.3L18,15.3z
            M10.9,2.5c0.8-0.7,1.8-1.2,2.8-1.2l0,0c2.2,0,4,1.8,4,4s-1.8,4-4,4c-2.2,0-4-1.8-4-4C9.7,4.2,10.1,3.2,10.9,2.5z M2.1,5.2
            c0-0.6,0.6-1.1,1.2-1.1h5.2c-0.7,2.8,1.1,5.7,3.9,6.4c1.3,0.3,2.7,0.1,3.9-0.6l0.2,2.8c-0.6-0.4-1.2-0.6-1.9-0.6H3.4
            c-0.7,0-1.4,0.2-1.9,0.6L2.1,5.2z M14.6,17.7H3.4c-1.2,0-2.1-1-2.1-2.1s1-2.1,2.1-2.1h11.2c1.2,0,2.1,1,2.1,2.1
            S15.8,17.7,14.6,17.7z"/>
        <rect x="8.1" y="14.9" class="st0" width="6.5" height="1.3"/>
        <polygon class="st0" points="3.5,15.5 3.5,14.9 3.5,14.8 3.4,14.8 2.8,14.8 2.8,15.6 2.8,16.2 3.5,16.2 4.1,16.2 4.1,15.5
            4.1,15.5 		"/>
        <rect x="13" y="7.2" class="st0" width="1.3" height="0.4"/>
        <rect x="13" y="3" class="st0" width="1.3" height="0.4"/>
        <rect x="11.6" y="5.7" transform="matrix(0.8637 -0.5039 0.5039 0.8637 -1.5968 6.8303)" class="st0" width="0.4" height="1.3"/>
        <rect x="15.3" y="3.6" transform="matrix(0.8637 -0.5039 0.5039 0.8637 -2.427511e-02 8.398)" class="st0" width="0.4" height="1.3"/>
        <rect x="11.2" y="4" transform="matrix(0.5038 -0.8638 0.8638 0.5038 2.203 12.3236)" class="st0" width="1.3" height="0.4"/>
        <rect x="14.9" y="6.2" transform="matrix(0.5038 -0.8638 0.8638 0.5038 2.1974 16.5649)" class="st0" width="1.3" height="0.4"/>
    </g>
</g>
</svg>
