<svg xmlns="http://www.w3.org/2000/svg" width="16.76" height="15.04" viewBox="0 0 16.76 15.04"><defs><style>.\37 585d051-a7f8-4fe4-a2f9-acef16047387{fill:none;stroke:#70b5ef;stroke-linecap:round;stroke-linejoin:round;stroke-width:1.3px;}</style></defs><title>cloud_overview_disk</title><g id="709b2c46-6e47-41f5-9b7b-8207855fbefd" data-name="Layer 2"><g id="ae7091f2-df22-4394-9bde-7f7d49610e8d" data-name="Layer 1"><path class="7585d051-a7f8-4fe4-a2f9-acef16047387" d="M13.53,9.24H3.23A2.58,2.58,0,0,0,.65,11.81h0a2.58,2.58,0,0,0,2.58,2.58h10.3a2.58,2.58,0,0,0,2.58-2.58h0A2.58,2.58,0,0,0,13.53,9.24Z"/><path class="7585d051-a7f8-4fe4-a2f9-acef16047387" d="M13.53,11.81h-6"/><path class="7585d051-a7f8-4fe4-a2f9-acef16047387" d="M3.26,11.78a0,0,0,1,1-.06,0,0,0,0,0,1,.06,0"/><path class="7585d051-a7f8-4fe4-a2f9-acef16047387" d="M16.1,11.6l-.73-9.37A1.72,1.72,0,0,0,13.66.65H3.1A1.72,1.72,0,0,0,1.39,2.23L.66,11.6"/></g></g></svg>